<svg xmlns="http://www.w3.org/2000/svg" xmlns:xlink="http://www.w3.org/1999/xlink" width="108" height="108" viewBox="0 0 108 108">
  <defs>
    <filter id="Fondo" x="0" y="0" width="108" height="108" filterUnits="userSpaceOnUse">
      <feOffset dy="3" input="SourceAlpha"/>
      <feGaussianBlur stdDeviation="3" result="blur"/>
      <feFlood flood-opacity="0.161"/>
      <feComposite operator="in" in2="blur"/>
      <feComposite in="SourceGraphic"/>
    </filter>
  </defs>
  <g id="Group_1144138" data-name="Group 1144138" transform="translate(-1165.999 -2196)">
    <g transform="matrix(1, 0, 0, 1, 1166, 2196)" filter="url(#Fondo)">
      <g id="Fondo-2" data-name="Fondo" transform="translate(9 6)" fill="#e4fef4">
        <path d="M 45 88.5 C 39.12687683105469 88.5 33.43022537231445 87.35007476806641 28.06830024719238 85.08217620849609 C 22.88852500915527 82.89131164550781 18.23629951477051 79.75458526611328 14.2408504486084 75.75914764404297 C 10.24541282653809 71.76370239257812 7.108687400817871 67.11147308349609 4.917825222015381 61.93170166015625 C 2.649924993515015 56.56977462768555 1.5 50.87312316894531 1.5 45 C 1.5 39.12687683105469 2.649924993515015 33.43022537231445 4.917825222015381 28.06830024719238 C 7.108687400817871 22.88852500915527 10.24541282653809 18.23629951477051 14.2408504486084 14.2408504486084 C 18.23629951477051 10.24541282653809 22.88852500915527 7.108687400817871 28.06830024719238 4.917825222015381 C 33.43022537231445 2.649924993515015 39.12687683105469 1.5 45 1.5 C 50.87312316894531 1.5 56.56977462768555 2.649924993515015 61.93170166015625 4.917825222015381 C 67.11147308349609 7.108687400817871 71.76370239257812 10.24541282653809 75.75914764404297 14.2408504486084 C 79.75458526611328 18.23629951477051 82.89131164550781 22.88852500915527 85.08217620849609 28.06830024719238 C 87.35007476806641 33.43022537231445 88.5 39.12687683105469 88.5 45 C 88.5 50.87312316894531 87.35007476806641 56.56977462768555 85.08217620849609 61.93170166015625 C 82.89131164550781 67.11147308349609 79.75458526611328 71.76370239257812 75.75914764404297 75.75914764404297 C 71.76370239257812 79.75458526611328 67.11147308349609 82.89131164550781 61.93170166015625 85.08217620849609 C 56.56977462768555 87.35007476806641 50.87312316894531 88.5 45 88.5 Z" stroke="none"/>
        <path d="M 45 3 C 39.32871246337891 3 33.82865524291992 4.110054016113281 28.65262985229492 6.299339294433594 C 23.65165710449219 8.414573669433594 19.15968322753906 11.44334411621094 15.301513671875 15.301513671875 C 11.44334411621094 19.15968322753906 8.414573669433594 23.65165710449219 6.299339294433594 28.65262985229492 C 4.110054016113281 33.82865524291992 3 39.32871246337891 3 45 C 3 50.67128753662109 4.110054016113281 56.17134475708008 6.299339294433594 61.34737396240234 C 8.414573669433594 66.34834289550781 11.44334411621094 70.84031677246094 15.301513671875 74.698486328125 C 19.15968322753906 78.55665588378906 23.65165710449219 81.58542633056641 28.65262985229492 83.70066070556641 C 33.82865524291992 85.88994598388672 39.32871246337891 87 45 87 C 50.67128753662109 87 56.17134475708008 85.88994598388672 61.34737396240234 83.70066070556641 C 66.34834289550781 81.58542633056641 70.84031677246094 78.55665588378906 74.698486328125 74.698486328125 C 78.55665588378906 70.84031677246094 81.58542633056641 66.34834289550781 83.70066070556641 61.34737396240234 C 85.88994598388672 56.17134475708008 87 50.67128753662109 87 45 C 87 39.32871246337891 85.88994598388672 33.82865524291992 83.70066070556641 28.65262985229492 C 81.58542633056641 23.65165710449219 78.55665588378906 19.15968322753906 74.698486328125 15.301513671875 C 70.84031677246094 11.44334411621094 66.34834289550781 8.414573669433594 61.34737396240234 6.299339294433594 C 56.17134475708008 4.110054016113281 50.67128753662109 3 45 3 M 45 0 C 69.85281372070312 0 90 20.14718627929688 90 45 C 90 69.85281372070312 69.85281372070312 90 45 90 C 20.14718627929688 90 0 69.85281372070312 0 45 C 0 20.14718627929688 20.14718627929688 0 45 0 Z" stroke="none" fill="#43896d"/>
      </g>
    </g>
    <g id="Group_1143864" data-name="Group 1143864" transform="translate(1180.842 2200.823)">
      <path id="Path_979183" data-name="Path 979183" d="M160.013,146.658c-.667.23-1.112.9-1.213,2.168-.013.19,0,3.252.027,3.75H143.658c.19-6.113-.249-10-.934-11.839-2.162-4.9-6.362-9.681-5.078-16.217a14.608,14.608,0,0,1,5.483-8.825c6.35-4.849,19.356-4.045,24.369,2.229,1.023,1.525-.174,1.861-.316,3.149-.107.972,1.123,4.486,1.392,6.039.359,2.074-1.163,2.062-1.124,3.573.019.764.524,2.025,2.047,4.355.433.671.778,1.078.684,1.793-.162,1.241-1.983.64-2.573,1.843a1.542,1.542,0,0,0-.02,1.069c.314.705.256,1.048.134,1.282a1.687,1.687,0,0,1-.926.651,2.413,2.413,0,0,1,.849.911,1.634,1.634,0,0,1-.172,1.158,2.238,2.238,0,0,0-.016,1.042,2.416,2.416,0,0,1-.482,2.284c-.555.456-1.5.451-2.755.342q-2.237-.3-4.208-.758Z" transform="translate(-114.386 -85.962)" fill="#fdb0a0" fill-rule="evenodd"/>
      <path id="Path_979184" data-name="Path 979184" d="M177.747,153.426H167.586c.19-6.113-.249-10-.934-11.839-2.162-4.9-6.362-9.681-5.078-16.217a14.608,14.608,0,0,1,5.483-8.825,16.717,16.717,0,0,1,8.284-3c4.46.475,8.7,2.224,11.1,5.23,1.023,1.525-.174,1.861-.316,3.149-.107.972,1.123,4.486,1.392,6.039.359,2.074-1.163,2.062-1.124,3.573.019.764.524,2.025,2.047,4.355.433.671.778,1.078.684,1.793-.162,1.241-1.983.64-2.573,1.843a1.541,1.541,0,0,0-.02,1.069c.314.705.256,1.048.134,1.283a1.686,1.686,0,0,1-.926.65,2.413,2.413,0,0,1,.849.911,1.634,1.634,0,0,1-.172,1.158,2.239,2.239,0,0,0-.016,1.042,2.416,2.416,0,0,1-.482,2.284,1.8,1.8,0,0,1-.882.354l-.141-.012q-2.237-.3-4.208-.758s-1.067-.269-1.588-.421a24.359,24.359,0,0,1-4.709-1.885.737.737,0,1,0-.7,1.3c3.656,1.966,4.014,1.974,4.057,6.926Z" transform="translate(-135.058 -86.811)" fill="#ffcec0" fill-rule="evenodd"/>
      <circle id="Ellipse_11564" data-name="Ellipse 11564" cx="10.612" cy="10.612" r="10.612" transform="translate(22.497 36.105) rotate(-28.153)" fill="#9cccfc"/>
      <g id="Group_1143862" data-name="Group 1143862" transform="translate(26.239 29.877)">
        <path id="Path_979185" data-name="Path 979185" d="M170.772,136.653a10.612,10.612,0,0,0,0,21.148,10.612,10.612,0,0,0,0-21.148Z" transform="translate(-161.053 -136.653)" fill="#cfe8ff" fill-rule="evenodd"/>
        <path id="Path_979186" data-name="Path 979186" d="M263.5,234.025a1.769,1.769,0,1,0-1.769-1.769A1.772,1.772,0,0,0,263.5,234.025Z" transform="translate(-248.032 -217.72)" fill="#ff4d4d" fill-rule="evenodd"/>
        <path id="Path_979187" data-name="Path 979187" d="M192.183,204.951a1.761,1.761,0,1,0-1.761-1.761A1.764,1.764,0,0,0,192.183,204.951Z" transform="translate(-186.426 -192.616)" fill="#fdc72e" fill-rule="evenodd"/>
        <path id="Path_979188" data-name="Path 979188" d="M227.815,158.846a1.769,1.769,0,1,0-1.769-1.769A1.772,1.772,0,0,0,227.815,158.846Z" transform="translate(-217.203 -152.77)" fill="#4eb1fc" fill-rule="evenodd"/>
      </g>
      <rect id="Rectangle_405154" data-name="Rectangle 405154" width="8.363" height="8.363" rx="4.182" transform="translate(35.235 13.874)" fill="#2a93fc"/>
      <path id="Path_979189" data-name="Path 979189" d="M228.2,19.035h5.774v6.012a1.027,1.027,0,0,1-1.025,1.025h-5.774V20.06a1.027,1.027,0,0,1,1.025-1.025Z" transform="translate(-191.937 -5.161)" fill="#4eb1fc" fill-rule="evenodd"/>
      <path id="Path_979190" data-name="Path 979190" d="M224.672,423.885l4.575,7.924a.76.76,0,0,1-.658,1.141h-9.149a.76.76,0,0,1-.658-1.141l4.575-7.924a.76.76,0,0,1,1.317,0Z" transform="translate(-184.597 -354.599)" fill="#f9ac00" fill-rule="evenodd"/>
      <path id="Path_979191" data-name="Path 979191" d="M226.579,445.469h-7.14a.76.76,0,0,1-.658-1.14l3.459-5.992a.68.68,0,0,1,1.178,0l3.5,6.06a.765.765,0,0,1-.338,1.072Z" transform="translate(-184.597 -367.119)" fill="#fdc72e" fill-rule="evenodd"/>
      <circle id="Ellipse_11565" data-name="Ellipse 11565" cx="4.531" cy="4.531" r="4.531" transform="translate(63.436 42.075)" fill="#e8333c"/>
      <g id="Group_1143863" data-name="Group 1143863" transform="translate(5.007 13.061)">
        <path id="Path_979192" data-name="Path 979192" d="M437.967,235.977a4.532,4.532,0,1,1,3.521-4.418A4.533,4.533,0,0,1,437.967,235.977Z" transform="translate(-376.017 -198.013)" fill="#ff4d4d" fill-rule="evenodd"/>
        <path id="Path_979193" data-name="Path 979193" d="M16.089,216.879l5.035,2.907V225.6l-5.035,2.907L11.054,225.6v-5.814Z" transform="translate(-10.231 -189.148)" fill="#99d100" fill-rule="evenodd"/>
        <path id="Path_979194" data-name="Path 979194" d="M15.043,231.738l-3.989-2.3V223.62l3.989-2.3,3.989,2.3v5.814Z" transform="translate(-10.231 -192.982)" fill="#a8e304" fill-rule="evenodd"/>
        <path id="Path_979195" data-name="Path 979195" d="M6.64,49.046V44.174l4.216-2.436,4.222,2.436v4.872l-4.222,2.436Zm66.667-2.253v-.364a5.347,5.347,0,1,0,0,.364ZM11.268,53.132,16.3,50.225a.823.823,0,0,0,.407-.708V43.7A.825.825,0,0,0,16.3,43l-5.035-2.906a.823.823,0,0,0-.819,0L5.414,43a.811.811,0,0,0-.407.707v5.813a.809.809,0,0,0,.407.708l5.035,2.907a.822.822,0,0,0,.406.109.846.846,0,0,0,.413-.109Zm56.692-2.807a3.715,3.715,0,1,1,3.717-3.715A3.719,3.719,0,0,1,67.961,50.325ZM34.93,77.537l4.478-7.755,4.478,7.755H34.93Zm5.842-8.655a1.574,1.574,0,0,0-2.727,0l-4.576,7.925a1.576,1.576,0,0,0,1.364,2.364h9.153a1.553,1.553,0,0,0,1.364-.788,1.576,1.576,0,0,0,0-1.577l-4.576-7.923ZM36.045,14.9a.209.209,0,0,1,.21-.208h6.314a.208.208,0,0,1,.2.208v6.314a.208.208,0,0,1-.2.208H36.254a.209.209,0,0,1-.21-.208Zm.21,8.155h6.314A1.838,1.838,0,0,0,44.4,21.216V14.9a1.838,1.838,0,0,0-1.836-1.841H36.254A1.843,1.843,0,0,0,34.412,14.9v6.314a1.844,1.844,0,0,0,1.842,1.841ZM32.878,74.423a.819.819,0,0,1-.793.608.9.9,0,0,1-.21-.027A29.355,29.355,0,0,1,12.4,58.157l-.033.1a.812.812,0,0,1-.78.582.8.8,0,0,1-.236-.035.813.813,0,0,1-.544-1.016l.721-2.409a.816.816,0,0,1,.5-.532.8.8,0,0,1,.721.085l2.1,1.367a.816.816,0,0,1-.892,1.368A27.741,27.741,0,0,0,32.294,73.426a.817.817,0,0,1,.584,1Zm34.86-20.042a29.417,29.417,0,0,1-18.463,19.9l.1.037a.817.817,0,0,1-.282,1.582.872.872,0,0,1-.288-.05l-2.36-.871a.825.825,0,0,1-.5-.533.808.808,0,0,1,.131-.72l1.488-2.007a.817.817,0,0,1,1.318.968A27.956,27.956,0,0,0,66.164,53.95a.816.816,0,1,1,1.574.431ZM11.413,37.708a29.423,29.423,0,0,1,17.682-18.6l-.1-.034a.816.816,0,1,1,.538-1.541l2.373.831a.814.814,0,0,1,.393,1.248l-1.462,2.031a.815.815,0,0,1-1.324-.949A27.766,27.766,0,0,0,12.973,38.2a.819.819,0,0,1-.78.569.841.841,0,0,1-.249-.038.819.819,0,0,1-.531-1.026ZM45.892,18.786a.818.818,0,0,1,1-.582A29.455,29.455,0,0,1,66.8,35.995l.033-.1a.817.817,0,0,1,1.547.524l-.813,2.383a.8.8,0,0,1-.518.514.819.819,0,0,1-.249.041.807.807,0,0,1-.472-.148l-2.046-1.439a.815.815,0,0,1,.931-1.337A27.974,27.974,0,0,0,46.475,19.784a.818.818,0,0,1-.584-1ZM36.844,35.139a.952.952,0,1,1,.951-.953A.958.958,0,0,1,36.844,35.139Zm2.583-.953a2.586,2.586,0,1,0-3.4,2.452V47.71a.816.816,0,1,0,1.632,0V36.639a2.587,2.587,0,0,0,1.77-2.452ZM31.986,41.4a.945.945,0,1,1,.944-.945A.948.948,0,0,1,31.986,41.4Zm.819-3.388V35.239a.816.816,0,0,0-1.632,0v2.772a2.574,2.574,0,0,0,0,4.886v2.772a.816.816,0,1,0,1.632,0V42.9a2.577,2.577,0,0,0,0-4.886Zm8.89,7.357a.953.953,0,1,1,.957-.953A.953.953,0,0,1,41.7,45.368Zm.819-3.4a2.587,2.587,0,1,1-1.633,0V35.239a.816.816,0,0,1,1.632,0v6.726ZM36.844,50.25a9.8,9.8,0,1,0-9.8-9.8A9.806,9.806,0,0,0,36.844,50.25Zm0-21.224A11.428,11.428,0,1,0,48.272,40.454,11.441,11.441,0,0,0,36.844,29.026Zm2.518,28.523A31.04,31.04,0,0,0,49.9,60.622a3.828,3.828,0,0,0,2.144-.161c.321-.264.275-.883.19-1.549a2.764,2.764,0,0,1,.085-1.49.382.382,0,0,0,.033-.062.875.875,0,0,0,.1-.471,1.668,1.668,0,0,0-.5-.487l-.059-.042a.814.814,0,0,1,.164-1.407,2.08,2.08,0,0,0,.525-.276,1.214,1.214,0,0,0-.157-.572.486.486,0,0,1-.053-.162,2.282,2.282,0,0,1,.085-1.6,2.692,2.692,0,0,1,1.895-1.317,2,2,0,0,0,.584-.218.264.264,0,0,0,.013-.053c.039-.313-.066-.49-.407-1.005-.046-.077-.1-.154-.151-.235-1.482-2.26-2.15-3.732-2.177-4.77a2.837,2.837,0,0,1,.728-1.932,1.566,1.566,0,0,0,.407-1.517c-.1-.574-.361-1.509-.61-2.412a13.343,13.343,0,0,1-.787-3.845,3.615,3.615,0,0,1,.492-1.4c.269-.494.341-.619-.026-1.168-2.183-2.712-6.32-4.561-11.067-4.945-4.714-.384-9.238.7-12.109,2.886a13.845,13.845,0,0,0-5.166,8.32c-.911,4.631,1.147,8.391,3.134,12.028.656,1.2,1.337,2.442,1.882,3.677.007.013.013.028.02.043.767,2.061,1.121,6.05,1,11.289H43.591c-.013-1.1-.02-2.808-.007-2.984a4.534,4.534,0,0,1,.426-1.677,26.445,26.445,0,0,1-5.422-2.122.816.816,0,1,1,.774-1.438Zm10.379,4.7c1.285.112,2.511.155,3.337-.524a3.169,3.169,0,0,0,.774-3.013,3.327,3.327,0,0,1-.039-.612A2.418,2.418,0,0,0,54,56.353a.488.488,0,0,0-.033-.089,2.752,2.752,0,0,0-.249-.412,1.639,1.639,0,0,0,.308-.418,2.135,2.135,0,0,0-.072-1.906c-.072-.37-.039-.438-.033-.46.111-.229.354-.317.879-.464a2.031,2.031,0,0,0,1.77-1.63,2.9,2.9,0,0,0-.662-2.118c-.046-.071-.1-.143-.151-.225-1.554-2.383-1.895-3.449-1.908-3.923a1.245,1.245,0,0,1,.387-.9,3.122,3.122,0,0,0,.721-2.791c-.111-.656-.374-1.586-.649-2.571a18.431,18.431,0,0,1-.734-3.228,2.22,2.22,0,0,1,.308-.8,2.383,2.383,0,0,0-.125-2.883l-.039-.054c-2.491-3.119-6.95-5.153-12.234-5.581-5.1-.415-10.051.788-13.231,3.215a15.435,15.435,0,0,0-5.776,9.3c-1.023,5.21,1.272,9.415,3.3,13.125.662,1.217,1.292,2.366,1.81,3.53.347.945,1.108,3.924.872,11.486a.826.826,0,0,0,.23.593.814.814,0,0,0,.584.249H44.424a.83.83,0,0,0,.6-.256.854.854,0,0,0,.223-.605c-.026-.463-.039-3.363-.033-3.647a1.888,1.888,0,0,1,.5-1.358q1.888.427,3.993.706c.013,0,.026,0,.039,0Z" transform="translate(-5.007 -13.061)" fill="#021047" fill-rule="evenodd"/>
      </g>
    </g>
  </g>
</svg>
