<svg xmlns="http://www.w3.org/2000/svg" xmlns:xlink="http://www.w3.org/1999/xlink" width="108" height="108" viewBox="0 0 108 108">
  <defs>
    <filter id="Fondo" x="0" y="0" width="108" height="108" filterUnits="userSpaceOnUse">
      <feOffset dy="3" input="SourceAlpha"/>
      <feGaussianBlur stdDeviation="3" result="blur"/>
      <feFlood flood-opacity="0.161"/>
      <feComposite operator="in" in2="blur"/>
      <feComposite in="SourceGraphic"/>
    </filter>
  </defs>
  <g id="Group_1144143" data-name="Group 1144143" transform="translate(-745.999 -5651)">
    <g transform="matrix(1, 0, 0, 1, 746, 5651)" filter="url(#Fondo)">
      <g id="Fondo-2" data-name="Fondo" transform="translate(9 6)" fill="#e4fef4" stroke="#43896d" stroke-width="3">
        <circle cx="45" cy="45" r="45" stroke="none"/>
        <circle cx="45" cy="45" r="43.5" fill="none"/>
      </g>
    </g>
    <g id="Group_1144029" data-name="Group 1144029" transform="translate(726.781 5670.778)">
      <g id="Group_1144028" data-name="Group 1144028" transform="translate(48.746 0.915)">
        <g id="Group_1144021" data-name="Group 1144021" transform="translate(2.789 4.896)">
          <path id="Path_979852" data-name="Path 979852" d="M124.271,77.787l-2.8-7.153a18.146,18.146,0,0,1-1.115-4.423A21.155,21.155,0,1,0,86.911,85.9a3.8,3.8,0,0,1,1.551,3.07v14.39H112.83V92.2l6.164-.559a2.637,2.637,0,0,0,2.373-3l-1.116-7.856,3.35-1.407a1.235,1.235,0,0,0,.671-1.589Z" transform="translate(-78.202 -47.646)" fill="#8dcafc"/>
          <g id="Group_1144020" data-name="Group 1144020">
            <path id="Path_979853" data-name="Path 979853" d="M108.508,166.837v15a.772.772,0,0,1-.772.772H92.731a.771.771,0,0,1-.77-.772.771.771,0,0,1-.772.772H88.46v-4.193a3.8,3.8,0,0,0-1.551-3.07A21.119,21.119,0,0,1,80.1,149.517H91.188a.771.771,0,0,1,.772.772v3.677a.769.769,0,0,0,1.162.665,3.7,3.7,0,1,1,.016,6.331.772.772,0,0,0-1.178.655v3.677a.772.772,0,1,0,0,1.543.771.771,0,0,1,.77-.772h3.678a.772.772,0,0,1,.655,1.178,3.7,3.7,0,1,0,6.331-.016.769.769,0,0,1,.664-1.162h3.678A.773.773,0,0,1,108.508,166.837Z" transform="translate(-78.201 -137.093)" fill="#64b9fc"/>
            <g id="Group_1144019" data-name="Group 1144019" transform="translate(18.795)">
              <path id="Path_979854" data-name="Path 979854" d="M327.555,412.931h-3.682a1.121,1.121,0,0,0-1.121,1.121V424.1h4.8Z" transform="translate(-311.722 -368.381)" fill="#64b9fc"/>
              <path id="Path_979855" data-name="Path 979855" d="M259.583,77.786l-2.8-7.154a18.423,18.423,0,0,1-1.12-4.461,21.152,21.152,0,0,0-23.352-18.394,21.333,21.333,0,0,1,8.484,2.824l-7.049,7.048a.772.772,0,0,0,0,1.09l2.6,2.6a.769.769,0,0,0,1.291-.351,3.7,3.7,0,1,1,4.487,4.465.772.772,0,0,0-.369,1.3l2.6,2.6a.77.77,0,0,0,1.09,0l2.6-2.6a.773.773,0,0,1,1.3.37,3.7,3.7,0,0,0,2.6,2.677c.125.4.263.795.416,1.185l2.845,7.26a1.254,1.254,0,0,1-.683,1.613l-2.6,1.093a1.121,1.121,0,0,0-.676,1.191l1.012,7.119a2.673,2.673,0,0,1-1.291,2.682l3.341-.3a2.638,2.638,0,0,0,2.373-3l-1.117-7.856,3.35-1.407a1.235,1.235,0,0,0,.671-1.589Z" transform="translate(-232.308 -47.644)" fill="#64b9fc"/>
            </g>
          </g>
        </g>
        <g id="Group_1144022" data-name="Group 1144022" transform="translate(22.794)">
          <path id="Path_979856" data-name="Path 979856" d="M264.385,24.426a3.689,3.689,0,0,0-1.866-1.107.769.769,0,0,1-.352-1.292l2.6-2.6a.771.771,0,0,0,0-1.091l-10.61-10.61a.771.771,0,0,0-1.091,0l-10.61,10.61a.771.771,0,0,0,0,1.091l2.6,2.6a.769.769,0,0,0,1.292-.352,3.7,3.7,0,1,1,4.487,4.465.772.772,0,0,0-.369,1.3l2.6,2.6a.771.771,0,0,0,1.091,0l2.6-2.6a.772.772,0,0,1,1.3.369,3.7,3.7,0,1,0,6.331-3.38Z" transform="translate(-242.23 -7.499)" fill="#27d1b3"/>
          <path id="Path_979857" data-name="Path 979857" d="M329.186,29.433a3.7,3.7,0,0,1-4.2.877c.053-.052.107-.1.157-.16a3.7,3.7,0,0,0-1.845-6.11.77.77,0,0,1-.351-1.293l2.6-2.6a.772.772,0,0,0,0-1.092l-9.494-9.494,1.833-1.834a.772.772,0,0,1,1.09,0l10.611,10.611a.772.772,0,0,1,0,1.09l-2.6,2.6a.77.77,0,0,0,.353,1.293,3.7,3.7,0,0,1,1.844,6.112Z" transform="translate(-307.053 -7.502)" fill="#20b69f"/>
        </g>
        <g id="Group_1144024" data-name="Group 1144024" transform="translate(0 13.257)">
          <path id="Path_979858" data-name="Path 979858" d="M75.143,120.779a3.69,3.69,0,0,0-2.1.536.769.769,0,0,1-1.162-.665v-3.677a.771.771,0,0,0-.771-.771H56.1a.771.771,0,0,0-.771.771v15.005a.771.771,0,0,0,.771.771h3.677a.77.77,0,0,0,.665-1.162,3.7,3.7,0,1,1,6.33-.015.772.772,0,0,0,.655,1.178h3.678a.771.771,0,0,0,.771-.771V128.3a.772.772,0,0,1,1.178-.655,3.7,3.7,0,1,0,2.087-6.867Z" transform="translate(-55.331 -116.202)" fill="#fc9744"/>
          <g id="Group_1144023" data-name="Group 1144023" transform="translate(11.963)">
            <path id="Path_979859" data-name="Path 979859" d="M158.033,120.854a3.5,3.5,0,0,0-.578-.075,3.7,3.7,0,0,0-2.1.537.77.77,0,0,1-1.163-.665v-3.677a.771.771,0,0,0-.771-.772h3.814a.771.771,0,0,1,.772.772v3.677A.744.744,0,0,0,158.033,120.854Z" transform="translate(-153.42 -116.202)" fill="#fb7722"/>
            <path id="Path_979860" data-name="Path 979860" d="M202.584,161.1a3.668,3.668,0,0,1-1.907-.529,3.7,3.7,0,0,0,0-6.342,3.7,3.7,0,1,1,1.912,6.871Z" transform="translate(-194.909 -149.123)" fill="#fb7722"/>
            <path id="Path_979861" data-name="Path 979861" d="M158.6,209.661a.718.718,0,0,0-.027.2v3.678a.771.771,0,0,1-.772.772h-3.678a.433.433,0,0,1-.057,0,.772.772,0,0,0,.692-.768v-3.678a.772.772,0,0,1,1.178-.655,3.68,3.68,0,0,0,1.912.532A3.746,3.746,0,0,0,158.6,209.661Z" transform="translate(-153.987 -197.763)" fill="#fb7722"/>
          </g>
        </g>
        <g id="Group_1144026" data-name="Group 1144026" transform="translate(0 23.014)">
          <path id="Path_979862" data-name="Path 979862" d="M59.908,199.733a3.69,3.69,0,0,0,.536,2.1A.769.769,0,0,1,59.779,203H56.1a.771.771,0,0,0-.771.771v15.005a.771.771,0,0,0,.771.771H71.108a.771.771,0,0,0,.771-.771V215.1a.77.77,0,0,0-1.162-.665,3.7,3.7,0,1,1-.015-6.33.772.772,0,0,0,1.178-.655v-3.678a.771.771,0,0,0-.771-.771H67.43a.772.772,0,0,1-.655-1.178,3.7,3.7,0,1,0-6.867-2.087Z" transform="translate(-55.331 -196.207)" fill="#fb4a59"/>
          <g id="Group_1144025" data-name="Group 1144025" transform="translate(5.943 0)">
            <path id="Path_979863" data-name="Path 979863" d="M158.005,345.51v3.678a.771.771,0,0,1-.772.771H153.42a.771.771,0,0,0,.771-.771V345.51a.779.779,0,0,0-.027-.2,3.5,3.5,0,0,0,.577.074,3.685,3.685,0,0,0,2.1-.535A.769.769,0,0,1,158.005,345.51Z" transform="translate(-147.4 -326.621)" fill="#f82f40"/>
            <path id="Path_979864" data-name="Path 979864" d="M109.673,296.257a3.67,3.67,0,0,1-2.086.527,3.7,3.7,0,0,1,.176-7.4,3.678,3.678,0,0,1,1.907.528,3.7,3.7,0,0,0,0,6.342Z" transform="translate(-104.06 -278.023)" fill="#f82f40"/>
            <path id="Path_979865" data-name="Path 979865" d="M117.756,203.771v3.678a.772.772,0,0,1-1.178.655,3.691,3.691,0,0,0-1.912-.531,3.758,3.758,0,0,0-.752.076.727.727,0,0,0,.027-.2v-3.678a.771.771,0,0,0-.771-.771h-3.678a.772.772,0,0,1-.655-1.178,3.7,3.7,0,0,0-1.257-5.082,3.647,3.647,0,0,1,1.759-.528,3.7,3.7,0,0,1,3.312,5.61.772.772,0,0,0,.655,1.178h3.678A.771.771,0,0,1,117.756,203.771Z" transform="translate(-107.151 -196.21)" fill="#f82f40"/>
          </g>
        </g>
        <g id="Group_1144027" data-name="Group 1144027" transform="translate(9.757 29.805)">
          <path id="Path_979866" data-name="Path 979866" d="M138.863,263.856a3.69,3.69,0,0,0,2.1-.536.769.769,0,0,1,1.162.665v3.677a.771.771,0,0,0,.771.771H157.9a.771.771,0,0,0,.771-.771V252.656a.771.771,0,0,0-.771-.771h-3.677a.769.769,0,0,0-.665,1.162,3.7,3.7,0,1,1-6.33.015.772.772,0,0,0-.655-1.178H142.9a.771.771,0,0,0-.771.771v3.678a.772.772,0,0,1-1.178.655,3.7,3.7,0,1,0-2.087,6.867Z" transform="translate(-135.337 -251.885)" fill="#fee265"/>
          <path id="Path_979867" data-name="Path 979867" d="M293.684,252.659v15.006a.772.772,0,0,1-.772.771H289.1a.771.771,0,0,0,.772-.771V252.659a.771.771,0,0,0-.693-.767.451.451,0,0,1,.058,0h3.678A.772.772,0,0,1,293.684,252.659Z" transform="translate(-270.346 -251.888)" fill="#f8c52d"/>
        </g>
      </g>
      <path id="Path_979868" data-name="Path 979868" d="M98.456,35.618l-2.8-7.153a17.247,17.247,0,0,1-1.058-4.2c-.038-.31-.085-.621-.136-.929a4.617,4.617,0,0,0-2.16-7.423l2.426-2.426a1.688,1.688,0,0,0,0-2.384L92.553,8.933a.915.915,0,1,0-1.293,1.293l2.07,2.07-2.5,2.5a1.693,1.693,0,0,0-.431,1.654,1.673,1.673,0,0,0,1.215,1.174A2.786,2.786,0,1,1,88.252,21a1.7,1.7,0,0,0-1.19-1.229,1.663,1.663,0,0,0-1.641.432l-2.5,2.5L80.6,20.38a4.616,4.616,0,1,0-5.759-5.759L72.514,12.3,82.922,1.889l5.285,5.285A.915.915,0,0,0,89.5,5.88L84.114.494a1.686,1.686,0,0,0-2.384,0L76.92,5.3A22.251,22.251,0,0,0,72.45,4.9a21.952,21.952,0,0,0-17.027,8.36H49.517a1.688,1.688,0,0,0-1.686,1.686V29.948a1.674,1.674,0,0,0,.189.773,1.667,1.667,0,0,0-.189.77v5.732a.915.915,0,0,0,1.829,0V31.634h3.534a1.693,1.693,0,0,0,1.475-.865,1.673,1.673,0,0,0-.029-1.689,2.786,2.786,0,1,1,4.767-.012,1.7,1.7,0,0,0-.028,1.71,1.663,1.663,0,0,0,1.466.855h3.534v3.287a4.616,4.616,0,1,0,0,8.145v3.287H49.66V41.539a.915.915,0,1,0-1.829,0V46.5a1.688,1.688,0,0,0,1.686,1.686H60.88V61.528a.915.915,0,1,0,1.829,0V48.182h1.813a1.675,1.675,0,0,0,.771-.188,1.671,1.671,0,0,0,.771.188h7.308a.915.915,0,0,0,0-1.829H66.208V42.819a1.693,1.693,0,0,0-.865-1.475,1.674,1.674,0,0,0-1.689.029,2.769,2.769,0,0,1-1.583.4A2.8,2.8,0,0,1,59.42,39.1a2.787,2.787,0,0,1,4.223-2.5,1.7,1.7,0,0,0,1.71.027,1.663,1.663,0,0,0,.855-1.465V31.634H69.5a4.616,4.616,0,1,0,8.145,0h3.287V46.353H77.689a.915.915,0,0,0,0,1.829H81.07A1.688,1.688,0,0,0,82.756,46.5V31.491A1.688,1.688,0,0,0,81.07,29.8H77.393a1.693,1.693,0,0,0-1.475.865,1.673,1.673,0,0,0,.029,1.689,2.786,2.786,0,1,1-4.767.012,1.7,1.7,0,0,0,.028-1.71,1.663,1.663,0,0,0-1.466-.855H66.208V26.518a4.616,4.616,0,1,0,0-8.145v-3.43a1.688,1.688,0,0,0-1.686-1.686h-6.7A20.1,20.1,0,0,1,72.469,6.727a20.568,20.568,0,0,1,2.857.17L71.119,11.1a1.688,1.688,0,0,0,0,2.384l2.6,2.6a1.693,1.693,0,0,0,1.654.431,1.673,1.673,0,0,0,1.173-1.215,2.786,2.786,0,1,1,3.379,3.362,1.7,1.7,0,0,0-1.229,1.19,1.663,1.663,0,0,0,.432,1.641l2.6,2.6a1.688,1.688,0,0,0,2.384,0l2.426-2.426a4.618,4.618,0,0,0,4.415,3.274h.09a4.606,4.606,0,0,0,1.746-.377,19.066,19.066,0,0,0,1.16,4.563l2.8,7.153a.318.318,0,0,1-.174.412L93.228,38.1a.915.915,0,0,0-.551.972l1.116,7.856a1.722,1.722,0,0,1-1.55,1.958l-6.164.559a.915.915,0,0,0-.832.911V61.528a.915.915,0,0,0,1.829,0V51.2l5.332-.484a3.552,3.552,0,0,0,3.2-4.037l-1.017-7.157,2.7-1.134a2.137,2.137,0,0,0,1.169-2.766ZM65.244,20.095a1.674,1.674,0,0,0,1.689-.029,2.78,2.78,0,0,1,1.583-.4h0a2.8,2.8,0,0,1,2.651,2.674,2.787,2.787,0,0,1-4.223,2.5,1.7,1.7,0,0,0-1.71-.027,1.663,1.663,0,0,0-.855,1.465v3.534H61.092a4.616,4.616,0,1,0-8.145,0H49.66V15.087H64.379V18.62A1.693,1.693,0,0,0,65.244,20.095Z"/>
    </g>
  </g>
</svg>
