<svg xmlns="http://www.w3.org/2000/svg" xmlns:xlink="http://www.w3.org/1999/xlink" width="108" height="108" viewBox="0 0 108 108">
  <defs>
    <filter id="Fondo" x="0" y="0" width="108" height="108" filterUnits="userSpaceOnUse">
      <feOffset dy="3" input="SourceAlpha"/>
      <feGaussianBlur stdDeviation="3" result="blur"/>
      <feFlood flood-opacity="0.161"/>
      <feComposite operator="in" in2="blur"/>
      <feComposite in="SourceGraphic"/>
    </filter>
  </defs>
  <g id="Group_1144137" data-name="Group 1144137" transform="translate(-745.999 -2196)">
    <g transform="matrix(1, 0, 0, 1, 746, 2196)" filter="url(#Fondo)">
      <g id="Fondo-2" data-name="Fondo" transform="translate(9 6)" fill="#e4fef4">
        <path d="M 45 88.5 C 39.12687683105469 88.5 33.43022537231445 87.35007476806641 28.06830024719238 85.08217620849609 C 22.88852500915527 82.89131164550781 18.23629951477051 79.75458526611328 14.2408504486084 75.75914764404297 C 10.24541282653809 71.76370239257812 7.108687400817871 67.11147308349609 4.917825222015381 61.93170166015625 C 2.649924993515015 56.56977462768555 1.5 50.87312316894531 1.5 45 C 1.5 39.12687683105469 2.649924993515015 33.43022537231445 4.917825222015381 28.06830024719238 C 7.108687400817871 22.88852500915527 10.24541282653809 18.23629951477051 14.2408504486084 14.2408504486084 C 18.23629951477051 10.24541282653809 22.88852500915527 7.108687400817871 28.06830024719238 4.917825222015381 C 33.43022537231445 2.649924993515015 39.12687683105469 1.5 45 1.5 C 50.87312316894531 1.5 56.56977462768555 2.649924993515015 61.93170166015625 4.917825222015381 C 67.11147308349609 7.108687400817871 71.76370239257812 10.24541282653809 75.75914764404297 14.2408504486084 C 79.75458526611328 18.23629951477051 82.89131164550781 22.88852500915527 85.08217620849609 28.06830024719238 C 87.35007476806641 33.43022537231445 88.5 39.12687683105469 88.5 45 C 88.5 50.87312316894531 87.35007476806641 56.56977462768555 85.08217620849609 61.93170166015625 C 82.89131164550781 67.11147308349609 79.75458526611328 71.76370239257812 75.75914764404297 75.75914764404297 C 71.76370239257812 79.75458526611328 67.11147308349609 82.89131164550781 61.93170166015625 85.08217620849609 C 56.56977462768555 87.35007476806641 50.87312316894531 88.5 45 88.5 Z" stroke="none"/>
        <path d="M 45 3 C 39.32871246337891 3 33.82865524291992 4.110054016113281 28.65262985229492 6.299339294433594 C 23.65165710449219 8.414573669433594 19.15968322753906 11.44334411621094 15.301513671875 15.301513671875 C 11.44334411621094 19.15968322753906 8.414573669433594 23.65165710449219 6.299339294433594 28.65262985229492 C 4.110054016113281 33.82865524291992 3 39.32871246337891 3 45 C 3 50.67128753662109 4.110054016113281 56.17134475708008 6.299339294433594 61.34737396240234 C 8.414573669433594 66.34834289550781 11.44334411621094 70.84031677246094 15.301513671875 74.698486328125 C 19.15968322753906 78.55665588378906 23.65165710449219 81.58542633056641 28.65262985229492 83.70066070556641 C 33.82865524291992 85.88994598388672 39.32871246337891 87 45 87 C 50.67128753662109 87 56.17134475708008 85.88994598388672 61.34737396240234 83.70066070556641 C 66.34834289550781 81.58542633056641 70.84031677246094 78.55665588378906 74.698486328125 74.698486328125 C 78.55665588378906 70.84031677246094 81.58542633056641 66.34834289550781 83.70066070556641 61.34737396240234 C 85.88994598388672 56.17134475708008 87 50.67128753662109 87 45 C 87 39.32871246337891 85.88994598388672 33.82865524291992 83.70066070556641 28.65262985229492 C 81.58542633056641 23.65165710449219 78.55665588378906 19.15968322753906 74.698486328125 15.301513671875 C 70.84031677246094 11.44334411621094 66.34834289550781 8.414573669433594 61.34737396240234 6.299339294433594 C 56.17134475708008 4.110054016113281 50.67128753662109 3 45 3 M 45 0 C 69.85281372070312 0 90 20.14718627929688 90 45 C 90 69.85281372070312 69.85281372070312 90 45 90 C 20.14718627929688 90 0 69.85281372070312 0 45 C 0 20.14718627929688 20.14718627929688 0 45 0 Z" stroke="none" fill="#43896d"/>
      </g>
    </g>
    <g id="Group_1143860" data-name="Group 1143860" transform="translate(691.351 2212.878)">
      <g id="Group_1143857" data-name="Group 1143857" transform="translate(90.068 10.93)">
        <path id="Path_979164" data-name="Path 979164" d="M197.355,88.574s-4.73,6.673-10.565,6.673-10.565-6.673-10.565-6.673,4.73-6.673,10.565-6.673S197.355,88.574,197.355,88.574Z" transform="translate(-168.25 -81.901)" fill="#fff"/>
        <circle id="Ellipse_11563" data-name="Ellipse 11563" cx="2.669" cy="2.669" r="2.669" transform="translate(15.871 4.004)" fill="#8ca3b7"/>
        <path id="Path_979165" data-name="Path 979165" d="M179.561,88.574s3.855-5.437,8.9-6.495a8.115,8.115,0,0,0-1.668-.178c-5.835,0-10.565,6.673-10.565,6.673s4.73,6.673,10.565,6.673a8.107,8.107,0,0,0,1.668-.178C183.416,94.01,179.561,88.574,179.561,88.574Z" transform="translate(-168.25 -81.901)" fill="#dededf"/>
        <path id="Path_979166" data-name="Path 979166" d="M237.794,114.57a2.667,2.667,0,0,1,1.467-2.381,2.669,2.669,0,1,0,0,4.762A2.667,2.667,0,0,1,237.794,114.57Z" transform="translate(-219.521 -107.897)" fill="#57758d"/>
        <path id="Path_979167" data-name="Path 979167" d="M174.847,275.37c2.342,2.929,4.241,8.218,4.241,8.218v8.338a13.939,13.939,0,0,1-27.878,0V280.132C156.395,281.147,169.194,282.754,174.847,275.37Z" transform="translate(-146.573 -249.551)" fill="#ffdaaa"/>
        <path id="Path_979168" data-name="Path 979168" d="M154.546,322.845V311.585c-1.292-.162-2.431-.358-3.336-.535v11.795a13.938,13.938,0,0,0,13.939,13.939,14.1,14.1,0,0,0,1.668-.1A13.94,13.94,0,0,1,154.546,322.845Z" transform="translate(-146.573 -280.469)" fill="#ffb680"/>
        <g id="Group_1143856" data-name="Group 1143856" transform="translate(0 34.037)">
          <path id="Path_979169" data-name="Path 979169" d="M121.145,346.394a4.9,4.9,0,0,1-3.97-3.67l-.634-2.588a2.574,2.574,0,0,1,2.5-3.187H121.1v8.338Q121.1,345.847,121.145,346.394Z" transform="translate(-116.466 -336.95)" fill="#ffdaaa"/>
          <path id="Path_979170" data-name="Path 979170" d="M359.815,336.95v8.338q0,.568-.045,1.125a4.895,4.895,0,0,0,4.1-3.689l.634-2.588a2.574,2.574,0,0,0-2.5-3.187Z" transform="translate(-327.3 -336.95)" fill="#ffdaaa"/>
        </g>
        <path id="Path_979171" data-name="Path 979171" d="M167.52,223.808l-3.312,5.629s-1.9-5.289-4.241-8.218c-7.18,9.376-25.882,4.256-25.882,4.256s-2.082-12.6,21.465-12.6l4.216,2.94,5.752-.643Z" transform="translate(-131.693 -195.401)" fill="#8ca3b7"/>
        <path id="Path_979172" data-name="Path 979172" d="M155.682,212.974l-.133-.093c-23.546,0-21.465,12.6-21.465,12.6s1.278.35,3.292.7C137.314,223.6,138.263,214.017,155.682,212.974Z" transform="translate(-131.693 -195.401)" fill="#57758d"/>
      </g>
      <g id="Group_1143858" data-name="Group 1143858" transform="translate(86.003 0)">
        <path id="Path_979173" data-name="Path 979173" d="M124.774,149.694h-.44l2.627-4.465-.882-3.8-1.95.453.7,3.02-2.071,3.52a30.193,30.193,0,0,0-3.635-6.57l-.8-1-.778,1.016c-5.937,7.754-20.769,4.848-24.137,4.067a8.145,8.145,0,0,1,2.059-5.277,11.64,11.64,0,0,1,3.256-2.57,17.663,17.663,0,0,0,19.774-.045l4.619-.516.557,2.4,1.95-.452-.959-4.136-3.4.381a17.8,17.8,0,0,0,4.235-7.169l-1.916-.581a15.64,15.64,0,0,1-5.478,7.86l-3.864-2.694h-.314c-6.276,0-11.3.875-15.025,2.606a15.692,15.692,0,0,1-5.8-9.777l3.438,3.311,1.388-1.442-6.047-5.824L86,127.845l1.41,1.421,3.623-3.6A17.67,17.67,0,0,0,97,136.768a13.247,13.247,0,0,0-3.092,2.638,9.83,9.83,0,0,0-2.435,7.49l.1.633.619.169c.064.018.609.165,1.508.358v1.637h-1.06a3.575,3.575,0,0,0-3.473,4.427l.634,2.587a5.886,5.886,0,0,0,4.022,4.245,14.941,14.941,0,0,0,29.629.038,5.886,5.886,0,0,0,4.157-4.283l.634-2.587a3.575,3.575,0,0,0-3.473-4.426Zm-11.162-14.554,2.7,1.883a15.577,15.577,0,0,1-15.4.062A36.647,36.647,0,0,1,113.612,135.139ZM93.7,158.745a3.889,3.889,0,0,1-1.955-2.514l-.634-2.587a1.574,1.574,0,0,1,1.528-1.948H93.7v7.05Zm27.878.288a12.938,12.938,0,1,1-25.876,0V148.442a47.535,47.535,0,0,0,6.983.68,28.794,28.794,0,0,0,8.87-1.066,15.1,15.1,0,0,0,6.717-3.962,38.207,38.207,0,0,1,3.305,6.781v8.159Zm4.72-5.389-.634,2.587a3.888,3.888,0,0,1-2.084,2.578V151.7h1.19a1.574,1.574,0,0,1,1.529,1.948Z" transform="translate(-86.003 -105.728)"/>
        <path id="Path_979174" data-name="Path 979174" d="M175.645,374.609H182.6v2h-6.953Z" transform="translate(-163.682 -324.616)"/>
        <path id="Path_979175" data-name="Path 979175" d="M234.3,422.9H240v2h-5.7Z" transform="translate(-214.513 -366.465)"/>
        <path id="Path_979176" data-name="Path 979176" d="M283.548,374.609H290.5v2h-6.953Z" transform="translate(-257.185 -324.616)"/>
        <path id="Path_979177" data-name="Path 979177" d="M167.032,82.075l.41.579c.205.29,5.1,7.095,11.382,7.095S190,82.943,190.205,82.653l.41-.579-.41-.579c-.205-.29-5.1-7.095-11.382-7.095s-11.176,6.805-11.382,7.095ZM178.824,76.4c4.277,0,8.038,4.123,9.3,5.673-1.259,1.55-5.01,5.671-9.3,5.671s-8.038-4.124-9.3-5.673C170.783,80.524,174.534,76.4,178.824,76.4Z" transform="translate(-156.218 -64.472)"/>
        <path id="Path_979178" data-name="Path 979178" d="M231.562,111.741a3.67,3.67,0,1,0-3.67-3.67A3.674,3.674,0,0,0,231.562,111.741Zm0-5.338a1.668,1.668,0,1,1-1.668,1.668A1.67,1.67,0,0,1,231.562,106.4Z" transform="translate(-208.957 -90.468)"/>
        <path id="Path_979179" data-name="Path 979179" d="M197.333,2a15.722,15.722,0,0,1,15.442,12.964l-3.241-3.216-1.41,1.421L214,19l6.047-5.824-1.388-1.442-3.795,3.654A17.689,17.689,0,0,0,188.43,2.4l1.009,1.729A15.674,15.674,0,0,1,197.333,2Z" transform="translate(-174.761 0)"/>
        <path id="Path_979180" data-name="Path 979180" d="M135.823,28.437l-1.209-1.6a17.584,17.584,0,0,0-6.249,8.945l1.915.583A15.809,15.809,0,0,1,135.823,28.437Z" transform="translate(-122.712 -23.259)"/>
      </g>
      <g id="Group_1143859" data-name="Group 1143859" transform="translate(97.307 36.883)">
        <path id="Path_979181" data-name="Path 979181" d="M170.71,276.374h2v2h-2Z" transform="translate(-170.71 -276.374)" fill="#fff"/>
        <path id="Path_979182" data-name="Path 979182" d="M201.71,276.374h2v2h-2Z" transform="translate(-197.573 -276.374)" fill="#fff"/>
      </g>
    </g>
  </g>
</svg>
