<svg xmlns="http://www.w3.org/2000/svg" xmlns:xlink="http://www.w3.org/1999/xlink" width="108" height="108" viewBox="0 0 108 108">
  <defs>
    <filter id="Fondo" x="0" y="0" width="108" height="108" filterUnits="userSpaceOnUse">
      <feOffset dy="3" input="SourceAlpha"/>
      <feGaussianBlur stdDeviation="3" result="blur"/>
      <feFlood flood-opacity="0.161"/>
      <feComposite operator="in" in2="blur"/>
      <feComposite in="SourceGraphic"/>
    </filter>
  </defs>
  <g id="Group_1143823" data-name="Group 1143823" transform="translate(-746 -1534)">
    <g transform="matrix(1, 0, 0, 1, 746, 1534)" filter="url(#Fondo)">
      <g id="Fondo-2" data-name="Fondo" transform="translate(9 6)" fill="#e4fef4" stroke="#43896d" stroke-width="3">
        <circle cx="45" cy="45" r="45" stroke="none"/>
        <circle cx="45" cy="45" r="43.5" fill="none"/>
      </g>
    </g>
    <g id="Filled_outline" data-name="Filled outline" transform="translate(752.001 1534.023)">
      <path id="Path_978946" data-name="Path 978946" d="M81.6,50.581v3.128A21.185,21.185,0,0,1,78.932,64,21.189,21.189,0,0,0,76.266,74.29V85.866H40a6.4,6.4,0,0,1-6.4-6.4v-16H24l5.357-19.82A26.582,26.582,0,0,1,55.018,24h.053A26.581,26.581,0,0,1,81.6,50.581Z" transform="translate(-6.934 -6.947)" fill="#fec9a3"/>
      <path id="Path_978947" data-name="Path 978947" d="M283.568,50.581v3.128A21.185,21.185,0,0,1,280.9,64a21.189,21.189,0,0,0-2.666,10.289V85.866h-17.5A37.343,37.343,0,0,0,266.6,65.7V49.025A37.38,37.38,0,0,0,257.04,24,26.581,26.581,0,0,1,283.568,50.581Z" transform="translate(-208.902 -6.947)" fill="#fec093"/>
      <path id="Path_978948" data-name="Path 978948" d="M138.666,85.333v6.4h-38.4A4.265,4.265,0,0,1,96,87.466V85.333q0-.536.027-1.067A21.346,21.346,0,0,1,124.8,65.343a20.819,20.819,0,0,1,2.133.933,21.418,21.418,0,0,1,9.456,9.456,20.816,20.816,0,0,1,.933,2.133A21.268,21.268,0,0,1,138.666,85.333Z" transform="translate(-69.334 -41.613)" fill="#d3669a"/>
      <path id="Path_978949" data-name="Path 978949" d="M154.648,115.493v6.4h-38.4a4.248,4.248,0,0,1-1.808-.4C127.02,118,138.683,111.04,146.6,98.8a21.392,21.392,0,0,1,5.772,7.093,20.817,20.817,0,0,1,.933,2.133A21.268,21.268,0,0,1,154.648,115.493Z" transform="translate(-85.315 -71.774)" fill="#cc5e92"/>
      <path id="Path_978950" data-name="Path 978950" d="M376,340.267l9.783,9.783a3.017,3.017,0,0,0,2.133.884h0a3.017,3.017,0,0,0,3.017-3.017h0a3.017,3.017,0,0,0-.884-2.133L380.267,336Z" transform="translate(-312.001 -277.347)" fill="#2d7dbf"/>
      <circle id="Ellipse_11559" data-name="Ellipse 11559" cx="14.933" cy="14.933" r="14.933" transform="translate(43.733 38.386)" fill="#348fd9"/>
      <circle id="Ellipse_11560" data-name="Ellipse 11560" cx="10.667" cy="10.667" r="10.667" transform="translate(47.999 42.653)" fill="#5ac6d4"/>
      <circle id="Ellipse_11561" data-name="Ellipse 11561" cx="7.467" cy="7.467" r="7.467" transform="translate(51.199 45.853)" fill="#60d1e0"/>
      <path id="Path_978951" data-name="Path 978951" d="M68.266,77.853h-35.2a5.339,5.339,0,0,1-5.333-5.333V63.986H35.2V61.853H27.733V56.52a1.067,1.067,0,0,0-1.067-1.067H18.46l4.993-18.475A25.515,25.515,0,0,1,73.6,43.72h2.133a27.648,27.648,0,0,0-54.339-7.3l-5.357,19.82a1.067,1.067,0,0,0,1.03,1.345H25.6V72.519a7.475,7.475,0,0,0,7.467,7.467H69.333A1.067,1.067,0,0,0,70.4,78.919V73.586H68.266Z" transform="translate(0)"/>
      <rect id="Rectangle_405152" data-name="Rectangle 405152" width="2.133" height="3.2" transform="translate(49.066 34.12)"/>
      <path id="Path_978952" data-name="Path 978952" d="M124.266,70.933h4.98a20.232,20.232,0,0,1,.782,2.4l2.066-.532A22.391,22.391,0,0,0,110.4,56h-.069A22.537,22.537,0,0,0,88,78.594v1.94a5.339,5.339,0,0,0,5.333,5.333h9.6V77.333H107.2V75.2h-5.333a1.067,1.067,0,0,0-1.067,1.067v7.467H93.333a3.2,3.2,0,0,1-3.2-3.2V79.466h5.333A1.067,1.067,0,0,0,96.533,78.4V70.933H100.8V68.8H95.467A1.067,1.067,0,0,0,94.4,69.867v7.467H90.173a20.489,20.489,0,0,1,5.524-12.8h9.369v6.4H107.2v-6.4h6.4V62.4H98.035a20.031,20.031,0,0,1,12.3-4.267h.062a20.256,20.256,0,0,1,7.468,1.427V69.867H120V60.552a20.258,20.258,0,0,1,8.252,8.248h-3.986Z" transform="translate(-62.4 -34.68)"/>
      <path id="Path_978953" data-name="Path 978953" d="M251.988,206.213l-6.313-6.313a16.011,16.011,0,1,0-5.775,5.775l6.313,6.313a4.084,4.084,0,1,0,5.775-5.775Zm-34-14.362a13.867,13.867,0,1,1,13.867,13.867A13.867,13.867,0,0,1,217.985,191.852Zm32.494,18.629a1.946,1.946,0,0,1-2.189.393,1.91,1.91,0,0,1-.568-.394l-6.025-6.025a16.14,16.14,0,0,0,2.758-2.758l6.025,6.025a1.949,1.949,0,0,1,0,2.759Z" transform="translate(-173.185 -138.532)"/>
      <path id="Path_978954" data-name="Path 978954" d="M259.733,208a11.733,11.733,0,1,0,11.733,11.733A11.733,11.733,0,0,0,259.733,208Zm0,21.333a9.6,9.6,0,1,1,9.6-9.6A9.6,9.6,0,0,1,259.733,229.333Z" transform="translate(-201.067 -166.414)"/>
      <path id="Path_978955" data-name="Path 978955" d="M318.046,242.436a5.327,5.327,0,0,1,1.778-.3V240a7.452,7.452,0,0,0-2.489.425Z" transform="translate(-261.158 -194.147)"/>
      <path id="Path_978956" data-name="Path 978956" d="M283.912,255.852l-1.423-1.59a7.467,7.467,0,0,0,0,11.13l1.423-1.59a5.333,5.333,0,0,1,0-7.951Z" transform="translate(-228.801 -206.507)"/>
    </g>
  </g>
</svg>
