<svg xmlns="http://www.w3.org/2000/svg" xmlns:xlink="http://www.w3.org/1999/xlink" width="108" height="108" viewBox="0 0 108 108">
  <defs>
    <filter id="Fondo" x="0" y="0" width="108" height="108" filterUnits="userSpaceOnUse">
      <feOffset dy="3" input="SourceAlpha"/>
      <feGaussianBlur stdDeviation="3" result="blur"/>
      <feFlood flood-opacity="0.161"/>
      <feComposite operator="in" in2="blur"/>
      <feComposite in="SourceGraphic"/>
    </filter>
  </defs>
  <g id="Group_1143813" data-name="Group 1143813" transform="translate(-903 -732)">
    <g transform="matrix(1, 0, 0, 1, 903, 732)" filter="url(#Fondo)">
      <g id="Fondo-2" data-name="Fondo" transform="translate(9 6)" fill="#e4fef4" stroke="#43896d" stroke-width="3">
        <circle cx="45" cy="45" r="45" stroke="none"/>
        <circle cx="45" cy="45" r="43.5" fill="none"/>
      </g>
    </g>
    <g id="Group_1143812" data-name="Group 1143812" transform="translate(930.179 755.683)">
      <path id="Path_978863" data-name="Path 978863" d="M61.353,121.3V156.81a1.828,1.828,0,0,1-1.822,1.822H40.255a1.827,1.827,0,0,0-1.293.537l-.747.747a1.829,1.829,0,0,1-1.293.537H32.971a1.827,1.827,0,0,1-1.293-.537l-.747-.747a1.827,1.827,0,0,0-1.293-.537H10.361A1.827,1.827,0,0,1,8.54,156.81V121.3a1.826,1.826,0,0,1,1.821-1.821H59.532a1.827,1.827,0,0,1,1.822,1.821Zm0,0" transform="translate(-7.625 -106.728)" fill="#0377bc"/>
      <path id="Path_978864" data-name="Path 978864" d="M58.621,121.3V156.81a1.827,1.827,0,0,1-1.821,1.822H40.1a1.827,1.827,0,0,0-1.293.537l-.747.747a1.829,1.829,0,0,1-1.293.537h-3.8a1.827,1.827,0,0,1-1.293-.537l-.747-.747a1.827,1.827,0,0,0-1.293-.537H10.361a1.827,1.827,0,0,1-1.821-1.822V121.3a1.826,1.826,0,0,1,1.821-1.821H56.8a1.826,1.826,0,0,1,1.821,1.821Zm0,0" transform="translate(-7.625 -106.728)" fill="#02a9f4"/>
      <path id="Path_978865" data-name="Path 978865" d="M88.2,72.732V110.02a.9.9,0,0,1-1.092.892c-4-.847-17.738-3.406-20.98.837a.879.879,0,0,1-1.384,0c-3.242-4.243-16.982-1.684-20.98-.837a.9.9,0,0,1-1.093-.892V72.732a.907.907,0,0,1,.71-.892,77.1,77.1,0,0,1,9.179-1.429H78.312A77.1,77.1,0,0,1,87.49,71.84a.907.907,0,0,1,.71.892Zm0,0" transform="translate(-38.115 -62.897)" fill="#ffe0b2"/>
      <path id="Path_978866" data-name="Path 978866" d="M278.768,72.732V110.02a.9.9,0,0,1-1.092.892c-.474-.1-1.093-.228-1.812-.355a57.975,57.975,0,0,0-12.238-1.157c-3.069.137-5.728.774-6.93,2.349a.841.841,0,0,1-.692.337V70.41h12.875a77.1,77.1,0,0,1,9.179,1.429.907.907,0,0,1,.71.892Zm0,0" transform="translate(-228.682 -62.897)" fill="#dfc49c"/>
      <path id="Path_978867" data-name="Path 978867" d="M276.037,72.731v37.288a.908.908,0,0,1-1.093.892,71.688,71.688,0,0,0-11.318-1.512,19.3,19.3,0,0,0-7.622.9V70.41h10.144a77.124,77.124,0,0,1,9.179,1.429.908.908,0,0,1,.71.892Zm0,0" transform="translate(-228.683 -62.897)" fill="#ffe0b2"/>
      <path id="Path_978868" data-name="Path 978868" d="M128.462,29.266A5.276,5.276,0,0,1,127,33.027l-.009.009-.847,2.732a4.354,4.354,0,0,1-1.8,2.358l-2.9,1.9a5.1,5.1,0,0,0-1.038.938L119.338,42.3a4.642,4.642,0,0,1-1.348,1.129,5.082,5.082,0,0,1-2.44.619,4.952,4.952,0,0,1-2.741-.819l-1.648-1.083-1.648,1.083a4.951,4.951,0,0,1-2.741.819,5.15,5.15,0,0,1-2.45-.619,4.724,4.724,0,0,1-1.338-1.129L101.9,40.967a4.651,4.651,0,0,0-1.038-.938l-2.887-1.9a4.354,4.354,0,0,1-1.8-2.358l-.847-2.732-.009-.009a5.276,5.276,0,0,1-1.457-3.761,5.391,5.391,0,0,1,1.165-3.442,5.725,5.725,0,0,1-.474-2.3A4.713,4.713,0,0,1,97.375,18.9a5.853,5.853,0,0,1-.064-.8,4.4,4.4,0,0,1,2.814-4.307,2.716,2.716,0,0,1-.046-.483,3.66,3.66,0,0,1,3.8-3.506,3.6,3.6,0,0,1,.947.118,3.554,3.554,0,0,1,2.859-1.393,3.4,3.4,0,0,1,3.388,2.558,2.843,2.843,0,0,1,.064.629h.055a2.793,2.793,0,0,1,.064-.629,3.4,3.4,0,0,1,3.387-2.558A3.554,3.554,0,0,1,117.5,9.925a3.6,3.6,0,0,1,.947-.118,3.66,3.66,0,0,1,3.8,3.506,2.755,2.755,0,0,1-.045.483,4.4,4.4,0,0,1,2.814,4.307,5.853,5.853,0,0,1-.064.8,4.713,4.713,0,0,1,2.823,4.617,5.726,5.726,0,0,1-.474,2.3,5.391,5.391,0,0,1,1.165,3.442Zm0,0" transform="translate(-83.84 -7.621)" fill="#ef314c"/>
      <path id="Path_978869" data-name="Path 978869" d="M273.305,29.273a5.276,5.276,0,0,1-1.457,3.761l-.009.009-.847,2.732a4.353,4.353,0,0,1-1.8,2.358l-2.9,1.9a5.1,5.1,0,0,0-1.038.938L264.181,42.3a4.642,4.642,0,0,1-1.348,1.129,5.082,5.082,0,0,1-2.44.619,5,5,0,0,1-1.366-.191,4.934,4.934,0,0,1-1.375-.629L256,42.149V11.727h.028a2.794,2.794,0,0,1,.064-.629A3.259,3.259,0,0,1,258.117,8.8a3.64,3.64,0,0,1,4.225,1.129,3.6,3.6,0,0,1,.947-.118,3.66,3.66,0,0,1,3.8,3.506,2.757,2.757,0,0,1-.045.483,4.4,4.4,0,0,1,2.814,4.307,5.853,5.853,0,0,1-.064.8,4.713,4.713,0,0,1,2.823,4.617,5.725,5.725,0,0,1-.474,2.3,5.391,5.391,0,0,1,1.165,3.442Zm0,0" transform="translate(-228.683 -7.629)" fill="#bb193b"/>
      <path id="Path_978870" data-name="Path 978870" d="M255.328,31.486a5.274,5.274,0,0,1-1.457,3.761l-.009.009-.847,2.732a4.358,4.358,0,0,1-1.8,2.358l-2.9,1.9a5.1,5.1,0,0,0-1.038.938L246.2,44.516a4.644,4.644,0,0,1-1.348,1.129,4.573,4.573,0,0,1-1.074.428,4.934,4.934,0,0,1-1.375-.629l-1.648-1.083-1.821-17.219,1.821-13.2h.028a2.793,2.793,0,0,1,.064-.629,3.259,3.259,0,0,1,2.021-2.295,3.438,3.438,0,0,1,1.493,1.129,3.593,3.593,0,0,1,.947-.118,3.66,3.66,0,0,1,3.8,3.506,2.714,2.714,0,0,1-.045.483,4.4,4.4,0,0,1,2.814,4.307,5.788,5.788,0,0,1-.064.8,4.712,4.712,0,0,1,2.823,4.617,5.711,5.711,0,0,1-.474,2.3,5.392,5.392,0,0,1,1.166,3.442Zm0,0" transform="translate(-213.437 -9.841)" fill="#ef314c"/>
      <path id="Path_978871" data-name="Path 978871" d="M27.321,153.738H25.344a2.712,2.712,0,0,1-1.932-.8l-.754-.754a.905.905,0,0,0-.644-.267H2.736A2.735,2.735,0,0,1,0,149.185V113.673a2.735,2.735,0,0,1,2.732-2.732H4.557a.911.911,0,0,1,0,1.821H2.736a.912.912,0,0,0-.911.911v35.512a.912.912,0,0,0,.911.911H22.014a2.712,2.712,0,0,1,1.932.8l.754.754a.905.905,0,0,0,.644.267h1.977a.911.911,0,1,1,0,1.821Zm0,0" transform="translate(0 -99.104)"/>
      <path id="Path_978872" data-name="Path 978872" d="M250.36,153.738h-1.977a.911.911,0,0,1,0-1.821h1.977a.9.9,0,0,0,.644-.267l.754-.754a2.712,2.712,0,0,1,1.932-.8h19.278a.911.911,0,0,0,.911-.911V113.673a.911.911,0,0,0-.911-.911h-1.821a.911.911,0,0,1,0-1.821h1.821a2.735,2.735,0,0,1,2.732,2.732v35.512a2.735,2.735,0,0,1-2.732,2.732H253.69a.905.905,0,0,0-.644.267l-.754.754A2.712,2.712,0,0,1,250.36,153.738Zm0,0" transform="translate(-221.062 -99.104)"/>
      <path id="Path_978873" data-name="Path 978873" d="M57.812,105.36a1.781,1.781,0,0,1-1.419-.7c-2.3-3.01-11.873-2.23-20.064-.495a1.78,1.78,0,0,1-1.507-.352,1.822,1.822,0,0,1-.686-1.431V65.1a1.807,1.807,0,0,1,1.427-1.782,78.165,78.165,0,0,1,9.293-1.447.911.911,0,1,1,.158,1.814,76.259,76.259,0,0,0-9.065,1.412l.008,37.291c5.427-1.15,18.434-3.34,21.886,1.177,3.387-4.516,16.4-2.326,21.828-1.176L79.666,65.1a75.262,75.262,0,0,0-9.057-1.415.911.911,0,1,1,.158-1.814,78.248,78.248,0,0,1,9.292,1.446A1.808,1.808,0,0,1,81.487,65.1v37.288a1.822,1.822,0,0,1-.686,1.431,1.789,1.789,0,0,1-1.519.35c-8.177-1.734-17.75-2.513-20.055.5a1.777,1.777,0,0,1-1.415.693Zm0,0" transform="translate(-30.49 -55.262)"/>
      <path id="Path_978874" data-name="Path 978874" d="M248.383,370.247a.91.91,0,0,1-.91-.91V359.321a.911.911,0,0,1,1.821,0v10.016A.911.911,0,0,1,248.383,370.247Zm0,0" transform="translate(-221.062 -320.166)"/>
      <path id="Path_978875" data-name="Path 978875" d="M190.3,5.012a.91.91,0,0,1-.91-.91,1.812,1.812,0,0,0-.045-.421,2.5,2.5,0,0,0-2.5-1.858,2.639,2.639,0,0,0-2.123,1.024A2.11,2.11,0,0,0,184.3,4.1a.911.911,0,0,1-1.821,0,3.926,3.926,0,0,1,.778-2.339A4.47,4.47,0,0,1,186.842,0a4.32,4.32,0,0,1,4.275,3.275,3.575,3.575,0,0,1,.09.826.91.91,0,0,1-.911.91Zm0,0" transform="translate(-163.001 -0.001)"/>
      <path id="Path_978876" data-name="Path 978876" d="M146.147,20.144a.907.907,0,0,1-.492-.145,4.34,4.34,0,0,1-1.984-3.031,3.42,3.42,0,0,1-.05-.6,4.577,4.577,0,0,1,4.711-4.42,4.8,4.8,0,0,1,1.169.143.911.911,0,0,1-.444,1.767,2.972,2.972,0,0,0-.725-.088,2.759,2.759,0,0,0-2.89,2.6,1.806,1.806,0,0,0,.027.318,2.545,2.545,0,0,0,1.172,1.787.911.911,0,0,1-.494,1.676Zm0,0" transform="translate(-128.291 -10.668)"/>
      <path id="Path_978877" data-name="Path 978877" d="M118.623,56.26a.91.91,0,0,1-.9-.786,6.741,6.741,0,0,1-.072-.926,5.322,5.322,0,0,1,3.451-5.176.911.911,0,0,1,.546,1.737,3.5,3.5,0,0,0-2.176,3.438,4.851,4.851,0,0,0,.055.677.911.911,0,0,1-.777,1.027.977.977,0,0,1-.126.008Zm0,0" transform="translate(-105.09 -44.067)"/>
      <path id="Path_978878" data-name="Path 978878" d="M94.795,107.875a.907.907,0,0,1-.485-.14,5.139,5.139,0,0,1-1.948-2.365c-.008-.018-.015-.037-.022-.056a6.526,6.526,0,0,1-.528-2.6,5.625,5.625,0,0,1,3.453-5.483.911.911,0,1,1,.568,1.73,3.811,3.811,0,0,0-2.2,3.753,4.7,4.7,0,0,0,.4,1.926.778.778,0,0,1,.028.073,3.358,3.358,0,0,0,1.222,1.487.911.911,0,0,1-.487,1.681Zm0,0" transform="translate(-82.011 -86.807)"/>
      <path id="Path_978879" data-name="Path 978879" d="M87.7,171.078a.9.9,0,0,1-.595-.224,6.19,6.19,0,0,1-1.776-4.455,6.264,6.264,0,0,1,1.353-3.99.91.91,0,0,1,1.636.546v.007a.91.91,0,0,1-.212.584,4.71,4.71,0,0,0,.229,5.968.912.912,0,0,1-.635,1.566Zm0,0" transform="translate(-76.218 -144.756)"/>
      <path id="Path_978880" data-name="Path 978880" d="M111.394,242.442a6.016,6.016,0,0,1-2.879-.734,5.491,5.491,0,0,1-1.616-1.356l-1.075-1.323a4,4,0,0,0-.836-.751l-2.891-1.9a5.344,5.344,0,0,1-2.171-2.842l-.836-2.706a.909.909,0,0,1,1.474-.973.945.945,0,0,1,.256.4l.845,2.735a3.52,3.52,0,0,0,1.433,1.863l2.9,1.907a5.857,5.857,0,0,1,1.233,1.108l1.089,1.338a3.652,3.652,0,0,0,1.081.907,4.239,4.239,0,0,0,4.237-.157l1.651-1.091a.911.911,0,1,1,1,1.52l-1.651,1.09A5.856,5.856,0,0,1,111.394,242.442Zm0,0" transform="translate(-88.464 -205.108)"/>
      <path id="Path_978881" data-name="Path 978881" d="M247.827,26.431a.91.91,0,0,1-.91-.91V25.13a.861.861,0,0,1-.031-.163.882.882,0,0,1,.791-.986,1,1,0,0,1,.73.232.939.939,0,0,1,.331.669v.638A.911.911,0,0,1,247.827,26.431Zm0,0" transform="translate(-220.532 -21.42)"/>
      <path id="Path_978882" data-name="Path 978882" d="M255.531,5.011a.911.911,0,0,1-.911-.91,2.116,2.116,0,0,0-.424-1.259,2.637,2.637,0,0,0-2.12-1.02,2.492,2.492,0,0,0-2.5,1.841,1.868,1.868,0,0,0-.048.438.911.911,0,0,1-1.821,0,3.645,3.645,0,0,1,.093-.842A4.317,4.317,0,0,1,252.076,0a4.468,4.468,0,0,1,3.584,1.757,3.93,3.93,0,0,1,.782,2.343.911.911,0,0,1-.911.911Zm0,0" transform="translate(-221.274 0)"/>
      <path id="Path_978883" data-name="Path 978883" d="M310.984,20.144a.911.911,0,0,1-.493-1.676,2.525,2.525,0,0,0,1.166-1.753,2,2,0,0,0,.033-.352,2.759,2.759,0,0,0-2.89-2.6,2.972,2.972,0,0,0-.725.088.911.911,0,0,1-.444-1.766,4.8,4.8,0,0,1,1.168-.143,4.577,4.577,0,0,1,4.711,4.42,3.573,3.573,0,0,1-.055.639,4.323,4.323,0,0,1-1.979,3,.9.9,0,0,1-.492.145Zm0,0" transform="translate(-274.197 -10.668)"/>
      <path id="Path_978884" data-name="Path 978884" d="M354.552,56.257a.982.982,0,0,1-.126-.008.911.911,0,0,1-.777-1.027,4.845,4.845,0,0,0,.055-.677,3.5,3.5,0,0,0-2.176-3.438.911.911,0,1,1,.547-1.738,5.322,5.322,0,0,1,3.451,5.176,6.759,6.759,0,0,1-.072.926.912.912,0,0,1-.9.786Zm0,0" transform="translate(-313.444 -44.064)"/>
      <path id="Path_978885" data-name="Path 978885" d="M378.392,107.936a.911.911,0,0,1-.487-1.681,3.35,3.35,0,0,0,1.223-1.489c.009-.024.018-.047.027-.07a4.7,4.7,0,0,0,.4-1.926,3.81,3.81,0,0,0-2.2-3.753.911.911,0,0,1,.568-1.73,5.626,5.626,0,0,1,3.453,5.483,6.512,6.512,0,0,1-.528,2.606l-.021.055a5.13,5.13,0,0,1-1.949,2.364.906.906,0,0,1-.484.14Zm0,0" transform="translate(-336.533 -86.869)"/>
      <path id="Path_978886" data-name="Path 978886" d="M396.813,171.08a.909.909,0,0,1-.646-1.549l.006-.006a4.709,4.709,0,0,0,.236-5.974.912.912,0,1,1,1.451-1.1,6.275,6.275,0,0,1,1.326,3.957,6.174,6.174,0,0,1-1.731,4.414A.914.914,0,0,1,396.813,171.08Zm0,0" transform="translate(-353.654 -144.762)"/>
      <path id="Path_978887" data-name="Path 978887" d="M252.775,242.45a5.852,5.852,0,0,1-3.245-.968l-1.65-1.09a.909.909,0,0,1-.408-.76v-3.6a.911.911,0,0,1,1.821,0v3.114l1.242.82a4.233,4.233,0,0,0,4.244.154,3.634,3.634,0,0,0,1.072-.9l1.081-1.33a5.9,5.9,0,0,1,1.24-1.118l2.9-1.909A3.476,3.476,0,0,0,262.5,233l.846-2.736a.912.912,0,1,1,1.717.613l-.822,2.66a5.306,5.306,0,0,1-2.173,2.847l-2.894,1.906a4.02,4.02,0,0,0-.843.761l-1.068,1.315a5.469,5.469,0,0,1-1.607,1.35,6.02,6.02,0,0,1-2.885.737Zm0,0" transform="translate(-221.062 -205.116)"/>
      <path id="Path_978888" data-name="Path 978888" d="M248.622,26.383a.911.911,0,0,1-.911-.91v-.638a.912.912,0,0,1,.3-.672.926.926,0,0,1,.7-.235.941.941,0,0,1,.859.992.965.965,0,0,1-.031.172v.381a.909.909,0,0,1-.91.91Zm0,0" transform="translate(-221.274 -21.372)"/>
      <path id="Path_978889" data-name="Path 978889" d="M164.012,268.923a2.764,2.764,0,0,1-2.731-1.938c-.378-1.087-2.458-1.719-3.157-1.855a.911.911,0,1,1,.343-1.789c.381.073,3.743.776,4.534,3.043a1.07,1.07,0,0,0,1.435.655.911.911,0,0,1,.545,1.738A3.233,3.233,0,0,1,164.012,268.923Zm0,0" transform="translate(-140.587 -235.227)"/>
      <path id="Path_978890" data-name="Path 978890" d="M279.2,268.921a3.234,3.234,0,0,1-.969-.146.911.911,0,0,1,.553-1.735,1.067,1.067,0,0,0,1.427-.658c.791-2.267,4.152-2.97,4.534-3.043a.911.911,0,0,1,.343,1.789c-.7.137-2.779.768-3.157,1.855a2.764,2.764,0,0,1-2.731,1.938Zm0,0" transform="translate(-247.98 -235.224)"/>
      <path id="Path_978891" data-name="Path 978891" d="M279.2,268.921a3.234,3.234,0,0,1-.969-.146.911.911,0,0,1,.553-1.735,1.067,1.067,0,0,0,1.427-.658c.791-2.267,4.152-2.97,4.534-3.043a.911.911,0,0,1,.343,1.789c-.7.137-2.779.768-3.157,1.855a2.764,2.764,0,0,1-2.731,1.938Zm0,0" transform="translate(-247.98 -235.224)"/>
      <path id="Path_978892" data-name="Path 978892" d="M140,216.972a3.723,3.723,0,0,1-3.423-2.447.911.911,0,0,1,1.718-.606A1.874,1.874,0,0,0,140,215.152a.911.911,0,1,1,0,1.821Zm0,0" transform="translate(-121.952 -190.55)"/>
      <path id="Path_978893" data-name="Path 978893" d="M335.294,216.993a.911.911,0,1,1,0-1.821,1.892,1.892,0,0,0,1.7-1.227.911.911,0,0,1,1.72.6A3.723,3.723,0,0,1,335.294,216.993Zm0,0" transform="translate(-298.698 -190.571)"/>
      <path id="Path_978894" data-name="Path 978894" d="M170.332,170.311a.911.911,0,0,1-.911-.91c0-1.123-.119-1.14-1.578-1.355a13.126,13.126,0,0,1-2.353-.514,4.882,4.882,0,0,1-3.354-4.506.911.911,0,1,1,1.821-.006,3.067,3.067,0,0,0,2.11,2.784,11.461,11.461,0,0,0,2.042.44c1.468.216,3.134.461,3.134,3.156a.911.911,0,0,1-.911.91Zm0,0" transform="translate(-144.832 -144.815)"/>
      <path id="Path_978895" data-name="Path 978895" d="M208.433,63.384a.911.911,0,0,1-.911-.911c0-.86-1.806-.91-1.824-.91a.911.911,0,0,1,0-1.821c1.26,0,3.643.571,3.643,2.731a.911.911,0,0,1-.911.911Zm0,0" transform="translate(-182.933 -53.368)"/>
      <path id="Path_978896" data-name="Path 978896" d="M265.449,170.367a.91.91,0,0,1-.91-.91c0-2.7,1.665-2.94,3.133-3.156a11.472,11.472,0,0,0,2.042-.44,3.066,3.066,0,0,0,2.109-2.785.914.914,0,0,1,.91-.9h.007a.908.908,0,0,1,.9.907,4.881,4.881,0,0,1-3.354,4.506,13.124,13.124,0,0,1-2.353.514c-1.458.215-1.578.232-1.578,1.355A.911.911,0,0,1,265.449,170.367Zm0,0" transform="translate(-236.307 -144.87)"/>
      <path id="Path_978897" data-name="Path 978897" d="M265.449,63.384a.911.911,0,0,1-.91-.911c0-2.16,2.383-2.731,3.642-2.731a.911.911,0,0,1,0,1.821c-.035,0-1.824.055-1.824.91a.911.911,0,0,1-.911.911Zm0,0" transform="translate(-236.307 -53.368)"/>
      <path id="Path_978898" data-name="Path 978898" d="M205.7,140.185a.911.911,0,0,1,0-1.821c.035,0,1.824-.055,1.824-.911a.911.911,0,0,1,1.822,0C209.347,139.614,206.964,140.185,205.7,140.185Zm0,0" transform="translate(-182.936 -121.973)"/>
      <path id="Path_978899" data-name="Path 978899" d="M268.181,140.185c-1.26,0-3.642-.571-3.642-2.732a.911.911,0,0,1,1.821,0c0,.86,1.806.911,1.824.911a.911.911,0,0,1,0,1.821Zm0,0" transform="translate(-236.307 -121.973)"/>
      <path id="Path_978900" data-name="Path 978900" d="M70.091,326.095h-.91a.911.911,0,1,1,0-1.821h.91a.911.911,0,1,1,0,1.821Zm0,0" transform="translate(-60.981 -289.672)"/>
      <path id="Path_978901" data-name="Path 978901" d="M114.579,326.095h-2.731a.911.911,0,1,1,0-1.821h2.731a.911.911,0,1,1,0,1.821Zm0,0" transform="translate(-99.096 -289.672)"/>
      <path id="Path_978902" data-name="Path 978902" d="M74.644,360.232H69.18a.911.911,0,1,1,0-1.821h5.463a.911.911,0,1,1,0,1.821Zm0,0" transform="translate(-60.981 -320.166)"/>
      <path id="Path_978903" data-name="Path 978903" d="M157.247,360.232h-2.732a.911.911,0,0,1,0-1.821h2.732a.911.911,0,0,1,0,1.821Zm0,0" transform="translate(-137.211 -320.166)"/>
      <path id="Path_978904" data-name="Path 978904" d="M71,394.364H69.18a.911.911,0,1,1,0-1.821H71a.911.911,0,0,1,0,1.821Zm0,0" transform="translate(-60.981 -350.656)"/>
      <path id="Path_978905" data-name="Path 978905" d="M129.489,394.364h-9.106a.911.911,0,0,1,0-1.821h9.106a.911.911,0,1,1,0,1.821Zm0,0" transform="translate(-106.72 -350.656)"/>
      <path id="Path_978906" data-name="Path 978906" d="M419.958,326.095h-.91a.911.911,0,1,1,0-1.821h.91a.911.911,0,1,1,0,1.821Zm0,0" transform="translate(-373.514 -289.672)"/>
      <path id="Path_978907" data-name="Path 978907" d="M362.045,326.095h-2.732a.911.911,0,1,1,0-1.821h2.732a.911.911,0,0,1,0,1.821Zm0,0" transform="translate(-320.154 -289.672)"/>
      <path id="Path_978908" data-name="Path 978908" d="M381.846,360.232h-5.463a.911.911,0,0,1,0-1.821h5.463a.911.911,0,1,1,0,1.821Zm0,0" transform="translate(-335.403 -320.166)"/>
      <path id="Path_978909" data-name="Path 978909" d="M319.38,360.232h-2.732a.911.911,0,0,1,0-1.821h2.732a.911.911,0,0,1,0,1.821Zm0,0" transform="translate(-282.043 -320.166)"/>
      <path id="Path_978910" data-name="Path 978910" d="M412.337,394.364h-1.821a.911.911,0,0,1,0-1.821h1.821a.911.911,0,1,1,0,1.821Zm0,0" transform="translate(-365.894 -350.656)"/>
      <path id="Path_978911" data-name="Path 978911" d="M300.153,394.364h-9.106a.911.911,0,1,1,0-1.821h9.106a.911.911,0,1,1,0,1.821Zm0,0" transform="translate(-259.173 -350.656)"/>
    </g>
  </g>
</svg>
