<svg xmlns="http://www.w3.org/2000/svg" xmlns:xlink="http://www.w3.org/1999/xlink" width="108" height="108" viewBox="0 0 108 108">
  <defs>
    <filter id="Fondo" x="0" y="0" width="108" height="108" filterUnits="userSpaceOnUse">
      <feOffset dy="3" input="SourceAlpha"/>
      <feGaussianBlur stdDeviation="3" result="blur"/>
      <feFlood flood-opacity="0.161"/>
      <feComposite operator="in" in2="blur"/>
      <feComposite in="SourceGraphic"/>
    </filter>
  </defs>
  <g id="Group_1144142" data-name="Group 1144142" transform="translate(-325.999 -5651)">
    <g transform="matrix(1, 0, 0, 1, 326, 5651)" filter="url(#Fondo)">
      <g id="Fondo-2" data-name="Fondo" transform="translate(9 6)" fill="#e4fef4" stroke="#43896d" stroke-width="3">
        <circle cx="45" cy="45" r="45" stroke="none"/>
        <circle cx="45" cy="45" r="43.5" fill="none"/>
      </g>
    </g>
    <g id="Group_1144016" data-name="Group 1144016" transform="translate(353.655 5675.656)">
      <path id="Path_979811" data-name="Path 979811" d="M178.344,83.526v3.293l-4.026.519a9.218,9.218,0,0,1-1.144,2.766l2.7,3.3-2.47,2.47-3.3-2.7a9.218,9.218,0,0,1-2.766,1.144l-.519,4.026h-3.293l-.519-4.026a9.218,9.218,0,0,1-2.766-1.144l-3.3,2.7-2.47-2.47,2.7-3.3a9.218,9.218,0,0,1-1.144-2.766L152,86.819V83.526l4.026-.519a9.219,9.219,0,0,1,1.144-2.766l-2.7-3.3,2.47-2.47,3.3,2.7a9.218,9.218,0,0,1,2.766-1.144L163.526,72h3.293l.519,4.026A9.218,9.218,0,0,1,170.1,77.17l3.3-2.7,2.47,2.47-2.7,3.3a9.218,9.218,0,0,1,1.144,2.766Zm-8.471,1.647A4.692,4.692,0,1,0,168.5,88.5,4.7,4.7,0,0,0,169.873,85.172Zm0,0" transform="translate(-136.358 -64.591)" fill="#ffd6a4"/>
      <path id="Path_979812" data-name="Path 979812" d="M488,0h1.647V1.647H488Zm0,0" transform="translate(-437.781)" fill="#62d2f5"/>
      <path id="Path_979813" data-name="Path 979813" d="M408,0h6.586V1.647H408Zm0,0" transform="translate(-366.014)" fill="#62d2f5"/>
      <path id="Path_979814" data-name="Path 979814" d="M424,32h8.233v1.647H424Zm0,0" transform="translate(-380.367 -28.707)" fill="#62d2f5"/>
      <path id="Path_979815" data-name="Path 979815" d="M441.807,66.129l-3.464,3.463,1.164,1.164,3.7-3.7a.823.823,0,0,0,.241-.582V64h-1.647Zm0,0" transform="translate(-393.235 -57.414)" fill="#fbac42"/>
      <path id="Path_979816" data-name="Path 979816" d="M8,496H9.647v1.647H8Zm0,0" transform="translate(-7.177 -444.958)" fill="#62d2f5"/>
      <path id="Path_979817" data-name="Path 979817" d="M40,496h8.233v1.647H40Zm0,0" transform="translate(-35.884 -444.958)" fill="#62d2f5"/>
      <path id="Path_979818" data-name="Path 979818" d="M8,464H19.526v1.646H8Zm0,0" transform="translate(-7.177 -416.251)" fill="#62d2f5"/>
      <path id="Path_979819" data-name="Path 979819" d="M57.647,378.972l3.463-3.464-1.164-1.164-3.7,3.7a.823.823,0,0,0-.241.582v3.293h1.647Zm0,0" transform="translate(-50.237 -335.821)" fill="#fbac42"/>
      <path id="Path_979820" data-name="Path 979820" d="M73.754,45.217V58.949H53.172V50.717l-3.293-3.293H44.94V38.368H40l4.94-10.7A19.758,19.758,0,1,1,73.754,45.217Zm0,0" transform="translate(-35.884 -7.084)" fill="#e2e8ed"/>
      <path id="Path_979821" data-name="Path 979821" d="M144.233,364.528V360l-3.293,3.293H136l3.293,3.293v1.029h1.852Zm0,0" transform="translate(-122.005 -322.953)" fill="#a8bbc9"/>
      <path id="Path_979822" data-name="Path 979822" d="M185.218,413.009a8.327,8.327,0,0,1-4.975,1.244c-1.739-.034-3.458-.349-5.2-.412A17.63,17.63,0,0,0,168,415.094v4.222h20.581V409.6c-.2.177-.39.358-.576.548A20.981,20.981,0,0,1,185.218,413.009Zm0,0" transform="translate(-150.712 -367.451)" fill="#a8bbc9"/>
      <path id="Path_979823" data-name="Path 979823" d="M202.344,83.526v3.293l-4.026.519a9.218,9.218,0,0,1-1.144,2.766l2.7,3.3-2.47,2.47-3.3-2.7a9.218,9.218,0,0,1-2.766,1.144l-.519,4.026h-3.293l-.519-4.026a9.218,9.218,0,0,1-2.766-1.144l-3.3,2.7-2.47-2.47,2.7-3.3a9.218,9.218,0,0,1-1.144-2.766L176,86.819V83.526l4.026-.519a9.218,9.218,0,0,1,1.144-2.766l-2.7-3.3,2.47-2.47,3.3,2.7a9.219,9.219,0,0,1,2.766-1.144L187.526,72h3.293l.519,4.026A9.218,9.218,0,0,1,194.1,77.17l3.3-2.7,2.47,2.47-2.7,3.3a9.218,9.218,0,0,1,1.144,2.766Zm-8.471,1.647A4.692,4.692,0,1,0,192.5,88.5,4.7,4.7,0,0,0,193.873,85.172Zm0,0" transform="translate(-157.888 -64.591)" fill="#a8bbc9"/>
      <path id="Path_979824" data-name="Path 979824" d="M178.344,83.526v3.293l-4.026.519a9.218,9.218,0,0,1-1.144,2.766l2.7,3.3-2.47,2.47-3.3-2.7a9.218,9.218,0,0,1-2.766,1.144l-.519,4.026h-3.293l-.519-4.026a9.218,9.218,0,0,1-2.766-1.144l-3.3,2.7-2.47-2.47,2.7-3.3a9.218,9.218,0,0,1-1.144-2.766L152,86.819V83.526l4.026-.519a9.219,9.219,0,0,1,1.144-2.766l-2.7-3.3,2.47-2.47,3.3,2.7a9.218,9.218,0,0,1,2.766-1.144L163.526,72h3.293l.519,4.026A9.218,9.218,0,0,1,170.1,77.17l3.3-2.7,2.47,2.47-2.7,3.3a9.218,9.218,0,0,1,1.144,2.766Zm-8.471,1.647A4.692,4.692,0,1,0,168.5,88.5,4.7,4.7,0,0,0,169.873,85.172Zm0,0" transform="translate(-136.358 -64.591)" fill="#62d2f5"/>
      <path id="Path_979825" data-name="Path 979825" d="M215.409,128a7.409,7.409,0,1,0,7.409,7.409A7.409,7.409,0,0,0,215.409,128Zm0,12.11a4.692,4.692,0,1,1,3.326-1.374A4.7,4.7,0,0,1,215.409,140.11Zm0,0" transform="translate(-186.595 -114.828)" fill="#00a7e8"/>
      <path id="Path_979826" data-name="Path 979826" d="M21.172,8H9.647A1.647,1.647,0,0,0,8,9.647v6.586a1.647,1.647,0,0,0,1.647,1.647H12.94L17.056,22V17.879h4.116a1.647,1.647,0,0,0,1.647-1.647V9.647A1.647,1.647,0,0,0,21.172,8Zm0,0" transform="translate(-7.177 -7.177)" fill="#fbac42"/>
      <path id="Path_979827" data-name="Path 979827" d="M32,32h1.647v1.647H32Zm0,0" transform="translate(-28.707 -28.707)" fill="#ffead2"/>
      <path id="Path_979828" data-name="Path 979828" d="M64,32h6.586v1.647H64Zm0,0" transform="translate(-57.414 -28.707)" fill="#ffead2"/>
      <path id="Path_979829" data-name="Path 979829" d="M32,64h9.879v1.647H32Zm0,0" transform="translate(-28.707 -57.414)" fill="#ffead2"/>
      <path id="Path_979830" data-name="Path 979830" d="M361.646,382h11.526a1.647,1.647,0,0,0,1.647-1.647v-6.586a1.647,1.647,0,0,0-1.647-1.647h-3.293L365.763,368v4.116h-4.116A1.647,1.647,0,0,0,360,373.763v6.586A1.647,1.647,0,0,0,361.646,382Zm0,0" transform="translate(-322.953 -330.13)" fill="#fbac42"/>
      <path id="Path_979831" data-name="Path 979831" d="M464,464h1.646v1.646H464Zm0,0" transform="translate(-416.251 -416.251)" fill="#ffead2"/>
      <path id="Path_979832" data-name="Path 979832" d="M384,464h6.586v1.646H384Zm0,0" transform="translate(-344.484 -416.251)" fill="#ffead2"/>
      <path id="Path_979833" data-name="Path 979833" d="M384,432h9.879v1.647H384Zm0,0" transform="translate(-344.484 -387.544)" fill="#ffead2"/>
      <g id="Group_1144015" data-name="Group 1144015" transform="translate(0)">
        <path id="Path_979834" data-name="Path 979834" d="M180.787,1.651a18.935,18.935,0,0,1,0,37.87v1.647a20.458,20.458,0,0,0,8.233-1.724v.9h1.647V38.635a20.553,20.553,0,0,0,8.852-26.561l2.432-2.432a.823.823,0,0,0,.241-.582V6.591h-1.647V8.719l-1.811,1.811a20.574,20.574,0,0,0-29.328-7.1l.912,1.372a18.844,18.844,0,0,1,10.469-3.156Zm0,0" transform="translate(-151.973 -0.004)" fill="#252340"/>
        <path id="Path_979835" data-name="Path 979835" d="M46.8,193.153a.823.823,0,0,0-.241-.582l-1.888-1.888h2.952a.823.823,0,0,0,.582-.241l3.293-3.293a.823.823,0,0,0,.241-.582v-3.293H50.094v2.952l-2.811,2.811H38.569V180.8a.823.823,0,0,0-.823-.823H34.093l4.4-9.534a.818.818,0,0,0,.076-.345,19.183,19.183,0,0,1,.262-3.157l-1.623-.273a20.729,20.729,0,0,0-.285,3.247l-4.865,10.538a.824.824,0,0,0,.748,1.171h4.116v7.892l-2.229,2.229a.823.823,0,0,0-.241.582v3.293H36.1V192.67l1.987-1.987h4.258l2.811,2.811v7.892a.823.823,0,0,0,.823.823H64.09v-1.647H46.8Zm0,0" transform="translate(-28.69 -149.52)" fill="#252340"/>
        <path id="Path_979836" data-name="Path 979836" d="M149,73.143a10.118,10.118,0,0,0-.8,1.938l-3.478.451a.823.823,0,0,0-.72.817v3.293a.824.824,0,0,0,.717.817l3.478.451a10.145,10.145,0,0,0,.8,1.938l-2.341,2.859a.823.823,0,0,0,.055,1.1l2.47,2.47a.823.823,0,0,0,1.1.055l2.859-2.341a10.145,10.145,0,0,0,1.938.8l.451,3.478a.824.824,0,0,0,.817.717h3.293a.824.824,0,0,0,.817-.717l.451-3.482a10.12,10.12,0,0,0,1.938-.8l2.859,2.342a.823.823,0,0,0,1.1-.055l2.47-2.47a.823.823,0,0,0,.055-1.1l-2.341-2.856a10.169,10.169,0,0,0,.8-1.938l3.478-.451a.823.823,0,0,0,.72-.817V76.349a.824.824,0,0,0-.717-.817l-3.482-.451a10.1,10.1,0,0,0-.8-1.938l2.342-2.859a.823.823,0,0,0-.055-1.1l-2.47-2.47a.823.823,0,0,0-1.1-.055L162.848,69a10.169,10.169,0,0,0-1.938-.8l-.451-3.478a.823.823,0,0,0-.817-.72h-3.293a.824.824,0,0,0-.817.717l-.451,3.482a10.12,10.12,0,0,0-1.938.8l-2.859-2.342a.823.823,0,0,0-1.1.055l-2.47,2.47a.823.823,0,0,0-.055,1.1Zm.823-4.741,2.723,2.23a.824.824,0,0,0,.954.062,8.523,8.523,0,0,1,2.52-1.046.822.822,0,0,0,.627-.695l.427-3.308h1.848l.429,3.308a.822.822,0,0,0,.627.695,8.523,8.523,0,0,1,2.52,1.046.824.824,0,0,0,.954-.062l2.723-2.23,1.416,1.416-2.23,2.723a.824.824,0,0,0-.062.954,8.512,8.512,0,0,1,1.046,2.521.823.823,0,0,0,.695.626l3.308.429V78.92l-3.308.429a.822.822,0,0,0-.695.627A8.523,8.523,0,0,1,165.3,82.5a.824.824,0,0,0,.062.954l2.23,2.723-1.416,1.416-2.723-2.23a.824.824,0,0,0-.954-.062,8.523,8.523,0,0,1-2.52,1.046.822.822,0,0,0-.627.695l-.429,3.308h-1.848l-.429-3.308a.822.822,0,0,0-.627-.695A8.523,8.523,0,0,1,153.5,85.3a.824.824,0,0,0-.954.062l-2.723,2.23L148.4,86.173l2.23-2.723a.824.824,0,0,0,.062-.954,8.523,8.523,0,0,1-1.046-2.52.822.822,0,0,0-.695-.627l-3.308-.429V77.072l3.308-.429a.823.823,0,0,0,.695-.626A8.512,8.512,0,0,1,150.7,73.5a.824.824,0,0,0-.062-.954l-2.23-2.723Zm0,0" transform="translate(-129.182 -57.414)" fill="#252340"/>
        <path id="Path_979837" data-name="Path 979837" d="M231.816,157.344a5.527,5.527,0,1,0-5.527-5.527A5.527,5.527,0,0,0,231.816,157.344Zm0-9.408a3.881,3.881,0,1,1-3.881,3.881A3.881,3.881,0,0,1,231.816,147.936Zm0,0" transform="translate(-203.002 -131.235)" fill="#252340"/>
        <path id="Path_979838" data-name="Path 979838" d="M5.422,11.526,9.3,15.4a.823.823,0,0,0,1.405-.582V11.526H14a2.47,2.47,0,0,0,2.47-2.47V2.47A2.47,2.47,0,0,0,14,0H2.47A2.47,2.47,0,0,0,0,2.47V9.056a2.47,2.47,0,0,0,2.47,2.47ZM1.647,9.056V2.47a.823.823,0,0,1,.823-.823H14a.823.823,0,0,1,.823.823V9.056A.823.823,0,0,1,14,9.879H9.879a.823.823,0,0,0-.823.823v2.129L6.345,10.12a.823.823,0,0,0-.582-.241H2.47a.823.823,0,0,1-.823-.823Zm0,0" transform="translate(0 0)" fill="#252340"/>
        <path id="Path_979839" data-name="Path 979839" d="M32,32h1.647v1.647H32Zm0,0" transform="translate(-28.707 -28.707)" fill="#252340"/>
        <path id="Path_979840" data-name="Path 979840" d="M64,32h6.586v1.647H64Zm0,0" transform="translate(-57.414 -28.707)" fill="#252340"/>
        <path id="Path_979841" data-name="Path 979841" d="M32,64h9.879v1.647H32Zm0,0" transform="translate(-28.707 -57.414)" fill="#252340"/>
        <path id="Path_979842" data-name="Path 979842" d="M366,364.117h-2.952l-3.875-3.875a.823.823,0,0,0-1.405.582v3.293H354.47a2.47,2.47,0,0,0-2.47,2.47v6.586a2.47,2.47,0,0,0,2.47,2.47H366a2.47,2.47,0,0,0,2.47-2.47v-6.586A2.47,2.47,0,0,0,366,364.117Zm.823,9.056A.823.823,0,0,1,366,374H354.47a.823.823,0,0,1-.823-.823v-6.586a.823.823,0,0,1,.823-.823h4.116a.823.823,0,0,0,.823-.823v-2.129l2.711,2.711a.823.823,0,0,0,.582.241H366a.823.823,0,0,1,.823.823Zm0,0" transform="translate(-315.777 -322.954)" fill="#252340"/>
        <path id="Path_979843" data-name="Path 979843" d="M464,464h1.646v1.646H464Zm0,0" transform="translate(-416.251 -416.251)" fill="#252340"/>
        <path id="Path_979844" data-name="Path 979844" d="M384,464h6.586v1.646H384Zm0,0" transform="translate(-344.484 -416.251)" fill="#252340"/>
        <path id="Path_979845" data-name="Path 979845" d="M384,432h9.879v1.647H384Zm0,0" transform="translate(-344.484 -387.544)" fill="#252340"/>
        <path id="Path_979846" data-name="Path 979846" d="M8,496H9.647v1.647H8Zm0,0" transform="translate(-7.177 -444.958)" fill="#252340"/>
        <path id="Path_979847" data-name="Path 979847" d="M40,496h8.233v1.647H40Zm0,0" transform="translate(-35.884 -444.958)" fill="#252340"/>
        <path id="Path_979848" data-name="Path 979848" d="M8,464H19.526v1.646H8Zm0,0" transform="translate(-7.177 -416.251)" fill="#252340"/>
        <path id="Path_979849" data-name="Path 979849" d="M488,0h1.647V1.647H488Zm0,0" transform="translate(-437.781)" fill="#252340"/>
        <path id="Path_979850" data-name="Path 979850" d="M408,0h6.586V1.647H408Zm0,0" transform="translate(-366.014)" fill="#252340"/>
        <path id="Path_979851" data-name="Path 979851" d="M424,32h8.233v1.647H424Zm0,0" transform="translate(-380.367 -28.707)" fill="#252340"/>
      </g>
    </g>
  </g>
</svg>
