<svg xmlns="http://www.w3.org/2000/svg" xmlns:xlink="http://www.w3.org/1999/xlink" width="108" height="108" viewBox="0 0 108 108">
  <defs>
    <filter id="Fondo" x="0" y="0" width="108" height="108" filterUnits="userSpaceOnUse">
      <feOffset dy="3" input="SourceAlpha"/>
      <feGaussianBlur stdDeviation="3" result="blur"/>
      <feFlood flood-opacity="0.161"/>
      <feComposite operator="in" in2="blur"/>
      <feComposite in="SourceGraphic"/>
    </filter>
  </defs>
  <g id="Group_1144936" data-name="Group 1144936" transform="translate(-746.999 -1894.17)">
    <g id="Group_1144930" data-name="Group 1144930">
      <g id="Group_1144576" data-name="Group 1144576" transform="translate(0 29.5)">
        <g id="Icono" transform="translate(755.499 1175.67)">
          <g transform="matrix(1, 0, 0, 1, -8.5, 689)" filter="url(#Fondo)">
            <g id="Fondo-2" data-name="Fondo" transform="translate(9 6)" fill="#f1fef9" stroke="#43896d" stroke-width="3">
              <circle cx="45" cy="45" r="45" stroke="none"/>
              <circle cx="45" cy="45" r="43.5" fill="none"/>
            </g>
          </g>
        </g>
        <g id="Group_1144575" data-name="Group 1144575" transform="translate(767.336 1886.844)">
          <path id="Path_981051" data-name="Path 981051" d="M300.061,183.773h9.761v3.62h-9.761Z" transform="translate(-265.321 -161.111)" fill="#85caff"/>
          <path id="Path_981052" data-name="Path 981052" d="M381.563,183.773h1.3v3.62h-1.3Z" transform="translate(-338.36 -161.111)" fill="#4eb1fc"/>
          <path id="Path_981053" data-name="Path 981053" d="M203.8,244.42h9.761v3.62H203.8Z" transform="translate(-179.057 -215.46)" fill="#43f043"/>
          <path id="Path_981054" data-name="Path 981054" d="M285.3,244.42h1.3v3.62h-1.3Z" transform="translate(-252.096 -215.46)" fill="#2dd62d"/>
          <path id="Path_981055" data-name="Path 981055" d="M107.541,305.066H117.3v3.62h-9.761Z" transform="translate(-92.793 -269.809)" fill="#fcdb35"/>
          <path id="Path_981056" data-name="Path 981056" d="M189.043,305.066h1.3v3.62h-1.3Z" transform="translate(-165.831 -269.809)" fill="#fdc72e"/>
          <path id="Path_981057" data-name="Path 981057" d="M11.28,365.712h9.761v3.62H11.28Z" transform="translate(-6.527 -324.157)" fill="#ff5471"/>
          <path id="Path_981058" data-name="Path 981058" d="M92.783,365.712h1.3v3.62h-1.3Z" transform="translate(-79.567 -324.157)" fill="#f23353"/>
          <g id="Group_1144574" data-name="Group 1144574" transform="translate(25.113 4.723)">
            <path id="Path_981059" data-name="Path 981059" d="M261.292,58.528h17.874V66a1.077,1.077,0,0,1-.575.967,17.913,17.913,0,0,1-16.725,0,1.077,1.077,0,0,1-.575-.967V58.528Z" transform="translate(-255.691 -53.594)" fill="#7986bf" fill-rule="evenodd"/>
            <path id="Path_981060" data-name="Path 981060" d="M261.292,58.528h15.755v7.206a1,1,0,0,1-.575.967,17.059,17.059,0,0,1-15.181-1.19Z" transform="translate(-255.691 -53.594)" fill="#909cd1" fill-rule="evenodd"/>
            <path id="Path_981061" data-name="Path 981061" d="M207.8,14.691l13.348-3.576a2.746,2.746,0,0,1,1.485,0l13.348,3.576a.6.6,0,0,1,0,1.167l-13.348,3.576a2.747,2.747,0,0,1-1.485,0L207.8,15.858a.6.6,0,0,1,0-1.167Z" transform="translate(-207.357 -11.012)" fill="#3d4a75" fill-rule="evenodd"/>
            <path id="Path_981062" data-name="Path 981062" d="M249.149,14.364l-12.128,3.25a2.747,2.747,0,0,1-1.485,0l-12.128-3.25,12.128-3.25a2.747,2.747,0,0,1,1.485,0Z" transform="translate(-221.74 -11.012)" fill="#5d689e" fill-rule="evenodd"/>
            <path id="Path_981063" data-name="Path 981063" d="M467.136,97.178l1.417,1.417a.572.572,0,0,1,.173.419v5.459a.2.2,0,0,1-.337.14l-1.532-1.532-1.532,1.532a.2.2,0,0,1-.337-.139V99.014a.572.572,0,0,1,.173-.419l1.417-1.417a.4.4,0,0,1,.558,0Z" transform="translate(-438.235 -88.127)" fill="#fcdb35" fill-rule="evenodd"/>
            <path id="Path_981064" data-name="Path 981064" d="M468.011,105.906l-1.508-1.515-1.515,1.515v-5.22a.572.572,0,0,1,.173-.419l1.338-1.338,1.338,1.338a.572.572,0,0,1,.173.419Z" transform="translate(-438.235 -89.8)" fill="#ffeb87" fill-rule="evenodd"/>
            <path id="Path_981065" data-name="Path 981065" d="M295.317,250.513a1.929,1.929,0,0,1,1.924,1.924v-9.092a1.724,1.724,0,1,1,3.448,0v7.221a1.577,1.577,0,1,1,3.154,0v.517a1.513,1.513,0,0,1,3.026,0v1.241a1.465,1.465,0,0,1,2.931,0v7.719c0,2.079-1.41,6.329-3.489,6.329l-8.956-.32v-.617a3.653,3.653,0,0,0-1.238-2.8l-1.485-1.347a3.654,3.654,0,0,1-1.238-2.8v-6.059a1.929,1.929,0,0,1,1.924-1.924Z" transform="translate(-284.459 -217.674)" fill="#d9c5bf" fill-rule="evenodd"/>
            <path id="Path_981066" data-name="Path 981066" d="M308.028,251.821a1.907,1.907,0,0,1,.1.614v-9.092a1.724,1.724,0,1,1,3.448,0v7.221a1.577,1.577,0,0,1,3.154,0v.517a1.513,1.513,0,0,1,3.026,0v.507a1.465,1.465,0,1,1,2.931,0v8.452c0,2.079-1.41,6.329-3.489,6.329l-7.694-.275v-1.227a3.653,3.653,0,0,0-1.238-2.8l-1.485-1.347a3.653,3.653,0,0,1-1.238-2.8v-5.7a1.276,1.276,0,0,1,2.485-.41Z" transform="translate(-295.347 -217.673)" fill="#f0e3df" fill-rule="evenodd"/>
          </g>
          <path id="Path_981067" data-name="Path 981067" d="M325.741,466.056h11.476a.673.673,0,0,1,.673.673v2.289a.673.673,0,0,1-.673.673H325.741a.673.673,0,0,1-.673-.673v-2.289a.673.673,0,0,1,.673-.673Z" transform="translate(-287.732 -414.081)" fill="#4eb1fc"/>
          <path id="Path_981068" data-name="Path 981068" d="M349.2,466.056h9.04a.673.673,0,0,1,.673.673v2.289a.673.673,0,0,1-.673.673H349.2a.673.673,0,0,1-.673-.673v-2.289a.673.673,0,0,1,.673-.673Z" transform="translate(-308.754 -414.081)" fill="#85caff"/>
          <path id="Path_981069" data-name="Path 981069" d="M331.707,242.232v14.021a.631.631,0,0,1-1.261,0V243.893a1.731,1.731,0,0,1,1.261-1.661Z" transform="translate(-292.551 -213.499)" fill="#d9c5bf" fill-rule="evenodd"/>
          <path id="Path_981070" data-name="Path 981070" d="M364.914,312.884v2.224a.631.631,0,1,1-1.261,0v-.679a1.583,1.583,0,0,1,1.261-1.545Z" transform="translate(-322.31 -276.815)" fill="#d9c5bf" fill-rule="evenodd"/>
          <path id="Path_981071" data-name="Path 981071" d="M395.286,318.373v2.2a.631.631,0,1,1-1.261,0v-.705A1.519,1.519,0,0,1,395.286,318.373Z" transform="translate(-349.528 -281.734)" fill="#d9c5bf" fill-rule="evenodd"/>
          <path id="Path_981072" data-name="Path 981072" d="M424.431,323.654v1.731a.631.631,0,0,1-1.261,0v-.28A1.471,1.471,0,0,1,424.431,323.654Z" transform="translate(-375.646 -286.466)" fill="#d9c5bf" fill-rule="evenodd"/>
          <path id="Path_981073" data-name="Path 981073" d="M54.879,19.789l-.63-.63a.726.726,0,0,0-1.028,0l-.631.63V15.728l1.145-1.144,1.144,1.144v4.061Zm-7.037-2.438a17.123,17.123,0,0,1-16.382,0V11.9l7.26,1.946a3.452,3.452,0,0,0,1.86,0L47.841,11.9ZM39.1,5.526,26.2,8.982l12.9,3.456a2.034,2.034,0,0,0,1.108,0L53.1,8.982,40.2,5.526a2.024,2.024,0,0,0-1.108,0Zm17.023,9.387-1.658-1.659V9.981A1.333,1.333,0,0,0,53.922,7.7L40.581,4.122a3.445,3.445,0,0,0-1.861,0L25.378,7.7a1.331,1.331,0,0,0,0,2.57l4.628,1.24V17.77a.727.727,0,0,0,.353.623,18.529,18.529,0,0,0,18.583,0,.728.728,0,0,0,.353-.623V11.507l3.712-.995v2.742l-1.658,1.659a.728.728,0,0,0-.213.514v5.64a.924.924,0,0,0,1.579.653l1.02-1.02,1.02,1.02a.925.925,0,0,0,1.579-.653v-5.64a.726.726,0,0,0-.213-.514Zm-52,21.927a.726.726,0,0,1,.21-1.006L15.55,28.469l-1.208-.084a.727.727,0,0,1,.1-1.451l3.357.235a.726.726,0,0,1,.635.967L17.314,31.31a.727.727,0,0,1-1.371-.485l.4-1.141L5.123,37.049a.728.728,0,0,1-1.007-.21Zm6.032-10.984a.727.727,0,0,1,.209-1.007l11.225-7.365L20.375,17.4a.727.727,0,0,1,.1-1.45l3.359.235a.727.727,0,0,1,.634.968l-1.121,3.173a.727.727,0,1,1-1.371-.485l.4-1.141L11.154,26.066a.726.726,0,0,1-1.007-.21Zm25.312-2.47H43.78v2.171H35.459Zm9.048,3.625H34.732A.727.727,0,0,1,34,26.284V22.66a.728.728,0,0,1,.727-.727h9.776a.728.728,0,0,1,.727.727v3.625a.728.728,0,0,1-.727.727ZM25.455,29.686h8.322v2.171H25.455ZM24,28.96v3.625a.727.727,0,0,0,.727.727H34.5a.726.726,0,0,0,.727-.727V28.96a.727.727,0,0,0-.727-.727H24.729A.728.728,0,0,0,24,28.96Zm-.227,9.2V35.987H15.453v2.171Zm.727-3.625H14.726a.728.728,0,0,0-.727.727v3.625a.728.728,0,0,0,.727.727H24.5a.727.727,0,0,0,.727-.727V35.261A.726.726,0,0,0,24.5,34.533Zm-10.73,9.925H5.451V42.287h8.321v2.171Zm.727-3.625H4.724A.726.726,0,0,0,4,41.56v3.625a.727.727,0,0,0,.727.727H14.5a.727.727,0,0,0,.727-.727V41.56a.727.727,0,0,0-.727-.727ZM49.427,54.877H38.065V52.7H49.427ZM35.777,47.8a2.935,2.935,0,0,1-1-2.256V39.487a1.2,1.2,0,1,1,2.392,0v3.3a.727.727,0,0,0,1.454,0V30.4a1,1,0,1,1,1.993,0v7.218a.727.727,0,1,0,1.454,0,.849.849,0,1,1,1.7,0v.516a.727.727,0,0,0,1.454,0,.784.784,0,0,1,1.34-.553.775.775,0,0,1,.232.553v.51a.727.727,0,0,0,1.454,0,.738.738,0,0,1,1.476,0v8.446a9.71,9.71,0,0,1-1.162,4.155H38.574a4.351,4.351,0,0,0-1.313-2.1L35.777,47.8ZM48.985,36.451A2.181,2.181,0,0,0,47.8,36.8a2.412,2.412,0,0,0-.214-.246,2.232,2.232,0,0,0-2.81-.29,2.3,2.3,0,0,0-2.71-.786V30.4a2.45,2.45,0,1,0-4.9,0v6.724a2.649,2.649,0,0,0-3.846,2.364v6.056A4.393,4.393,0,0,0,34.8,48.876l1.484,1.347a2.961,2.961,0,0,1,.863,1.321,1.4,1.4,0,0,0-.536,1.1v2.287a1.4,1.4,0,0,0,1.4,1.4H49.482a1.4,1.4,0,0,0,1.4-1.4V52.643a1.4,1.4,0,0,0-.764-1.246,11.214,11.214,0,0,0,1.06-4.308V38.643a2.194,2.194,0,0,0-2.192-2.191Z" transform="translate(0 0)" fill-rule="evenodd"/>
        </g>
      </g>
    </g>
  </g>
</svg>
