<svg xmlns="http://www.w3.org/2000/svg" xmlns:xlink="http://www.w3.org/1999/xlink" width="108" height="108" viewBox="0 0 108 108">
  <defs>
    <filter id="Fondo" x="0" y="0" width="108" height="108" filterUnits="userSpaceOnUse">
      <feOffset dy="3" input="SourceAlpha"/>
      <feGaussianBlur stdDeviation="3" result="blur"/>
      <feFlood flood-opacity="0.161"/>
      <feComposite operator="in" in2="blur"/>
      <feComposite in="SourceGraphic"/>
    </filter>
  </defs>
  <g id="Group_1144969" data-name="Group 1144969" transform="translate(-6436.999 -703.168)">
    <g id="Group_1144588" data-name="Group 1144588">
      <g transform="matrix(1, 0, 0, 1, 6437, 703.17)" filter="url(#Fondo)">
        <g id="Fondo-2" data-name="Fondo" transform="translate(9 6)" fill="#f1fef9" stroke="#43896d" stroke-width="3">
          <circle cx="45" cy="45" r="45" stroke="none"/>
          <circle cx="45" cy="45" r="43.5" fill="none"/>
        </g>
      </g>
      <g id="Group_1144587" data-name="Group 1144587" transform="translate(6459.5 712.523)">
        <path id="Path_981108" data-name="Path 981108" d="M53.613,73.581H16V24H46.774l6.839,6.839Z" transform="translate(-7.145 -7.145)" fill="#e8edf1"/>
        <path id="Path_981109" data-name="Path 981109" d="M192.418,176.855,189,176l-10.258,2.565-5.21,9.676a1.71,1.71,0,0,0,.626,2.277l1.292.775a1.71,1.71,0,0,0,2.409-.7l3.449-6.9,5.984-1.71,5.129-1.71Z" transform="translate(-147.66 -142.903)" fill="#eec5a5"/>
        <path id="Path_981110" data-name="Path 981110" d="M169.71,352,168,357.984l5.984-1.71Z" transform="translate(-142.903 -300.097)" fill="#6a7073"/>
        <path id="Path_981111" data-name="Path 981111" d="M212.961,115.34l-.647-.647a2.565,2.565,0,0,0-3.627,0L184,139.379l4.274,4.274,24.687-24.687A2.565,2.565,0,0,0,212.961,115.34Z" transform="translate(-157.194 -87.476)" fill="#7e8488"/>
        <path id="Path_981112" data-name="Path 981112" d="M267.355,232.242h-3.419l-1.563,1.563a3.419,3.419,0,0,1-2.418,1h-17.39A2.565,2.565,0,0,1,240,232.242v-.855a2.565,2.565,0,0,1,2.565-2.565h7.694s3.054-1.647.855-6.839l3.419-3.419L257.1,216l5.129,5.129h5.129Z" transform="translate(-207.21 -178.629)" fill="#eec5a5"/>
        <path id="Path_981113" data-name="Path 981113" d="M310.839,30.839H304V24Z" transform="translate(-264.371 -7.145)" fill="#d9dbdd"/>
        <path id="Path_981114" data-name="Path 981114" d="M0,0H3.627V6.045H0Z" transform="translate(36.203 42.5) rotate(-45)" fill="#6a7073"/>
        <path id="Path_981115" data-name="Path 981115" d="M80.855,65.71h19.661a.855.855,0,1,0,0-1.71H80.855a.855.855,0,0,0,0,1.71Z" transform="translate(-64.307 -42.871)"/>
        <path id="Path_981116" data-name="Path 981116" d="M40.855,113.71H55.387a.855.855,0,0,0,0-1.71H40.855a.855.855,0,0,0,0,1.71Z" transform="translate(-28.581 -85.742)"/>
        <path id="Path_981117" data-name="Path 981117" d="M40.855,161.71h2.565a.855.855,0,1,0,0-1.71H40.855a.855.855,0,1,0,0,1.71Z" transform="translate(-28.581 -128.613)"/>
        <path id="Path_981118" data-name="Path 981118" d="M106.258,160h-9.4a.855.855,0,1,0,0,1.71h9.4a.855.855,0,1,0,0-1.71Z" transform="translate(-78.597 -128.613)"/>
        <path id="Path_981119" data-name="Path 981119" d="M53.677,208.855a.855.855,0,0,0-.855-.855H40.855a.855.855,0,1,0,0,1.71H52.823A.855.855,0,0,0,53.677,208.855Z" transform="translate(-28.581 -171.484)"/>
        <path id="Path_981120" data-name="Path 981120" d="M93.129,257.71a.855.855,0,1,0,0-1.71H88.855a.855.855,0,1,0,0,1.71Z" transform="translate(-71.452 -214.355)"/>
        <path id="Path_981121" data-name="Path 981121" d="M40.855,353.71h4.274a.855.855,0,1,0,0-1.71H40.855a.855.855,0,1,0,0,1.71Z" transform="translate(-28.581 -300.097)"/>
        <path id="Path_981122" data-name="Path 981122" d="M50.258,400h-9.4a.855.855,0,1,0,0,1.71h9.4a.855.855,0,1,0,0-1.71Z" transform="translate(-28.581 -342.968)"/>
        <path id="Path_981123" data-name="Path 981123" d="M51.968,304H40.855a.855.855,0,0,0,0,1.71H51.968a.855.855,0,0,0,0-1.71Z" transform="translate(-28.581 -257.226)"/>
        <path id="Path_981124" data-name="Path 981124" d="M114.565,352h-1.71a.855.855,0,1,0,0,1.71h1.71a.855.855,0,1,0,0-1.71Z" transform="translate(-92.887 -300.097)"/>
        <path id="Path_981125" data-name="Path 981125" d="M40.855,257.71h1.71a.855.855,0,1,0,0-1.71h-1.71a.855.855,0,1,0,0,1.71Z" transform="translate(-28.581 -214.355)"/>
        <path id="Path_981126" data-name="Path 981126" d="M208,112.855a.855.855,0,0,0,.855.855h7.694a.855.855,0,0,0,0-1.71h-7.694A.855.855,0,0,0,208,112.855Z" transform="translate(-178.629 -85.742)"/>
        <path id="Path_981127" data-name="Path 981127" d="M60.145,41.645H55.37l-1.71-1.71,3.67-3.67a.855.855,0,0,0,0-1.209L55.37,33.1l1-1a3.423,3.423,0,0,0,0-4.836l-.647-.647a3.419,3.419,0,0,0-4.836,0l-3.566,3.566V23.694a.855.855,0,0,0-.25-.6L40.233,16.25a.855.855,0,0,0-.6-.25H8.855A.855.855,0,0,0,8,16.855V66.435a.855.855,0,0,0,.855.855H46.468a.855.855,0,0,0,.855-.855v-9.4h5.422a4.246,4.246,0,0,0,3.022-1.252l1.313-1.313h3.065A.855.855,0,0,0,61,53.613V42.5a.855.855,0,0,0-.855-.855Zm-7.694-2.919L51.1,37.371l3.065-3.065,1.356,1.356ZM52.1,27.821a1.71,1.71,0,0,1,2.418,0l.647.647a1.712,1.712,0,0,1,0,2.418l-1,1L51.1,28.823Zm.855,5.276-9.9,9.9-3.065-3.065,9.9-9.9ZM42.785,49.339H39.128l4.426-4.426C44.373,47.757,43.223,48.989,42.785,49.339Zm-10.85,3.419v.855a3.432,3.432,0,0,0,.033.468l-.888.888L28.015,51.9l8.194-8.194,3.065,3.065L36.71,49.339H35.355a3.423,3.423,0,0,0-3.419,3.419Zm-4.706.777,2.22,2.22-3.107.888Zm13.255-7.97L37.419,42.5l1.356-1.356,3.065,3.065Zm-1.3-7.246L33.41,39.968a.855.855,0,0,0-.53.44l-3.449,6.9a.855.855,0,0,1-1.2.351l-1.292-.775a.854.854,0,0,1-.313-1.138L31.654,36.4l9.684-2.421,1.747.437Zm-4.94,3.19,2.45-.7-4.2,4.2Zm6.242-22.59,3.92,3.92h-3.92Zm5.129,46.662H9.71V17.71H38.774v5.984a.855.855,0,0,0,.855.855h5.984v7.339L44.5,33l-2.95-.737a.856.856,0,0,0-.415,0L30.873,34.832a.855.855,0,0,0-.545.424l-5.21,9.676a2.561,2.561,0,0,0,.939,3.415l1.292.775a2.559,2.559,0,0,0,.735.3L26.2,51.3a.851.851,0,0,0-.217.37l-1.71,5.984a.855.855,0,0,0,1.057,1.057L31.316,57a.854.854,0,0,0,.37-.217L32.7,55.766a3.414,3.414,0,0,0,2.653,1.266H45.613ZM59.29,52.758H56.726a.855.855,0,0,0-.6.25l-1.563,1.563a2.547,2.547,0,0,1-1.813.751H35.355a1.712,1.712,0,0,1-1.71-1.71v-.855a1.712,1.712,0,0,1,1.71-1.71h7.694a.854.854,0,0,0,.406-.1,4.11,4.11,0,0,0,1.623-1.867,7.071,7.071,0,0,0-.172-5.516l4.982-4.982,1.356,1.356L48.428,42.75a.855.855,0,0,0,1.209,1.209l2.815-2.815,1.96,1.96a.855.855,0,0,0,.6.25H59.29Z"/>
      </g>
    </g>
  </g>
</svg>
