<svg xmlns="http://www.w3.org/2000/svg" xmlns:xlink="http://www.w3.org/1999/xlink" width="108" height="108" viewBox="0 0 108 108">
  <defs>
    <filter id="Fondo" x="0" y="0" width="108" height="108" filterUnits="userSpaceOnUse">
      <feOffset dy="3" input="SourceAlpha"/>
      <feGaussianBlur stdDeviation="3" result="blur"/>
      <feFlood flood-opacity="0.161"/>
      <feComposite operator="in" in2="blur"/>
      <feComposite in="SourceGraphic"/>
    </filter>
  </defs>
  <g id="Group_1144941" data-name="Group 1144941" transform="translate(-273.999 -3336.17)">
    <g id="Group_1144712" data-name="Group 1144712" transform="translate(0 29.5)">
      <g transform="matrix(1, 0, 0, 1, 274, 3306.67)" filter="url(#Fondo)">
        <g id="Fondo-2" data-name="Fondo" transform="translate(9 6)" fill="#f1fef9" stroke="#43896d" stroke-width="3">
          <circle cx="45" cy="45" r="45" stroke="none"/>
          <circle cx="45" cy="45" r="43.5" fill="none"/>
        </g>
      </g>
      <g id="FILLED_OUTLINE" transform="translate(281.696 3312.392)">
        <path id="Path_981395" data-name="Path 981395" d="M124.495,281.759v-1.952l.667-1.334a2.928,2.928,0,0,0,.309-1.309v-2.237a2.928,2.928,0,1,0-5.856,0v2.237a2.928,2.928,0,0,0,.309,1.309l.667,1.334v1.952H104a3.9,3.9,0,0,0,3.9,3.9h8.783v13.663H128.4V285.663h8.783a3.9,3.9,0,0,0,3.9-3.9Z" transform="translate(-77.242 -224.77)" fill="#f49971"/>
        <path id="Path_981396" data-name="Path 981396" d="M345.759,168a8.787,8.787,0,0,0-7.87,12.687L336,186.543l5.732-1.952A8.784,8.784,0,1,0,345.759,168Z" transform="translate(-280.94 -133.457)" fill="#ffd576"/>
        <path id="Path_981397" data-name="Path 981397" d="M376,240h1.952v1.952H376Z" transform="translate(-316.06 -196.674)" fill="#f4c36e"/>
        <path id="Path_981398" data-name="Path 981398" d="M408,240h1.952v1.952H408Z" transform="translate(-344.156 -196.674)" fill="#f4c36e"/>
        <path id="Path_981399" data-name="Path 981399" d="M440,240h1.952v1.952H440Z" transform="translate(-372.252 -196.674)" fill="#f4c36e"/>
        <path id="Path_981400" data-name="Path 981400" d="M193.079,235.292a7.8,7.8,0,0,1,11.089-10.468l-.471-2.129,1.906-.421,1.294,5.856a.976.976,0,0,1-1.834.629,5.857,5.857,0,1,0-10.312,5.526Z" transform="translate(-154.47 -181.109)" fill="#ffc8bb"/>
        <path id="Path_981401" data-name="Path 981401" d="M40.386,185.193h0a4,4,0,0,0-5.7,0l-1.9,1.921-1.9-1.921a4,4,0,0,0-5.7,0h0a4.105,4.105,0,0,0,0,5.762l7.6,7.683,7.6-7.683a4.105,4.105,0,0,0,0-5.762Z" transform="translate(-7.001 -147.505)" fill="#ffd576"/>
        <path id="Path_981402" data-name="Path 981402" d="M201.566,32.938a3.936,3.936,0,0,0-1.753-3.275l-1.417-.945A3.448,3.448,0,0,0,195.188,24h-.049a3.332,3.332,0,0,0-2.356.976A3.332,3.332,0,0,0,190.427,24h-.049a3.448,3.448,0,0,0-3.208,4.718l-1.417.945A3.936,3.936,0,0,0,184,32.938a2.878,2.878,0,0,0,1.967,2.749l-.015.025a3.72,3.72,0,0,0,.863,5.039l.1.073a3.72,3.72,0,0,0,2.232.744,4.075,4.075,0,0,0,2.881-1.194l.758-.758.758.758a4.075,4.075,0,0,0,2.881,1.194,3.72,3.72,0,0,0,2.232-.744l.1-.073a3.72,3.72,0,0,0,.863-5.039l-.015-.025a2.878,2.878,0,0,0,1.967-2.749Z" transform="translate(-147.482 -7.024)" fill="#353560"/>
        <path id="Path_981403" data-name="Path 981403" d="M201.566,32.938a3.936,3.936,0,0,0-1.753-3.275l-1.417-.945A3.448,3.448,0,0,0,195.188,24h-.049a3.332,3.332,0,0,0-2.356.976A3.332,3.332,0,0,0,190.427,24h-.049a3.448,3.448,0,0,0-3.208,4.718l-1.417.945A3.936,3.936,0,0,0,184,32.938a2.878,2.878,0,0,0,1.967,2.749l-.015.025a3.72,3.72,0,0,0,.863,5.039l.1.073a3.72,3.72,0,0,0,2.232.744,4.075,4.075,0,0,0,2.881-1.194l.758-.758.758.758a4.075,4.075,0,0,0,2.881,1.194,3.72,3.72,0,0,0,2.232-.744l.1-.073a3.72,3.72,0,0,0,.863-5.039l-.015-.025a2.878,2.878,0,0,0,1.967-2.749Z" transform="translate(-147.482 -7.024)" fill="#689cda"/>
        <path id="Path_981404" data-name="Path 981404" d="M39.227,44.318l-1.777-.809A29.371,29.371,0,0,1,55.025,27.784l.605,1.856a27.415,27.415,0,0,0-16.4,14.678Z" transform="translate(-18.81 -10.346)" fill="#dfdfdf"/>
        <path id="Path_981405" data-name="Path 981405" d="M36.686,297.411a29.3,29.3,0,0,1-20.124-25.822l1.947-.133a27.347,27.347,0,0,0,18.781,24.1Z" transform="translate(-0.47 -224.292)" fill="#dfdfdf"/>
        <path id="Path_981406" data-name="Path 981406" d="M326.124,331.319l-.605-1.856a27.383,27.383,0,0,0,18.044-19.388l1.895.47a29.335,29.335,0,0,1-19.333,20.774Z" transform="translate(-271.737 -258.2)" fill="#dfdfdf"/>
        <path id="Path_981407" data-name="Path 981407" d="M341.923,44.318a27.415,27.415,0,0,0-16.4-14.678l.605-1.856A29.371,29.371,0,0,1,343.7,43.509Z" transform="translate(-271.737 -10.346)" fill="#dfdfdf"/>
        <path id="Path_981408" data-name="Path 981408" d="M248.976,32a.976.976,0,0,0-.976.976V45.663a.976.976,0,1,0,1.952,0V32.976A.976.976,0,0,0,248.976,32Z" transform="translate(-203.675 -14.048)" fill="#4484d1"/>
        <path id="Path_981409" data-name="Path 981409" d="M285.887,64.892l-.034-.034a.952.952,0,0,1,0-1.346l.268-.268q.063-.063.121-.13a.96.96,0,0,1,1.124-.256l.046.021a.954.954,0,0,1,.323,1.493q-.112.131-.234.253l-.268.268a.952.952,0,0,1-1.346,0Z" transform="translate(-236.665 -41.067)" fill="#4484d1"/>
        <path id="Path_981410" data-name="Path 981410" d="M279.751,105.816a3.883,3.883,0,0,1-3.231-1.73h0a.952.952,0,0,1,.264-1.32l.041-.027a.952.952,0,0,1,1.32.264,1.932,1.932,0,0,0,1.61.861.968.968,0,0,1,.9.661l.009.025a.949.949,0,0,1-.876,1.266Z" transform="translate(-228.575 -76.017)" fill="#4484d1"/>
        <path id="Path_981411" data-name="Path 981411" d="M208.876,64.892l.034-.034a.952.952,0,0,0,0-1.346l-.268-.268q-.063-.063-.121-.13a.96.96,0,0,0-1.124-.256l-.046.021a.954.954,0,0,0-.323,1.493q.112.131.234.253l.268.268A.952.952,0,0,0,208.876,64.892Z" transform="translate(-167.496 -41.067)" fill="#4484d1"/>
        <path id="Path_981412" data-name="Path 981412" d="M200.884,105.816a3.883,3.883,0,0,0,3.231-1.73h0a.952.952,0,0,0-.264-1.32l-.041-.027a.952.952,0,0,0-1.32.264,1.932,1.932,0,0,1-1.61.861.968.968,0,0,0-.9.661l-.009.025a.949.949,0,0,0,.876,1.266h.036Z" transform="translate(-161.459 -76.017)" fill="#4484d1"/>
        <g id="Group_1144711" data-name="Group 1144711" transform="translate(16.026 16)">
          <path id="Path_981413" data-name="Path 981413" d="M135.037,274.735a.976.976,0,0,0-.976-.976H118.446v-.746l.564-1.128a3.924,3.924,0,0,0,.412-1.746V267.9a3.9,3.9,0,0,0-7.807,0v2.237a3.923,3.923,0,0,0,.412,1.746l.564,1.128v.746H96.976a.976.976,0,0,0-.976.976,4.885,4.885,0,0,0,4.88,4.88h7.807V292.3h1.952V278.639a.976.976,0,0,0-.976-.976H100.88a2.933,2.933,0,0,1-2.761-1.952h15.448a.976.976,0,0,0,.976-.976v-1.952a.976.976,0,0,0-.1-.436l-.667-1.334a1.962,1.962,0,0,1-.206-.873V267.9a1.952,1.952,0,1,1,3.9,0v2.237a1.962,1.962,0,0,1-.206.873l-.667,1.334a.976.976,0,0,0-.1.436v1.952a.976.976,0,0,0,.976.976h15.448a2.933,2.933,0,0,1-2.761,1.952h-8.783a.976.976,0,0,0-.976.976V292.3h1.952V279.615h7.807a4.885,4.885,0,0,0,4.88-4.88Z" transform="translate(-86.244 -233.746)" fill="#473a37"/>
          <path id="Path_981414" data-name="Path 981414" d="M328.291,180.209a.976.976,0,0,0,1,.228l5.35-1.822a9.761,9.761,0,1,0-5.665-8.861,9.661,9.661,0,0,0,.842,3.971l-1.771,5.489A.976.976,0,0,0,328.291,180.209Zm3.447-6.986a7.726,7.726,0,0,1-.811-3.469,7.807,7.807,0,1,1,7.807,7.807,7.719,7.719,0,0,1-3.58-.867.976.976,0,0,0-.763-.057l-3.891,1.325,1.292-4.005a.975.975,0,0,0-.055-.734Z" transform="translate(-289.941 -142.428)" fill="#473a37"/>
          <path id="Path_981415" data-name="Path 981415" d="M376,240h1.952v1.952H376Z" transform="translate(-332.086 -212.674)" fill="#473a37"/>
          <path id="Path_981416" data-name="Path 981416" d="M408,240h1.952v1.952H408Z" transform="translate(-360.182 -212.674)" fill="#473a37"/>
          <path id="Path_981417" data-name="Path 981417" d="M440,240h1.952v1.952H440Z" transform="translate(-388.279 -212.674)" fill="#473a37"/>
          <path id="Path_981418" data-name="Path 981418" d="M199.806,225.412a5.887,5.887,0,0,1,5.293,3.347.976.976,0,0,0,1.834-.629l-1.294-5.856-1.906.421.471,2.129a7.8,7.8,0,0,0-11.089,10.468l1.672-1.007a5.857,5.857,0,0,1,5.02-8.873Z" transform="translate(-170.531 -197.11)" fill="#473a37"/>
          <path id="Path_981419" data-name="Path 981419" d="M25.089,192.3a.976.976,0,0,0,1.387,0l7.6-7.683a5.089,5.089,0,0,0,0-7.135,4.978,4.978,0,0,0-7.089,0l-1.207,1.22-1.207-1.22a4.978,4.978,0,0,0-7.089,0,5.089,5.089,0,0,0,0,7.135Zm-6.215-13.446a3.026,3.026,0,0,1,4.314,0l1.9,1.921a.976.976,0,0,0,1.387,0l1.9-1.921a3.026,3.026,0,0,1,4.314,0,3.131,3.131,0,0,1,0,4.389l-6.909,6.982-6.909-6.982A3.131,3.131,0,0,1,18.874,178.856Z" transform="translate(-16.026 -156.481)" fill="#473a37"/>
          <path id="Path_981420" data-name="Path 981420" d="M177.635,29.08a4.7,4.7,0,0,0,1.57,5.427l.1.073a4.725,4.725,0,0,0,2.817.939,5.018,5.018,0,0,0,3.572-1.479l.068-.068.068.068a5.018,5.018,0,0,0,3.572,1.479,4.725,4.725,0,0,0,2.817-.939l.1-.073a4.7,4.7,0,0,0,1.57-5.427,3.859,3.859,0,0,0,1.635-3.166,4.9,4.9,0,0,0-2.187-4.087l-.822-.548A4.431,4.431,0,0,0,188.165,16h-.049a4.278,4.278,0,0,0-2.356.7A4.278,4.278,0,0,0,183.4,16h-.049a4.431,4.431,0,0,0-4.344,5.279l-.822.548A4.9,4.9,0,0,0,176,25.914,3.859,3.859,0,0,0,177.635,29.08Zm9.1,3.056V18.4a2.339,2.339,0,0,1,1.38-.446h.049a2.475,2.475,0,0,1,1.75,4.224l-.941.941,1.38,1.38.941-.941a4.5,4.5,0,0,0,.408-.47l.546.364a2.954,2.954,0,0,1,1.318,2.463,1.932,1.932,0,0,1-3.54,1.072l-.528-.792-1.624,1.083.528.792a3.885,3.885,0,0,0,3.655,1.705,2.744,2.744,0,0,1-.916,3.172l-.1.073a2.761,2.761,0,0,1-1.646.549,3.079,3.079,0,0,1-2.191-.908l-.472-.472Zm-7.465-8.685.546-.364a4.491,4.491,0,0,0,.408.47l.941.941,1.38-1.38-.941-.941a2.475,2.475,0,0,1,1.75-4.224h.049a2.339,2.339,0,0,1,1.38.446V32.187l-.472.472a3.079,3.079,0,0,1-2.191.908,2.761,2.761,0,0,1-1.646-.549l-.1-.073a2.744,2.744,0,0,1-.915-3.172,3.886,3.886,0,0,0,3.655-1.705l.528-.792-1.624-1.083-.528.792a1.932,1.932,0,0,1-3.54-1.072,2.954,2.954,0,0,1,1.318-2.463Z" transform="translate(-156.485 -16)" fill="#473a37"/>
          <path id="Path_981421" data-name="Path 981421" d="M55.63,29.639l-.605-1.856A29.371,29.371,0,0,0,37.45,43.509l1.777.809a27.415,27.415,0,0,1,16.4-14.678Z" transform="translate(-34.837 -26.346)" fill="#473a37"/>
          <path id="Path_981422" data-name="Path 981422" d="M24.3,286.475a27.141,27.141,0,0,1-5.791-15.019l-1.947.133a29.3,29.3,0,0,0,20.124,25.822l.605-1.856a27.267,27.267,0,0,1-12.991-9.08Z" transform="translate(-16.496 -240.293)" fill="#473a37"/>
          <path id="Path_981423" data-name="Path 981423" d="M337.024,322.115a27.4,27.4,0,0,1-11.5,7.349l.605,1.856a29.335,29.335,0,0,0,19.333-20.774l-1.895-.47a27.34,27.34,0,0,1-6.54,12.04Z" transform="translate(-287.764 -274.2)" fill="#473a37"/>
          <path id="Path_981424" data-name="Path 981424" d="M341.923,44.318l1.776-.809a29.371,29.371,0,0,0-17.575-15.725l-.605,1.856a27.415,27.415,0,0,1,16.4,14.678Z" transform="translate(-287.764 -26.347)" fill="#473a37"/>
        </g>
      </g>
    </g>
  </g>
</svg>
