<svg xmlns="http://www.w3.org/2000/svg" xmlns:xlink="http://www.w3.org/1999/xlink" width="108" height="108" viewBox="0 0 108 108">
  <defs>
    <filter id="Fondo" x="0" y="0" width="108" height="108" filterUnits="userSpaceOnUse">
      <feOffset dy="3" input="SourceAlpha"/>
      <feGaussianBlur stdDeviation="3" result="blur"/>
      <feFlood flood-opacity="0.161"/>
      <feComposite operator="in" in2="blur"/>
      <feComposite in="SourceGraphic"/>
    </filter>
  </defs>
  <g id="Group_1143834" data-name="Group 1143834" transform="translate(-1166 -1534)">
    <g transform="matrix(1, 0, 0, 1, 1166, 1534)" filter="url(#Fondo)">
      <g id="Fondo-2" data-name="Fondo" transform="translate(9 6)" fill="#e4fef4" stroke="#43896d" stroke-width="3">
        <circle cx="45" cy="45" r="45" stroke="none"/>
        <circle cx="45" cy="45" r="43.5" fill="none"/>
      </g>
    </g>
    <g id="Group_1143833" data-name="Group 1143833" transform="translate(1128.319 1553.951)">
      <g id="Group_1143826" data-name="Group 1143826" transform="translate(69.91 0.91)">
        <path id="Path_978957" data-name="Path 978957" d="M157.649,8.106V57.47l-36.871,4.263L119.3,33.94l1.48-26.44h36.265A.607.607,0,0,1,157.649,8.106Z" transform="translate(-114.107 -7.5)" fill="#ffeba8"/>
        <path id="Path_978958" data-name="Path 978958" d="M87.072,7.5V61.733l-6.132.71.152-49.419c0-1.884,1.716-4.591,1.716-4.591A5.425,5.425,0,0,1,85.859,7.5h1.213Z" transform="translate(-80.401 -7.5)" fill="#f5f8f9"/>
        <path id="Path_978959" data-name="Path 978959" d="M78.926,15.08V68.827L76.5,69.1V19.619A5.452,5.452,0,0,1,78.926,15.08Z" transform="translate(-76.5 -14.161)" fill="#e8edf2"/>
        <path id="Path_978960" data-name="Path 978960" d="M119.161,421.777h3.032a.607.607,0,0,1,.606.606v1.092l-.368,1.049a.607.607,0,0,1-.606.606l-36.365-.217c-3.014,0-5.822-1.942-5.822-4.956,0-1.758.64-2.7,1.74-4.319a5.434,5.434,0,0,1,3.337-1.138h37.478a.606.606,0,0,1,.606.606v2.426a.607.607,0,0,1-.606.606h-3.032l-1.464,1.819Z" transform="translate(-79.257 -365.136)" fill="#fddf7c"/>
        <path id="Path_978961" data-name="Path 978961" d="M120.042,431.726v1.334a.607.607,0,0,1-.606.606H81.958A5.458,5.458,0,0,1,78.1,424.35a5.389,5.389,0,0,1,.523-.46,5.428,5.428,0,0,0-.545,2.378v.97a4.488,4.488,0,0,0,4.488,4.488Z" transform="translate(-76.5 -373.387)" fill="#fdd759"/>
        <path id="Path_978962" data-name="Path 978962" d="M142.765,448.139H108.319a1.819,1.819,0,1,1,0-3.639h34.445v1.213l-.639.606.639.606Z" transform="translate(-102.861 -391.498)" fill="#e8edf2"/>
        <path id="Path_978963" data-name="Path 978963" d="M183.219,104.322a19.806,19.806,0,0,0,1.281-4.8,7.325,7.325,0,0,0-2.264-6.242C180.3,91.443,179,88.938,179,84.828a10,10,0,0,1,6.746-9.793c.828-.31,1.646-.619,2.565-.868a13.96,13.96,0,0,1,2.16-.167h1.507a17.2,17.2,0,0,1,5.579.894c2.85,1.108,5.861,3.17,5.861,7.687a10.209,10.209,0,0,0,.446,4.038c.717,1.831,2.376,2.792,2.376,3.759,0,1.053-.889,1.684-1.4,2.538-1.391,2.317-.035,3.654-.737,5.346a2.635,2.635,0,0,1-2.293,1.615,14.163,14.163,0,0,1-3.561-.086c-3.138-.427-3.749,2.516-4.155,4.531Z" transform="translate(-166.568 -65.934)" fill="#d1a08f"/>
        <path id="Path_978964" data-name="Path 978964" d="M178.662,93.828a7.329,7.329,0,0,1,2.264,6.243,31.99,31.99,0,0,1-1.494,5.411h-2.213a19.789,19.789,0,0,0,1.282-4.8,7.329,7.329,0,0,0-2.264-6.243C174.3,92.6,173,90.1,173,85.988c0-5.352,4.317-9.787,10.084-10.668-4.511,1.59-7.658,5.492-7.658,10.062C175.426,89.491,176.726,92,178.662,93.828Z" transform="translate(-161.296 -67.094)" fill="#c68d7a"/>
        <g id="Group_1143824" data-name="Group 1143824" transform="translate(16.192 11.825)">
          <path id="Path_978965" data-name="Path 978965" d="M225.525,111.267H224.7a.244.244,0,0,1-.234-.182,6.762,6.762,0,0,0-.655-1.584.242.242,0,0,1,.036-.294l.583-.583a.241.241,0,0,0,0-.343l-1.943-1.943a.241.241,0,0,0-.343,0l-.583.583a.242.242,0,0,1-.294.036,6.762,6.762,0,0,0-1.584-.655.244.244,0,0,1-.182-.234v-.826a.243.243,0,0,0-.243-.243h-2.748a.243.243,0,0,0-.243.243v.826a.244.244,0,0,1-.182.234,6.762,6.762,0,0,0-1.584.655.242.242,0,0,1-.294-.036l-.583-.583a.241.241,0,0,0-.343,0l-1.943,1.943a.241.241,0,0,0,0,.343l.583.583a.242.242,0,0,1,.036.294,6.762,6.762,0,0,0-.655,1.584.244.244,0,0,1-.234.182h-.826a.243.243,0,0,0-.243.243v2.748a.243.243,0,0,0,.243.243h.826a.244.244,0,0,1,.234.182,6.762,6.762,0,0,0,.655,1.584.242.242,0,0,1-.036.294l-.583.583a.241.241,0,0,0,0,.343l1.943,1.943a.241.241,0,0,0,.343,0l.583-.583a.242.242,0,0,1,.294-.036,6.762,6.762,0,0,0,1.584.655.244.244,0,0,1,.182.234v.826a.243.243,0,0,0,.243.243h2.748a.243.243,0,0,0,.243-.243V119.7a.244.244,0,0,1,.182-.234,6.762,6.762,0,0,0,1.584-.655.242.242,0,0,1,.294.036l.583.583a.241.241,0,0,0,.343,0l1.943-1.943a.241.241,0,0,0,0-.343l-.583-.583a.242.242,0,0,1-.036-.294,6.762,6.762,0,0,0,.655-1.584.244.244,0,0,1,.234-.182h.826a.243.243,0,0,0,.243-.243v-2.748A.243.243,0,0,0,225.525,111.267Zm-7.641,5.266a3.65,3.65,0,1,1,3.65-3.65A3.649,3.649,0,0,1,217.884,116.533Z" transform="translate(-210 -105)" fill="#f5f8f9"/>
        </g>
        <g id="Group_1143825" data-name="Group 1143825" transform="translate(19.254 14.887)">
          <path id="Path_978966" data-name="Path 978966" d="M243.609,131.79a4.836,4.836,0,0,0-3.542-1.55c-.129,0-.258,0-.387.016a4.822,4.822,0,0,0,.387,9.629c.129,0,.258,0,.387-.016a4.822,4.822,0,0,0,3.155-8.079Zm-.307,3.536a3.245,3.245,0,1,1-3.5-3.5A3.256,3.256,0,0,1,243.3,135.326Z" transform="translate(-235.245 -130.24)" fill="#e8edf2"/>
        </g>
        <path id="Path_978967" data-name="Path 978967" d="M197.455,330.02H172.713a1.213,1.213,0,0,1-1.213-1.213v-5.094a1.213,1.213,0,0,1,1.213-1.213h24.742a1.213,1.213,0,0,1,1.213,1.213v5.094A1.213,1.213,0,0,1,197.455,330.02Z" transform="translate(-159.978 -284.295)" fill="#fddf7c"/>
      </g>
      <g id="Group_1143832" data-name="Group 1143832" transform="translate(69)">
        <g id="Group_1143827" data-name="Group 1143827" transform="translate(0)">
          <path id="Path_978968" data-name="Path 978968" d="M113.452,20.9a.91.91,0,0,0,.91-.91V1.516A1.518,1.518,0,0,0,112.845,0H75.368A6.375,6.375,0,0,0,69,6.368V55.852A6.411,6.411,0,0,0,75.368,62.1h37.478a1.518,1.518,0,0,0,1.516-1.516V58.157a1.518,1.518,0,0,0-1.516-1.516h-2.123V54.822h2.123a1.518,1.518,0,0,0,1.516-1.516V24.239a.91.91,0,0,0-1.819,0V49.364H77.49V1.819h35.052V19.994A.91.91,0,0,0,113.452,20.9Zm-.91,32.1H75.368a2.729,2.729,0,1,0,0,5.458h2.662a.91.91,0,1,0,0-1.819H75.368a.91.91,0,0,1,0-1.819H108.9v1.819H82.274a.91.91,0,1,0,0,1.819h30.267v1.819H75.368a4.548,4.548,0,0,1,0-9.1h37.174ZM75.671,49.364h-.3a6.347,6.347,0,0,0-4.548,1.917V6.368a4.553,4.553,0,0,1,4.548-4.548h.3Z" transform="translate(-69)"/>
        </g>
        <g id="Group_1143828" data-name="Group 1143828" transform="translate(20.861 42.086)">
          <path id="Path_978969" data-name="Path 978969" d="M251.309,347.91a.91.91,0,0,0-.91-.91h-8.49a.91.91,0,1,0,0,1.819h8.49A.91.91,0,0,0,251.309,347.91Z" transform="translate(-241 -347)"/>
        </g>
        <g id="Group_1143829" data-name="Group 1143829" transform="translate(11.522 8.066)">
          <path id="Path_978970" data-name="Path 978970" d="M192.917,86.143a3.7,3.7,0,0,0,1.052-2.356,3.467,3.467,0,0,0-1.127-2.134A7.013,7.013,0,0,1,191.53,79.7a9.867,9.867,0,0,1-.383-3.707c0-4-2.167-6.874-6.441-8.535A18.168,18.168,0,0,0,178.8,66.5H177.29a14.239,14.239,0,0,0-7.167,1.89.91.91,0,1,0,.916,1.572,12.419,12.419,0,0,1,6.251-1.643H178.8a16.389,16.389,0,0,1,5.25.832c3.6,1.4,5.28,3.573,5.28,6.84a11.457,11.457,0,0,0,.508,4.369,8.6,8.6,0,0,0,1.623,2.475,3.9,3.9,0,0,1,.691.952c-.04.66-.754,1.234-1.271,2.07a5.485,5.485,0,0,0-.712,3.853c.187,1.167-.035,2.523-1.686,2.679a13.558,13.558,0,0,1-3.29-.09,3.819,3.819,0,0,0-3.992,1.762,8.8,8.8,0,0,0-1.038,2.821H170.59a20.011,20.011,0,0,0,.9-3.84,8.266,8.266,0,0,0-2.541-7.019C166.939,84.117,166,81.643,166,78.238a9.088,9.088,0,0,1,2.078-5.756.91.91,0,1,0-1.415-1.143,10.888,10.888,0,0,0-2.482,6.9c0,3.939,1.119,6.833,3.52,9.107a6.441,6.441,0,0,1,1.987,5.466,18.616,18.616,0,0,1-1.028,4.071h-2.538A2.125,2.125,0,0,0,164,99v4.851a2.125,2.125,0,0,0,2.122,2.123h7.1a.91.91,0,0,0,0-1.819h-7.1a.3.3,0,0,1-.3-.3V99a.3.3,0,0,1,.3-.3h24.742a.3.3,0,0,1,.3.3v4.851a.3.3,0,0,1-.3.3h-13.4a.91.91,0,0,0,0,1.819h13.4a2.125,2.125,0,0,0,2.123-2.123V99a2.125,2.125,0,0,0-2.123-2.123h-8.831c.516-2.038,1.222-3.011,2.91-2.78a14.941,14.941,0,0,0,3.831.083,3.745,3.745,0,0,0,3.2-4.672,3.735,3.735,0,0,1,.463-2.718A6.19,6.19,0,0,1,192.917,86.143Z" transform="translate(-164 -66.5)"/>
        </g>
        <g id="Group_1143830" data-name="Group 1143830" transform="translate(20.829 16.463)">
          <path id="Path_978971" data-name="Path 978971" d="M244.892,144.047a4.156,4.156,0,1,0-4.156-4.156A4.161,4.161,0,0,0,244.892,144.047Zm0-6.492a2.337,2.337,0,1,1-2.337,2.337A2.339,2.339,0,0,1,244.892,137.554Z" transform="translate(-240.736 -135.735)"/>
        </g>
        <g id="Group_1143831" data-name="Group 1143831" transform="translate(16.192 11.825)">
          <path id="Path_978972" data-name="Path 978972" d="M203.41,103.767a.91.91,0,0,0-.91.91v3.234a.91.91,0,0,0,.91.91h.576a7.671,7.671,0,0,0,.353.854l-.407.407a.91.91,0,0,0,0,1.286l2.287,2.287a.91.91,0,0,0,1.286,0l.407-.407a7.67,7.67,0,0,0,.854.353v.576a.91.91,0,0,0,.91.91h3.234a.91.91,0,0,0,.91-.91V113.6a7.669,7.669,0,0,0,.854-.353l.407.407a.91.91,0,0,0,1.286,0l2.287-2.287a.91.91,0,0,0,0-1.286l-.407-.407a7.691,7.691,0,0,0,.353-.854h.576a.91.91,0,0,0,.91-.91v-3.234a.91.91,0,0,0-.91-.91H218.6a7.671,7.671,0,0,0-.353-.854l.407-.407a.91.91,0,0,0,0-1.286l-2.287-2.287a.91.91,0,0,0-1.286,0l-.407.407a7.668,7.668,0,0,0-.854-.353V98.41a.91.91,0,0,0-.91-.91h-3.234a.91.91,0,0,0-.91.91v.576a7.669,7.669,0,0,0-.854.353l-.407-.407a.91.91,0,0,0-1.286,0l-2.287,2.287a.91.91,0,0,0,0,1.286l.407.407a7.694,7.694,0,0,0-.353.854h-.576Zm.91,1.819h.346a.91.91,0,0,0,.884-.695,5.872,5.872,0,0,1,.69-1.668.909.909,0,0,0-.134-1.116l-.244-.244,1-1,.244.244a.909.909,0,0,0,1.116.134,5.872,5.872,0,0,1,1.669-.69.91.91,0,0,0,.695-.884v-.346H212v.346a.91.91,0,0,0,.695.884,5.881,5.881,0,0,1,1.669.69.909.909,0,0,0,1.116-.134l.244-.244,1,1-.244.244a.91.91,0,0,0-.134,1.116,5.871,5.871,0,0,1,.69,1.668.91.91,0,0,0,.884.695h.346V107h-.346a.91.91,0,0,0-.884.695,5.87,5.87,0,0,1-.69,1.668.909.909,0,0,0,.134,1.116l.244.244-1,1-.244-.244a.91.91,0,0,0-1.116-.134,5.873,5.873,0,0,1-1.669.69.91.91,0,0,0-.695.884v.346h-1.415v-.346a.91.91,0,0,0-.695-.884,5.881,5.881,0,0,1-1.669-.69.909.909,0,0,0-1.116.134l-.244.244-1-1,.244-.244a.91.91,0,0,0,.134-1.116,5.872,5.872,0,0,1-.69-1.668.91.91,0,0,0-.884-.695h-.346Z" transform="translate(-202.5 -97.5)"/>
        </g>
      </g>
    </g>
  </g>
</svg>
