<svg xmlns="http://www.w3.org/2000/svg" xmlns:xlink="http://www.w3.org/1999/xlink" width="108" height="108" viewBox="0 0 108 108">
  <defs>
    <filter id="Fondo" x="0" y="0" width="108" height="108" filterUnits="userSpaceOnUse">
      <feOffset dy="3" input="SourceAlpha"/>
      <feGaussianBlur stdDeviation="3" result="blur"/>
      <feFlood flood-opacity="0.161"/>
      <feComposite operator="in" in2="blur"/>
      <feComposite in="SourceGraphic"/>
    </filter>
  </defs>
  <g id="Group_1144144" data-name="Group 1144144" transform="translate(-1165.999 -5651)">
    <g transform="matrix(1, 0, 0, 1, 1166, 5651)" filter="url(#Fondo)">
      <g id="Fondo-2" data-name="Fondo" transform="translate(9 6)" fill="#e4fef4" stroke="#43896d" stroke-width="3">
        <circle cx="45" cy="45" r="45" stroke="none"/>
        <circle cx="45" cy="45" r="43.5" fill="none"/>
      </g>
    </g>
    <g id="Group_1144014" data-name="Group 1144014" transform="translate(1192.663 5674.664)">
      <g id="Group_1143852" data-name="Group 1143852" transform="translate(0.882 0.882)">
        <g id="Group_1143838" data-name="Group 1143838" transform="translate(38.8 22.927)">
          <path id="Path_979137" data-name="Path 979137" d="M52.054,27H45v1.764a5.328,5.328,0,0,0,.3,1.764h.009A5.281,5.281,0,0,0,54.03,32.5a5.087,5.087,0,0,0,1.243-1.975h.009a5.328,5.328,0,0,0,.3-1.764V27Z" transform="translate(-45 -27)" fill="#b27946"/>
        </g>
        <g id="Group_1143839" data-name="Group 1143839" transform="translate(31.745 29.982)">
          <path id="Path_979138" data-name="Path 979138" d="M44.055,35.882V49.109H37V42.054l1.764-1.764A6.088,6.088,0,0,1,37,36.032V35h4.929A3,3,0,0,1,44.055,35.882Z" transform="translate(-37 -35)" fill="#ccd1d9"/>
        </g>
        <g id="Group_1143840" data-name="Group 1143840" transform="translate(38.8 29.982)">
          <path id="Path_979139" data-name="Path 979139" d="M45,49.109V35.882A3.011,3.011,0,0,1,47.125,35H54.7a.884.884,0,0,1,.882.882V48.227a.884.884,0,0,1-.882.882Z" transform="translate(-45 -35)" fill="#ccd1d9"/>
        </g>
        <g id="Group_1143841" data-name="Group 1143841" transform="translate(30.396 31.745)">
          <path id="Path_979140" data-name="Path 979140" d="M57.983,37.882V51.991a.884.884,0,0,1-.882.882H47.4l-.52.52a4.258,4.258,0,0,1-6.014,0l-.52-.52H35.47a5.265,5.265,0,0,0,1.349-3.527H53.574a.884.884,0,0,0,.882-.882V37H57.1A.884.884,0,0,1,57.983,37.882Z" transform="translate(-35.47 -37)" fill="#ef7385"/>
        </g>
        <g id="Group_1143842" data-name="Group 1143842" transform="translate(8.703 26.454)">
          <path id="Path_979141" data-name="Path 979141" d="M21.566,53.927v3.527H12.748V54.112a5.253,5.253,0,0,0-1.878-4.039l.547-.238a8.008,8.008,0,0,0,4.859-7.372h-.441a3.1,3.1,0,0,1-3.086-3.086,3.09,3.09,0,0,1,3.086-3.086h.441V31H33.912v4.559a6.088,6.088,0,0,0,1.764,4.259l-1.764,1.764v7.054a5.294,5.294,0,0,1-5.291,5.291Z" transform="translate(-10.87 -31)" fill="#f0d0b4"/>
        </g>
        <g id="Group_1143843" data-name="Group 1143843" transform="translate(0 26.454)">
          <path id="Path_979142" data-name="Path 979142" d="M15.109,31v5.291h-.441a3.09,3.09,0,0,0-3.086,3.086,3.1,3.1,0,0,0,3.086,3.086h.441a8.008,8.008,0,0,1-4.859,7.372l-.547.238c-.15-.123-.309-.247-.476-.362l-.37-.247A17.634,17.634,0,0,1,1,34.792V31H15.109Z" transform="translate(-1 -31)" fill="#b27946"/>
        </g>
        <g id="Group_1143844" data-name="Group 1143844" transform="translate(8.818 19.4)">
          <path id="Path_979143" data-name="Path 979143" d="M25.109,30.054H21.582a3.527,3.527,0,0,0-7.054,0H11a7.054,7.054,0,0,1,14.109,0Z" transform="translate(-11 -23)" fill="#ffeaa7"/>
        </g>
        <g id="Group_1143845" data-name="Group 1143845" transform="translate(1.764 12.345)">
          <path id="Path_979144" data-name="Path 979144" d="M13.582,15h7.054v.935A1.9,1.9,0,0,0,21.818,17.7l.035.009a1.9,1.9,0,0,0,2.081-.414l.661-.653,4.982,4.982-.653.661a1.9,1.9,0,0,0-.414,2.081l.009.026a1.909,1.909,0,0,0,1.772,1.19h.926v3.527H24.163a7.054,7.054,0,0,0-14.109,0H3V25.582h.926A1.909,1.909,0,0,0,5.7,24.391l.009-.026a1.9,1.9,0,0,0-.414-2.081l-.653-.661L9.622,16.64l.67.661a1.884,1.884,0,0,0,2.072.406.032.032,0,0,0,.026-.009,1.9,1.9,0,0,0,1.19-1.764Z" transform="translate(-3 -15)" fill="#fcd770"/>
        </g>
        <g id="Group_1143846" data-name="Group 1143846" transform="translate(35.272)">
          <path id="Path_979145" data-name="Path 979145" d="M49.818,1a8.812,8.812,0,0,0-5.291,15.864v7.063H55.109V16.864A8.812,8.812,0,0,0,49.818,1Z" transform="translate(-41 -1)" fill="#fcd770"/>
        </g>
        <g id="Group_1143847" data-name="Group 1143847" transform="translate(14.109 5.291)">
          <path id="Path_979146" data-name="Path 979146" d="M17,7h3.527v4.409H17Z" transform="translate(-17 -7)" fill="#ef7385"/>
        </g>
        <g id="Group_1143848" data-name="Group 1143848" transform="translate(28.218 3.527)">
          <path id="Path_979147" data-name="Path 979147" d="M33,5v9.7l3.527,1.764V5Z" transform="translate(-33 -5)" fill="#ef7385"/>
        </g>
        <g id="Group_1143849" data-name="Group 1143849" transform="translate(21.163)">
          <path id="Path_979148" data-name="Path 979148" d="M25,10.7l3.527,1.764V1H25Z" transform="translate(-25 -1)" fill="#ef7385"/>
        </g>
        <g id="Group_1143850" data-name="Group 1143850" transform="translate(7.054)">
          <path id="Path_979149" data-name="Path 979149" d="M9,12.464,12.527,10.7V1H9Z" transform="translate(-9 -1)" fill="#ef7385"/>
        </g>
        <g id="Group_1143851" data-name="Group 1143851" transform="translate(0 3.527)">
          <path id="Path_979150" data-name="Path 979150" d="M1,16.464,4.527,14.7V5H1Z" transform="translate(-1 -5)" fill="#ef7385"/>
        </g>
      </g>
      <g id="Group_1143853" data-name="Group 1143853" transform="translate(0)">
        <circle id="Ellipse_11562" data-name="Ellipse 11562" cx="0.5" cy="0.5" r="0.5" transform="translate(16.336 16.336)"/>
        <path id="Path_979151" data-name="Path 979151" d="M10.4,23.279a.882.882,0,1,0-.623-.258A.879.879,0,0,0,10.4,23.279Z" transform="translate(-1.125 -2.543)"/>
        <path id="Path_979152" data-name="Path 979152" d="M27.367,23.279a.882.882,0,1,0-.623-.258A.879.879,0,0,0,27.367,23.279Z" transform="translate(-3.13 -2.543)"/>
        <path id="Path_979153" data-name="Path 979153" d="M17.764,7.764h1.764v3.527h1.764V6H16v5.291h1.764Z" transform="translate(-1.891 -0.709)"/>
        <path id="Path_979154" data-name="Path 979154" d="M33.764,5.764h1.764V16.345h1.764V4H32V14.582h1.764Z" transform="translate(-3.782 -0.473)"/>
        <path id="Path_979155" data-name="Path 979155" d="M25.764,1.764h1.764V12.345h1.764V0H24V10.582h1.764Z" transform="translate(-2.837)"/>
        <path id="Path_979156" data-name="Path 979156" d="M9.764,1.764h1.764v8.818h1.764V0H8V12.345H9.764Z" transform="translate(-0.946)"/>
        <path id="Path_979157" data-name="Path 979157" d="M1.764,5.764H3.527v8.818H5.291V4H0V16.345H1.764Z" transform="translate(0 -0.473)"/>
        <path id="Path_979158" data-name="Path 979158" d="M31.054,36H29.291a1.764,1.764,0,1,1-3.527,0H24a3.527,3.527,0,0,0,7.054,0Z" transform="translate(-2.837 -4.255)"/>
        <path id="Path_979159" data-name="Path 979159" d="M52.909,31.745H51.145a1.765,1.765,0,0,0-1.764-1.764h-.1a6.149,6.149,0,0,0,1.862-4.409v-8.4A9.612,9.612,0,0,0,54.672,9.7a9.7,9.7,0,1,0-19.4,0A9.612,9.612,0,0,0,38.8,17.171v8.4a6.152,6.152,0,0,0,2.011,4.545,3.842,3.842,0,0,0-1.129.5,3.852,3.852,0,0,0-2.123-.632H33.509V26.454H31.745V22.927H29.938a1.057,1.057,0,0,1-.743-1.8l1.277-1.278-6.235-6.235L22.959,14.9a1.047,1.047,0,0,1-1.162.213,1.02,1.02,0,0,1-.633-.945V12.345H12.345v1.818a1.057,1.057,0,0,1-1.787.741L9.272,13.619,3.037,19.854l1.278,1.278a1.057,1.057,0,0,1-.744,1.8H1.764v3.527H0v4.67A18.484,18.484,0,0,0,8.247,46.533l.372.248a4.4,4.4,0,0,1,1.963,3.668v4.223H21.163V51.145h6.173a6.147,6.147,0,0,0,4.311-1.764h4.141l.258.258a5.14,5.14,0,0,0,7.269,0l.258-.258h9.335a1.765,1.765,0,0,0,1.764-1.764V33.509a1.765,1.765,0,0,0-1.764-1.764ZM41.468,28.218h7.01a4.364,4.364,0,0,1-7.01,0Zm.859-17.636h-.882a.882.882,0,1,1,.882-.882Zm3.527,12.345H44.091V12.345h1.764Zm3.527,1.764v.882a4.4,4.4,0,0,1-.089.882h-8.64a4.4,4.4,0,0,1-.089-.882v-.882ZM37.036,9.7a7.936,7.936,0,1,1,12.7,6.338l-.352.264v6.625H47.618V12.345H48.5A2.645,2.645,0,1,0,45.854,9.7v.882H44.091V9.7a2.645,2.645,0,1,0-2.645,2.645h.882V22.927H40.563V16.3l-.352-.265A7.872,7.872,0,0,1,37.036,9.7Zm10.582.882V9.7a.882.882,0,1,1,.882.882Zm1.764,21.163V44.091H40.563V32.156a2.109,2.109,0,0,1,1.247-.411Zm-11.823,0a2.1,2.1,0,0,1,1.242.412V44.091H33.509V42.327h3.527V40.563H33.509V38.8h3.527V37.036h-2.28l.882-.882-.624-.623c-.083-.083-.158-.171-.235-.258h2.257V33.509H33.771a5.144,5.144,0,0,1-.262-1.612v-.152ZM3.527,24.691H3.57a2.821,2.821,0,0,0,1.992-4.806l-.031-.031,3.742-3.742.038.039a2.821,2.821,0,0,0,4.8-1.988v-.055H19.4v.055a2.821,2.821,0,0,0,4.806,1.981l.031-.031,3.742,3.742-.031.031a2.82,2.82,0,0,0,1.99,4.8l.029,1.764H24.639a7.933,7.933,0,0,0-15.769,0H3.527Zm17.547,1.764a4.409,4.409,0,0,0-8.64,0H10.652a6.164,6.164,0,0,1,12.2,0H21.074Zm-1.837,0H14.272a2.629,2.629,0,0,1,4.965,0ZM1.764,31.124V28.218H14.109v3.551a3.969,3.969,0,0,0-.05,7.883A7.133,7.133,0,0,1,9.78,45.365l-.075.032c-.038-.026-.071-.057-.109-.083l-.372-.248a16.725,16.725,0,0,1-7.46-13.941ZM27.336,49.381H15.873v1.764H19.4v1.764H12.345V50.449a6.145,6.145,0,0,0-1.293-3.764,8.876,8.876,0,0,0,4.82-7.886v-.882H14.55a2.2,2.2,0,1,1,0-4.409h1.323V28.218H31.745V31.9a6.852,6.852,0,0,0,1.437,4.219l-1.437,1.437v4.774H28.218a1.765,1.765,0,0,1-1.764-1.764H24.691a3.531,3.531,0,0,0,3.527,3.527h3.527v.882A4.414,4.414,0,0,1,27.336,49.381Zm25.573-1.764H42.844l-.775.775a3.459,3.459,0,0,1-4.774,0l-.775-.775H32.9a6.118,6.118,0,0,0,.533-1.764H49.381a1.765,1.765,0,0,0,1.764-1.764V33.509h1.764Z" transform="translate(0)"/>
        <path id="Path_979160" data-name="Path 979160" d="M48,38h5.291v1.764H48Z" transform="translate(-5.673 -4.491)"/>
        <path id="Path_979161" data-name="Path 979161" d="M48,42h5.291v1.764H48Z" transform="translate(-5.673 -4.964)"/>
        <path id="Path_979162" data-name="Path 979162" d="M48,46h1.764v1.764H48Z" transform="translate(-5.673 -5.437)"/>
        <path id="Path_979163" data-name="Path 979163" d="M52,46h1.764v1.764H52Z" transform="translate(-6.146 -5.437)"/>
      </g>
    </g>
  </g>
</svg>
