<svg xmlns="http://www.w3.org/2000/svg" xmlns:xlink="http://www.w3.org/1999/xlink" width="108" height="108" viewBox="0 0 108 108">
  <defs>
    <filter id="Fondo" x="0" y="0" width="108" height="108" filterUnits="userSpaceOnUse">
      <feOffset dy="3" input="SourceAlpha"/>
      <feGaussianBlur stdDeviation="3" result="blur"/>
      <feFlood flood-opacity="0.161"/>
      <feComposite operator="in" in2="blur"/>
      <feComposite in="SourceGraphic"/>
    </filter>
  </defs>
  <g id="Group_1144136" data-name="Group 1144136" transform="translate(-325.999 -2196)">
    <g transform="matrix(1, 0, 0, 1, 326, 2196)" filter="url(#Fondo)">
      <g id="Fondo-2" data-name="Fondo" transform="translate(9 6)" fill="#e4fef4">
        <path d="M 45 88.5 C 39.12687683105469 88.5 33.43022537231445 87.35007476806641 28.06830024719238 85.08217620849609 C 22.88852500915527 82.89131164550781 18.23629951477051 79.75458526611328 14.2408504486084 75.75914764404297 C 10.24541282653809 71.76370239257812 7.108687400817871 67.11147308349609 4.917825222015381 61.93170166015625 C 2.649924993515015 56.56977462768555 1.5 50.87312316894531 1.5 45 C 1.5 39.12687683105469 2.649924993515015 33.43022537231445 4.917825222015381 28.06830024719238 C 7.108687400817871 22.88852500915527 10.24541282653809 18.23629951477051 14.2408504486084 14.2408504486084 C 18.23629951477051 10.24541282653809 22.88852500915527 7.108687400817871 28.06830024719238 4.917825222015381 C 33.43022537231445 2.649924993515015 39.12687683105469 1.5 45 1.5 C 50.87312316894531 1.5 56.56977462768555 2.649924993515015 61.93170166015625 4.917825222015381 C 67.11147308349609 7.108687400817871 71.76370239257812 10.24541282653809 75.75914764404297 14.2408504486084 C 79.75458526611328 18.23629951477051 82.89131164550781 22.88852500915527 85.08217620849609 28.06830024719238 C 87.35007476806641 33.43022537231445 88.5 39.12687683105469 88.5 45 C 88.5 50.87312316894531 87.35007476806641 56.56977462768555 85.08217620849609 61.93170166015625 C 82.89131164550781 67.11147308349609 79.75458526611328 71.76370239257812 75.75914764404297 75.75914764404297 C 71.76370239257812 79.75458526611328 67.11147308349609 82.89131164550781 61.93170166015625 85.08217620849609 C 56.56977462768555 87.35007476806641 50.87312316894531 88.5 45 88.5 Z" stroke="none"/>
        <path d="M 45 3 C 39.32871246337891 3 33.82865524291992 4.110054016113281 28.65262985229492 6.299339294433594 C 23.65165710449219 8.414573669433594 19.15968322753906 11.44334411621094 15.301513671875 15.301513671875 C 11.44334411621094 19.15968322753906 8.414573669433594 23.65165710449219 6.299339294433594 28.65262985229492 C 4.110054016113281 33.82865524291992 3 39.32871246337891 3 45 C 3 50.67128753662109 4.110054016113281 56.17134475708008 6.299339294433594 61.34737396240234 C 8.414573669433594 66.34834289550781 11.44334411621094 70.84031677246094 15.301513671875 74.698486328125 C 19.15968322753906 78.55665588378906 23.65165710449219 81.58542633056641 28.65262985229492 83.70066070556641 C 33.82865524291992 85.88994598388672 39.32871246337891 87 45 87 C 50.67128753662109 87 56.17134475708008 85.88994598388672 61.34737396240234 83.70066070556641 C 66.34834289550781 81.58542633056641 70.84031677246094 78.55665588378906 74.698486328125 74.698486328125 C 78.55665588378906 70.84031677246094 81.58542633056641 66.34834289550781 83.70066070556641 61.34737396240234 C 85.88994598388672 56.17134475708008 87 50.67128753662109 87 45 C 87 39.32871246337891 85.88994598388672 33.82865524291992 83.70066070556641 28.65262985229492 C 81.58542633056641 23.65165710449219 78.55665588378906 19.15968322753906 74.698486328125 15.301513671875 C 70.84031677246094 11.44334411621094 66.34834289550781 8.414573669433594 61.34737396240234 6.299339294433594 C 56.17134475708008 4.110054016113281 50.67128753662109 3 45 3 M 45 0 C 69.85281372070312 0 90 20.14718627929688 90 45 C 90 69.85281372070312 69.85281372070312 90 45 90 C 20.14718627929688 90 0 69.85281372070312 0 45 C 0 20.14718627929688 20.14718627929688 0 45 0 Z" stroke="none" fill="#43896d"/>
      </g>
    </g>
    <g id="Icons" transform="translate(319.936 2212.508)">
      <g id="Group_1143866" data-name="Group 1143866" transform="translate(30.956 2.736)">
        <circle id="Ellipse_11566" data-name="Ellipse 11566" cx="5.171" cy="5.171" r="5.171" transform="translate(4.071 9.797)" fill="#72c2e9"/>
        <path id="Path_979196" data-name="Path 979196" d="M181.1,49.434a.808.808,0,0,0,.808-.808V39.9a.808.808,0,0,0-.808-.808h-8.724a.808.808,0,0,0-.808.808v8.724a.808.808,0,0,0,.808.808Z" transform="translate(-133.672 -29.296)" fill="#f0c020"/>
        <path id="Path_979197" data-name="Path 979197" d="M109.4,5.641a.808.808,0,0,1,1.4,0L116.6,15.674a.808.808,0,0,1-.7,1.213H104.31a.808.808,0,0,1-.7-1.213Z" transform="translate(-83.951 -4.563)" fill="#fc5d3d"/>
        <path id="Path_979198" data-name="Path 979198" d="M115.375,126.5a2.906,2.906,0,0,1,2.906,2.906v22.165H95.03V145a9.376,9.376,0,0,0-4.286-7.874l-2.523-1.631a2.567,2.567,0,0,1-.692-3.652,2.615,2.615,0,0,1,3.54-.62l3.961,2.56v-15.9a2.906,2.906,0,0,1,5.813,0V126.6a2.906,2.906,0,1,1,5.813,0v1.427a2.906,2.906,0,1,1,5.813,0V129.4A2.907,2.907,0,0,1,115.375,126.5Z" transform="translate(-71.932 -84.729)" fill="#ffb79f"/>
        <path id="Path_979199" data-name="Path 979199" d="M205.558,103.28c-1.005-.331-1.789-.544-2.315-2.808a.717.717,0,0,0-1.4,0c-.515,2.212-1.232,2.45-2.315,2.808a.717.717,0,0,0,0,1.361c1.8.6,2,1.477,2.315,2.808a.717.717,0,0,0,1.4,0c.512-2.212,1.269-2.463,2.315-2.808A.717.717,0,0,0,205.558,103.28Z" transform="translate(-153.747 -73.731)"/>
        <path id="Path_979200" data-name="Path 979200" d="M210.121,111.581a3.527,3.527,0,0,0-1.059,1.2,3.739,3.739,0,0,0-1.121-1.188,3.58,3.58,0,0,0,1.11-1.248A3.66,3.66,0,0,0,210.121,111.581Z" transform="translate(-160.247 -81.344)" fill="#f0c020"/>
        <path id="Path_979201" data-name="Path 979201" d="M37.472,100.8c-1.005-.331-1.789-.544-2.315-2.808a.717.717,0,0,0-1.4,0c-.515,2.212-1.232,2.45-2.315,2.808a.717.717,0,0,0,0,1.361c1.8.6,2,1.477,2.315,2.808a.717.717,0,0,0,1.4,0c.512-2.212,1.269-2.463,2.315-2.808A.717.717,0,0,0,37.472,100.8Z" transform="translate(-30.956 -71.92)"/>
        <path id="Path_979202" data-name="Path 979202" d="M42.035,109.1a3.527,3.527,0,0,0-1.059,1.2,3.739,3.739,0,0,0-1.121-1.188,3.58,3.58,0,0,0,1.11-1.248A3.66,3.66,0,0,0,42.035,109.1Z" transform="translate(-37.457 -79.533)" fill="#f0c020"/>
        <path id="Path_979203" data-name="Path 979203" d="M89.072,13.341s0-.009,0-.014a1.484,1.484,0,0,0-1.481-1.468H78.865a1.484,1.484,0,0,0-1.482,1.482v8.724a1.484,1.484,0,0,0,1.482,1.482h3.689v5.687l-8.143,3.49a8.144,8.144,0,0,0-7.42-7.122V15.733H72.11a1.482,1.482,0,0,0,1.284-2.223L67.6,3.477a1.481,1.481,0,0,0-2.561-.008l0,.006L63.552,6.041a.674.674,0,1,0,1.167.674L66.2,4.152v0a.135.135,0,0,1,.231,0l5.792,10.033a.134.134,0,0,1-.117.2H60.525a.134.134,0,0,1-.117-.2h0l1.616-2.8a.673.673,0,0,0-.245-.919.7.7,0,0,0-.922.245l-1.617,2.8v0a1.482,1.482,0,0,0,1.286,2.219h5.118V25.6a8.144,8.144,0,0,0-7.42,7.122l-8.143-3.49V23.508a5.842,5.842,0,1,0-1.347,0v6.171a.674.674,0,0,0,.408.619l9.032,3.871a8.109,8.109,0,0,0,1.77,4.636A.674.674,0,1,0,61,37.964a6.8,6.8,0,1,1,10.641,0,.674.674,0,1,0,1.052.842,8.109,8.109,0,0,0,1.77-4.637L83.492,30.3a.674.674,0,0,0,.408-.619V23.549h3.689a1.483,1.483,0,0,0,1.481-1.468s0-.009,0-.014V20.181a.674.674,0,1,0-1.347,0V22.06s0,0,0,.006a.135.135,0,0,1-.135.135H78.865a.135.135,0,0,1-.135-.135V13.342a.135.135,0,0,1,.135-.135h8.724a.135.135,0,0,1,.135.135s0,0,0,.006v1.443a.674.674,0,1,0,1.347,0ZM44.91,17.7a4.5,4.5,0,1,1,4.5,4.5,4.5,4.5,0,0,1-4.5-4.5Z" transform="translate(-40.166 -2.736)"/>
        <circle id="Ellipse_11567" data-name="Ellipse 11567" cx="0.674" cy="0.674" r="0.674" transform="translate(47.559 14.076)"/>
        <path id="Path_979204" data-name="Path 979204" d="M113.417,22.518a.692.692,0,0,0-.922.245.674.674,0,1,0,.922-.245Z" transform="translate(-90.456 -17.125)"/>
        <circle id="Ellipse_11568" data-name="Ellipse 11568" cx="0.674" cy="0.674" r="0.674" transform="translate(45.675 60.774)"/>
        <path id="Path_979205" data-name="Path 979205" d="M117.125,127.582s0,0,0-.006a3.578,3.578,0,0,0-6.031-2.607,3.578,3.578,0,0,0-5.8-1.388,3.578,3.578,0,0,0-5.608-1.6v-5.923a3.58,3.58,0,0,0-7.16,0v14.662l-2.921-1.889a3.274,3.274,0,0,0-4.454.794,3.238,3.238,0,0,0,.874,4.61l2.523,1.631a8.668,8.668,0,0,1,3.978,7.308v6.569a.674.674,0,0,0,1.347,0v-6.569a10.012,10.012,0,0,0-4.593-8.439L86.758,133.1a1.893,1.893,0,0,1-.51-2.695,1.952,1.952,0,0,1,2.627-.446l3.653,2.361v1.219a.674.674,0,0,0,1.347,0V116.055a2.233,2.233,0,0,1,4.466,0v14.74a.674.674,0,1,0,1.347,0v-6.02a2.233,2.233,0,0,1,4.466,0v6.02a.674.674,0,1,0,1.347,0V126.2a2.233,2.233,0,0,1,4.466,0v4.594a.674.674,0,1,0,1.347,0v-3.219a2.233,2.233,0,0,1,4.465,0s0,0,0,0v14.08a.674.674,0,0,0,1.347,0Z" transform="translate(-70.103 -82.903)"/>
        <path id="Path_979206" data-name="Path 979206" d="M201.124,238.26a.676.676,0,0,0-.674.674v2.695a.674.674,0,1,0,1.347,0v-2.695A.676.676,0,0,0,201.124,238.26Z" transform="translate(-154.775 -174.791)"/>
      </g>
    </g>
  </g>
</svg>
