<svg xmlns="http://www.w3.org/2000/svg" xmlns:xlink="http://www.w3.org/1999/xlink" width="108" height="108" viewBox="0 0 108 108">
  <defs>
    <filter id="Path_904820" x="0" y="0" width="108" height="108" filterUnits="userSpaceOnUse">
      <feOffset dy="3" input="SourceAlpha"/>
      <feGaussianBlur stdDeviation="3" result="blur"/>
      <feFlood flood-opacity="0.161"/>
      <feComposite operator="in" in2="blur"/>
      <feComposite in="SourceGraphic"/>
    </filter>
  </defs>
  <g id="Group_1143742" data-name="Group 1143742" transform="translate(-201 -422)">
    <g transform="matrix(1, 0, 0, 1, 201, 422)" filter="url(#Path_904820)">
      <g id="Path_904820-2" data-name="Path 904820" transform="translate(9 6)" fill="#fef5e5">
        <path d="M 45 88.5 C 39.12687683105469 88.5 33.43022537231445 87.35007476806641 28.06830024719238 85.08217620849609 C 22.88852500915527 82.89131164550781 18.23629951477051 79.75458526611328 14.2408504486084 75.75914764404297 C 10.24541282653809 71.76370239257812 7.108687400817871 67.11147308349609 4.917825222015381 61.93170166015625 C 2.649924993515015 56.56977462768555 1.5 50.87312316894531 1.5 45 C 1.5 39.12687683105469 2.649924993515015 33.43022537231445 4.917825222015381 28.06830024719238 C 7.108687400817871 22.88852500915527 10.24541282653809 18.23629951477051 14.2408504486084 14.2408504486084 C 18.23629951477051 10.24541282653809 22.88852500915527 7.108687400817871 28.06830024719238 4.917825222015381 C 33.43022537231445 2.649924993515015 39.12687683105469 1.5 45 1.5 C 50.87312316894531 1.5 56.56977462768555 2.649924993515015 61.93170166015625 4.917825222015381 C 67.11147308349609 7.108687400817871 71.76370239257812 10.24541282653809 75.75914764404297 14.2408504486084 C 79.75458526611328 18.23629951477051 82.89131164550781 22.88852500915527 85.08217620849609 28.06830024719238 C 87.35007476806641 33.43022537231445 88.5 39.12687683105469 88.5 45 C 88.5 50.87312316894531 87.35007476806641 56.56977462768555 85.08217620849609 61.93170166015625 C 82.89131164550781 67.11147308349609 79.75458526611328 71.76370239257812 75.75914764404297 75.75914764404297 C 71.76370239257812 79.75458526611328 67.11147308349609 82.89131164550781 61.93170166015625 85.08217620849609 C 56.56977462768555 87.35007476806641 50.87312316894531 88.5 45 88.5 Z" stroke="none"/>
        <path d="M 45 3 C 39.32871246337891 3 33.82865524291992 4.110054016113281 28.65262985229492 6.299339294433594 C 23.65165710449219 8.414573669433594 19.15968322753906 11.44334411621094 15.301513671875 15.301513671875 C 11.44334411621094 19.15968322753906 8.414573669433594 23.65165710449219 6.299339294433594 28.65262985229492 C 4.110054016113281 33.82865524291992 3 39.32871246337891 3 45 C 3 50.67128753662109 4.110054016113281 56.17134475708008 6.299339294433594 61.34737396240234 C 8.414573669433594 66.34834289550781 11.44334411621094 70.84031677246094 15.301513671875 74.698486328125 C 19.15968322753906 78.55665588378906 23.65165710449219 81.58542633056641 28.65262985229492 83.70066070556641 C 33.82865524291992 85.88994598388672 39.32871246337891 87 45 87 C 50.67128753662109 87 56.17134475708008 85.88994598388672 61.34737396240234 83.70066070556641 C 66.34834289550781 81.58542633056641 70.84031677246094 78.55665588378906 74.698486328125 74.698486328125 C 78.55665588378906 70.84031677246094 81.58542633056641 66.34834289550781 83.70066070556641 61.34737396240234 C 85.88994598388672 56.17134475708008 87 50.67128753662109 87 45 C 87 39.32871246337891 85.88994598388672 33.82865524291992 83.70066070556641 28.65262985229492 C 81.58542633056641 23.65165710449219 78.55665588378906 19.15968322753906 74.698486328125 15.301513671875 C 70.84031677246094 11.44334411621094 66.34834289550781 8.414573669433594 61.34737396240234 6.299339294433594 C 56.17134475708008 4.110054016113281 50.67128753662109 3 45 3 M 45 0 C 69.85281372070312 0 90 20.14718627929688 90 45 C 90 69.85281372070312 69.85281372070312 90 45 90 C 20.14718627929688 90 0 69.85281372070312 0 45 C 0 20.14718627929688 20.14718627929688 0 45 0 Z" stroke="none" fill="#ab4991"/>
      </g>
    </g>
    <g id="Group_1143741" data-name="Group 1143741" transform="translate(223.186 440.063)">
      <path id="Path_978784" data-name="Path 978784" d="M255.986,147.235h19.329v24.68H255.986Z" transform="translate(-224.173 -126.303)" fill="#b26836"/>
      <path id="Path_978785" data-name="Path 978785" d="M255.986,150.429V125.75a2.674,2.674,0,0,1,2.666-2.666h14v24.68h-14A2.676,2.676,0,0,0,255.986,150.429Z" transform="translate(-224.173 -104.817)" fill="#e1dae7" fill-rule="evenodd"/>
      <path id="Path_978786" data-name="Path 978786" d="M80.889,147.235h19.326v24.68H80.889Z" transform="translate(-68.402 -126.303)" fill="#c27440"/>
      <g id="Group_1143740" data-name="Group 1143740" transform="translate(4.662 9.803)">
        <path id="Path_978787" data-name="Path 978787" d="M121.7,150.429V125.75a2.672,2.672,0,0,0-2.666-2.666H105.041v24.68h13.995A2.674,2.674,0,0,1,121.7,150.429Z" transform="translate(-94.55 -114.621)" fill="#ebe6ef" fill-rule="evenodd"/>
        <path id="Path_978788" data-name="Path 978788" d="M9.995,402.139H31.449v-5.4c0-9.608-21.454-9.608-21.454,0Z" transform="translate(-9.995 -351.66)" fill="#4bb3fd" fill-rule="evenodd"/>
        <path id="Path_978789" data-name="Path 978789" d="M9.995,402.9h17.79v-5.4c0-4.255-4.208-6.624-8.9-7.112-4.687.488-8.9,2.857-8.9,7.112Z" transform="translate(-9.995 -352.424)" fill="#74c3fc" fill-rule="evenodd"/>
        <path id="Path_978790" data-name="Path 978790" d="M58.8,300.264a6,6,0,1,0-6-6A6.015,6.015,0,0,0,58.8,300.264Z" transform="translate(-48.074 -261.564)" fill="#f6b4a8" fill-rule="evenodd"/>
        <path id="Path_978791" data-name="Path 978791" d="M57.41,301.413a6,6,0,0,1,0-11.68,6,6,0,0,1,0,11.68Z" transform="translate(-48.074 -262.876)" fill="#f9c9c0" fill-rule="evenodd"/>
        <path id="Path_978792" data-name="Path 978792" d="M206.131,46.406a6.185,6.185,0,0,1,6.186,6.186c0,3.5-2.735,4.236-3.051,7.869H203c-.313-3.632-3.051-4.371-3.051-7.869A6.185,6.185,0,0,1,206.131,46.406Z" transform="translate(-178.979 -46.406)" fill="#ffb122" fill-rule="evenodd"/>
        <path id="Path_978793" data-name="Path 978793" d="M207.816,60.814h-4.821c-.313-3.632-3.051-4.371-3.051-7.869a5.5,5.5,0,1,1,10.926,0C210.87,56.444,208.132,57.182,207.816,60.814Z" transform="translate(-178.978 -46.76)" fill="#ffc738" fill-rule="evenodd"/>
        <path id="Path_978794" data-name="Path 978794" d="M228.621,176.929h4.2a1.039,1.039,0,0,0,1.036-1.036v-2.149a.007.007,0,0,0-.006-.006h-6.257a.007.007,0,0,0-.006.006v2.149a1.04,1.04,0,0,0,1.039,1.036Z" transform="translate(-203.566 -159.684)" fill="#86808f" fill-rule="evenodd"/>
        <path id="Path_978795" data-name="Path 978795" d="M228.621,176.929h2.747a1.039,1.039,0,0,0,1.036-1.036v-2.149s0-.006,0-.006h-4.812a.007.007,0,0,0-.006.006v2.149A1.04,1.04,0,0,0,228.621,176.929Z" transform="translate(-203.566 -159.684)" fill="#9992a3" fill-rule="evenodd"/>
        <path id="Path_978796" data-name="Path 978796" d="M237.14,204.927h2.284a1.06,1.06,0,0,0,1.057-1.054v-1.22h-4.4v1.22A1.057,1.057,0,0,0,237.14,204.927Z" transform="translate(-211.131 -185.406)" fill="#7c7685" fill-rule="evenodd"/>
        <path id="Path_978797" data-name="Path 978797" d="M237.141,204.927h.839a1.059,1.059,0,0,0,1.054-1.054v-1.22h-2.947v1.22a1.057,1.057,0,0,0,1.054,1.054Z" transform="translate(-211.132 -185.406)" fill="#86808f" fill-rule="evenodd"/>
      </g>
      <path id="Path_978798" data-name="Path 978798" d="M392.3,123.083h1.618v24.68H392.3Z" transform="translate(-345.445 -104.816)" fill="#d8cfe0"/>
      <path id="Path_978799" data-name="Path 978799" d="M416.455,147.235h1.618v24.68h-1.618Z" transform="translate(-366.93 -126.303)" fill="#a75c2e"/>
      <path id="Path_978800" data-name="Path 978800" d="M307.633,402.139h21.454v-5.4c0-9.608-21.454-9.608-21.454,0Z" transform="translate(-270.119 -341.857)" fill="#f24c00" fill-rule="evenodd"/>
      <path id="Path_978801" data-name="Path 978801" d="M307.633,402.9h17.79v-5.4c0-4.255-4.208-6.624-8.9-7.112-4.69.488-8.9,2.857-8.9,7.112Z" transform="translate(-270.119 -342.62)" fill="#fa5f17" fill-rule="evenodd"/>
      <path id="Path_978802" data-name="Path 978802" d="M356.412,300.264a6,6,0,1,0-6-6A6.015,6.015,0,0,0,356.412,300.264Z" transform="translate(-308.173 -251.761)" fill="#f6b4a8" fill-rule="evenodd"/>
      <path id="Path_978803" data-name="Path 978803" d="M355.023,301.413a6,6,0,1,1,4.612-5.838A6,6,0,0,1,355.023,301.413Z" transform="translate(-308.173 -253.072)" fill="#f9c9c0" fill-rule="evenodd"/>
      <path id="Path_978804" data-name="Path 978804" d="M17.907,25.447a.662.662,0,0,1,.662-.662h6.414a.662.662,0,1,1,0,1.323H18.569A.662.662,0,0,1,17.907,25.447Zm.662,4.091H26.04a.662.662,0,0,0,0-1.323H18.569a.662.662,0,0,0,0,1.323Zm0-6.861h6.414a.662.662,0,1,0,0-1.323H18.569a.662.662,0,1,0,0,1.323Zm0,10.294H28.4a.662.662,0,0,0,0-1.323H18.569a.662.662,0,0,0,0,1.323Zm21.823,5.541H35.23a.662.662,0,1,0,0,1.323h5.162a.662.662,0,1,0,0-1.323Zm4.668-6.864H35.23a.662.662,0,0,0,0,1.323h9.83a.662.662,0,1,0,0-1.323Zm14.569,22.9v5.4a.662.662,0,0,1-.662.662H37.514a.662.662,0,0,1-.662-.662v-5.4c0-3.5,2.657-6.223,7.038-7.338a6.717,6.717,0,0,1-1.141-1.271H20.878a6.715,6.715,0,0,1-1.141,1.27c4.383,1.116,7.04,3.837,7.04,7.339v5.4a.662.662,0,0,1-.662.662H4.662A.662.662,0,0,1,4,59.951v-5.4c0-3.5,2.657-6.223,7.039-7.339a6.654,6.654,0,0,1,.786-10.671V20.6a.662.662,0,0,1,.662-.662h2v-2a.662.662,0,0,1,.662-.662H25.165a6.351,6.351,0,0,1-.2-1.616,6.847,6.847,0,1,1,13.694,0,6.363,6.363,0,0,1-.2,1.616H48.477a.662.662,0,0,1,.662.662v2h2a.662.662,0,0,1,.662.662V36.542a6.653,6.653,0,0,1,.784,10.67c4.383,1.116,7.041,3.836,7.041,7.338ZM48.48,36.834h-.012c-.076,0-.152-.006-.229-.006A5.348,5.348,0,0,0,42.9,42.17c0,.124.006.247.014.369,0,.01,0,.02,0,.029a5.341,5.341,0,1,0,5.566-5.735Zm.659-15.572v14.3a6.6,6.6,0,0,1,1.342.327V21.262ZM37.946,18.6a14.194,14.194,0,0,1-.86,1.4,7.021,7.021,0,0,0-1.479,3.591c0,.007,0,.013,0,.019l.006,2.077a1.7,1.7,0,0,1-.936,1.517v.741a1.72,1.72,0,0,1-1.719,1.716h-.48V42.626a3.31,3.31,0,0,1,2-.673h7.1a6.673,6.673,0,0,1,6.236-6.433V18.6H37.946Zm-5.769-.654q-.176.01-.356.012H31.8q-.178,0-.353-.012v4.924h.726Zm-2.838,6.25v1.488a.376.376,0,0,0,.377.374h4.2a.379.379,0,0,0,.374-.374l0-1.493-4.942.005Zm.939,3.744a.393.393,0,0,0,.393.393h2.284a.4.4,0,0,0,.4-.393v-.558H30.278Zm-3.989-12.28a4.814,4.814,0,0,0,.406,2l.014.029a10.443,10.443,0,0,0,.93,1.569,8.69,8.69,0,0,1,1.623,3.618h.868V17.756a4.077,4.077,0,0,1-2.084-1.092,2.081,2.081,0,0,1-.554-1.607,2.178,2.178,0,0,1,1.433-1.964,1.43,1.43,0,0,1,1.267.188c.662.463,1.054,1.528,1.219,3.334.133.01.268.015.4.017s.274-.008.408-.018c.165-1.806.555-2.872,1.216-3.334a1.434,1.434,0,0,1,1.271-.188,2.179,2.179,0,0,1,1.428,1.965,2.081,2.081,0,0,1-.555,1.607A4.074,4.074,0,0,1,33.5,17.756v5.11h.866a8.708,8.708,0,0,1,1.621-3.612,10.475,10.475,0,0,0,.928-1.566c.006-.015.013-.03.02-.044a4.819,4.819,0,0,0,.4-1.986,5.524,5.524,0,0,0-11.048,0Zm8.312.118a.759.759,0,0,0,.217-.607.889.889,0,0,0-.486-.808.288.288,0,0,0-.08-.015.084.084,0,0,0-.056.019c-.078.054-.428.385-.618,2a2.392,2.392,0,0,0,1.023-.586Zm-5.169-1.41a.083.083,0,0,0-.055-.019.282.282,0,0,0-.078.014.886.886,0,0,0-.49.807.759.759,0,0,0,.216.607,2.4,2.4,0,0,0,1.026.587c-.19-1.611-.541-1.942-.619-2ZM15.814,35.52a6.673,6.673,0,0,1,6.233,6.433h7.1a3.31,3.31,0,0,1,2,.673V29.654h-.48a1.718,1.718,0,0,1-1.716-1.716V27.2a1.7,1.7,0,0,1-.939-1.515V23.561a7.02,7.02,0,0,0-1.476-3.57,14.166,14.166,0,0,1-.86-1.394H15.814Zm-2.666.373a6.6,6.6,0,0,1,1.342-.326v-14.3H13.148Zm2.239,11.617a5.341,5.341,0,1,0,0-10.681c-.075,0-.149,0-.223.006h-.016a5.34,5.34,0,0,0,.239,10.675Zm2.763.721a6.641,6.641,0,0,1-5.525,0c-3.566.6-7.3,2.557-7.3,6.32v4.739h20.13V54.551c0-3.763-3.737-5.722-7.3-6.32Zm3.434-3.612h9.452a2.006,2.006,0,0,0-1.889-1.342H21.959a6.6,6.6,0,0,1-.375,1.342Zm20.457,0a6.6,6.6,0,0,1-.375-1.342H34.479a2.006,2.006,0,0,0-1.889,1.342Zm16.264,9.932c0-3.763-3.737-5.721-7.3-6.319a6.644,6.644,0,0,1-5.525,0c-3.566.6-7.3,2.557-7.3,6.319v4.739h20.13V54.551ZM28.4,35.079H22.233a.662.662,0,1,0,0,1.323H28.4a.662.662,0,1,0,0-1.323Zm0,3.432H23.237a.662.662,0,1,0,0,1.323H28.4a.662.662,0,0,0,0-1.323ZM31.813,8.1a.662.662,0,0,0,.662-.662V5.924a.662.662,0,0,0-1.323,0V7.441a.662.662,0,0,0,.662.662Zm-4.681.77a.662.662,0,1,0,1.147-.661L27.521,6.9a.662.662,0,0,0-1.147.661l.757,1.314Zm-4.078,2.492,1.314.757a.662.662,0,0,0,.661-1.147l-1.314-.757a.662.662,0,0,0-.661,1.147Zm-.974,4.954H23.6A.662.662,0,0,0,23.6,15H22.079a.662.662,0,0,0,0,1.323Zm13.51-7.2a.661.661,0,0,0,.9-.241l.76-1.314A.662.662,0,0,0,36.108,6.9l-.76,1.314a.662.662,0,0,0,.242.9Zm3.339,3.1a.658.658,0,0,0,.33-.089l1.314-.757a.662.662,0,0,0-.661-1.147l-1.314.757a.662.662,0,0,0,.331,1.235Zm.439,3.446a.662.662,0,0,0,.662.662h1.517a.662.662,0,1,0,0-1.323H40.029A.662.662,0,0,0,39.367,15.657Zm2.026,19.422H35.23a.662.662,0,1,0,0,1.323h6.164a.662.662,0,0,0,0-1.323Zm-2.747-8.97H45.06a.662.662,0,1,0,0-1.323H38.646a.662.662,0,1,0,0,1.323Zm-1.061,3.429H45.06a.662.662,0,1,0,0-1.323H37.586a.662.662,0,0,0,0,1.323Zm1.061-6.861H45.06a.662.662,0,1,0,0-1.323H38.646a.662.662,0,1,0,0,1.323Z"/>
    </g>
  </g>
</svg>
