<svg xmlns="http://www.w3.org/2000/svg" xmlns:xlink="http://www.w3.org/1999/xlink" width="108" height="108" viewBox="0 0 108 108">
  <defs>
    <filter id="Fondo" x="0" y="0" width="108" height="108" filterUnits="userSpaceOnUse">
      <feOffset dy="3" input="SourceAlpha"/>
      <feGaussianBlur stdDeviation="3" result="blur"/>
      <feFlood flood-opacity="0.161"/>
      <feComposite operator="in" in2="blur"/>
      <feComposite in="SourceGraphic"/>
    </filter>
  </defs>
  <g id="Group_1143802" data-name="Group 1143802" transform="translate(-273 -732)">
    <g transform="matrix(1, 0, 0, 1, 273, 732)" filter="url(#Fondo)">
      <g id="Fondo-2" data-name="Fondo" transform="translate(9 6)" fill="#e4fef4" stroke="#43896d" stroke-width="3">
        <circle cx="45" cy="45" r="45" stroke="none"/>
        <circle cx="45" cy="45" r="43.5" fill="none"/>
      </g>
    </g>
    <g id="Layer_3" transform="translate(281.98 748.169)">
      <g id="Group_1143801" data-name="Group 1143801" transform="translate(20.646 0)">
        <g id="Group_1143743" data-name="Group 1143743" transform="translate(8.331 24.4)">
          <path id="Path_978805" data-name="Path 978805" d="M64.236,107.656V105a8.773,8.773,0,0,1-4.562-7.1,3.591,3.591,0,0,1-3.108-.968,25.746,25.746,0,0,1-2.678,7.885,1.152,1.152,0,0,0,.328,1.491c1.238.9,4.048,2.433,9.3,3.064A2.427,2.427,0,0,0,64.236,107.656Z" transform="translate(-53.744 -96.941)" fill="#754e34"/>
        </g>
        <g id="Group_1143744" data-name="Group 1143744" transform="translate(27.139 24.4)">
          <path id="Path_978806" data-name="Path 978806" d="M138.819,104.826a25.746,25.746,0,0,1-2.678-7.885,3.591,3.591,0,0,1-3.108.968,8.773,8.773,0,0,1-4.562,7.1v2.651a2.427,2.427,0,0,0,.725,1.725c5.247-.631,8.057-2.169,9.3-3.064A1.153,1.153,0,0,0,138.819,104.826Z" transform="translate(-128.471 -96.941)" fill="#754e34"/>
        </g>
        <g id="Group_1143745" data-name="Group 1143745" transform="translate(7.702 23.918)">
          <path id="Path_978807" data-name="Path 978807" d="M61.487,108.559a.641.641,0,0,1-.079-.005c-5.321-.665-8.191-2.265-9.428-3.16a1.785,1.785,0,0,1-.511-2.3,25.058,25.058,0,0,0,2.584-7.545.629.629,0,1,1,1.239.221,25.96,25.96,0,0,1-2.719,7.928.525.525,0,0,0,.145.678c1.14.824,3.8,2.3,8.847,2.931a.63.63,0,0,1-.078,1.254Z" transform="translate(-51.248 -95.028)"/>
        </g>
        <g id="Group_1143746" data-name="Group 1143746" transform="translate(27.392 23.888)">
          <path id="Path_978808" data-name="Path 978808" d="M130.1,108.469a.629.629,0,0,1-.077-1.254c5.043-.63,7.707-2.106,8.847-2.931a.525.525,0,0,0,.145-.678,25.965,25.965,0,0,1-2.725-7.96.629.629,0,1,1,1.239-.22,25.279,25.279,0,0,0,2.59,7.575,1.785,1.785,0,0,1-.511,2.3c-1.237.895-4.107,2.495-9.428,3.16a.681.681,0,0,1-.078,0Z" transform="translate(-129.475 -94.907)"/>
        </g>
        <g id="Group_1143747" data-name="Group 1143747" transform="translate(31.701 18.119)">
          <path id="Path_978809" data-name="Path 978809" d="M147.177,71.985a3.648,3.648,0,0,0-.561.045v6.618c0,.2-.009.392-.022.586a3.648,3.648,0,1,0,.583-7.249Z" transform="translate(-146.594 -71.985)" fill="#f9d0b4"/>
        </g>
        <g id="Group_1143748" data-name="Group 1143748" transform="translate(14.239 15.063)">
          <path id="Path_978810" data-name="Path 978810" d="M90.142,60.045c-1.331,1.554-6.053,6.269-12.923,4.312v5.206a8.742,8.742,0,0,0,17.484,0V62.5a.686.686,0,0,0-.538-.666A7.241,7.241,0,0,1,90.976,60,.58.58,0,0,0,90.142,60.045Z" transform="translate(-77.219 -59.844)" fill="#f9d0b4"/>
        </g>
        <g id="Group_1143749" data-name="Group 1143749" transform="translate(10.028 18.809)">
          <path id="Path_978811" data-name="Path 978811" d="M64.7,75.495a14.211,14.211,0,0,1-1.849-.672,1.112,1.112,0,0,0-1.209.208,3.638,3.638,0,0,0,3.08,6.256c-.013-.194-.022-.389-.022-.586V75.495Z" transform="translate(-60.488 -74.729)" fill="#f9d0b4"/>
        </g>
        <g id="Group_1143751" data-name="Group 1143751" transform="translate(11.093 5.166)">
          <g id="Group_1143750" data-name="Group 1143750">
            <path id="Path_978812" data-name="Path 978812" d="M64.808,34.47a1.112,1.112,0,0,1,1.209-.208,14.247,14.247,0,0,0,1.849.672c6.871,1.957,11.592-2.758,12.923-4.312a.58.58,0,0,1,.833-.047,7.242,7.242,0,0,0,3.19,1.836.686.686,0,0,1,.538.666v.444a3.634,3.634,0,0,1,3.145,1.028V32.412a11.887,11.887,0,0,0-23.775,0v2.148C64.75,34.531,64.777,34.5,64.808,34.47Z" transform="translate(-64.72 -20.525)" fill="#754e34"/>
          </g>
        </g>
        <g id="Group_1143753" data-name="Group 1143753" transform="translate(4.147 32.464)">
          <g id="Group_1143752" data-name="Group 1143752">
            <path id="Path_978813" data-name="Path 978813" d="M65.5,151.418a12.238,12.238,0,0,1-.993-16.181,7.594,7.594,0,0,1-.872-.362L61.47,133.81a2.43,2.43,0,0,1-1.356-2.18v-2.651a8.692,8.692,0,0,1-8.316,0v2.651a2.43,2.43,0,0,1-1.356,2.18l-2.161,1.066a7.626,7.626,0,0,1-1.512.556l-6.25,1.578a3.585,3.585,0,0,0-2.7,3.277l-.691,18.983a1,1,0,0,0,.995,1.052h5.535a.674.674,0,0,0,.674-.674V147.781l.977,3.131a21.22,21.22,0,0,1,.964,6.324v2.411a.674.674,0,0,0,.674.674H64.97a.674.674,0,0,0,.674-.674v-2.411a21.221,21.221,0,0,1,.628-5.109c-.266-.224-.526-.458-.776-.708Z" transform="translate(-37.122 -128.979)" fill="#f9d0b4"/>
          </g>
        </g>
        <g id="Group_1143754" data-name="Group 1143754" transform="translate(34.61 56.578)">
          <path id="Path_978814" data-name="Path 978814" d="M158.153,224.783v6.554a.674.674,0,0,0,.674.674h5.535a1,1,0,0,0,.995-1.052l-.156-4.278a12.221,12.221,0,0,1-7.048-1.9Z" transform="translate(-158.153 -224.783)" fill="#dae6f1"/>
        </g>
        <g id="Group_1143755" data-name="Group 1143755" transform="translate(22.981 37.18)">
          <path id="Path_978815" data-name="Path 978815" d="M121.49,165.439a12.238,12.238,0,0,1-.993-16.181,7.59,7.59,0,0,1-.872-.362l-2.161-1.066c-.069-.034-.132-.075-.2-.115l-5.146,20.069a5.5,5.5,0,0,0-.17,1.363v5.194h9.014a.674.674,0,0,0,.674-.674v-2.411a21.221,21.221,0,0,1,.628-5.109C122,165.923,121.741,165.689,121.49,165.439Z" transform="translate(-111.951 -147.715)" fill="#dae6f1"/>
        </g>
        <g id="Group_1143756" data-name="Group 1143756" transform="translate(4.147 37.18)">
          <path id="Path_978816" data-name="Path 978816" d="M50.639,147.715c-.064.04-.128.081-.2.115L48.281,148.9a7.626,7.626,0,0,1-1.512.556l-6.25,1.578a3.585,3.585,0,0,0-2.7,3.277l-.691,18.983a1,1,0,0,0,.995,1.052h5.535a.674.674,0,0,0,.674-.674V161.8l.977,3.131a21.22,21.22,0,0,1,.964,6.324v2.411a.674.674,0,0,0,.674.674h9.014v-5.194a5.509,5.509,0,0,0-.17-1.363Z" transform="translate(-37.122 -147.715)" fill="#dae6f1"/>
        </g>
        <g id="Group_1143757" data-name="Group 1143757" transform="translate(22.995 37.18)">
          <path id="Path_978817" data-name="Path 978817" d="M120.541,149.255a7.567,7.567,0,0,1-.874-.359l-2.161-1.066c-.069-.034-.132-.075-.2-.115l-5.146,20.069a5.457,5.457,0,0,0-.156.981l6.552-8.163A12.242,12.242,0,0,1,120.541,149.255Z" transform="translate(-112.006 -147.715)" fill="#edf4fc"/>
        </g>
        <g id="Group_1143758" data-name="Group 1143758" transform="translate(13.673 37.18)">
          <path id="Path_978818" data-name="Path 978818" d="M84.106,167.785,78.96,147.716c-.064.04-.128.081-.2.115L76.6,148.9a7.646,7.646,0,0,1-1.094.437l-.532,3.646a.613.613,0,0,0,.284.64l1.84.917a.641.641,0,0,1,.235.813l-1.19,2.717a.687.687,0,0,0,.079.685l8.038,10.014A5.456,5.456,0,0,0,84.106,167.785Z" transform="translate(-74.968 -147.716)" fill="#edf4fc"/>
        </g>
        <g id="Group_1143759" data-name="Group 1143759" transform="translate(19.031 42.506)">
          <path id="Path_978819" data-name="Path 978819" d="M100.035,183.619c.037.145.066.293.091.441.005.031.01.062.015.094.022.147.04.3.051.446.009.127.014.254.014.382,0-.128.005-.255.014-.382.01-.15.028-.3.051-.446,0-.031.01-.062.015-.094.025-.149.054-.3.091-.441l3.781-14.742a7.289,7.289,0,0,1-7.9,0Z" transform="translate(-96.255 -168.877)" fill="#3caadc"/>
        </g>
        <g id="Group_1143760" data-name="Group 1143760" transform="translate(28.936 34.012)">
          <circle id="Ellipse_11551" data-name="Ellipse 11551" cx="12.238" cy="12.238" r="12.238" fill="#f98fa6"/>
        </g>
        <g id="Group_1143761" data-name="Group 1143761" transform="translate(32.491 37.566)">
          <circle id="Ellipse_11552" data-name="Ellipse 11552" cx="8.684" cy="8.684" r="8.684" fill="#fc657e"/>
        </g>
        <g id="Group_1143762" data-name="Group 1143762" transform="translate(31.319 17.49)">
          <path id="Path_978820" data-name="Path 978820" d="M146.042,78.044a3.866,3.866,0,0,1-.4-.021.629.629,0,1,1,.128-1.252,2.657,2.657,0,0,0,.271.015,3.021,3.021,0,1,0,0-6.041c-.079,0-.156,0-.233.01a.629.629,0,1,1-.1-1.254c.11-.009.221-.014.334-.014a4.279,4.279,0,1,1,0,8.558Z" transform="translate(-145.078 -69.486)"/>
        </g>
        <g id="Group_1143763" data-name="Group 1143763" transform="translate(13.61 14.433)">
          <path id="Path_978821" data-name="Path 978821" d="M84.089,77.062a9.382,9.382,0,0,1-9.371-9.371V62.485a.629.629,0,0,1,.8-.605c6.523,1.858,11.043-2.68,12.273-4.116a1.2,1.2,0,0,1,.839-.419,1.224,1.224,0,0,1,.9.315,6.735,6.735,0,0,0,2.909,1.689,1.311,1.311,0,0,1,1.025,1.279v7.063a9.382,9.382,0,0,1-9.371,9.371Zm-8.113-13.77v4.4a8.113,8.113,0,1,0,16.225,0V60.628a.059.059,0,0,0-.05-.053,7.918,7.918,0,0,1-3.437-1.953C87.366,60.183,82.727,64.772,75.976,63.292Z" transform="translate(-74.718 -57.343)"/>
        </g>
        <g id="Group_1143764" data-name="Group 1143764" transform="translate(9.399 18.18)">
          <path id="Path_978822" data-name="Path 978822" d="M62.269,80.1a4.276,4.276,0,0,1-2.927-7.4,1.738,1.738,0,0,1,1.894-.324A13.635,13.635,0,0,0,63,73.018a.629.629,0,1,1-.345,1.21,14.944,14.944,0,0,1-1.931-.7.481.481,0,0,0-.524.091,2.986,2.986,0,0,0-.954,2.2,3.024,3.024,0,0,0,3.02,3.021,2.632,2.632,0,0,0,.287-.016.629.629,0,0,1,.135,1.251,3.834,3.834,0,0,1-.421.024Z" transform="translate(-57.99 -72.228)"/>
        </g>
        <g id="Group_1143766" data-name="Group 1143766" transform="translate(10.464 4.537)">
          <g id="Group_1143765" data-name="Group 1143765">
            <path id="Path_978823" data-name="Path 978823" d="M62.85,33.158a.629.629,0,0,1-.629-.629V30.543a12.517,12.517,0,1,1,25.033,0v1.918a.629.629,0,1,1-1.258,0V30.543a11.258,11.258,0,0,0-22.516,0v1.986a.629.629,0,0,1-.629.629Z" transform="translate(-62.221 -18.026)"/>
          </g>
        </g>
        <g id="Group_1143769" data-name="Group 1143769" transform="translate(3.518 32.029)">
          <g id="Group_1143767" data-name="Group 1143767" transform="translate(22.992 0.008)">
            <path id="Path_978824" data-name="Path 978824" d="M130.792,134.526a.625.625,0,0,1-.221-.04c-.256-.1-.5-.2-.733-.316l-2.161-1.066a3.041,3.041,0,0,1-1.707-2.744v-2.449a.629.629,0,1,1,1.258,0v2.449a1.79,1.79,0,0,0,1,1.615l2.161,1.066c.194.1.4.185.619.267a.629.629,0,0,1-.221,1.218Z" transform="translate(-125.97 -127.282)"/>
          </g>
          <g id="Group_1143768" data-name="Group 1143768">
            <path id="Path_978825" data-name="Path 978825" d="M63.1,159.657H45.071a1.3,1.3,0,0,1-1.3-1.3v-2.411a20.575,20.575,0,0,0-.683-5.259v7.671a1.3,1.3,0,0,1-1.3,1.3H36.248a1.626,1.626,0,0,1-1.623-1.716l.69-18.971a4.2,4.2,0,0,1,3.179-3.864l6.25-1.578a7.022,7.022,0,0,0,1.388-.51l2.161-1.066a1.79,1.79,0,0,0,1-1.615V127.88a.629.629,0,0,1,1.258,0v2.457a3.04,3.04,0,0,1-1.707,2.744l-2.161,1.066a8.27,8.27,0,0,1-1.637.6l-6.25,1.578a2.943,2.943,0,0,0-2.23,2.7L35.882,158a.373.373,0,0,0,.1.285.365.365,0,0,0,.267.115h5.535a.044.044,0,0,0,.044-.045V146.488a.629.629,0,0,1,1.23-.187l.977,3.131a21.828,21.828,0,0,1,.993,6.511v2.411a.044.044,0,0,0,.045.045H63.1a.044.044,0,0,0,.045-.045v-2.411a21.881,21.881,0,0,1,.608-5.1.629.629,0,1,1,1.224.294,20.608,20.608,0,0,0-.573,4.809v2.411a1.3,1.3,0,0,1-1.3,1.3Z" transform="translate(-34.622 -127.251)"/>
          </g>
        </g>
        <g id="Group_1143770" data-name="Group 1143770" transform="translate(19.814 27.293)">
          <path id="Path_978826" data-name="Path 978826" d="M102.534,110.782a3.948,3.948,0,0,1-3.02-1.313.629.629,0,0,1,.965-.808,2.881,2.881,0,0,0,4.111,0,.629.629,0,0,1,.965.808A3.948,3.948,0,0,1,102.534,110.782Z" transform="translate(-99.367 -108.436)"/>
        </g>
        <g id="Group_1143771" data-name="Group 1143771" transform="translate(25.652 21.646)">
          <circle id="Ellipse_11553" data-name="Ellipse 11553" cx="1.133" cy="1.133" r="1.133"/>
        </g>
        <g id="Group_1143772" data-name="Group 1143772" transform="translate(18.045 21.646)">
          <circle id="Ellipse_11554" data-name="Ellipse 11554" cx="1.133" cy="1.133" r="1.133"/>
        </g>
        <g id="Group_1143773" data-name="Group 1143773" transform="translate(33.981 56.108)">
          <path id="Path_978827" data-name="Path 978827" d="M162.491,231.244h-5.535a1.3,1.3,0,0,1-1.3-1.3v-6.395a.629.629,0,1,1,1.258,0v6.395a.044.044,0,0,0,.045.045h5.535a.368.368,0,0,0,.367-.388l-.148-4.066a.629.629,0,1,1,1.257-.046l.148,4.054a1.625,1.625,0,0,1-1.624,1.7Z" transform="translate(-155.653 -222.917)"/>
        </g>
        <g id="Group_1143774" data-name="Group 1143774" transform="translate(17.078 36.72)">
          <path id="Path_978828" data-name="Path 978828" d="M94.4,173.352a.629.629,0,0,1-.629-.629V167.78a4.869,4.869,0,0,0-.151-1.207l-5.1-19.9a.629.629,0,0,1,1.219-.313l5.1,19.9a6.128,6.128,0,0,1,.19,1.519v4.942A.629.629,0,0,1,94.4,173.352Z" transform="translate(-88.498 -145.888)"/>
        </g>
        <g id="Group_1143775" data-name="Group 1143775" transform="translate(22.366 36.712)">
          <path id="Path_978829" data-name="Path 978829" d="M110.136,168a.629.629,0,0,1-.627-.672,6.1,6.1,0,0,1,.174-1.094l5.105-19.908a.629.629,0,0,1,1.219.313l-4.678,18.24,4.735-5.9a.629.629,0,1,1,.981.788l-6.419,8A.631.631,0,0,1,110.136,168Z" transform="translate(-109.507 -145.856)"/>
        </g>
        <g id="Group_1143776" data-name="Group 1143776" transform="translate(13.044 38.288)">
          <path id="Path_978830" data-name="Path 978830" d="M82.284,172.553a.628.628,0,0,1-.491-.235l-7.93-9.878a1.309,1.309,0,0,1-.165-1.331l1.19-2.718a.067.067,0,0,0,0-.026l-1.783-.888a1.24,1.24,0,0,1-.626-1.294L73,152.657a.629.629,0,1,1,1.245.181l-.515,3.527a.068.068,0,0,0,0,.014l1.783.888a1.258,1.258,0,0,1,.531,1.629l-1.19,2.717a.079.079,0,0,0,0,.048l7.923,9.868a.63.63,0,0,1-.491,1.023ZM73.731,156.4h0Z" transform="translate(-72.469 -152.118)"/>
        </g>
        <g id="Group_1143777" data-name="Group 1143777" transform="translate(18.52 41.95)">
          <path id="Path_978831" data-name="Path 978831" d="M98.687,169.017a7.909,7.909,0,0,1-4.163-1.182.629.629,0,1,1,.662-1.07,6.661,6.661,0,0,0,7,0,.629.629,0,1,1,.663,1.07,7.9,7.9,0,0,1-4.166,1.184Z" transform="translate(-94.226 -166.669)"/>
        </g>
        <g id="Group_1143778" data-name="Group 1143778" transform="translate(28.313 33.383)">
          <path id="Path_978832" data-name="Path 978832" d="M146,158.363a12.868,12.868,0,1,1,9.1-3.769A12.782,12.782,0,0,1,146,158.363Zm0-24.476a11.609,11.609,0,1,0,8.209,3.4A11.533,11.533,0,0,0,146,133.887Z" transform="translate(-133.134 -132.629)"/>
        </g>
        <g id="Group_1143781" data-name="Group 1143781" transform="translate(28.933)">
          <g id="Group_1143780" data-name="Group 1143780">
            <g id="Group_1143779" data-name="Group 1143779">
              <path id="Path_978833" data-name="Path 978833" d="M140.215,2.228a2.793,2.793,0,0,1-2.24-2.19c0-.05-.1-.05-.1,0a2.793,2.793,0,0,1-2.24,2.19c-.05,0-.05.076,0,.1a2.793,2.793,0,0,1,2.24,2.19c0,.05.1.05.1,0a2.793,2.793,0,0,1,2.24-2.19c.05-.025.05-.1,0-.1Z" transform="translate(-135.596 0)" fill="#fc657e"/>
            </g>
          </g>
        </g>
        <g id="Group_1143784" data-name="Group 1143784" transform="translate(46.317 29.687)">
          <g id="Group_1143783" data-name="Group 1143783">
            <g id="Group_1143782" data-name="Group 1143782">
              <path id="Path_978834" data-name="Path 978834" d="M207.268,119.2A1.576,1.576,0,0,1,206,117.968c0-.028-.057-.028-.057,0a1.575,1.575,0,0,1-1.263,1.235c-.028,0-.028.043,0,.057a1.575,1.575,0,0,1,1.263,1.235c0,.028.057.028.057,0a1.575,1.575,0,0,1,1.263-1.235C207.3,119.245,207.3,119.2,207.268,119.2Z" transform="translate(-204.663 -117.946)" fill="#70d6f9"/>
            </g>
          </g>
        </g>
        <g id="Group_1143787" data-name="Group 1143787" transform="translate(0 27.687)">
          <g id="Group_1143786" data-name="Group 1143786">
            <g id="Group_1143785" data-name="Group 1143785">
              <path id="Path_978835" data-name="Path 978835" d="M24.22,111.384h-.579v-.579a.811.811,0,0,0-.805-.805.8.8,0,0,0-.805.805v.579h-.579a.811.811,0,0,0-.805.805.8.8,0,0,0,.805.805h.579v.579a.811.811,0,0,0,.805.805.8.8,0,0,0,.805-.805V113h.579a.811.811,0,0,0,.805-.805A.8.8,0,0,0,24.22,111.384Z" transform="translate(-20.646 -110)" fill="#70d6f9"/>
            </g>
          </g>
        </g>
        <g id="Group_1143790" data-name="Group 1143790" transform="translate(35.968 7.299)">
          <g id="Group_1143789" data-name="Group 1143789">
            <g id="Group_1143788" data-name="Group 1143788">
              <circle id="Ellipse_11555" data-name="Ellipse 11555" cx="0.856" cy="0.856" r="0.856" fill="#f5c84c"/>
            </g>
          </g>
        </g>
        <g id="Group_1143793" data-name="Group 1143793" transform="translate(2.744 35.489)">
          <g id="Group_1143792" data-name="Group 1143792">
            <g id="Group_1143791" data-name="Group 1143791">
              <circle id="Ellipse_11556" data-name="Ellipse 11556" cx="0.856" cy="0.856" r="0.856" fill="#b2e26d"/>
            </g>
          </g>
        </g>
        <g id="Group_1143794" data-name="Group 1143794" transform="translate(40.673 41.737)">
          <path id="Path_978836" data-name="Path 978836" d="M182.868,172.354a.629.629,0,0,1,0-1.258c.1,0,.2,0,.3-.006a2.757,2.757,0,0,0,2.618-2.783,2.713,2.713,0,0,1,1.462-2.413.629.629,0,1,1,.582,1.116,1.459,1.459,0,0,0-.786,1.3,4.013,4.013,0,0,1-3.823,4.04C183.105,172.351,182.987,172.354,182.868,172.354Z" transform="translate(-182.239 -165.822)"/>
        </g>
        <g id="Group_1143795" data-name="Group 1143795" transform="translate(35.746 41.737)">
          <path id="Path_978837" data-name="Path 978837" d="M167.967,172.353c-.119,0-.237,0-.353-.008a4.012,4.012,0,0,1-3.823-4.04,1.458,1.458,0,0,0-.786-1.3.629.629,0,1,1,.582-1.116,2.713,2.713,0,0,1,1.462,2.413,2.757,2.757,0,0,0,2.618,2.783q.147.006.3.006a.629.629,0,0,1,0,1.259Z" transform="translate(-162.666 -165.821)"/>
        </g>
        <g id="Group_1143796" data-name="Group 1143796" transform="translate(39.067 41.296)">
          <path id="Path_978838" data-name="Path 978838" d="M179.445,165.326h-2.956a.629.629,0,0,1,0-1.258h2.956a.629.629,0,0,1,0,1.258Z" transform="translate(-175.86 -164.068)"/>
        </g>
        <g id="Group_1143797" data-name="Group 1143797" transform="translate(39.067 50.952)">
          <path id="Path_978839" data-name="Path 978839" d="M179.445,203.69h-2.956a.629.629,0,0,1,0-1.258h2.956a.629.629,0,0,1,0,1.258Z" transform="translate(-175.86 -202.432)"/>
        </g>
        <g id="Group_1143798" data-name="Group 1143798" transform="translate(40.545 41.493)">
          <path id="Path_978840" data-name="Path 978840" d="M182.36,175.371a.629.629,0,0,1-.629-.629V165.48a.629.629,0,0,1,1.258,0v9.262A.629.629,0,0,1,182.36,175.371Z" transform="translate(-181.731 -164.851)"/>
        </g>
        <g id="Group_1143799" data-name="Group 1143799" transform="translate(31.861 36.937)">
          <path id="Path_978841" data-name="Path 978841" d="M156.544,165.376a9.313,9.313,0,1,1,9.313-9.313A9.323,9.323,0,0,1,156.544,165.376Zm0-17.367a8.054,8.054,0,1,0,8.054,8.054A8.063,8.063,0,0,0,156.544,148.008Z" transform="translate(-147.231 -146.75)"/>
        </g>
        <g id="Group_1143800" data-name="Group 1143800" transform="translate(31.861 36.937)">
          <path id="Path_978842" data-name="Path 978842" d="M156.544,165.376a9.313,9.313,0,1,1,9.313-9.313A9.323,9.323,0,0,1,156.544,165.376Zm0-17.367a8.054,8.054,0,1,0,8.054,8.054A8.063,8.063,0,0,0,156.544,148.008Z" transform="translate(-147.231 -146.75)"/>
        </g>
      </g>
    </g>
  </g>
</svg>
