<svg xmlns="http://www.w3.org/2000/svg" xmlns:xlink="http://www.w3.org/1999/xlink" width="108" height="108" viewBox="0 0 108 108">
  <defs>
    <filter id="Fondo" x="0" y="0" width="108" height="108" filterUnits="userSpaceOnUse">
      <feOffset dy="3" input="SourceAlpha"/>
      <feGaussianBlur stdDeviation="3" result="blur"/>
      <feFlood flood-opacity="0.161"/>
      <feComposite operator="in" in2="blur"/>
      <feComposite in="SourceGraphic"/>
    </filter>
  </defs>
  <g id="Group_1144938" data-name="Group 1144938" transform="translate(-998.999 -1894.17)">
    <g id="Group_1144932" data-name="Group 1144932">
      <g id="Group_1144680" data-name="Group 1144680" transform="translate(0 29.5)">
        <g id="Icono" transform="translate(1007.499 1175.67)">
          <g transform="matrix(1, 0, 0, 1, -8.5, 689)" filter="url(#Fondo)">
            <g id="Fondo-2" data-name="Fondo" transform="translate(9 6)" fill="#f1fef9" stroke="#43896d" stroke-width="3">
              <circle cx="45" cy="45" r="45" stroke="none"/>
              <circle cx="45" cy="45" r="43.5" fill="none"/>
            </g>
          </g>
        </g>
        <g id="Group_1144679" data-name="Group 1144679" transform="translate(1024.626 1888.626)">
          <g id="Group_1144677" data-name="Group 1144677" transform="translate(1.883 1.883)">
            <g id="Group_1144659" data-name="Group 1144659" transform="translate(12.363 12.363)">
              <path id="Path_981292" data-name="Path 981292" d="M30.129,16v5.3a8.839,8.839,0,0,0-8.1,12.363H16V27.48l2.243-.715A12.83,12.83,0,0,1,19.338,24.1l-1.077-2.084,3.753-3.753L24.1,19.338a12.83,12.83,0,0,1,2.667-1.095L27.48,16Z" transform="translate(-16 -16)" fill="#fcd770"/>
            </g>
            <g id="Group_1144660" data-name="Group 1144660" transform="translate(26.491 22.959)">
              <path id="Path_981293" data-name="Path 981293" d="M46.129,28v6.181l-2.243.715a12.83,12.83,0,0,1-1.095,2.667l1.077,2.084-3.753,3.744-2.084-1.068a12.83,12.83,0,0,1-2.667,1.095l-.715,2.243H32v-5.3A8.839,8.839,0,0,0,40.1,28Z" transform="translate(-32 -28)" fill="#fcd770"/>
            </g>
            <g id="Group_1144661" data-name="Group 1144661" transform="translate(0 30.024)">
              <path id="Path_981294" data-name="Path 981294" d="M26.725,36H3.766A1.771,1.771,0,0,0,2,37.766V57.193a1.771,1.771,0,0,0,1.766,1.766H26.725a1.771,1.771,0,0,0,1.766-1.766V37.766A1.771,1.771,0,0,0,26.725,36Z" transform="translate(-2 -36)" fill="#e6e9ed"/>
            </g>
            <g id="Group_1144662" data-name="Group 1144662" transform="translate(26.491 0)">
              <path id="Path_981295" data-name="Path 981295" d="M56.725,2H33.766A1.771,1.771,0,0,0,32,3.766V23.193a1.771,1.771,0,0,0,1.766,1.766H56.725a1.771,1.771,0,0,0,1.766-1.766V3.766A1.771,1.771,0,0,0,56.725,2Z" transform="translate(-32 -2)" fill="#e6e9ed"/>
            </g>
            <g id="Group_1144663" data-name="Group 1144663" transform="translate(32.673 16.116)">
              <path id="Path_981296" data-name="Path 981296" d="M47.83,20.25A29.224,29.224,0,0,1,51.062,22.1a7.077,7.077,0,0,1,2.066,5H39a7.07,7.07,0,0,1,5.3-6.844V21.8a1.771,1.771,0,0,0,1.766,1.766A1.779,1.779,0,0,0,47.83,21.8V20.259Z" transform="translate(-39 -20.25)" fill="#b4dd7f"/>
            </g>
            <g id="Group_1144664" data-name="Group 1144664" transform="translate(6.181 45.804)">
              <path id="Path_981297" data-name="Path 981297" d="M12.868,53.87,14.1,56.634l1.96,4.415H9v-.883a7.051,7.051,0,0,1,2.252-5.175A7.138,7.138,0,0,1,12.868,53.87Z" transform="translate(-9 -53.87)" fill="#ff826e"/>
            </g>
            <g id="Group_1144665" data-name="Group 1144665" transform="translate(13.246 45.804)">
              <path id="Path_981298" data-name="Path 981298" d="M21.813,54.991c.062.062.124.115.185.177a7.077,7.077,0,0,1,2.066,5v.883H17l1.96-4.415L20.2,53.87a7.138,7.138,0,0,1,1.616,1.121Z" transform="translate(-17 -53.87)" fill="#ff826e"/>
            </g>
            <g id="Group_1144666" data-name="Group 1144666" transform="translate(11.285 48.567)">
              <path id="Path_981299" data-name="Path 981299" d="M18.7,57l-1.96,4.415L14.78,57Z" transform="translate(-14.78 -57)" fill="#ffeaa7"/>
            </g>
            <g id="Group_1144667" data-name="Group 1144667" transform="translate(13.246 33.556)">
              <path id="Path_981300" data-name="Path 981300" d="M23.181,46.181V50.6a3.528,3.528,0,0,1-1.369,2.773A7.139,7.139,0,0,0,20.2,52.248,6.944,6.944,0,0,0,17,51.48h.883a2.646,2.646,0,0,0,2.649-2.649V46.393a1.766,1.766,0,0,0-.98-1.581L17,43.532V40A6.177,6.177,0,0,1,23.181,46.181Z" transform="translate(-17 -40)" fill="#b27946"/>
            </g>
            <g id="Group_1144668" data-name="Group 1144668" transform="translate(7.064 33.556)">
              <path id="Path_981301" data-name="Path 981301" d="M12.649,48.83A2.646,2.646,0,0,0,15.3,51.48h.883a6.944,6.944,0,0,0-3.2.768,7.139,7.139,0,0,0-1.616,1.121A3.528,3.528,0,0,1,10,50.6V46.181A6.177,6.177,0,0,1,16.181,40v3.532l-2.552,1.28a1.766,1.766,0,0,0-.98,1.581Z" transform="translate(-10 -40)" fill="#b27946"/>
            </g>
            <g id="Group_1144669" data-name="Group 1144669" transform="translate(39.737 4.415)">
              <path id="Path_981302" data-name="Path 981302" d="M52.3,11.071a4.109,4.109,0,0,1-.68,2.252l-1.086,1.625V13.393a1.766,1.766,0,0,0-.98-1.581L47,10.532V7h1.227A4.066,4.066,0,0,1,52.3,11.071Z" transform="translate(-47 -7)" fill="#656d78"/>
            </g>
            <g id="Group_1144670" data-name="Group 1144670" transform="translate(34.439 4.415)">
              <path id="Path_981303" data-name="Path 981303" d="M46.3,7v3.532l-2.552,1.28a1.766,1.766,0,0,0-.98,1.581v1.554L41.68,13.323A4.07,4.07,0,0,1,45.071,7Z" transform="translate(-41 -7)" fill="#656d78"/>
            </g>
            <g id="Group_1144671" data-name="Group 1144671" transform="translate(37.971 15.895)">
              <path id="Path_981304" data-name="Path 981304" d="M48.532,20.23v1.536a1.779,1.779,0,0,1-1.766,1.766A1.771,1.771,0,0,1,45,21.766V20.221a7.175,7.175,0,0,1,3.532,0Z" transform="translate(-45 -20)" fill="#f0d0b4"/>
            </g>
            <g id="Group_1144672" data-name="Group 1144672" transform="translate(36.205 7.947)">
              <path id="Path_981305" data-name="Path 981305" d="M50.064,15.415V16.3a2.646,2.646,0,0,1-2.649,2.649H45.649A2.646,2.646,0,0,1,43,16.3V13.861a1.766,1.766,0,0,1,.98-1.581L46.532,11l2.552,1.28a1.766,1.766,0,0,1,.98,1.581Z" transform="translate(-43 -11)" fill="#f0d0b4"/>
            </g>
            <g id="Group_1144673" data-name="Group 1144673" transform="translate(10.049 45.035)">
              <path id="Path_981306" data-name="Path 981306" d="M19.773,53.768l-1.236,2.764H14.616L13.38,53.768a7.035,7.035,0,0,1,6.393,0Z" transform="translate(-13.38 -53)" fill="#f0d0b4"/>
            </g>
            <g id="Group_1144674" data-name="Group 1144674" transform="translate(9.713 37.088)">
              <path id="Path_981307" data-name="Path 981307" d="M20.064,46.861V49.3a2.646,2.646,0,0,1-2.649,2.649H15.649A2.646,2.646,0,0,1,13,49.3V46.861a1.766,1.766,0,0,1,.98-1.581L16.532,44l2.552,1.28A1.766,1.766,0,0,1,20.064,46.861Z" transform="translate(-13 -44)" fill="#f0d0b4"/>
            </g>
            <g id="Group_1144675" data-name="Group 1144675" transform="translate(0 3.532)">
              <path id="Path_981308" data-name="Path 981308" d="M16.129,11.3v5.3H2V6H16.129Z" transform="translate(-2 -6)" fill="#ffeaa7"/>
            </g>
            <g id="Group_1144676" data-name="Group 1144676" transform="translate(38.854 38.854)">
              <path id="Path_981309" data-name="Path 981309" d="M60.129,46V56.6H46V46Z" transform="translate(-46 -46)" fill="#ffeaa7"/>
            </g>
          </g>
          <g id="Group_1144678" data-name="Group 1144678" transform="translate(1 1)">
            <path id="Path_981310" data-name="Path 981310" d="M49,49h8.83v1.766H49Z" transform="translate(-6.614 -6.614)"/>
            <path id="Path_981311" data-name="Path 981311" d="M53,53h1.766v1.766H53Z" transform="translate(-7.082 -7.082)"/>
            <path id="Path_981312" data-name="Path 981312" d="M57,53h1.766v1.766H57Z" transform="translate(-7.549 -7.082)"/>
            <path id="Path_981313" data-name="Path 981313" d="M49,53h1.766v1.766H49Z" transform="translate(-6.614 -7.082)"/>
            <path id="Path_981314" data-name="Path 981314" d="M5,9h8.83v1.766H5Z" transform="translate(-1.468 -1.936)"/>
            <path id="Path_981315" data-name="Path 981315" d="M13,13h1.766v1.766H13Z" transform="translate(-2.403 -2.403)"/>
            <path id="Path_981316" data-name="Path 981316" d="M9,13h1.766v1.766H9Z" transform="translate(-1.936 -2.403)"/>
            <path id="Path_981317" data-name="Path 981317" d="M5,13H6.766v1.766H5Z" transform="translate(-1.468 -2.403)"/>
            <path id="Path_981318" data-name="Path 981318" d="M43.386,31.667V25.725H53.1a2.652,2.652,0,0,0,2.649-2.649V3.649A2.652,2.652,0,0,0,53.1,1H30.14a2.652,2.652,0,0,0-2.649,2.649V9.83h-10.6v-5.3H1V16.895H16.895V11.6h10.6v1.766h-2.41l-.774,2.414a13.188,13.188,0,0,0-1.968.812L20.089,15.43l-4.657,4.657,1.159,2.251a13.26,13.26,0,0,0-.812,1.968l-2.416.775v5.942H3.649A2.652,2.652,0,0,0,1,33.673V53.1a2.652,2.652,0,0,0,2.649,2.649H26.608A2.652,2.652,0,0,0,29.257,53.1V46.918h10.6v5.3H55.749V39.854H39.854v5.3h-10.6V43.386h2.41l.774-2.414a13.2,13.2,0,0,0,1.968-.812l2.251,1.159,4.657-4.657-1.159-2.251a13.26,13.26,0,0,0,.812-1.968ZM15.129,15.129H2.766V6.3H15.129ZM41.62,41.62H53.983v8.83H41.62Zm-5.3-13.246a7.957,7.957,0,0,1-7.064,7.9v-2.6a2.652,2.652,0,0,0-2.649-2.649h-5.72a7.928,7.928,0,0,1,6.6-10.544v2.6a2.652,2.652,0,0,0,2.649,2.649h5.72A7.9,7.9,0,0,1,36.322,28.374Zm-.812-4.415a6.189,6.189,0,0,1,3.462-4.693v.278a2.649,2.649,0,1,0,5.3,0v-.278a6.189,6.189,0,0,1,3.462,4.693Zm1.7-13.594a3.187,3.187,0,0,1,3.183-3.183h.349v2.1l-2.068,1.034a2.636,2.636,0,0,0-1.218,1.256A3.178,3.178,0,0,1,37.2,10.365Zm3.532,8.367a5.554,5.554,0,0,1,1.766,0v.812a.883.883,0,0,1-1.766,0Zm5.052-7.158a2.636,2.636,0,0,0-1.218-1.256L42.5,9.285v-2.1h.349a3.187,3.187,0,0,1,3.183,3.183,3.153,3.153,0,0,1-.246,1.209Zm-5.052,5.321a1.768,1.768,0,0,1-1.766-1.766V12.688a.878.878,0,0,1,.488-.789l2.161-1.081L43.781,11.9a.878.878,0,0,1,.488.789v2.441A1.768,1.768,0,0,1,42.5,16.895ZM29.257,3.649a.884.884,0,0,1,.883-.883H53.1a.884.884,0,0,1,.883.883V23.076a.884.884,0,0,1-.883.883H49.515a7.957,7.957,0,0,0-4.542-6.312,3.517,3.517,0,0,0,1.062-2.518v-.615l.935-1.4a4.95,4.95,0,0,0-4.119-7.7H40.389A4.95,4.95,0,0,0,36.27,13.11l.935,1.4v.615a3.517,3.517,0,0,0,1.062,2.518,7.957,7.957,0,0,0-4.542,6.312H30.14a.884.884,0,0,1-.883-.883ZM15.129,26.369l2.08-.667.129-.457a11.488,11.488,0,0,1,1.017-2.469l.232-.413-1-1.938,2.836-2.835,1.937,1,.414-.231a11.385,11.385,0,0,1,2.47-1.018l.457-.129.665-2.08h1.122v3.577a9.682,9.682,0,0,0-8.454,12.318H15.129ZM9.83,46.035V41.62A5.3,5.3,0,0,1,14.246,36.4v2.024l-2.068,1.034a2.635,2.635,0,0,0-1.464,2.369v2.441a3.517,3.517,0,0,0,1.062,2.518,7.93,7.93,0,0,0-1.393.836A2.6,2.6,0,0,1,9.83,46.035Zm4.415,0a1.768,1.768,0,0,1-1.766-1.766V41.828a.878.878,0,0,1,.488-.789l2.161-1.081,2.161,1.081a.878.878,0,0,1,.488.789v2.441a1.768,1.768,0,0,1-1.766,1.766Zm.883,1.766a6.146,6.146,0,0,1,2.02.345l-.631,1.421H13.741l-.631-1.421A6.146,6.146,0,0,1,15.129,47.8Zm.6,3.532-.6,1.357-.6-1.357Zm2.987-2.373a6.173,6.173,0,0,1,2.591,5.022H16.488Zm1.708-2.926a2.59,2.59,0,0,1-.552,1.588,7.984,7.984,0,0,0-1.393-.836,3.514,3.514,0,0,0,1.062-2.518V41.828a2.636,2.636,0,0,0-1.464-2.369l-2.068-1.034V36.4a5.3,5.3,0,0,1,4.415,5.219Zm-8.889,2.926,2.231,5.022H8.947A6.173,6.173,0,0,1,11.538,48.961ZM27.491,53.1a.884.884,0,0,1-.883.883H23.076a7.9,7.9,0,0,0-1.9-5.146,4.35,4.35,0,0,0,1.02-2.8V41.62a7.064,7.064,0,1,0-14.129,0v4.415a4.35,4.35,0,0,0,1.02,2.8,7.9,7.9,0,0,0-1.9,5.146H3.649a.884.884,0,0,1-.883-.883V33.673a.884.884,0,0,1,.883-.883H26.608a.884.884,0,0,1,.883.883ZM39.54,31.046l-.129.457a11.488,11.488,0,0,1-1.017,2.469l-.232.413,1,1.938-2.836,2.835-1.938-1-.413.231a11.357,11.357,0,0,1-2.47,1.018l-.457.129-.665,2.08H29.257V38.043a9.682,9.682,0,0,0,8.454-12.318H41.62V30.38Z" transform="translate(-1 -1)"/>
            <path id="Path_981319" data-name="Path 981319" d="M5,39H6.766v1.766H5Z" transform="translate(-1.468 -5.444)"/>
            <path id="Path_981320" data-name="Path 981320" d="M27,39h1.766v1.766H27Z" transform="translate(-4.041 -5.444)"/>
            <path id="Path_981321" data-name="Path 981321" d="M35,5h1.766V6.766H35Z" transform="translate(-4.976 -1.468)"/>
            <path id="Path_981322" data-name="Path 981322" d="M57,5h1.766V6.766H57Z" transform="translate(-7.549 -1.468)"/>
          </g>
        </g>
      </g>
    </g>
  </g>
</svg>
