<svg xmlns="http://www.w3.org/2000/svg" xmlns:xlink="http://www.w3.org/1999/xlink" width="108" height="108" viewBox="0 0 108 108">
  <defs>
    <filter id="Fondo" x="0" y="0" width="108" height="108" filterUnits="userSpaceOnUse">
      <feOffset dy="3" input="SourceAlpha"/>
      <feGaussianBlur stdDeviation="3" result="blur"/>
      <feFlood flood-opacity="0.161"/>
      <feComposite operator="in" in2="blur"/>
      <feComposite in="SourceGraphic"/>
    </filter>
  </defs>
  <g id="Group_1144949" data-name="Group 1144949" transform="translate(-431.999 -6682.668)">
    <g id="Group_1144920" data-name="Group 1144920" transform="translate(0 29.5)">
      <g transform="matrix(1, 0, 0, 1, 432, 6653.17)" filter="url(#Fondo)">
        <g id="Fondo-2" data-name="Fondo" transform="translate(9 6)" fill="#f1fef9" stroke="#43896d" stroke-width="3">
          <circle cx="45" cy="45" r="45" stroke="none"/>
          <circle cx="45" cy="45" r="43.5" fill="none"/>
        </g>
      </g>
      <g id="Group_1144919" data-name="Group 1144919" transform="translate(460.8 6680.801)">
        <g id="Group_1144917" data-name="Group 1144917" transform="translate(1.781 1.781)">
          <g id="Group_1144901" data-name="Group 1144901" transform="translate(28.102 40.591)">
            <path id="Path_981585" data-name="Path 981585" d="M52.051,57.809v2.435H38V57.809a3.113,3.113,0,0,1,2.139-2.958L42.684,54h4.684l2.545.851A3.113,3.113,0,0,1,52.051,57.809Z" transform="translate(-38 -54)" fill="#b4dd7f"/>
          </g>
          <g id="Group_1144902" data-name="Group 1144902" transform="translate(14.051 40.591)">
            <path id="Path_981586" data-name="Path 981586" d="M34.051,57.809v2.435H20V57.809a3.113,3.113,0,0,1,2.139-2.958L24.684,54h4.684l2.545.851A3.113,3.113,0,0,1,34.051,57.809Z" transform="translate(-20 -54)" fill="#fcd770"/>
          </g>
          <g id="Group_1144903" data-name="Group 1144903" transform="translate(0 40.591)">
            <path id="Path_981587" data-name="Path 981587" d="M16.051,57.809v2.435H2V57.489a3.138,3.138,0,0,1,1.725-2.795L5.122,54v3.122h7.806V54l1.4.695a3.138,3.138,0,0,1,1.725,2.795Z" transform="translate(-2 -54)" fill="#ff826e"/>
          </g>
          <g id="Group_1144904" data-name="Group 1144904" transform="translate(17.173 31.224)">
            <path id="Path_981588" data-name="Path 981588" d="M31.806,45.9a9.928,9.928,0,0,1-1.046,4.434l-.515,1.03H25.561l-.515-1.03A9.928,9.928,0,0,1,24,45.9a3.9,3.9,0,1,1,7.806,0Z" transform="translate(-24 -42)" fill="#b27946"/>
          </g>
          <g id="Group_1144905" data-name="Group 1144905" transform="translate(31.224 31.224)">
            <path id="Path_981589" data-name="Path 981589" d="M49.806,45.9a9.928,9.928,0,0,1-1.046,4.434l-.515,1.03H43.561l-.515-1.03A9.928,9.928,0,0,1,42,45.9a3.92,3.92,0,0,1,1.14-2.763,3.845,3.845,0,0,1,1.2-.812V42.32A3.986,3.986,0,0,1,45.9,42a3.891,3.891,0,0,1,3.9,3.9Z" transform="translate(-42 -42)" fill="#656d78"/>
          </g>
          <g id="Group_1144906" data-name="Group 1144906" transform="translate(3.122 31.224)">
            <path id="Path_981590" data-name="Path 981590" d="M13.806,51.367V54.49H6V45.9a3.9,3.9,0,1,1,7.806,0Z" transform="translate(-6 -42)" fill="#656d78"/>
          </g>
          <g id="Group_1144907" data-name="Group 1144907" transform="translate(0 0)">
            <path id="Path_981591" data-name="Path 981591" d="M2,26.979V2H39.321a7.966,7.966,0,0,0-4.075,1.124,4.163,4.163,0,0,0-2.022,3.583v.156a4.358,4.358,0,0,0,.726,2.4,1.565,1.565,0,0,0-.726,1.319,1.573,1.573,0,0,0,1.561,1.561h1.561a3.869,3.869,0,0,0,1.569,3.115l-.008.008v2.342l-3.669.734a3.084,3.084,0,0,0-.461.125l-2.115.7L27.534,15.5l-2.279-2.022a2.167,2.167,0,0,0-1.436-.546h-.141a2.156,2.156,0,0,0-1.444,3.763L24.4,18.635l3.169,2.857a6.143,6.143,0,0,0,4.122,1.585,6,6,0,0,0,1.491-.187l2.365-.585a2.1,2.1,0,0,1,.023.312v4.364Z" transform="translate(-2 -2)" fill="#e6e9ed"/>
          </g>
          <g id="Group_1144908" data-name="Group 1144908" transform="translate(33.566 28.102)">
            <path id="Path_981592" data-name="Path 981592" d="M54.367,38V50.49H48.9l.515-1.03a9.928,9.928,0,0,0,1.046-4.434,3.891,3.891,0,0,0-3.9-3.9,3.986,3.986,0,0,0-1.561.32V38Z" transform="translate(-45 -38)" fill="#d3a06c"/>
          </g>
          <g id="Group_1144909" data-name="Group 1144909" transform="translate(22.396 13.497)">
            <path id="Path_981593" data-name="Path 981593" d="M51.228,32.334V33.9H41.86V26.409a2.1,2.1,0,0,0-.023-.312l-2.365.585a6,6,0,0,1-1.491.187,6.143,6.143,0,0,1-4.122-1.585L30.69,22.428l3.138-3.138,4.129,3.677,2.115-.7a3.084,3.084,0,0,1,.461-.125l3.669-.734.289.859a2.162,2.162,0,0,0,4.106,0l.289-.859,3.161.632A3.84,3.84,0,0,1,55.131,25.8v6.534Z" transform="translate(-30.69 -19.29)" fill="#b4dd7f"/>
          </g>
          <g id="Group_1144910" data-name="Group 1144910" transform="translate(31.224)">
            <path id="Path_981594" data-name="Path 981594" d="M56.051,6.684v.18a4.358,4.358,0,0,1-.726,2.4,1.537,1.537,0,0,0-.835-.242H52.928V9.018H52.8a5.336,5.336,0,0,1-3.77-1.561,5.336,5.336,0,0,1-3.77,1.561h-.133v.008H43.561a1.537,1.537,0,0,0-.835.242A4.358,4.358,0,0,1,42,6.863V6.707a4.163,4.163,0,0,1,2.022-3.583A7.966,7.966,0,0,1,48.1,2h.148a7.93,7.93,0,0,1,5.441,2.318l.023.023a2.339,2.339,0,0,1,2.342,2.342Z" transform="translate(-42 -2)" fill="#656d78"/>
          </g>
          <g id="Group_1144911" data-name="Group 1144911" transform="translate(19.515 10.928)">
            <path id="Path_981595" data-name="Path 981595" d="M33.018,18.568,29.88,21.706l-2.162-1.944A2.157,2.157,0,0,1,29.162,16H29.3a2.167,2.167,0,0,1,1.436.546Z" transform="translate(-27 -16)" fill="#f0d0b4"/>
          </g>
          <g id="Group_1144912" data-name="Group 1144912" transform="translate(42.933 26.541)">
            <path id="Path_981596" data-name="Path 981596" d="M60.9,36v2.732a1.952,1.952,0,1,1-3.9,0V36Z" transform="translate(-57 -36)" fill="#f0d0b4"/>
          </g>
          <g id="Group_1144913" data-name="Group 1144913" transform="translate(42.153 7.025)">
            <path id="Path_981597" data-name="Path 981597" d="M58.662,11.461a1.526,1.526,0,0,1,.461,1.1,1.566,1.566,0,0,1-1.561,1.561H56V11h1.561a1.537,1.537,0,0,1,.835.242A1.412,1.412,0,0,1,58.662,11.461Z" transform="translate(-56 -11)" fill="#f0d0b4"/>
          </g>
          <g id="Group_1144914" data-name="Group 1144914" transform="translate(35.908 13.262)">
            <path id="Path_981598" data-name="Path 981598" d="M52.684,19V21.34l-.289.859a2.162,2.162,0,0,1-4.106,0L48,21.34V19l.008-.008a3.88,3.88,0,0,0,4.668,0Z" transform="translate(-48 -18.99)" fill="#f0d0b4"/>
          </g>
          <g id="Group_1144915" data-name="Group 1144915" transform="translate(34.347 5.456)">
            <path id="Path_981599" data-name="Path 981599" d="M53.806,10.559v3.122a3.9,3.9,0,0,1-7.806,0v-3.13h.133A5.336,5.336,0,0,0,49.9,8.99a5.336,5.336,0,0,0,3.77,1.561h.133Z" transform="translate(-46 -8.99)" fill="#f0d0b4"/>
          </g>
          <g id="Group_1144916" data-name="Group 1144916" transform="translate(31.224 7.025)">
            <path id="Path_981600" data-name="Path 981600" d="M45.122,14.115v.008H43.561A1.573,1.573,0,0,1,42,12.561a1.565,1.565,0,0,1,.726-1.319A1.537,1.537,0,0,1,43.561,11h1.561Z" transform="translate(-42 -11)" fill="#f0d0b4"/>
          </g>
        </g>
        <g id="Group_1144918" data-name="Group 1144918" transform="translate(1 1)">
          <path id="Path_981601" data-name="Path 981601" d="M5,29H6.561v1.561H5Z" transform="translate(-1.878 -7.143)"/>
          <path id="Path_981602" data-name="Path 981602" d="M9,29h7.025v1.561H9Z" transform="translate(-2.755 -7.143)"/>
          <path id="Path_981603" data-name="Path 981603" d="M47.34,17.945a4.587,4.587,0,0,0-1.656-.686l-2.531-.507V15.4a4.674,4.674,0,0,0,1.49-2.695h.852a2.345,2.345,0,0,0,2.342-2.342,2.318,2.318,0,0,0-.53-1.465,5.1,5.1,0,0,0,.53-2.258v-.18a3.127,3.127,0,0,0-2.787-3.1,8.62,8.62,0,0,0-5.8-2.353V1H1V27.541H34.566v5.317a4.683,4.683,0,0,0-2.342,4.05,10.755,10.755,0,0,0,1.13,4.785l.112.223-1.695.565a3.891,3.891,0,0,0-1.888,1.367,3.891,3.891,0,0,0-1.888-1.367L26.3,41.916l.112-.223a10.755,10.755,0,0,0,1.13-4.785,4.684,4.684,0,1,0-9.367,0,10.755,10.755,0,0,0,1.13,4.785l.112.223-1.695.565a3.888,3.888,0,0,0-1.764,1.22,3.9,3.9,0,0,0-1.5-1.329l-.965-.482V36.908a4.684,4.684,0,1,0-9.367,0V41.89l-.965.482A3.882,3.882,0,0,0,1,45.863V49.4H44.714V46.184a3.89,3.89,0,0,0-1.457-3.031h2.238V33.511a2.7,2.7,0,0,0,1.171.274A2.735,2.735,0,0,0,49.4,31.053V21.789a4.61,4.61,0,0,0-2.058-3.844Zm-1.962.845a3.059,3.059,0,0,1,2.459,3v5.751H45.494V22.4a1.872,1.872,0,0,1,.552-1.332l-1.1-1.1A3.423,3.423,0,0,0,43.933,22.4v6.7H36.127V22.4a3.423,3.423,0,0,0-1.009-2.437l-1.1,1.1a1.861,1.861,0,0,1,.326.456l-1.571.393a5.435,5.435,0,0,1-4.9-1.22L25.306,18.39l2.037-2.037,3.919,3.484,2.544-.848a3.107,3.107,0,0,1,.368-.1l2.992-.6.069.207a2.947,2.947,0,0,0,5.591,0l.069-.207ZM22.533,15.9a1.38,1.38,0,0,1,.923-2.406H23.6a1.373,1.373,0,0,1,.916.349l1.66,1.475-2.03,2.03Zm19.058,1.37-.246.741a1.386,1.386,0,0,1-2.63,0l-.247-.742v-.932a4.6,4.6,0,0,0,3.122,0Zm1.561-5.342a3.122,3.122,0,0,1-6.245,0V9.548A6.046,6.046,0,0,0,40.03,8.281a6.053,6.053,0,0,0,3.122,1.266Zm2.342-.775h-.781V9.587h.781a.781.781,0,1,1,0,1.561ZM44.394,4.9h.32a1.563,1.563,0,0,1,1.561,1.561v.18a3.551,3.551,0,0,1-.305,1.43,2.327,2.327,0,0,0-.475-.049h-.781V8.02H43.8a4.517,4.517,0,0,1-3.217-1.332l-.552-.553-.552.553A4.519,4.519,0,0,1,36.261,8.02h-.915v.005h-.781a2.327,2.327,0,0,0-.475.049,3.551,3.551,0,0,1-.305-1.43v-.16a3.41,3.41,0,0,1,1.646-2.908,7.125,7.125,0,0,1,8.734,1.1Zm-9.828,6.245a.781.781,0,0,1,0-1.561h.781v1.561Zm-32,14.831V2.561h31.6a4.979,4.979,0,0,0-1.938,3.923v.16a5.1,5.1,0,0,0,.53,2.258,2.317,2.317,0,0,0-.53,1.465,2.345,2.345,0,0,0,2.342,2.342h.852a4.674,4.674,0,0,0,1.49,2.695v1.349l-3.041.608a4.683,4.683,0,0,0-.555.147l-1.687.563-6.074-5.4a2.933,2.933,0,0,0-1.954-.743h-.141a2.941,2.941,0,0,0-1.967,5.127l5.334,4.8a6.936,6.936,0,0,0,6.326,1.574l1.418-.354v2.9Zm34.347,7.806a3.126,3.126,0,0,1,3.122,3.122,9.19,9.19,0,0,1-.965,4.087l-.3.6H35.048l-.3-.6a9.19,9.19,0,0,1-.965-4.087A3.126,3.126,0,0,1,36.908,33.785Zm-14.051,0a3.126,3.126,0,0,1,3.122,3.122,9.19,9.19,0,0,1-.965,4.087l-.3.6H21l-.3-.6a9.19,9.19,0,0,1-.965-4.087A3.126,3.126,0,0,1,22.857,33.785ZM5.684,36.908a3.122,3.122,0,1,1,6.245,0v7.806H5.684Zm9.367,10.928H2.561V45.863a2.329,2.329,0,0,1,1.294-2.094l.267-.133v2.64H13.49v-2.64l.267.133a2.33,2.33,0,0,1,1.294,2.094v1.973Zm14.051,0H16.612V46.184a2.338,2.338,0,0,1,1.6-2.222l2.428-.809h4.43l2.428.809a2.339,2.339,0,0,1,1.6,2.222Zm14.051,0H30.663V46.184a2.338,2.338,0,0,1,1.6-2.222l2.428-.809h4.43l2.428.809a2.339,2.339,0,0,1,1.6,2.222Zm.781-6.245H40.506a10.761,10.761,0,0,0,1.086-4.684,4.658,4.658,0,0,0-5.464-4.613V30.663h7.806V41.591Zm2.732-9.367a1.172,1.172,0,0,1-1.171-1.171V29.1h2.342v1.952A1.172,1.172,0,0,1,46.665,32.224Z" transform="translate(-1 -1)"/>
          <path id="Path_981604" data-name="Path 981604" d="M17.49,10.122H15.928v3.122H14.367V7H12.806v6.245H11.245V8.561H9.684v4.684H8.122V10.122H6.561v3.122H5v1.561H19.051V13.245H17.49Z" transform="translate(-1.878 -2.316)"/>
          <path id="Path_981605" data-name="Path 981605" d="M5,19H6.561v1.561H5Z" transform="translate(-1.878 -4.949)"/>
          <path id="Path_981606" data-name="Path 981606" d="M9,19h7.806v1.561H9Z" transform="translate(-2.755 -4.949)"/>
          <path id="Path_981607" data-name="Path 981607" d="M21,19h1.561v1.561H21Z" transform="translate(-5.388 -4.949)"/>
        </g>
      </g>
    </g>
  </g>
</svg>
