<svg xmlns="http://www.w3.org/2000/svg" xmlns:xlink="http://www.w3.org/1999/xlink" width="108" height="108" viewBox="0 0 108 108">
  <defs>
    <filter id="Fondo" x="0" y="0" width="108" height="108" filterUnits="userSpaceOnUse">
      <feOffset dy="3" input="SourceAlpha"/>
      <feGaussianBlur stdDeviation="3" result="blur"/>
      <feFlood flood-opacity="0.161"/>
      <feComposite operator="in" in2="blur"/>
      <feComposite in="SourceGraphic"/>
    </filter>
  </defs>
  <g id="Group_1144950" data-name="Group 1144950" transform="translate(-746.999 -6682.668)">
    <g id="Group_1144900" data-name="Group 1144900" transform="translate(0 29.5)">
      <g transform="matrix(1, 0, 0, 1, 747, 6653.17)" filter="url(#Fondo)">
        <g id="Fondo-2" data-name="Fondo" transform="translate(9 6)" fill="#f1fef9" stroke="#43896d" stroke-width="3">
          <circle cx="45" cy="45" r="45" stroke="none"/>
          <circle cx="45" cy="45" r="43.5" fill="none"/>
        </g>
      </g>
      <g id="Group_1144899" data-name="Group 1144899" transform="translate(776.171 6680.338)">
        <g id="Group_1144897" data-name="Group 1144897" transform="translate(0.698 0.699)">
          <path id="Path_981569" data-name="Path 981569" d="M202.336,34.655A13.745,13.745,0,0,1,185.849,23.2l-.025-3.752A13.742,13.742,0,0,1,202.336,7.806l-2.213,3.609V31.291Z" transform="translate(-169.225 -7.499)" fill="#ff4fb9"/>
          <path id="Path_981570" data-name="Path 981570" d="M127.54,240a11.351,11.351,0,0,0-6.056,2.251l-1.185.963L107.291,254a30.255,30.255,0,0,1-4.046,2.831l-3.464,1.738a30.283,30.283,0,0,1-8.913,2.262l-1.179.759.163,1.978,1.755,1.047h35.978a.716.716,0,0,0,.716-.716V240.712A.715.715,0,0,0,127.54,240Z" transform="translate(-82.038 -218.354)" fill="#ffe02f"/>
          <circle id="Ellipse_11605" data-name="Ellipse 11605" cx="3.453" cy="3.453" r="3.453" transform="translate(4.072 3.916)" fill="#ffb1a0"/>
          <path id="Path_981571" data-name="Path 981571" d="M68.234,150.038l-3.927-1.978-.4.354c.013.379-.082-2.034.366,9.222l1.1,1.612H67.8l.979-1.388.021-6.341Z" transform="translate(-58.658 -134.976)" fill="#00c2fb"/>
          <path id="Path_981572" data-name="Path 981572" d="M172.721,389.408a4.12,4.12,0,0,1-.974-.175.694.694,0,0,1-.491-.532l-.047-.242-.872-.961-1.582.116-.789,1.233.335,1.722a1.629,1.629,0,0,0,.852,1.136,9.176,9.176,0,0,0,3.456.959,1.629,1.629,0,1,0,.111-3.256Z" transform="translate(-153.029 -352.126)" fill="#7b6c79"/>
          <path id="Path_981573" data-name="Path 981573" d="M69.126,273.436l-2.575-1.272-.935.18-.37,5.264.794,1.37,1.024.725,1.472-.725.915-4.358Z" transform="translate(-59.87 -247.528)" fill="#2f4dca"/>
          <path id="Path_981574" data-name="Path 981574" d="M80.4,264.6l-1.767-9.07a1.629,1.629,0,0,0-.866-1.143l-5.062-2.631a.68.68,0,0,1-.366-.605,9.626,9.626,0,0,1-4.5-.224l.072,1.818a1.643,1.643,0,0,0,.894,1.367l6.426,2.676a.726.726,0,0,1,.434.532l1.494,7.669A10.276,10.276,0,0,0,80.4,264.6Z" transform="translate(-62.224 -228.272)" fill="#6b7ed9"/>
          <path id="Path_981575" data-name="Path 981575" d="M257.656,10.8a13.734,13.734,0,0,0,0,26.848h0a13.672,13.672,0,0,0,5.15-2.3l1.185-.963A13.731,13.731,0,0,0,257.656,10.8Z" transform="translate(-224.545 -10.49)" fill="#ff72c7"/>
          <g id="Group_1144894" data-name="Group 1144894" transform="translate(25.164 5.269)">
            <path id="Path_981576" data-name="Path 981576" d="M282.944,76.781a1.481,1.481,0,0,1-1.481-1.481V72.844a1.481,1.481,0,0,1,1.481-1.481,2.147,2.147,0,1,0-2.147-2.147,1.481,1.481,0,1,1-2.961,0,5.108,5.108,0,1,1,6.589,4.889V75.3A1.48,1.48,0,0,1,282.944,76.781Z" transform="translate(-277.836 -64.108)" fill="#dbedff"/>
          </g>
          <g id="Group_1144895" data-name="Group 1144895" transform="translate(28.791 19.227)">
            <path id="Path_981577" data-name="Path 981577" d="M318.288,217.026a1.482,1.482,0,1,1,1.481-1.487v.007A1.481,1.481,0,0,1,318.288,217.026Z" transform="translate(-316.807 -214.062)" fill="#dbedff"/>
          </g>
          <path id="Path_981578" data-name="Path 981578" d="M27.02,330.649l-.1,1.484L23.1,336.755v1.293l1.118,1,1.491-.33,4.055-4.908a1.629,1.629,0,0,0,.369-.923l.181-.863Z" transform="translate(-21.645 -300.569)" fill="#4d66d2"/>
          <path id="Path_981579" data-name="Path 981579" d="M11.256,398.573l.3-.367a7.462,7.462,0,0,1-2.608-1.958l-1.079,1.306a1.629,1.629,0,0,0-.36,1.241,4.924,4.924,0,0,0,2.84,3.752,1.622,1.622,0,0,0,.981.1,1.643,1.643,0,0,0,1.3-1.538,1.62,1.62,0,0,0-1-1.557,1.409,1.409,0,0,1-.3-.185A.56.56,0,0,1,11.256,398.573Z" transform="translate(-7.499 -360.062)" fill="#7b6c79"/>
          <path id="Path_981580" data-name="Path 981580" d="M76.283,135.768l-.721-1.262H74.4l-2.548,1.478a.777.777,0,0,1-.694.043l-4.948-2.1a1.629,1.629,0,0,0-2.124.833,1.664,1.664,0,0,0,.888,2.182l6.017,2.558a1.629,1.629,0,0,0,1.455-.09l3.6-2.09Z" transform="translate(-58.696 -122.037)" fill="#62ddfc"/>
          <path id="Path_981581" data-name="Path 981581" d="M176.234,131.2l1.648,2.81,1.422-.825a1.629,1.629,0,0,0-1.635-2.818Z" transform="translate(-160.528 -118.73)" fill="#ffb1a0"/>
          <g id="Group_1144896" data-name="Group 1144896" transform="translate(0 42.478)">
            <path id="Path_981582" data-name="Path 981582" d="M16.164,465.012a4.244,4.244,0,0,1,.164-1.169q-1.442.139-2.9.141H8.215a.716.716,0,0,0-.716.716v2.211a.716.716,0,0,0,.716.716h8.852a4.225,4.225,0,0,1-.9-2.615Z" transform="translate(-7.499 -463.843)" fill="#fbc700"/>
          </g>
        </g>
        <g id="Group_1144898" data-name="Group 1144898" transform="translate(0 0.001)">
          <path id="Path_981583" data-name="Path 981583" d="M278.322,68.5v-.7a5.806,5.806,0,1,0-7.985-5.382,2.179,2.179,0,0,0,4.357,0,1.449,1.449,0,1,1,1.449,1.449,2.181,2.181,0,0,0-2.179,2.179V68.5a2.182,2.182,0,0,0,1.693,2.123,2.178,2.178,0,1,0,.972,0A2.182,2.182,0,0,0,278.322,68.5Zm-1.4,4.25a.782.782,0,1,1-.782-.786A.783.783,0,0,1,276.926,72.75Zm0-5.445V68.5a.782.782,0,1,1-1.565,0V66.044a.783.783,0,0,1,.782-.782,2.845,2.845,0,1,0-2.845-2.845.782.782,0,0,1-1.565,0,4.41,4.41,0,1,1,5.688,4.221.7.7,0,0,0-.5.668Z" transform="translate(-245.173 -51.341)"/>
          <path id="Path_981584" data-name="Path 981584" d="M1.414,47.659H30.821a.7.7,0,1,0,0-1.4H1.414a.018.018,0,0,1-.017-.018V44.033a.018.018,0,0,1,.017-.018H6.626a30.794,30.794,0,0,0,11.86-2.363,8.611,8.611,0,0,0,1.084.222l.012,0a2.468,2.468,0,0,0,2.645-.911,2.317,2.317,0,0,0,.434-1.426C25.217,37.992,25.148,37.919,39.4,26.1a11.207,11.207,0,0,1,6.847-3.059.01.01,0,0,1,.009,0,.018.018,0,0,1,.006.015V46.245a.018.018,0,0,1-.018.018H34.079a.7.7,0,0,0,0,1.4H46.244a1.415,1.415,0,0,0,1.414-1.414V23.057a1.413,1.413,0,0,0-1.505-1.412,12.031,12.031,0,0,0-3.135.637,14.359,14.359,0,0,0,2.255-6.45.7.7,0,0,0-1.39-.134,12.992,12.992,0,0,1-4.195,8.365L38.534,25a13.035,13.035,0,0,1-20.446-8.237l1.736-1.007h0a2.328,2.328,0,0,0-1.605-4.3,13.035,13.035,0,0,1,25.6,1.147.7.7,0,0,0,1.383-.194,14.43,14.43,0,0,0-28.547-.195l-3.148,1.826a.08.08,0,0,1-.071,0l-4.459-1.9A4.147,4.147,0,1,0,6.7,11.933,2.316,2.316,0,0,0,5.252,14.2l.438,11a2.28,2.28,0,0,0,.05.37L5.288,31.99.533,37.746a2.336,2.336,0,0,0-.515,1.772,5.786,5.786,0,0,0,1.527,3.1H1.414A1.415,1.415,0,0,0,0,44.033v2.211a1.415,1.415,0,0,0,1.414,1.414ZM6.626,42.62h-.3a2.458,2.458,0,0,0,.2-.829,2.328,2.328,0,0,0-1.44-2.254L9.351,34.38a2.314,2.314,0,0,0,.523-1.267l.914-4.353,2.65,1.1a.028.028,0,0,1,.017.021l1.83,9.391A2.314,2.314,0,0,0,16.5,40.9l.023.012a29.378,29.378,0,0,1-9.9,1.709Zm3.727-18.265a1.4,1.4,0,0,0,.507.452h0l5.07,2.635a.937.937,0,0,1,.495.653l1.64,8.418a9.7,9.7,0,0,1-1.853.222l-1.387-7.118a1.421,1.421,0,0,0-.85-1.043l-6.4-2.665a.955.955,0,0,1-.491-.767l-.035-.882A11.067,11.067,0,0,0,10.352,24.354Zm-3.36-1.533-.261-6.568L10.138,17.7l-.018,5.272A9.527,9.527,0,0,1,6.992,22.821Zm14.2,17.146a.929.929,0,0,1-.89.572,8.41,8.41,0,0,1-3.16-.882.926.926,0,0,1-.487-.649l-.172-.884a11.2,11.2,0,0,0,1.936-.258,1.393,1.393,0,0,0,.8.61,4.763,4.763,0,0,0,1.144.2A.931.931,0,0,1,21.192,39.967Zm9.519-11.11a14.48,14.48,0,0,0,3.68-.419c-9.664,8.016-9.953,8.36-12.209,9.756a2.317,2.317,0,0,0-1.768-.911,3.656,3.656,0,0,1-.8-.143L17.8,27.828A2.338,2.338,0,0,0,16.567,26.2l-5.052-2.626.018-5.278,1.189.505a2.338,2.338,0,0,0,2.078-.129L16.813,17.5a14.436,14.436,0,0,0,13.9,11.353ZM18.19,12.939a.931.931,0,0,1,.934,1.61l-.821.476-.942-1.606ZM5.489,8.412A2.755,2.755,0,1,1,8.567,10.8a2.754,2.754,0,0,1-3.078-2.39ZM6.727,13.7a.935.935,0,0,1,1.214-.476l4.948,2.1a1.483,1.483,0,0,0,1.318-.081l1.947-1.13.942,1.606-3,1.738a.935.935,0,0,1-.831.051L11.111,16.6h0l-3.86-1.641A.967.967,0,0,1,6.727,13.7Zm-.22,19a.7.7,0,0,0,.158-.4l.36-5.119,2.451,1.021L8.5,32.868a1.069,1.069,0,0,1-.224.622l-3.715,4.5a6.98,6.98,0,0,1-1.475-1.138ZM1.4,39.344a.935.935,0,0,1,.206-.709l.583-.705a8.5,8.5,0,0,0,1.521,1.183A1.251,1.251,0,0,0,4.1,40.549a2.111,2.111,0,0,0,.455.276.931.931,0,1,1-.721,1.716,4.2,4.2,0,0,1-2.425-3.2Z" transform="translate(0 -0.001)"/>
        </g>
      </g>
    </g>
  </g>
</svg>
