<svg xmlns="http://www.w3.org/2000/svg" xmlns:xlink="http://www.w3.org/1999/xlink" width="108" height="108" viewBox="0 0 108 108">
  <defs>
    <filter id="Fondo" x="0" y="0" width="108" height="108" filterUnits="userSpaceOnUse">
      <feOffset dy="3" input="SourceAlpha"/>
      <feGaussianBlur stdDeviation="3" result="blur"/>
      <feFlood flood-opacity="0.161"/>
      <feComposite operator="in" in2="blur"/>
      <feComposite in="SourceGraphic"/>
    </filter>
  </defs>
  <g id="Group_1143811" data-name="Group 1143811" transform="translate(-588 -732)">
    <g transform="matrix(1, 0, 0, 1, 588, 732)" filter="url(#Fondo)">
      <g id="Fondo-2" data-name="Fondo" transform="translate(9 6)" fill="#e4fef4" stroke="#43896d" stroke-width="3">
        <circle cx="45" cy="45" r="45" stroke="none"/>
        <circle cx="45" cy="45" r="43.5" fill="none"/>
      </g>
    </g>
    <g id="Group_1143810" data-name="Group 1143810" transform="translate(608 748.996)">
      <g id="Group_1143808" data-name="Group 1143808" transform="translate(0.996 1.001)">
        <g id="Group_1143805" data-name="Group 1143805" transform="translate(11.516 0)">
          <g id="Group_1143803" data-name="Group 1143803" transform="translate(5.195)">
            <path id="Path_978843" data-name="Path 978843" d="M160.727,13.179l-3.125,1.8a12.322,12.322,0,0,0-3.678-2.122V9.252a1.75,1.75,0,0,0-1.751-1.75H147.06a1.751,1.751,0,0,0-1.751,1.75V12.86a12.426,12.426,0,0,0-3.682,2.121l-3.12-1.8a1.751,1.751,0,0,0-2.391.641l-2.557,4.429a1.751,1.751,0,0,0,.641,2.391l3.119,1.8a12.474,12.474,0,0,0,0,4.249l-3.125,1.8a1.751,1.751,0,0,0-.64,2.391l2.557,4.428a1.751,1.751,0,0,0,2.391.642l3.125-1.8a12.354,12.354,0,0,0,3.679,2.124v3.606a1.751,1.751,0,0,0,1.75,1.751h5.115a1.751,1.751,0,0,0,1.75-1.751V36.276a12.465,12.465,0,0,0,3.682-2.122l3.12,1.8a1.75,1.75,0,0,0,2.391-.64l2.556-4.43a1.75,1.75,0,0,0-.64-2.391l-3.12-1.8a12.42,12.42,0,0,0,0-4.249l3.125-1.8a1.75,1.75,0,0,0,.64-2.391l-2.557-4.428a1.75,1.75,0,0,0-2.391-.642ZM155.959,28.23a7.324,7.324,0,1,1-2.68-10A7.323,7.323,0,0,1,155.959,28.23Z" transform="translate(-133.325 -7.502)" fill="#685e68"/>
          </g>
          <path id="Path_978844" data-name="Path 978844" d="M124.75,168.555V152.181h34.863v9.863" transform="translate(-120.694 -132.966)" fill="#ffc344"/>
          <path id="Path_978845" data-name="Path 978845" d="M187.78,423.94H163.1a12.337,12.337,0,0,1,24.675,0Z" transform="translate(-153.955 -357.934)" fill="#9be69d"/>
          <path id="Path_978846" data-name="Path 978846" d="M178.714,412.041a12.341,12.341,0,0,0-9.068,11.9h-6.541a12.349,12.349,0,0,1,15.609-11.9Z" transform="translate(-153.955 -357.934)" fill="#6fd7a3"/>
          <path id="Path_978847" data-name="Path 978847" d="M137.185,186.064c0,3.04-1.816,5.5-4.056,5.5a3.5,3.5,0,0,1-2.647-1.336,14.933,14.933,0,0,1-9.445,11.94c-.418.161-.847.3-1.283.426v2.25a4.056,4.056,0,0,1-8.112,0V202.6a14.934,14.934,0,0,1-10.728-12.366,3.5,3.5,0,0,1-2.647,1.336c-2.241,0-4.056-2.464-4.056-5.5s1.816-5.5,4.056-5.5a3.441,3.441,0,0,1,2.514,1.187c6.154-1.147,8.363-8.214,8.363-8.214s4.752,8.232,21.054,4.3a14.856,14.856,0,0,1,.417,3.512v.4a3.441,3.441,0,0,1,2.514-1.187C135.369,180.56,137.185,183.024,137.185,186.064Z" transform="translate(-94.21 -151.482)" fill="#ffdfcf"/>
          <path id="Path_978848" data-name="Path 978848" d="M121.036,248.054c-.418.161-.847.3-1.283.426v2.25a4.056,4.056,0,0,1-8.112,0v-2.25a14.934,14.934,0,0,1-10.728-12.366,3.5,3.5,0,0,1-2.647,1.336c-2.241,0-4.056-2.464-4.056-5.5s1.816-5.5,4.056-5.5a3.441,3.441,0,0,1,2.514,1.187,8.815,8.815,0,0,0,2.432-.833c-.005,1.052-.008,1.774-.008,1.968,0,10.2,7.415,18.462,16.561,18.462A1.6,1.6,0,0,1,121.036,248.054Z" transform="translate(-94.21 -197.365)" fill="#ffcebf"/>
          <g id="Group_1143804" data-name="Group 1143804" transform="translate(2.575 32.674)">
            <path id="Path_978849" data-name="Path 978849" d="M378.9,256.439a4.246,4.246,0,0,1,1.943-2.915,3.072,3.072,0,0,1,.261,3.268C380.1,258.382,378.9,256.439,378.9,256.439Z" transform="translate(-343.665 -253.524)" fill="#ffcebf"/>
            <path id="Path_978850" data-name="Path 978850" d="M116.187,256.439a4.246,4.246,0,0,0-1.943-2.915,3.072,3.072,0,0,0-.261,3.268C114.983,258.382,116.187,256.439,116.187,256.439Z" transform="translate(-113.596 -253.524)" fill="#ffb09e"/>
          </g>
        </g>
        <g id="Group_1143806" data-name="Group 1143806" transform="translate(46.092 15.056)">
          <circle id="Ellipse_11557" data-name="Ellipse 11557" cx="9.957" cy="9.957" r="9.957" transform="translate(0 0.001)" fill="#fef056"/>
          <path id="Path_978851" data-name="Path 978851" d="M367.1,140.438a9.957,9.957,0,1,1,0-19.235,9.96,9.96,0,0,0,0,19.235Z" transform="translate(-354.553 -120.863)" fill="#fedf30"/>
        </g>
        <g id="Group_1143807" data-name="Group 1143807" transform="translate(0 15.056)">
          <circle id="Ellipse_11558" data-name="Ellipse 11558" cx="9.957" cy="9.957" r="9.957" transform="translate(0 0.001)" fill="#fe646f"/>
          <path id="Path_978852" data-name="Path 978852" d="M20.047,140.438a9.957,9.957,0,1,1,0-19.235,9.96,9.96,0,0,0,0,19.235Z" transform="translate(-7.5 -120.863)" fill="#fd4755"/>
        </g>
      </g>
      <g id="Group_1143809" data-name="Group 1143809" transform="translate(0 0.005)">
        <path id="Path_978853" data-name="Path 978853" d="M223.236,240.931a1,1,0,1,0-1.992,0v2.621a1,1,0,0,0,1.992,0Z" transform="translate(-191.86 -208.07)"/>
        <path id="Path_978854" data-name="Path 978854" d="M277.748,243.553v-2.621a1,1,0,1,0-1.992,0v2.621a1,1,0,1,0,1.992,0Z" transform="translate(-239.133 -208.071)"/>
        <path id="Path_978855" data-name="Path 978855" d="M233.761,313.766h4.179a1,1,0,1,0,0-1.992h-4.179a1,1,0,1,0,0,1.992Z" transform="translate(-201.851 -270.368)"/>
        <path id="Path_978856" data-name="Path 978856" d="M58.042,15.108V11.758A3.15,3.15,0,0,0,54.9,8.611H49.4L48.363,6.821a2.751,2.751,0,0,0-3.752-1.007L42.072,7.282a13.2,13.2,0,0,0-2.77-1.6V2.75A2.748,2.748,0,0,0,36.557,0H31.443A2.749,2.749,0,0,0,28.7,2.75V5.681a13.417,13.417,0,0,0-2.773,1.6L23.387,5.814a2.751,2.751,0,0,0-3.75,1.006L18.6,8.611H13.1a3.15,3.15,0,0,0-3.147,3.147v3.351A10.958,10.958,0,0,0,1,30.589a1,1,0,1,0,1.81-.832A8.974,8.974,0,1,1,5.4,33.044,1,1,0,0,0,4.159,34.6a10.832,10.832,0,0,0,6.794,2.363c.227,0,.452-.009.675-.023.485,2.953,2.515,5.137,4.94,5.137a4.13,4.13,0,0,0,1.978-.512,15.882,15.882,0,0,0,10.4,11.281v1.514c0,.1,0,.2.009.3a13.323,13.323,0,0,0-8.291,12.343,1,1,0,0,0,1,1H46.337a1,1,0,0,0,1-1,13.245,13.245,0,0,0-3.905-9.427,13.429,13.429,0,0,0-4.385-2.917c.006-.1.009-.2.009-.3V52.851q.327-.11.645-.231a16,16,0,0,0,2.126-1,1,1,0,0,0-.981-1.734,13.977,13.977,0,0,1-1.86.877c-.385.148-.788.282-1.2.4a1,1,0,0,0-.724.958v2.25a3.06,3.06,0,0,1-6.12,0v-2.25a1,1,0,0,0-.726-.959A13.894,13.894,0,0,1,20.2,39.618a1,1,0,0,0-1.745-.515,2.538,2.538,0,0,1-1.889.987c-1.409,0-2.639-1.485-2.971-3.447a10.884,10.884,0,0,0,2.676-1.059,4.034,4.034,0,0,1,.419,1.153,1,1,0,0,0,1.971-.294,5.827,5.827,0,0,0-.738-1.986,11.042,11.042,0,0,0,2.161-2.4c4.276-1.177,6.615-4.9,7.651-7.079a13.209,13.209,0,0,0,3.417,2.462c4.908,2.505,10.863,2.191,15.3,1.372a10.976,10.976,0,0,0,3.62,5.647,5.83,5.83,0,0,0-.739,1.986,1,1,0,0,0,1.969.3,4.03,4.03,0,0,1,.42-1.158A10.879,10.879,0,0,0,54.4,36.643c-.332,1.962-1.562,3.447-2.971,3.447a2.538,2.538,0,0,1-1.889-.987,1,1,0,0,0-1.745.515A13.812,13.812,0,0,1,44.231,47.2a1,1,0,0,0,1.464,1.351,15.8,15.8,0,0,0,3.758-6.977,4.129,4.129,0,0,0,1.978.512c2.425,0,4.455-2.185,4.94-5.138.223.014.448.023.675.023a10.952,10.952,0,0,0,1-21.86ZM34,59.418a5.053,5.053,0,0,0,4.529-2.811,11.427,11.427,0,0,1,3.49,2.381A11.254,11.254,0,0,1,45.3,66.01H22.7a11.332,11.332,0,0,1,6.771-9.4A5.058,5.058,0,0,0,34,59.418ZM54.9,10.6a1.156,1.156,0,0,1,1.154,1.154v3.351a10.944,10.944,0,0,0-7.586,4.112H47.423a13.442,13.442,0,0,0-.046-2.753L49.915,15a2.749,2.749,0,0,0,1-3.751l-.373-.647H54.9ZM21.362,7.817a.756.756,0,0,1,1.03-.277l3.12,1.8a1,1,0,0,0,1.136-.1,11.442,11.442,0,0,1,3.389-1.953,1,1,0,0,0,.653-.935V2.75A.755.755,0,0,1,31.443,2h5.115a.754.754,0,0,1,.753.753V6.359a1,1,0,0,0,.652.935,11.329,11.329,0,0,1,3.385,1.954,1,1,0,0,0,1.136.1l3.122-1.8a.756.756,0,0,1,1.031.276L49.2,12.246a.755.755,0,0,1-.276,1.03L45.8,15.08a1,1,0,0,0-.484,1.032,11.5,11.5,0,0,1,.11,3.108H42.24a8.292,8.292,0,0,0-.789-4.853,1,1,0,0,0-1.785.885,6.306,6.306,0,0,1,.555,3.968H27.778a6.326,6.326,0,0,1,9.146-6.764,1,1,0,1,0,.923-1.765A8.316,8.316,0,0,0,25.762,19.22H22.58a11.383,11.383,0,0,1,.1-3.111,1,1,0,0,0-.484-1.032l-3.12-1.8a.753.753,0,0,1-.277-1.03Zm-9.412,7.291V11.758A1.156,1.156,0,0,1,13.1,10.6h4.348l-.373.647A2.745,2.745,0,0,0,18.085,15l2.535,1.463a13.361,13.361,0,0,0-.041,2.756H19.536a10.945,10.945,0,0,0-7.586-4.112ZM32.193,25.731a9.712,9.712,0,0,1-3.885-3.177,1,1,0,0,0-1.813.2c-.017.053-1.473,4.529-5.116,6.616a10.929,10.929,0,0,0-.583-8.157H47.2a10.886,10.886,0,0,0-1.111,4.8c0,.28.014.556.035.83-6.994,1.3-11.422.132-13.934-1.114Zm24.853,9.245a8.961,8.961,0,1,1,8.961-8.961A8.971,8.971,0,0,1,57.045,34.975Z" transform="translate(0 -0.005)"/>
        <path id="Path_978857" data-name="Path 978857" d="M389.843,188.343a1,1,0,0,0-1,1,5,5,0,1,1-10.009,0,1,1,0,1,0-1.992,0,7,7,0,1,0,13.993,0A1,1,0,0,0,389.843,188.343Z" transform="translate(-326.797 -163.33)"/>
        <path id="Path_978858" data-name="Path 978858" d="M403.526,163.621a1,1,0,0,0,1-1V160a1,1,0,1,0-1.992,0v2.621A1,1,0,0,0,403.526,163.621Z" transform="translate(-349.07 -137.891)"/>
        <path id="Path_978859" data-name="Path 978859" d="M442.519,163.621a1,1,0,0,0,1-1V160a1,1,0,1,0-1.992,0v2.621A1,1,0,0,0,442.519,163.621Z" transform="translate(-382.884 -137.891)"/>
        <path id="Path_978860" data-name="Path 978860" d="M44.176,200.62a1,1,0,0,0,1.992,0,3.094,3.094,0,0,1,6.188,0,1,1,0,0,0,1.992,0,5.086,5.086,0,0,0-10.173,0Z" transform="translate(-38.309 -169.566)"/>
        <path id="Path_978861" data-name="Path 978861" d="M57.469,162.625V160a1,1,0,0,0-1.992,0v2.621a1,1,0,1,0,1.992,0Z" transform="translate(-48.109 -137.891)"/>
        <path id="Path_978862" data-name="Path 978862" d="M96.462,162.625V160a1,1,0,0,0-1.992,0v2.621a1,1,0,0,0,1.992,0Z" transform="translate(-81.923 -137.891)"/>
      </g>
    </g>
  </g>
</svg>
