<svg xmlns="http://www.w3.org/2000/svg" xmlns:xlink="http://www.w3.org/1999/xlink" width="108" height="108" viewBox="0 0 108 108">
  <defs>
    <filter id="Fondo" x="0" y="0" width="108" height="108" filterUnits="userSpaceOnUse">
      <feOffset dy="3" input="SourceAlpha"/>
      <feGaussianBlur stdDeviation="3" result="blur"/>
      <feFlood flood-opacity="0.161"/>
      <feComposite operator="in" in2="blur"/>
      <feComposite in="SourceGraphic"/>
    </filter>
  </defs>
  <g id="Group_1143822" data-name="Group 1143822" transform="translate(-326 -1534)">
    <g transform="matrix(1, 0, 0, 1, 326, 1534)" filter="url(#Fondo)">
      <g id="Fondo-2" data-name="Fondo" transform="translate(9 6)" fill="#e4fef4" stroke="#43896d" stroke-width="3">
        <circle cx="45" cy="45" r="45" stroke="none"/>
        <circle cx="45" cy="45" r="43.5" fill="none"/>
      </g>
    </g>
    <g id="Group_1143821" data-name="Group 1143821" transform="translate(351.402 1556.022)">
      <path id="Path_978919" data-name="Path 978919" d="M393.8,7.967H380.321v4.538h.016a9.551,9.551,0,0,0,3.406-.676,2.527,2.527,0,1,1-.026,4.712,8.908,8.908,0,0,0-3.268-.667h-.129v3.154a2.556,2.556,0,0,1,1.43,1.385h6.15a9.736,9.736,0,0,1-.676,3.44,2.527,2.527,0,1,0,4.712-.026,9.687,9.687,0,0,1-.667-3.415H393.8V7.967Z" transform="translate(-337.835 -6.697)" fill="#34e5e2"/>
      <path id="Path_978920" data-name="Path 978920" d="M24.618,106.479A15.791,15.791,0,0,0,8.406,122.265c0,.026,1.387,2.773,1.387,2.773l-1.387,12.71H13.8V145.6h9.243v6.122H39.988V122.432A15.9,15.9,0,0,0,24.618,106.479Z" transform="translate(-7.467 -94.199)" fill="#fdd8a8"/>
      <g id="Group_1143816" data-name="Group 1143816" transform="translate(9.136 12.275)">
        <path id="Path_978921" data-name="Path 978921" d="M89.8,106.481c-.467-.012-.929,0-1.386.025a4.773,4.773,0,0,0,6.521,4.578q.164-.065.325-.121v.688H81.785v17.742h4.662q-.064.191-.137.383a4.774,4.774,0,0,0,4.159,6.467c.1.006.2.009.3.009a4.774,4.774,0,0,0,4.44-6.524c-.043-.109-.084-.221-.122-.335h4.665v-.009h2.681q-.057.167-.121.336a4.776,4.776,0,0,0,2.859,6.2V122.434A15.9,15.9,0,0,0,89.8,106.481Z" transform="translate(-81.785 -106.476)" fill="#ffc477"/>
        <rect id="Rectangle_405135" data-name="Rectangle 405135" width="8.011" height="2.246" transform="translate(6.438 39.13)" fill="#ffc477"/>
      </g>
      <path id="Path_978922" data-name="Path 978922" d="M36.116,139.13H34.432a13.4,13.4,0,0,1,.108-1.7l1.671.214A11.7,11.7,0,0,0,36.116,139.13Zm.4-3.02-1.626-.44a13.248,13.248,0,0,1,12.017-9.782l.1,1.681A11.564,11.564,0,0,0,36.516,136.11Z" transform="translate(-30.586 -111.446)" fill="#fff"/>
      <path id="Path_978923" data-name="Path 978923" d="M122.207,178.961a2.508,2.508,0,0,0-3.423-2.2,9.55,9.55,0,0,1-3.406.676h-.016V172.9H101.887v4.538h.016a9.551,9.551,0,0,0,3.406-.676,2.527,2.527,0,1,1-.026,4.712,8.907,8.907,0,0,0-3.268-.667h-.128v5.343h5.053a9.686,9.686,0,0,1-.676,3.431,2.527,2.527,0,1,0,4.712-.026,9.636,9.636,0,0,1-.667-3.406h5.053V180.8h0a9.6,9.6,0,0,1,3.4.676,2.528,2.528,0,0,0,3.448-2.512Z" transform="translate(-90.505 -153.204)" fill="#c5bcf4"/>
      <g id="Group_1143817" data-name="Group 1143817" transform="translate(11.382 21.146)">
        <path id="Path_978924" data-name="Path 978924" d="M144.381,320.018a2.523,2.523,0,0,1-4.544-.008c-.029.083-.058.166-.089.247a2.527,2.527,0,1,0,4.712-.026C144.432,320.162,144.407,320.089,144.381,320.018Z" transform="translate(-135.371 -305.027)" fill="#a199f2"/>
        <path id="Path_978925" data-name="Path 978925" d="M106.941,271.407h-5.053v2.246h4.754A9.035,9.035,0,0,0,106.941,271.407Z" transform="translate(-101.888 -261.853)" fill="#a199f2"/>
        <path id="Path_978926" data-name="Path 978926" d="M105.309,188.3a2.522,2.522,0,0,1,3.163,1.243,2.527,2.527,0,0,0-3.163-3.488,9.549,9.549,0,0,1-3.406.676h-.016v2.246h.016A9.553,9.553,0,0,0,105.309,188.3Z" transform="translate(-101.887 -185.884)" fill="#a199f2"/>
        <path id="Path_978927" data-name="Path 978927" d="M229.094,218.585a2.529,2.529,0,0,1-3.189,1.224,9.6,9.6,0,0,0-3.4-.676v2.246a9.6,9.6,0,0,1,3.4.676,2.522,2.522,0,0,0,3.189-3.47Z" transform="translate(-209.034 -214.932)" fill="#a199f2"/>
        <path id="Path_978928" data-name="Path 978928" d="M177.572,273.653h4.757v-2.246h-5.053A9.3,9.3,0,0,0,177.572,273.653Z" transform="translate(-168.854 -261.853)" fill="#a199f2"/>
      </g>
      <path id="Path_978929" data-name="Path 978929" d="M235.983,131.6V118.362h-5.557a9.621,9.621,0,0,1,.675-3.375,2.525,2.525,0,0,0,.162-1.045,2.528,2.528,0,0,0-5.054.144,2.521,2.521,0,0,0,.181.927,9.326,9.326,0,0,1,.657,3.349h-4.538V122.9h.016a9.559,9.559,0,0,0,3.406-.686,2.536,2.536,0,1,1-.026,4.712,9.587,9.587,0,0,0-3.4-.667h0V131.6h7.579a9.562,9.562,0,0,1-.676,3.384,2.527,2.527,0,1,0,4.712-.026,8.907,8.907,0,0,1-.667-3.268V131.6Z" transform="translate(-197.651 -98.667)" fill="#34e5e2"/>
      <g id="Group_1143818" data-name="Group 1143818" transform="translate(24.857 21.136)">
        <path id="Path_978930" data-name="Path 978930" d="M225.93,188.212a2.522,2.522,0,0,1,3.163,1.244,2.528,2.528,0,0,0-3.163-3.489,9.56,9.56,0,0,1-3.406.686h-.016V188.9h.016A9.568,9.568,0,0,0,225.93,188.212Z" transform="translate(-222.508 -185.801)" fill="#00cee5"/>
        <path id="Path_978931" data-name="Path 978931" d="M230.088,271.324h-7.579v2.246h7.27A8.888,8.888,0,0,0,230.088,271.324Z" transform="translate(-222.509 -261.77)" fill="#00cee5"/>
        <path id="Path_978932" data-name="Path 978932" d="M320.514,271.414a8.294,8.294,0,0,0,.3,2.155h2.229v-2.246h-2.526v.091Z" transform="translate(-309.566 -261.769)" fill="#00cee5"/>
        <path id="Path_978933" data-name="Path 978933" d="M287.619,319.518a2.523,2.523,0,0,1-4.543-.009c-.029.082-.058.165-.089.247a2.527,2.527,0,1,0,4.712-.026C287.671,319.66,287.645,319.589,287.619,319.518Z" transform="translate(-276.083 -304.572)" fill="#00cee5"/>
      </g>
      <path id="Path_978934" data-name="Path 978934" d="M187.295,60.511a2.528,2.528,0,0,0-3.423-2.2,9.562,9.562,0,0,1-3.384.676V52.194H168.042v4.548h-.016a9.55,9.55,0,0,1-3.406-.676,2.527,2.527,0,1,0,.026,4.712,8.907,8.907,0,0,1,3.268-.667h.128v5.568h4.538a9.328,9.328,0,0,0-.657-3.349,2.521,2.521,0,0,1-.181-.927,2.528,2.528,0,0,1,5.054-.144,2.527,2.527,0,0,1-.162,1.045,9.625,9.625,0,0,0-.675,3.375h4.528V62.356h.091a8.908,8.908,0,0,1,3.268.667,2.528,2.528,0,0,0,3.448-2.512Z" transform="translate(-143.185 -45.983)" fill="#e9ff9c"/>
      <g id="Group_1143819" data-name="Group 1143819" transform="translate(18.007 10.591)">
        <path id="Path_978935" data-name="Path 978935" d="M222.509,152.795v2.246h4.538a9.02,9.02,0,0,0-.3-2.246Z" transform="translate(-215.659 -145.936)" fill="#cfff26"/>
        <path id="Path_978936" data-name="Path 978936" d="M168.043,98.529h-.128a8.908,8.908,0,0,0-3.268.667,2.529,2.529,0,0,1-3.188-1.223,2.479,2.479,0,0,0-.26.957,2.528,2.528,0,0,0,3.449,2.512,8.907,8.907,0,0,1,3.268-.667h.128V98.529Z" transform="translate(-161.193 -97.238)" fill="#cfff26"/>
        <path id="Path_978937" data-name="Path 978937" d="M260.437,95.124c.029-.081.057-.161.087-.241a2.525,2.525,0,0,0,.162-1.045,2.528,2.528,0,0,0-5.054.144,2.521,2.521,0,0,0,.181.927c.026.067.05.135.075.2a2.493,2.493,0,0,1,4.55.013Z" transform="translate(-245.081 -91.399)" fill="#cfff26"/>
        <path id="Path_978938" data-name="Path 978938" d="M293.384,155.042h4.528V152.8H293.7A8.965,8.965,0,0,0,293.384,155.042Z" transform="translate(-278.617 -145.937)" fill="#cfff26"/>
        <path id="Path_978939" data-name="Path 978939" d="M340.463,118.075a2.529,2.529,0,0,1-3.188,1.223,8.908,8.908,0,0,0-3.268-.667h-.091v2.246h.091a8.908,8.908,0,0,1,3.268.667,2.528,2.528,0,0,0,3.449-2.512A2.482,2.482,0,0,0,340.463,118.075Z" transform="translate(-314.621 -115.095)" fill="#cfff26"/>
      </g>
      <g id="Group_1143820" data-name="Group 1143820" transform="translate(42.486 2.721)">
        <path id="Path_978940" data-name="Path 978940" d="M383.743,23.364a2.522,2.522,0,0,1,3.163,1.243,2.527,2.527,0,0,0-3.163-3.488,9.55,9.55,0,0,1-3.406.676h-.016V24.04h.016A9.553,9.553,0,0,0,383.743,23.364Z" transform="translate(-380.321 -20.952)" fill="#00cee5"/>
        <path id="Path_978941" data-name="Path 978941" d="M387.9,88.259h-6.15a2.556,2.556,0,0,0-1.43-1.385V89.12a2.556,2.556,0,0,1,1.43,1.385H387.6A9.1,9.1,0,0,0,387.9,88.259Z" transform="translate(-380.321 -79.51)" fill="#00cee5"/>
        <path id="Path_978942" data-name="Path 978942" d="M478.621,101.517h2.232V99.271h-2.526A9.375,9.375,0,0,0,478.621,101.517Z" transform="translate(-467.379 -90.522)" fill="#00cee5"/>
        <path id="Path_978943" data-name="Path 978943" d="M445.432,147.964a2.523,2.523,0,0,1-4.544-.008c-.029.083-.058.166-.089.247a2.527,2.527,0,1,0,4.712-.026C445.483,148.108,445.458,148.035,445.432,147.964Z" transform="translate(-433.896 -133.768)" fill="#00cee5"/>
      </g>
      <rect id="Rectangle_405136" data-name="Rectangle 405136" width="1.684" height="15.808" transform="translate(31.679 41.72)"/>
      <path id="Path_978944" data-name="Path 978944" d="M15.575,138.318h-8.4v-7.857h-5.3L3.19,118.437l-.112-.223c-.421-.835-1.075-2.135-1.3-2.581A14.961,14.961,0,0,1,15.816,100.9l-.1-1.681A16.647,16.647,0,0,0,.1,115.82c0,.216,0,.216.783,1.774l.582,1.155L0,132.146H5.489V140h9.243v5.28h1.684V140h7.169v-1.684H15.575Z" transform="translate(0 -87.755)"/>
      <path id="Path_978945" data-name="Path 978945" d="M138.134,14.558h2.478V.428H125.453V6.651h.858a10.4,10.4,0,0,0,3.707-.732,1.677,1.677,0,0,1,.7-.107A1.7,1.7,0,0,1,132.3,7.384,1.686,1.686,0,0,1,130,9.061a9.748,9.748,0,0,0-3.577-.725h-.971v2.986a3.341,3.341,0,0,0-1.258.22,9.354,9.354,0,0,1-2.241.569V5.369h-14.13v4.5a9.34,9.34,0,0,1-2.279-.573,3.369,3.369,0,0,0-3.657,5.454,3.371,3.371,0,0,0,3.691.827,8.553,8.553,0,0,1,2.245-.57v3.845H94.349v6.223h.858a10.4,10.4,0,0,0,3.707-.732,1.68,1.68,0,0,1,.7-.107,1.7,1.7,0,0,1,1.584,1.573,1.686,1.686,0,0,1-2.3,1.676,9.749,9.749,0,0,0-3.577-.725h-.971v7.027h5.005a9.341,9.341,0,0,1-.573,2.288,3.37,3.37,0,0,0,2.934,4.564q.109.007.217.007a3.337,3.337,0,0,0,2.3-.914,3.371,3.371,0,0,0,.827-3.691,9,9,0,0,1-.559-2.254h5v-.009h5.843a9.363,9.363,0,0,1-.569,2.241,3.37,3.37,0,0,0,2.934,4.564q.109.007.217.007a3.336,3.336,0,0,0,2.3-.914,3.371,3.371,0,0,0,.827-3.691,8.589,8.589,0,0,1-.566-2.207h2.485V18.853h-1.029v-1.6a8.589,8.589,0,0,1,2.207.566,3.368,3.368,0,0,0,4.6-3.265h4.222a9.469,9.469,0,0,1-.572,2.3,3.37,3.37,0,0,0,2.934,4.564q.109.007.217.007a3.336,3.336,0,0,0,2.3-.914,3.371,3.371,0,0,0,.827-3.691A8.991,8.991,0,0,1,138.134,14.558ZM102.771,32.1v.842a10.522,10.522,0,0,0,.725,3.715,1.685,1.685,0,0,1-1.676,2.3,1.7,1.7,0,0,1-1.573-1.584,1.681,1.681,0,0,1,.107-.7,10.461,10.461,0,0,0,.732-3.732V32.1H96.033V28.482a8.561,8.561,0,0,1,2.245.57,3.369,3.369,0,1,0,.034-6.282,9.33,9.33,0,0,1-2.279.573V20.537h11.79v4.538h.858a10.4,10.4,0,0,0,3.707-.732,1.685,1.685,0,0,1,.7-.117,1.706,1.706,0,0,1,1.584,1.582h0c0,.057,0,.113,0,.168a1.682,1.682,0,0,1-.459,1.094,1.664,1.664,0,0,1-1.223.531,1.684,1.684,0,0,1-.618-.126,10.735,10.735,0,0,0-2.792-.677,8.922,8.922,0,0,0-.913-.048h-.842V32.1Zm18.528-.009h-2.526v.933A9.752,9.752,0,0,0,119.5,36.6a1.685,1.685,0,0,1-1.676,2.3,1.7,1.7,0,0,1-1.573-1.584,1.68,1.68,0,0,1,.107-.7,10.415,10.415,0,0,0,.732-3.683l0-.845h-7.581V28.486a9.127,9.127,0,0,1,2.245.566,3.369,3.369,0,0,0,4.6-3.173c0-.061,0-.122-.006-.183a3.37,3.37,0,0,0-4.564-2.934,9.5,9.5,0,0,1-2.279.581v-2.8h4.538V19.7q0-.223-.012-.451a10.36,10.36,0,0,0-.7-3.208,1.677,1.677,0,0,1-.122-.618,1.767,1.767,0,0,1,.56-1.281,1.728,1.728,0,0,1,.423-.294c.021-.01.042-.018.063-.027s.061-.028.092-.039a1.614,1.614,0,0,1,.662-.1,1.5,1.5,0,0,1,.3.05,1.78,1.78,0,0,1,1.272,1.59s0,0,0,.006a1.679,1.679,0,0,1-.108.692c-.09.236-.169.471-.243.7a10.084,10.084,0,0,0-.488,2.967l0,.847H121.3V32.094h0Zm5.326-16.252a1.687,1.687,0,0,1-1.845.414,9.748,9.748,0,0,0-3.577-.725h-.933v3.322h-2.79a9.365,9.365,0,0,1,.567-2.232,3.344,3.344,0,0,0,.221-1.213q0-.089-.005-.179a3.469,3.469,0,0,0-1.322-2.519q-.119-.094-.246-.177t-.261-.155a3.231,3.231,0,0,0-1.32-.376,3.319,3.319,0,0,0-2.5.91,3.458,3.458,0,0,0-1.09,2.508,3.355,3.355,0,0,0,.24,1.236,8.726,8.726,0,0,1,.549,2.2h-2.805V13.285h-.971a9.75,9.75,0,0,0-3.577.725,1.685,1.685,0,0,1-2.3-1.676,1.7,1.7,0,0,1,1.584-1.573,1.679,1.679,0,0,1,.7.107,10.4,10.4,0,0,0,3.707.732h.858V7.053h10.761v6.8l.845,0a10.41,10.41,0,0,0,3.683-.731,1.681,1.681,0,0,1,.7-.107,1.625,1.625,0,0,1,.44.087l.059.023c.052.02.1.043.151.067l.013.006c.045.023.088.048.13.075l.019.012c.041.026.08.055.118.085l.017.013c.042.034.083.069.122.107h0a1.7,1.7,0,0,1,.384.56v0a1.632,1.632,0,0,1,.128.535h0A1.674,1.674,0,0,1,126.625,15.842Zm9.777-2.969v.842a10.545,10.545,0,0,0,.725,3.724,1.685,1.685,0,0,1-1.676,2.3,1.7,1.7,0,0,1-1.573-1.584,1.679,1.679,0,0,1,.108-.7,10.488,10.488,0,0,0,.732-3.741v-.842h-6.48a3.375,3.375,0,0,0-1.1-1.07V10.057a8.562,8.562,0,0,1,2.245.57,3.369,3.369,0,1,0,.034-6.282,9.334,9.334,0,0,1-2.279.573V2.112h11.79V12.873H136.4Z" transform="translate(-83.809)"/>
      <rect id="Rectangle_405137" data-name="Rectangle 405137" width="1.684" height="1.684" transform="translate(42.037 24.121)"/>
      <rect id="Rectangle_405138" data-name="Rectangle 405138" width="1.684" height="1.684" transform="translate(45.405 24.121)"/>
      <rect id="Rectangle_405139" data-name="Rectangle 405139" width="1.684" height="1.684" transform="translate(48.774 24.121)"/>
      <rect id="Rectangle_405140" data-name="Rectangle 405140" width="1.684" height="1.684" transform="translate(55.512 24.121)"/>
      <rect id="Rectangle_405141" data-name="Rectangle 405141" width="1.684" height="1.684" transform="translate(52.143 24.121)"/>
      <rect id="Rectangle_405142" data-name="Rectangle 405142" width="1.684" height="1.684" transform="translate(45.405 28.107)"/>
      <rect id="Rectangle_405143" data-name="Rectangle 405143" width="1.684" height="1.684" transform="translate(42.037 28.107)"/>
      <rect id="Rectangle_405144" data-name="Rectangle 405144" width="1.684" height="1.684" transform="translate(52.143 28.107)"/>
      <rect id="Rectangle_405145" data-name="Rectangle 405145" width="1.684" height="1.684" transform="translate(55.512 28.107)"/>
      <rect id="Rectangle_405146" data-name="Rectangle 405146" width="1.684" height="1.684" transform="translate(48.774 28.107)"/>
      <rect id="Rectangle_405147" data-name="Rectangle 405147" width="1.684" height="1.684" transform="translate(55.512 32.094)"/>
      <rect id="Rectangle_405148" data-name="Rectangle 405148" width="1.684" height="1.684" transform="translate(52.143 32.094)"/>
      <rect id="Rectangle_405149" data-name="Rectangle 405149" width="1.684" height="1.684" transform="translate(48.774 32.094)"/>
      <rect id="Rectangle_405150" data-name="Rectangle 405150" width="1.684" height="1.684" transform="translate(42.037 32.094)"/>
      <rect id="Rectangle_405151" data-name="Rectangle 405151" width="1.684" height="1.684" transform="translate(45.405 32.094)"/>
    </g>
  </g>
</svg>
