<svg xmlns="http://www.w3.org/2000/svg" xmlns:xlink="http://www.w3.org/1999/xlink" width="108" height="108" viewBox="0 0 108 108">
  <defs>
    <filter id="Fondo" x="0" y="0" width="108" height="108" filterUnits="userSpaceOnUse">
      <feOffset dy="3" input="SourceAlpha"/>
      <feGaussianBlur stdDeviation="3" result="blur"/>
      <feFlood flood-opacity="0.161"/>
      <feComposite operator="in" in2="blur"/>
      <feComposite in="SourceGraphic"/>
    </filter>
  </defs>
  <g id="Group_1144954" data-name="Group 1144954" transform="translate(-1621.999 -6682.668)">
    <g id="Group_1144893" data-name="Group 1144893" transform="translate(0 29.5)">
      <g transform="matrix(1, 0, 0, 1, 1622, 6653.17)" filter="url(#Fondo)">
        <g id="Fondo-2" data-name="Fondo" transform="translate(9 6)" fill="#f1fef9" stroke="#43896d" stroke-width="3">
          <circle cx="45" cy="45" r="45" stroke="none"/>
          <circle cx="45" cy="45" r="43.5" fill="none"/>
        </g>
      </g>
      <g id="Group_1144892" data-name="Group 1144892" transform="translate(1631.888 6661.056)">
        <path id="Path_981547" data-name="Path 981547" d="M232.535,30.326H200V25.807A1.807,1.807,0,0,1,201.807,24h28.92a1.807,1.807,0,0,1,1.807,1.807Z" transform="translate(-163.214 -7.096)" fill="#548aff"/>
        <path id="Path_981548" data-name="Path 981548" d="M232.535,80v30.727a1.807,1.807,0,0,1-1.807,1.807h-28.92A1.807,1.807,0,0,1,200,110.727V80Z" transform="translate(-163.214 -56.77)" fill="#e0edff"/>
        <path id="Path_981549" data-name="Path 981549" d="M84.519,224.134v-1.807a1.807,1.807,0,0,0,1.807-1.807V216H80v8.134Z" transform="translate(-56.77 -177.406)" fill="#ffceb6"/>
        <path id="Path_981550" data-name="Path 981550" d="M65.807,192.134,64,189.422v-1.807A3.615,3.615,0,0,1,67.615,184h4.519a1.807,1.807,0,0,1,0,3.615H70.326l-1.807,4.519Z" transform="translate(-42.578 -149.021)" fill="#c47220"/>
        <path id="Path_981551" data-name="Path 981551" d="M57.27,211.573l-.735,2.206v3.615l-5.785,7.713a7.828,7.828,0,0,1-9.171,2.571l-.473-.19-2.646-1.057v8.134l-.9,2.711H24.9l-.9-2.711V223.721a4.519,4.519,0,0,1,4.519-4.519h9.992a3.622,3.622,0,0,1,1.617.382l3.6,1.8,1.063.531,6.326-5.422v-1.807a1.805,1.805,0,0,1,1.807-1.807l3.018-2.264a.86.86,0,0,1,1.332.961Z" transform="translate(-7.097 -172.475)" fill="#ffceb6"/>
        <path id="Path_981552" data-name="Path 981552" d="M32,448H44.652v5.422H32Z" transform="translate(-14.193 -383.198)" fill="#718799"/>
        <path id="Path_981553" data-name="Path 981553" d="M43.723,290.18l-2.617,6.107L38.46,295.23v8.134l-.9,2.711H24.9l-.9-2.711V292.519A4.519,4.519,0,0,1,28.518,288h9.992a3.622,3.622,0,0,1,1.617.382Z" transform="translate(-7.096 -241.273)" fill="#548aff"/>
        <path id="Path_981554" data-name="Path 981554" d="M50.161,187.387a.9.9,0,0,0,.181-.542v-3.468l.689-2.068a1.755,1.755,0,0,0-.426-1.805,1.773,1.773,0,0,0-2.306-.164l-2.8,2.1a2.715,2.715,0,0,0-2.384,2.692v1.392l-5.555,4.761-4.122-2.061a4.542,4.542,0,0,0-2.021-.477H28.652v-.155a2.716,2.716,0,0,0,1.807-2.556v-3.77a2.711,2.711,0,0,0-.9-5.267H25.037a4.524,4.524,0,0,0-4.519,4.519v1.807a.9.9,0,0,0,.152.5l1.656,2.484v2.438h-.9A5.429,5.429,0,0,0,16,193.171v10.845a.9.9,0,0,0,.046.286l.857,2.572v5.276h1.807v-4.519H29.556v4.519h1.807v-5.276l.857-2.572a.9.9,0,0,0,.046-.286v-6.8l1.879.752a8.733,8.733,0,0,0,10.23-2.869Zm-27.835-6.868a2.714,2.714,0,0,1,2.711-2.711h4.519a.9.9,0,0,1,0,1.807H27.748a.9.9,0,0,0-.839.568l-1.58,3.951H23.713l-1.387-2.081Zm1.807,5.422h1.807a.9.9,0,0,0,.839-.568l1.58-3.951h.292v3.615a.9.9,0,0,1-.9.9.9.9,0,0,0-.9.9v.9H24.133Zm7.566,9.1a.9.9,0,0,0-1.239.839v7.987l-.651,1.954H18.458l-.651-1.954v-10.7a3.619,3.619,0,0,1,3.615-3.615h9.992a2.724,2.724,0,0,1,1.212.286l2.834,1.417-1.935,4.514Zm11.231-1.027a6.919,6.919,0,0,1-7.721,2.417l1.87-4.363.206.1a.9.9,0,0,0,.992-.122l6.326-5.422a.9.9,0,0,0,.316-.686v-1.807a.9.9,0,0,1,.9-.9.9.9,0,0,0,.542-.181l2.907-2.18-.692,2.075a.9.9,0,0,0-.046.286v3.314Z" transform="translate(0 -141.925)"/>
        <path id="Path_981555" data-name="Path 981555" d="M223.631,16h-28.92A2.714,2.714,0,0,0,192,18.711V45.824h1.807V24.134h30.727V53.957a.9.9,0,0,1-.9.9h-23.5v1.807h23.5a2.714,2.714,0,0,0,2.711-2.711V18.711A2.714,2.714,0,0,0,223.631,16Zm-29.824,6.326V18.711a.9.9,0,0,1,.9-.9h28.92a.9.9,0,0,1,.9.9v3.615Z" transform="translate(-156.118)"/>
        <circle id="Ellipse_11602" data-name="Ellipse 11602" cx="0.5" cy="0.5" r="0.5" transform="translate(39.112 19.112)"/>
        <circle id="Ellipse_11603" data-name="Ellipse 11603" cx="0.5" cy="0.5" r="0.5" transform="translate(42.112 19.112)"/>
        <ellipse id="Ellipse_11604" data-name="Ellipse 11604" cx="1" cy="0.5" rx="1" ry="0.5" transform="translate(44.112 19.112)"/>
        <path id="Path_981556" data-name="Path 981556" d="M234.711,109.694v-1.807H232.9a.9.9,0,0,0-.9.9v5.422a.9.9,0,0,0,.9.9h5.422a.9.9,0,0,0,.9-.9v-5.048l1.543-1.543-1.278-1.278-5.422,5.422,1.278,1.278,2.072-2.072v2.337h-3.615v-3.615Z" transform="translate(-191.599 -80.137)"/>
        <path id="Path_981557" data-name="Path 981557" d="M320,128h3.615v1.807H320Z" transform="translate(-269.658 -99.348)"/>
        <path id="Path_981558" data-name="Path 981558" d="M368,128h9.941v1.807H368Z" transform="translate(-312.236 -99.348)"/>
        <path id="Path_981559" data-name="Path 981559" d="M320,160h7.23v1.807H320Z" transform="translate(-269.658 -127.733)"/>
        <path id="Path_981560" data-name="Path 981560" d="M400,160h1.807v1.807H400Z" transform="translate(-340.621 -127.733)"/>
        <path id="Path_981561" data-name="Path 981561" d="M408,208h5.422v1.807H408Z" transform="translate(-347.717 -170.31)"/>
        <path id="Path_981562" data-name="Path 981562" d="M344,208h5.422v1.807H344Z" transform="translate(-290.947 -170.31)"/>
        <path id="Path_981563" data-name="Path 981563" d="M336,240h9.037v1.807H336Z" transform="translate(-283.851 -198.695)"/>
        <path id="Path_981564" data-name="Path 981564" d="M432,240h1.807v1.807H432Z" transform="translate(-369.006 -198.695)"/>
        <path id="Path_981565" data-name="Path 981565" d="M408,288h5.422v1.807H408Z" transform="translate(-347.717 -241.273)"/>
        <path id="Path_981566" data-name="Path 981566" d="M344,288h5.422v1.807H344Z" transform="translate(-290.947 -241.273)"/>
        <path id="Path_981567" data-name="Path 981567" d="M336,320h9.037v1.807H336Z" transform="translate(-283.851 -269.658)"/>
        <path id="Path_981568" data-name="Path 981568" d="M432,320h1.807v1.807H432Z" transform="translate(-369.006 -269.658)"/>
      </g>
    </g>
  </g>
</svg>
