<svg xmlns="http://www.w3.org/2000/svg" xmlns:xlink="http://www.w3.org/1999/xlink" width="108" height="108" viewBox="0 0 108 108">
  <defs>
    <filter id="Fondo" x="0" y="0" width="108" height="108" filterUnits="userSpaceOnUse">
      <feOffset dy="3" input="SourceAlpha"/>
      <feGaussianBlur stdDeviation="3" result="blur"/>
      <feFlood flood-opacity="0.161"/>
      <feComposite operator="in" in2="blur"/>
      <feComposite in="SourceGraphic"/>
    </filter>
  </defs>
  <g id="Group_1144937" data-name="Group 1144937" transform="translate(-1061.999 -1894.17)">
    <g id="Group_1144931" data-name="Group 1144931">
      <g id="Group_1144658" data-name="Group 1144658" transform="translate(0 29.5)">
        <g id="Icono" transform="translate(1070.499 1175.67)">
          <g transform="matrix(1, 0, 0, 1, -8.5, 689)" filter="url(#Fondo)">
            <g id="Fondo-2" data-name="Fondo" transform="translate(9 6)" fill="#f1fef9" stroke="#43896d" stroke-width="3">
              <circle cx="45" cy="45" r="45" stroke="none"/>
              <circle cx="45" cy="45" r="43.5" fill="none"/>
            </g>
          </g>
        </g>
        <g id="Group_1144657" data-name="Group 1144657" transform="translate(1089.041 1889.235)">
          <g id="Group_1144655" data-name="Group 1144655" transform="translate(0.999 0.784)">
            <g id="Group_1144654" data-name="Group 1144654">
              <g id="Group_1144653" data-name="Group 1144653">
                <g id="Group_1144651" data-name="Group 1144651" transform="translate(0 0)">
                  <g id="Group_1144650" data-name="Group 1144650">
                    <g id="Group_1144646" data-name="Group 1144646" transform="translate(0)">
                      <g id="Group_1144644" data-name="Group 1144644">
                        <path id="Path_981247" data-name="Path 981247" d="M193.945,391.443h22.118v9.177H193.945Z" transform="translate(-174.474 -351.301)" fill="#acdf91"/>
                        <path id="Path_981248" data-name="Path 981248" d="M215.24,391.443h-5v5.45a1.439,1.439,0,0,1-1.439,1.439H193.945v2.287H215.24Z" transform="translate(-174.474 -351.301)" fill="#93d87b"/>
                        <g id="Group_1144634" data-name="Group 1144634" transform="translate(37.596 31.961)">
                          <path id="Path_981249" data-name="Path 981249" d="M379.268,329.8a1.329,1.329,0,0,1-1.329-1.329v2.139a1.329,1.329,0,1,1-2.658,0v1.258a1.329,1.329,0,0,1-2.658,0v-1.737a1.329,1.329,0,0,1-2.658,0v-5a1.329,1.329,0,1,1-2.658,0V321.3a8.6,8.6,0,0,1,1.719-5.159,5.528,5.528,0,0,0,1.091-2.943h8.511v.571a4.429,4.429,0,0,0,.35,1.726l1.174,2.775a5.53,5.53,0,0,1,.448,2.179v8.023a1.33,1.33,0,0,1-1.33,1.329Z" transform="translate(-367.306 -313.196)" fill="#efada0"/>
                          <g id="Group_1144632" data-name="Group 1144632" transform="translate(9.365)">
                            <path id="Path_981250" data-name="Path 981250" d="M459.474,320.424v8.046a1.328,1.328,0,0,1-.665,1.15,1.321,1.321,0,0,0,.771.175,1.354,1.354,0,0,0,1.222-1.362v-7.987a5.527,5.527,0,0,0-.448-2.179l-1.174-2.775a4.43,4.43,0,0,1-.35-1.726v-.571h-1.955C456.875,317.045,459.462,317.406,459.474,320.424Z" transform="translate(-456.875 -313.195)" fill="#e79b8b"/>
                          </g>
                          <g id="Group_1144633" data-name="Group 1144633" transform="translate(0.664 8.144)">
                            <path id="Path_981251" data-name="Path 981251" d="M399.086,430.442a1.321,1.321,0,0,0,.771.175,1.354,1.354,0,0,0,1.222-1.362v-5.32a1.329,1.329,0,0,0-1.329,1.329v4.028A1.327,1.327,0,0,1,399.086,430.442Z" transform="translate(-396.428 -420.501)" fill="#e79b8b"/>
                            <path id="Path_981252" data-name="Path 981252" d="M373.66,396.035a1.321,1.321,0,0,0,.771.175,1.354,1.354,0,0,0,1.222-1.362v-3.756a1.329,1.329,0,0,0-1.329,1.329v2.464A1.328,1.328,0,0,1,373.66,396.035Z" transform="translate(-373.66 -391.092)" fill="#e79b8b"/>
                            <path id="Path_981253" data-name="Path 981253" d="M449.939,430.922a1.322,1.322,0,0,0,.771.175,1.354,1.354,0,0,0,1.222-1.362v-5.8a1.329,1.329,0,0,0-1.329,1.329v4.507A1.327,1.327,0,0,1,449.939,430.922Z" transform="translate(-441.964 -420.502)" fill="#e79b8b"/>
                            <path id="Path_981254" data-name="Path 981254" d="M424.513,432.6a1.321,1.321,0,0,0,.772.175,1.354,1.354,0,0,0,1.222-1.362V424.41a1.329,1.329,0,0,0-1.329,1.329v5.715A1.328,1.328,0,0,1,424.513,432.6Z" transform="translate(-419.196 -420.927)" fill="#e79b8b"/>
                          </g>
                        </g>
                        <g id="Group_1144636" data-name="Group 1144636" transform="translate(39.086 10.301)">
                          <g id="Group_1144635" data-name="Group 1144635">
                            <path id="Path_981255" data-name="Path 981255" d="M390.38,106.028h9.177v22.19H390.38Z" transform="translate(-389.458 -106.028)" fill="#fc8086"/>
                            <path id="Path_981256" data-name="Path 981256" d="M443.148,106.028h3.659v22.19h-3.659Z" transform="translate(-436.709 -106.028)" fill="#fb636f"/>
                            <path id="Path_981257" data-name="Path 981257" d="M381.561,300.525V298.69a.859.859,0,0,1,.859-.859h9.3a.859.859,0,0,1,.859.859v1.835a.859.859,0,0,1-.859.859h-9.3A.859.859,0,0,1,381.561,300.525Z" transform="translate(-381.561 -277.778)" fill="#fb636f"/>
                            <path id="Path_981258" data-name="Path 981258" d="M447.862,297.831h-3.607a.859.859,0,0,1,.859.859v2.694h2.748a.859.859,0,0,0,.859-.859V298.69A.859.859,0,0,0,447.862,297.831Z" transform="translate(-437.7 -277.778)" fill="#fa4954"/>
                          </g>
                        </g>
                        <g id="Group_1144639" data-name="Group 1144639" transform="translate(1.03)">
                          <path id="Path_981259" data-name="Path 981259" d="M105.984,32.787h22.173v9.177H105.984Z" transform="translate(-96.739 -30.143)" fill="#fce25c"/>
                          <path id="Path_981260" data-name="Path 981260" d="M105.984,98.559h22.173v2.3H105.984Z" transform="translate(-96.739 -89.039)" fill="#fcdd2e"/>
                          <g id="Group_1144638" data-name="Group 1144638">
                            <path id="Path_981261" data-name="Path 981261" d="M18.892,10.9a1.329,1.329,0,0,1,1.329,1.329V10.088a1.329,1.329,0,1,1,2.658,0V8.83a1.329,1.329,0,0,1,2.658,0v1.737a1.329,1.329,0,0,1,2.658,0v5a1.329,1.329,0,0,1,2.658,0V19.4a8.6,8.6,0,0,1-1.719,5.159A5.528,5.528,0,0,0,28.045,27.5h-8.51v-.571a4.429,4.429,0,0,0-.35-1.726L18.011,22.43a5.53,5.53,0,0,1-.448-2.179V12.228A1.329,1.329,0,0,1,18.892,10.9Z" transform="translate(-17.563 -7.501)" fill="#fcd0a3"/>
                            <g id="Group_1144637" data-name="Group 1144637" transform="translate(9.153 6.735)">
                              <path id="Path_981262" data-name="Path 981262" d="M107.921,71.916a1.322,1.322,0,0,0-.665.179,1.328,1.328,0,0,1,.665,1.15V77.08a8.6,8.6,0,0,1-1.719,5.159,5.528,5.528,0,0,0-1.091,2.943h1.329a5.528,5.528,0,0,1,1.091-2.943,8.6,8.6,0,0,0,1.719-5.159V73.245A1.329,1.329,0,0,0,107.921,71.916Z" transform="translate(-105.111 -71.916)" fill="#ffb983"/>
                            </g>
                            <path id="Path_981263" data-name="Path 981263" d="M102.2,30.435s0,0,0,.006v-5a1.328,1.328,0,0,0-1.993-1.15h0a1.328,1.328,0,0,1,.665,1.15v6.609a1.329,1.329,0,0,0,1.329,1.329Z" transform="translate(-91.563 -22.377)" fill="#ffb983"/>
                          </g>
                          <path id="Path_981264" data-name="Path 981264" d="M329.585,17.829a1.329,1.329,0,0,1-1.329,1.329h2.139a1.329,1.329,0,0,1,0,2.658h1.258a1.329,1.329,0,0,1,0,2.658h-1.737a1.329,1.329,0,0,1,0,2.658h-5a1.329,1.329,0,1,1,0,2.658h-3.835a8.6,8.6,0,0,1-5.159-1.719,5.528,5.528,0,0,0-2.943-1.091v-8.51h.571a4.428,4.428,0,0,0,1.726-.35l2.775-1.174a5.53,5.53,0,0,1,2.179-.448h8.023A1.329,1.329,0,0,1,329.585,17.829Z" transform="translate(-282.094 -15.559)" fill="#ffeae1"/>
                          <path id="Path_981265" data-name="Path 981265" d="M321.084,103.272h3.835a1.328,1.328,0,0,0,1.15-1.994,1.328,1.328,0,0,1-1.15.664h-3.835c-3.234,0-4.977-3.383-8.1-3.383v1.9a5.528,5.528,0,0,1,2.943,1.091A8.6,8.6,0,0,0,321.084,103.272Z" transform="translate(-282.095 -89.039)" fill="#ffdbcc"/>
                          <path id="Path_981266" data-name="Path 981266" d="M300.311,34.989h-1.835a.859.859,0,0,1-.859-.859v-9.3a.859.859,0,0,1,.859-.859h1.835a.859.859,0,0,1,.859.859v9.3A.859.859,0,0,1,300.311,34.989Z" transform="translate(-268.337 -22.246)" fill="#fbd307"/>
                          <path id="Path_981267" data-name="Path 981267" d="M300.311,100.023h-1.835a.859.859,0,0,1-.859-.859v2.3a.859.859,0,0,0,.859.859h1.835a.859.859,0,0,0,.859-.859v-2.3A.859.859,0,0,1,300.311,100.023Z" transform="translate(-268.337 -89.58)" fill="#f9c301"/>
                        </g>
                        <g id="Group_1144641" data-name="Group 1144641" transform="translate(1.81 18.055)">
                          <g id="Group_1144640" data-name="Group 1144640" transform="translate(0)">
                            <path id="Path_981268" data-name="Path 981268" d="M33.85,193.731h9.177v21.881H33.85Z" transform="translate(-32.928 -192.315)" fill="#e4c8f2"/>
                            <path id="Path_981269" data-name="Path 981269" d="M86.619,193.731h3.659v21.881H86.619Z" transform="translate(-80.18 -192.315)" fill="#d5b0ec"/>
                            <path id="Path_981270" data-name="Path 981270" d="M36.052,181.045v1.835a.859.859,0,0,1-.859.859h-9.3a.859.859,0,0,1-.859-.859v-1.835a.859.859,0,0,1,.859-.859h9.3A.859.859,0,0,1,36.052,181.045Z" transform="translate(-25.031 -180.186)" fill="#d5b0ec"/>
                            <path id="Path_981271" data-name="Path 981271" d="M91.742,182.88v-1.835a.859.859,0,0,0-.859-.859h-2.8v2.694a.859.859,0,0,1-.859.859h3.659A.859.859,0,0,0,91.742,182.88Z" transform="translate(-80.722 -180.186)" fill="#c995e4"/>
                          </g>
                        </g>
                        <g id="Group_1144643" data-name="Group 1144643" transform="translate(0 37.73)">
                          <path id="Path_981272" data-name="Path 981272" d="M11.113,380.331A1.329,1.329,0,0,1,12.442,379H10.3a1.329,1.329,0,0,1,0-2.658H9.044a1.329,1.329,0,0,1,0-2.658h1.737a1.329,1.329,0,1,1,0-2.658h5a1.329,1.329,0,0,1,0-2.658h3.835a8.6,8.6,0,0,1,5.159,1.719,5.528,5.528,0,0,0,2.943,1.091v8.511h-.571a4.429,4.429,0,0,0-1.726.35l-2.775,1.174a5.53,5.53,0,0,1-2.179.448H12.442a1.33,1.33,0,0,1-1.329-1.33Z" transform="translate(-7.715 -368.369)" fill="#ffeae1"/>
                          <g id="Group_1144642" data-name="Group 1144642" transform="translate(3.398 9.365)">
                            <path id="Path_981273" data-name="Path 981273" d="M49.587,460.539H41.541a1.327,1.327,0,0,1-1.15-.665,1.321,1.321,0,0,0-.175.771,1.354,1.354,0,0,0,1.362,1.222h7.987a5.527,5.527,0,0,0,2.179-.448l2.775-1.174a4.43,4.43,0,0,1,1.726-.35h.571V457.94C52.966,457.94,52.6,460.527,49.587,460.539Z" transform="translate(-40.212 -457.94)" fill="#ffdbcc"/>
                          </g>
                          <path id="Path_981274" data-name="Path 981274" d="M181.259,382.624h1.835a.859.859,0,0,1,.859.859v9.3a.859.859,0,0,1-.859.859h-1.835a.859.859,0,0,1-.859-.859v-9.3A.859.859,0,0,1,181.259,382.624Z" transform="translate(-162.345 -381.134)" fill="#93d87b"/>
                          <path id="Path_981275" data-name="Path 981275" d="M183.094,458.8h-1.835a.859.859,0,0,1-.859-.859v2.287a.859.859,0,0,0,.859.859h1.835a.859.859,0,0,0,.859-.859V457.94A.859.859,0,0,1,183.094,458.8Z" transform="translate(-162.345 -448.575)" fill="#7fd061"/>
                        </g>
                      </g>
                      <g id="Group_1144645" data-name="Group 1144645" transform="translate(14.613 14.656)">
                        <path id="Path_981276" data-name="Path 981276" d="M168.484,156.393a9.958,9.958,0,0,0-.989-2.387.489.489,0,0,1,.011-.5,1.685,1.685,0,0,0-.246-2.07l-.884-.884a1.685,1.685,0,0,0-2.07-.246.49.49,0,0,1-.5.011,9.957,9.957,0,0,0-2.387-.989.489.489,0,0,1-.347-.362,1.685,1.685,0,0,0-1.637-1.289h-1.25a1.685,1.685,0,0,0-1.637,1.289.489.489,0,0,1-.347.362,9.957,9.957,0,0,0-2.387.989.489.489,0,0,1-.5-.011,1.685,1.685,0,0,0-2.07.246l-.884.884a1.685,1.685,0,0,0-.246,2.07.49.49,0,0,1,.011.5,9.958,9.958,0,0,0-.99,2.389.481.481,0,0,1-.36.342,1.632,1.632,0,0,0-1.289,1.593v1.342a1.632,1.632,0,0,0,1.289,1.593.481.481,0,0,1,.36.342,9.957,9.957,0,0,0,.99,2.389.489.489,0,0,1-.011.5,1.685,1.685,0,0,0,.246,2.07l.884.884a1.685,1.685,0,0,0,2.07.246.49.49,0,0,1,.5-.011,9.958,9.958,0,0,0,2.387.989.489.489,0,0,1,.347.362,1.685,1.685,0,0,0,1.637,1.289h1.25a1.685,1.685,0,0,0,1.637-1.289.489.489,0,0,1,.347-.362,9.957,9.957,0,0,0,2.387-.989.489.489,0,0,1,.5.011,1.685,1.685,0,0,0,2.07-.246l.884-.884a1.685,1.685,0,0,0,.246-2.07.49.49,0,0,1-.011-.5,9.958,9.958,0,0,0,.989-2.387.489.489,0,0,1,.362-.347,1.685,1.685,0,0,0,1.289-1.637v-1.25a1.685,1.685,0,0,0-1.289-1.637A.49.49,0,0,1,168.484,156.393Z" transform="translate(-147.484 -147.676)" fill="#7aabdc"/>
                        <path id="Path_981277" data-name="Path 981277" d="M253.433,156.74a.489.489,0,0,1-.362-.347,9.957,9.957,0,0,0-.989-2.387.489.489,0,0,1,.011-.5,1.684,1.684,0,0,0-.246-2.07l-.884-.884a1.685,1.685,0,0,0-2.07-.246.49.49,0,0,1-.5.011,9.956,9.956,0,0,0-2.387-.989.489.489,0,0,1-.347-.362,1.685,1.685,0,0,0-1.637-1.289h-1.25a1.671,1.671,0,0,0-.824.216,11.327,11.327,0,0,1,0,22.218,1.671,1.671,0,0,0,.824.216h1.25a1.685,1.685,0,0,0,1.637-1.289.489.489,0,0,1,.347-.362,9.957,9.957,0,0,0,2.387-.989.489.489,0,0,1,.5.011,1.685,1.685,0,0,0,2.07-.246l.884-.884a1.685,1.685,0,0,0,.246-2.07.49.49,0,0,1-.011-.5,9.958,9.958,0,0,0,.989-2.387.489.489,0,0,1,.362-.347,1.685,1.685,0,0,0,1.289-1.637v-1.25A1.684,1.684,0,0,0,253.433,156.74Z" transform="translate(-232.071 -147.677)" fill="#5f98d5"/>
                        <circle id="Ellipse_11576" data-name="Ellipse 11576" cx="6.048" cy="6.048" r="6.048" transform="translate(5.278 5.278)" fill="#e5ecf6"/>
                      </g>
                    </g>
                    <g id="Group_1144647" data-name="Group 1144647" transform="translate(0 38.394)">
                      <path id="Path_981278" data-name="Path 981278" d="M24.507,400.149a1.321,1.321,0,0,0-.175.771,1.354,1.354,0,0,0,1.362,1.222h5.32a1.329,1.329,0,0,0-1.329-1.329H25.656A1.327,1.327,0,0,1,24.507,400.149Z" transform="translate(-22.59 -397.491)" fill="#ffdbcc"/>
                      <path id="Path_981279" data-name="Path 981279" d="M72.31,374.723a1.322,1.322,0,0,0-.175.772,1.354,1.354,0,0,0,1.362,1.222h3.756a1.329,1.329,0,0,0-1.329-1.329H73.459A1.327,1.327,0,0,1,72.31,374.723Z" transform="translate(-65.395 -374.723)" fill="#ffdbcc"/>
                      <path id="Path_981280" data-name="Path 981280" d="M19.929,451a1.322,1.322,0,0,0-.175.771A1.354,1.354,0,0,0,21.115,453h5.8a1.329,1.329,0,0,0-1.329-1.329H21.078A1.328,1.328,0,0,1,19.929,451Z" transform="translate(-18.491 -443.028)" fill="#ffdbcc"/>
                      <path id="Path_981281" data-name="Path 981281" d="M7.894,425.576a1.321,1.321,0,0,0-.175.771A1.354,1.354,0,0,0,9.08,427.57h7.057a1.329,1.329,0,0,0-1.329-1.329H9.043a1.328,1.328,0,0,1-1.15-.665Z" transform="translate(-7.714 -420.259)" fill="#ffdbcc"/>
                    </g>
                    <g id="Group_1144649" data-name="Group 1144649" transform="translate(40.056 4.264)">
                      <g id="Group_1144648" data-name="Group 1144648">
                        <path id="Path_981282" data-name="Path 981282" d="M399.63,99.871h-7.466a1.329,1.329,0,0,0-1.329,1.329h8.8a1.328,1.328,0,0,0,1.155-1.986A1.393,1.393,0,0,1,399.63,99.871Z" transform="translate(-390.835 -93.889)" fill="#ffdbcc"/>
                        <path id="Path_981283" data-name="Path 981283" d="M428.754,50.238a1.326,1.326,0,0,0,.832-1.954,1.328,1.328,0,0,1-1.15.665H423.8a1.329,1.329,0,0,0-1.329,1.329h5.93A1.744,1.744,0,0,0,428.754,50.238Z" transform="translate(-419.162 -48.284)" fill="#ffdbcc"/>
                        <path id="Path_981284" data-name="Path 981284" d="M432.531,74.377a1.321,1.321,0,0,0-.179-.665,1.328,1.328,0,0,1-1.15.665h-5.72a1.329,1.329,0,0,0-1.329,1.329H431.2A1.329,1.329,0,0,0,432.531,74.377Z" transform="translate(-420.67 -71.053)" fill="#ffdbcc"/>
                      </g>
                    </g>
                    <path id="Path_981285" data-name="Path 981285" d="M427.5,24.847l.026,0a1.327,1.327,0,0,0,1.006-1.986,1.328,1.328,0,0,1-1.15.665h-2.373a1.328,1.328,0,0,0-1.328,1.328H427.4C427.435,24.851,427.467,24.849,427.5,24.847Z" transform="translate(-380.19 -21.253)" fill="#ffdbcc"/>
                  </g>
                </g>
                <g id="Group_1144652" data-name="Group 1144652" transform="translate(1.702)">
                  <path id="Path_981286" data-name="Path 981286" d="M75.44,8.829v6.421a1.329,1.329,0,0,0,1.329,1.329V10.562s0,0,0,0v-1.7A1.354,1.354,0,0,0,75.547,7.5a1.322,1.322,0,0,0-.771.174h0a1.328,1.328,0,0,1,.665,1.15Z" transform="translate(-69.466 -7.499)" fill="#ffb983"/>
                  <path id="Path_981287" data-name="Path 981287" d="M50.012,20.864v5.162a1.329,1.329,0,0,0,1.329,1.329V20.864a1.328,1.328,0,0,0-1.994-1.149A1.328,1.328,0,0,1,50.012,20.864Z" transform="translate(-46.696 -18.277)" fill="#ffb983"/>
                  <path id="Path_981288" data-name="Path 981288" d="M25.979,45.678V41.317s0-.01,0-.015v.025a1.328,1.328,0,0,0-1.986-1.154,1.327,1.327,0,0,1,.658,1.145v3.032A1.329,1.329,0,0,0,25.979,45.678Z" transform="translate(-23.992 -36.599)" fill="#ffb983"/>
                </g>
              </g>
            </g>
          </g>
          <g id="Group_1144656" data-name="Group 1144656" transform="translate(0.215 0)">
            <path id="Path_981289" data-name="Path 981289" d="M157.328,142.835a10.746,10.746,0,0,0-2.259-.936,2.46,2.46,0,0,0-2.354-1.724h-1.25a2.46,2.46,0,0,0-2.354,1.724,10.753,10.753,0,0,0-2.259.936,2.459,2.459,0,0,0-2.884.445l-.884.884a2.46,2.46,0,0,0-.445,2.884,10.748,10.748,0,0,0-.935,2.255,2.413,2.413,0,0,0-1.725,2.311v1.342a2.412,2.412,0,0,0,1.725,2.311,10.754,10.754,0,0,0,.935,2.255,2.459,2.459,0,0,0,.445,2.884l.884.884a2.46,2.46,0,0,0,2.884.445,10.752,10.752,0,0,0,2.259.936,2.46,2.46,0,0,0,2.354,1.724h1.25a2.46,2.46,0,0,0,2.354-1.724,10.747,10.747,0,0,0,2.259-.936,2.459,2.459,0,0,0,2.884-.445l.884-.884a2.46,2.46,0,0,0,.445-2.884,10.755,10.755,0,0,0,.936-2.259,2.46,2.46,0,0,0,1.724-2.354v-1.25a2.46,2.46,0,0,0-1.724-2.354,10.746,10.746,0,0,0-.936-2.259,2.459,2.459,0,0,0-.445-2.884l-.884-.884a2.46,2.46,0,0,0-2.884-.445Zm2.769,4.846a9.178,9.178,0,0,1,.912,2.2h0a1.274,1.274,0,0,0,.936.905.9.9,0,0,1,.688.875v1.25a.9.9,0,0,1-.688.875,1.274,1.274,0,0,0-.936.905,9.18,9.18,0,0,1-.911,2.2,1.274,1.274,0,0,0,.021,1.3.9.9,0,0,1-.132,1.105l-.884.884a.9.9,0,0,1-1.106.132,1.274,1.274,0,0,0-1.3-.021,9.179,9.179,0,0,1-2.2.912,1.274,1.274,0,0,0-.905.936.9.9,0,0,1-.875.688h-1.25a.9.9,0,0,1-.875-.688,1.274,1.274,0,0,0-.905-.936,9.18,9.18,0,0,1-2.2-.911,1.263,1.263,0,0,0-.632-.169,1.284,1.284,0,0,0-.671.19.9.9,0,0,1-1.106-.132l-.884-.884a.9.9,0,0,1-.132-1.106,1.274,1.274,0,0,0,.021-1.3,9.177,9.177,0,0,1-.912-2.2,1.264,1.264,0,0,0-.943-.9.846.846,0,0,1-.681-.829v-1.342a.846.846,0,0,1,.681-.829,1.264,1.264,0,0,0,.943-.9,9.181,9.181,0,0,1,.912-2.2,1.274,1.274,0,0,0-.021-1.3.9.9,0,0,1,.132-1.106l.884-.884a.9.9,0,0,1,1.106-.132,1.275,1.275,0,0,0,1.3.021,9.182,9.182,0,0,1,2.2-.912,1.274,1.274,0,0,0,.906-.936.9.9,0,0,1,.875-.688h1.25a.9.9,0,0,1,.875.688,1.274,1.274,0,0,0,.905.936,9.176,9.176,0,0,1,2.2.912,1.274,1.274,0,0,0,1.3-.021.9.9,0,0,1,1.106.132l.884.884a.9.9,0,0,1,.132,1.106,1.274,1.274,0,0,0-.021,1.3Z" transform="translate(-125.368 -125.519)"/>
            <path id="Path_981290" data-name="Path 981290" d="M197.3,190.658a6.832,6.832,0,1,0,6.832,6.832A6.839,6.839,0,0,0,197.3,190.658Zm0,12.095a5.263,5.263,0,1,1,5.263-5.263A5.269,5.269,0,0,1,197.3,202.753Z" transform="translate(-170.574 -170.724)"/>
            <path id="Path_981291" data-name="Path 981291" d="M53.7,8.371a2.117,2.117,0,0,0-1.37-1.979,2.114,2.114,0,0,0-2-2.793h-.1A2.114,2.114,0,0,0,48.19.941H40.166c-1.909,0-2.911.775-4.81,1.493A1.642,1.642,0,0,0,34,1.722H32.168a1.643,1.643,0,0,0-1.474.922H13.066a2.111,2.111,0,0,0-2.3-.83A2.114,2.114,0,0,0,6.7,1.37a2.114,2.114,0,0,0-2.793,2v.1A2.114,2.114,0,0,0,1.245,5.511v8.023c0,1.909.775,2.911,1.493,4.81A1.642,1.642,0,0,0,2.025,19.7v1.835a1.643,1.643,0,0,0,.922,1.474v17.7a2.11,2.11,0,0,0-.919,2.356,2.114,2.114,0,0,0-.444,4.071,2.114,2.114,0,0,0,2,2.793h.1A2.114,2.114,0,0,0,5.726,52.59H13.75c1.909,0,2.911-.775,4.81-1.493a1.642,1.642,0,0,0,1.353.713h1.835a1.643,1.643,0,0,0,1.474-.922H40.85a2.111,2.111,0,0,0,2.3.83,2.114,2.114,0,0,0,4.071.444,2.114,2.114,0,0,0,2.793-2v-.1a2.114,2.114,0,0,0,2.658-2.042V40c0-1.909-.775-2.911-1.493-4.81a1.642,1.642,0,0,0,.713-1.353V32a1.643,1.643,0,0,0-.922-1.474V12.82a2.11,2.11,0,0,0,.919-2.356A2.117,2.117,0,0,0,53.7,8.371Zm-6.806,4.772H49.4V30.355H41.792V15.8h3.061a2.114,2.114,0,0,0,2.042-2.658Zm-5.95,20.765a.075.075,0,0,1-.075-.075V32a.075.075,0,0,1,.075-.075h9.3a.075.075,0,0,1,.075.075v1.835a.075.075,0,0,1-.075.075h-9.3Zm-.721-3.384A1.643,1.643,0,0,0,39.3,32v1.835a1.637,1.637,0,0,0,.519,1.2,9.567,9.567,0,0,0-1.982,5.114H23.222a1.643,1.643,0,0,0-1.474-.922H19.913a1.637,1.637,0,0,0-1.2.519c-.064-.043-.128-.088-.19-.134a9.454,9.454,0,0,0-4.835-1.84V23.007a1.643,1.643,0,0,0,.922-1.474V19.7a1.637,1.637,0,0,0-.519-1.2q.065-.1.134-.19a9.455,9.455,0,0,0,1.847-4.924H30.694a1.643,1.643,0,0,0,1.474.922H34a1.637,1.637,0,0,0,1.2-.519c.064.043.128.088.19.134a9.454,9.454,0,0,0,4.835,1.84V30.524Zm.246,18.8H23.391V41.71h14.42v2.972a2.114,2.114,0,0,0,2.658,2.042ZM7.021,40.388H4.516V23.176h7.608V37.729H9.063a2.114,2.114,0,0,0-2.042,2.658Zm5.948-20.765h0a.075.075,0,0,1,.075.075v1.835a.075.075,0,0,1-.075.075h-9.3a.075.075,0,0,1-.075-.075V19.7a.075.075,0,0,1,.075-.075Zm.478-12.817V4.212H30.525V11.82H16.105V8.848a2.114,2.114,0,0,0-2.658-2.042ZM32.093,3.365a.075.075,0,0,1,.075-.075H34a.075.075,0,0,1,.075.075v9.3a.075.075,0,0,1-.075.075H32.168a.075.075,0,0,1-.075-.075ZM2.813,5.511a.545.545,0,1,1,1.09,0c0,.009,0,.017,0,.026V9.863a.784.784,0,1,0,1.568,0V5.5c0-.007,0-.014,0-.021V3.372a.545.545,0,0,1,1.09,0V9.863a.784.784,0,0,0,1.568,0V3.373h0V2.113a.545.545,0,1,1,1.09,0V3.85s0,0,0,0V9.863a.784.784,0,1,0,1.568,0V3.848a.545.545,0,0,1,1.09,0v5c0,.007,0,.015,0,.022v2.918a.784.784,0,0,0,1.568,0V8.845a.545.545,0,0,1,1.09,0v3.835a7.868,7.868,0,0,1-1.562,4.689,6.284,6.284,0,0,0-.445.683H4.318c-.888-2.285-1.505-3.02-1.505-4.52V5.511Zm10.936,45.51H5.726a.545.545,0,1,1,0-1.09h3.7a.784.784,0,0,0,0-1.568H3.587a.545.545,0,0,1,0-1.09H9.422a.784.784,0,1,0,0-1.568H2.328a.545.545,0,0,1,0-1.09H9.422a.784.784,0,0,0,0-1.568H4.065a.545.545,0,0,1,0-1.09h8.791a.784.784,0,1,0,0-1.568H9.063a.545.545,0,1,1,0-1.09H12.9a7.868,7.868,0,0,1,4.689,1.562,6.286,6.286,0,0,0,.682.445v8.212c-2.285.888-3.02,1.5-4.52,1.5Zm8.073-.855a.075.075,0,0,1-.075.075H19.913a.075.075,0,0,1-.075-.075v-9.3a.075.075,0,0,1,.075-.075h1.835a.075.075,0,0,1,.075.075ZM51.1,48.02a.545.545,0,1,1-1.09,0v-3.7a.784.784,0,1,0-1.568,0v5.836a.545.545,0,0,1-1.09,0V44.373a.784.784,0,0,0-1.568,0v7.044a.545.545,0,1,1-1.09,0V44.323a.784.784,0,1,0-1.568,0V49.68a.545.545,0,0,1-1.09,0v-5c0-.006,0-.012,0-.019s0-.012,0-.019V40.889a.784.784,0,1,0-1.568,0v3.756c0,.006,0,.012,0,.019s0,.012,0,.019a.545.545,0,1,1-1.09,0V40.848a7.868,7.868,0,0,1,1.562-4.689,6.291,6.291,0,0,0,.443-.683H49.6C50.486,37.761,51.1,38.5,51.1,40V48.02Zm.485-39.1h-7.75a.784.784,0,1,0,0,1.568h6.014a.545.545,0,0,1,0,1.09H41.912a.784.784,0,1,0,0,1.568h2.944a.545.545,0,0,1,0,1.09H41.018a7.868,7.868,0,0,1-4.689-1.562,6.283,6.283,0,0,0-.683-.445V4.014c2.285-.888,3.02-1.505,4.52-1.505H48.19a.545.545,0,0,1,0,1.09H43.838a.784.784,0,1,0,0,1.568h6.492a.545.545,0,0,1,0,1.09H43.838a.784.784,0,1,0,0,1.568h7.75a.545.545,0,0,1,0,1.09Z" transform="translate(-0.215 0)"/>
          </g>
        </g>
      </g>
    </g>
  </g>
</svg>
