<svg xmlns="http://www.w3.org/2000/svg" xmlns:xlink="http://www.w3.org/1999/xlink" width="108" height="108" viewBox="0 0 108 108">
  <defs>
    <filter id="Fondo" x="0" y="0" width="108" height="108" filterUnits="userSpaceOnUse">
      <feOffset dy="3" input="SourceAlpha"/>
      <feGaussianBlur stdDeviation="3" result="blur"/>
      <feFlood flood-opacity="0.161"/>
      <feComposite operator="in" in2="blur"/>
      <feComposite in="SourceGraphic"/>
    </filter>
  </defs>
  <g id="Group_1144965" data-name="Group 1144965" transform="translate(-431.999 -684.168)">
    <g id="Group_1144584" data-name="Group 1144584">
      <g id="Icono" transform="translate(440.499 -4.832)">
        <g transform="matrix(1, 0, 0, 1, -8.5, 689)" filter="url(#Fondo)">
          <g id="Fondo-2" data-name="Fondo" transform="translate(9 6)" fill="#f1fef9" stroke="#43896d" stroke-width="3">
            <circle cx="45" cy="45" r="45" stroke="none"/>
            <circle cx="45" cy="45" r="43.5" fill="none"/>
          </g>
        </g>
      </g>
      <g id="Group_1144583" data-name="Group 1144583" transform="translate(424.303 685.207)">
        <path id="Path_981091" data-name="Path 981091" d="M53.483,112.719c-2.7,3.6-.795,7.244-3.775,10.783L44.58,129a1.56,1.56,0,0,0-.087,2.029H65.666v-9.54a.642.642,0,0,1,.641-.641,1.949,1.949,0,0,1,1.356.458,2.517,2.517,0,1,0,0-3.89,1.949,1.949,0,0,1-1.356.458.642.642,0,0,1-.641-.641v-10a14.819,14.819,0,0,0-12.183,5.486Z" transform="translate(-6.031 -73.617)" fill="#ffbf31" fill-rule="evenodd"/>
        <path id="Path_981092" data-name="Path 981092" d="M44.815,247.8l-.241.259a1.551,1.551,0,0,0,.3,2.374l3.09,1.966a1.489,1.489,0,0,1,.556.617l.847,1.693,1.277.766-.6.6.357.713a1.493,1.493,0,0,1,.152.889l-.4,3.224a2.738,2.738,0,0,0,3.158,3.052l6.664-1.066a.915.915,0,0,1,1.056.987l.151,3.024a.915.915,0,0,0,.914.87h5.848V247.8h-9.54a.642.642,0,0,1-.641-.641,1.95,1.95,0,0,1,.458-1.356,2.517,2.517,0,1,0-3.89,0,1.95,1.95,0,0,1,.458,1.356.642.642,0,0,1-.641.641Z" transform="translate(-6.025 -192.681)" fill="#e33f65" fill-rule="evenodd"/>
        <path id="Path_981093" data-name="Path 981093" d="M327.731,52.8a30.506,30.506,0,0,0,.663-6.854c-.062-9.761-8.947-14.574-16.473-14.651v10a.642.642,0,0,0,.641.641,1.95,1.95,0,0,0,1.356-.458,2.517,2.517,0,1,1,0,3.89,1.95,1.95,0,0,0-1.356-.458.642.642,0,0,0-.641.641V52.8h7.252a.642.642,0,0,1,.641.641,1.95,1.95,0,0,1-.458,1.356,2.517,2.517,0,1,0,3.89,0,1.949,1.949,0,0,1-.458-1.356.642.642,0,0,1,.641-.641Z" transform="translate(-243.135 -6.378)" fill="#19cfba" fill-rule="evenodd"/>
        <path id="Path_981094" data-name="Path 981094" d="M184.737,315.021h10.356a.912.912,0,0,0,.913-.986,45.034,45.034,0,0,1-.265-5.222c.279-4.993,3.411-7.463,4.806-13.756h-4.29a.642.642,0,0,0-.641.641,1.949,1.949,0,0,0,.458,1.356,2.517,2.517,0,1,1-3.89,0,1.95,1.95,0,0,0,.458-1.356.642.642,0,0,0-.641-.641h-7.264v7.252a.642.642,0,0,1-.641.641,1.95,1.95,0,0,1-1.356-.458,2.517,2.517,0,1,0,0,3.89,1.95,1.95,0,0,1,1.356-.458.642.642,0,0,1,.641.641v8.456Z" transform="translate(-125.102 -239.937)" fill="#60b7fe" fill-rule="evenodd"/>
        <path id="Path_981095" data-name="Path 981095" d="M72.107,61.721a17.432,17.432,0,0,0-2.25,7.071,45.775,45.775,0,0,0,.267,5.326.128.128,0,0,1-.13.142H60.419V66.587A1.426,1.426,0,0,0,59,65.163c-1.78,0-1.723,1.029-2.954,1.029a1.733,1.733,0,1,1,1.1-3.072A2.737,2.737,0,0,0,59,63.756a1.426,1.426,0,0,0,1.424-1.425V55.863h6.336a1.143,1.143,0,0,1-.279.715,3.3,3.3,0,1,0,5.1,0,1.143,1.143,0,0,1-.279-.715h3.15A30.032,30.032,0,0,1,72.107,61.721ZM55.944,74.134a.131.131,0,0,0,.132.125h2.775V66.732a1.138,1.138,0,0,0-.715.278,3.3,3.3,0,1,1,0-5.1,1.146,1.146,0,0,0,.715.279V55.863H52.383a1.426,1.426,0,0,1-1.424-1.425,2.732,2.732,0,0,1,.636-1.854,1.733,1.733,0,1,0-3.072-1.1c0,1.229,1.029,1.176,1.029,2.953a1.427,1.427,0,0,1-1.425,1.425h-9a.712.712,0,0,0-.21.634.747.747,0,0,0,.351.555l3.09,1.966a2.276,2.276,0,0,1,.836.927l.745,1.489,1.081.649a.784.784,0,0,1,.375.576c.05.414-.182.609-.421.847a2.39,2.39,0,0,1,.334,1.545l-.4,3.224a1.954,1.954,0,0,0,2.256,2.181l6.665-1.066A1.7,1.7,0,0,1,55.8,71.158ZM44.251,50.378c3.191-3.725,1.29-7.471,3.828-10.847a13.866,13.866,0,0,1,10.773-5.164v9.2A1.427,1.427,0,0,0,60.276,45c1.779,0,1.724-1.03,2.953-1.03a1.733,1.733,0,1,1-1.1,3.073,2.729,2.729,0,0,0-1.854-.636,1.427,1.427,0,0,0-1.425,1.424V54.3H52.528a1.146,1.146,0,0,1,.278-.715,3.3,3.3,0,1,0-5.1,0,1.153,1.153,0,0,1,.278.715H40.594Zm31.195,3.917h-4.29a1.426,1.426,0,0,0-1.425,1.425c0,1.776,1.03,1.727,1.03,2.952a1.733,1.733,0,1,1-3.073-1.1,2.733,2.733,0,0,0,.636-1.854A1.426,1.426,0,0,0,66.9,54.295H60.419V47.971a1.143,1.143,0,0,1,.716.278,3.3,3.3,0,1,0,0-5.1,1.14,1.14,0,0,1-.715.278V33.574a.783.783,0,0,0-.775-.784,15.618,15.618,0,0,0-12.819,5.8,10.768,10.768,0,0,0-1.913,5.623,8.91,8.91,0,0,1-1.822,5.111L37.976,54.8a2.354,2.354,0,0,0-.126,3.054h0a2.332,2.332,0,0,0,.579.517l3.089,1.966a.715.715,0,0,1,.277.306l.847,1.693c.139.279.433.4.727.579a.788.788,0,0,0-.047.783l.357.713a.71.71,0,0,1,.076.441l-.4,3.224A3.524,3.524,0,0,0,47.414,72l6.665-1.067c.189-.03.147.2.149.252l.151,3.024a1.7,1.7,0,0,0,1.7,1.614H69.993A1.7,1.7,0,0,0,71.687,74a44.481,44.481,0,0,1-.264-5.118,15.98,15.98,0,0,1,2.091-6.468,30,30,0,0,0,2.7-7.163.786.786,0,0,0-.765-.954Zm8.514-8.7H80.3a1.427,1.427,0,0,0-1.426,1.425c0,1.777,1.031,1.728,1.031,2.953a1.733,1.733,0,1,1-3.072-1.1,2.736,2.736,0,0,0,.635-1.854A1.426,1.426,0,0,0,76.039,45.6H69.571V39.276a1.141,1.141,0,0,1,.715.278,3.3,3.3,0,1,0,0-5.1,1.144,1.144,0,0,1-.715.278V25.688c7.327.4,14.849,5.249,14.9,13.846A30.49,30.49,0,0,1,83.96,45.6Zm2.084-6.076a31.3,31.3,0,0,1-.681,7.029.783.783,0,0,1-.765.614H80.44a1.141,1.141,0,0,0,.278.715,3.3,3.3,0,1,1-5.1,0,1.149,1.149,0,0,0,.278-.715H68.788A.784.784,0,0,1,68,46.383V39.131a1.426,1.426,0,0,1,1.425-1.424,2.738,2.738,0,0,1,1.854.636,1.732,1.732,0,1,0,1.1-3.072c-1.227,0-1.176,1.029-2.952,1.029A1.426,1.426,0,0,1,68,34.875v-10a.783.783,0,0,1,.791-.784c8.218.1,17.185,5.4,17.249,15.429Z" fill="#2b3f4f" fill-rule="evenodd"/>
      </g>
    </g>
  </g>
</svg>
