<svg xmlns="http://www.w3.org/2000/svg" xmlns:xlink="http://www.w3.org/1999/xlink" width="108" height="108" viewBox="0 0 108 108">
  <defs>
    <filter id="Fondo" x="0" y="0" width="108" height="108" filterUnits="userSpaceOnUse">
      <feOffset dy="3" input="SourceAlpha"/>
      <feGaussianBlur stdDeviation="3" result="blur"/>
      <feFlood flood-opacity="0.161"/>
      <feComposite operator="in" in2="blur"/>
      <feComposite in="SourceGraphic"/>
    </filter>
  </defs>
  <g id="Group_1144953" data-name="Group 1144953" transform="translate(-1306.999 -6682.668)">
    <g id="Group_1144885" data-name="Group 1144885" transform="translate(0 29.5)">
      <g transform="matrix(1, 0, 0, 1, 1307, 6653.17)" filter="url(#Fondo)">
        <g id="Fondo-2" data-name="Fondo" transform="translate(9 6)" fill="#f1fef9" stroke="#43896d" stroke-width="3">
          <circle cx="45" cy="45" r="45" stroke="none"/>
          <circle cx="45" cy="45" r="43.5" fill="none"/>
        </g>
      </g>
      <g id="Group_1144884" data-name="Group 1144884" transform="translate(1317.413 6665.413)">
        <path id="Path_981499" data-name="Path 981499" d="M42.474,208.2a8.13,8.13,0,0,0-.621-1.462l1.816-1.816-3.278-3.278-1.816,1.816a8.129,8.129,0,0,0-1.462-.621V200H32.2v2.835a8.129,8.129,0,0,0-1.462.621l-1.816-1.816-3.278,3.278,1.816,1.816a8.129,8.129,0,0,0-.621,1.462H24v4.917h2.835a8.129,8.129,0,0,0,.621,1.462l-1.816,1.816,3.278,3.278,1.816-1.816a8.129,8.129,0,0,0,1.462.621v2.835h4.917v-2.835a8.129,8.129,0,0,0,1.462-.621l1.816,1.816,3.278-3.278-1.816-1.816a8.129,8.129,0,0,0,.621-1.462h2.835V208.2Z" transform="translate(-7.18 -165.15)" fill="#3397e8"/>
        <ellipse id="Ellipse_11595" data-name="Ellipse 11595" cx="5.5" cy="6" rx="5.5" ry="6" transform="translate(22.587 39.587)" fill="#e9eef2"/>
        <ellipse id="Ellipse_11596" data-name="Ellipse 11596" cx="2.5" cy="2" rx="2.5" ry="2" transform="translate(24.587 43.587)" fill="#2978b8"/>
        <path id="Path_981500" data-name="Path 981500" d="M168.783,71.535a3.278,3.278,0,0,0,3.278-3.278V24H136V71.535Z" transform="translate(-107.706 -7.181)" fill="#e9eef2"/>
        <path id="Path_981501" data-name="Path 981501" d="M44.948,39.613A6.557,6.557,0,0,0,43.258,36.7L31.426,24.869a2.968,2.968,0,0,0-2.1-.869h0a2.968,2.968,0,0,0-2.1.869l-2.359,2.359a2.968,2.968,0,0,0,0,4.2L36.7,43.258a6.557,6.557,0,0,0,2.911,1.689l7.335,2Z" transform="translate(-7.181 -7.181)" fill="#fbe9d8"/>
        <path id="Path_981502" data-name="Path 981502" d="M27.229,24.869l-2.359,2.359a2.968,2.968,0,0,0-.869,2.1h0a2.968,2.968,0,0,0,.869,2.1l2.409,2.409,6.557-6.557-2.409-2.409a2.968,2.968,0,0,0-2.1-.869h0a2.968,2.968,0,0,0-2.1.869Z" transform="translate(-7.18 -7.181)" fill="#eb423f"/>
        <path id="Path_981503" data-name="Path 981503" d="M104,408h32.783v4.917a3.278,3.278,0,0,0,3.278,3.278H107.278A3.278,3.278,0,0,1,104,412.917Z" transform="translate(-78.985 -351.841)" fill="#dadcde"/>
        <rect id="Rectangle_405180" data-name="Rectangle 405180" width="7" height="14" transform="translate(51.587 22.587)" fill="#dadcde"/>
        <path id="Path_981504" data-name="Path 981504" d="M197.72,201.465l5.151,1.406-1.406-5.151Z" transform="translate(-163.104 -163.104)" fill="#414649"/>
        <path id="Path_981505" data-name="Path 981505" d="M56,62.557l9.423,9.423,0,0,6.557-6.557,0,0L62.557,56Z" transform="translate(-35.902 -35.902)" fill="#3397e8"/>
        <rect id="Rectangle_405181" data-name="Rectangle 405181" width="3.477" height="13.909" transform="translate(21.737 24.196) rotate(-45)" fill="#2978b8"/>
        <circle id="Ellipse_11597" data-name="Ellipse 11597" cx="1.5" cy="1.5" r="1.5" transform="translate(44.587 44.587)" fill="#3397e8"/>
        <rect id="Rectangle_405182" data-name="Rectangle 405182" width="8" height="6" transform="translate(33.587 43.587)" fill="#eb423f"/>
        <rect id="Rectangle_405183" data-name="Rectangle 405183" width="7" height="6" transform="translate(51.587 43.587)" fill="#3dc285"/>
        <rect id="Rectangle_405184" data-name="Rectangle 405184" width="8" height="4" transform="translate(42.587 52.587)" fill="#ffd33a"/>
        <rect id="Rectangle_405185" data-name="Rectangle 405185" width="9.272" height="2.318" transform="translate(18.459 25.015) rotate(-45)" fill="#ffd33a"/>
        <path id="Path_981506" data-name="Path 981506" d="M64.355,16H28.294a.82.82,0,0,0-.82.82v2.939l-2.649-2.649a3.788,3.788,0,0,0-5.356,0l-2.359,2.359a3.788,3.788,0,0,0,0,5.356l9.205,9.206h-1.3a.82.82,0,0,0-.82.82V37.1q-.243.095-.48.2l-1.4-1.4a.82.82,0,0,0-1.159,0l-3.278,3.278a.82.82,0,0,0,0,1.159l1.4,1.4q-.109.237-.2.481H16.82a.82.82,0,0,0-.82.82v4.917a.82.82,0,0,0,.82.82h2.254q.095.243.2.481l-1.4,1.4a.82.82,0,0,0,0,1.159L21.157,55.1a.82.82,0,0,0,1.159,0l1.4-1.4q.237.109.48.2v7.172a4.1,4.1,0,0,0,4.1,4.1H61.076a4.1,4.1,0,0,0,4.1-4.1V16.819A.82.82,0,0,0,64.355,16ZM34.92,29.523l-.89.89-8.266-8.266.89-.89ZM38.6,38.6l-2.405-.656,1.75-1.75Zm-4.227-1.153-1.725-.47a5.747,5.747,0,0,1-1.923-.939l5.312-5.312a5.747,5.747,0,0,1,.939,1.923l.47,1.725ZM19.618,25.015l5.4-5.4.48.48-5.4,5.4Zm4.988-1.709,8.266,8.266-1.3,1.3-8.266-8.266Zm-6.337-2.678,2.359-2.359a2.148,2.148,0,0,1,3.038,0l.19.19-5.4,5.4-.19-.19a2.148,2.148,0,0,1,0-3.038Zm3.878,5.137,8.266,8.266-.89.89-8.266-8.266Zm5.327,21.379a1.639,1.639,0,1,1,0-3.278Zm0-4.917a3.278,3.278,0,1,0,0,6.557v1.639a4.917,4.917,0,1,1,0-9.835Zm-3.528,9.758a.82.82,0,0,0-.972.14l-1.237,1.237-2.119-2.119L20.855,50a.82.82,0,0,0,.14-.972,7.313,7.313,0,0,1-.558-1.314.82.82,0,0,0-.782-.575H17.639V43.865h2.015a.82.82,0,0,0,.782-.575,7.313,7.313,0,0,1,.558-1.314.82.82,0,0,0-.14-.972l-1.237-1.237,2.119-2.119,1.237,1.237a.82.82,0,0,0,.972.14,7.32,7.32,0,0,1,1.314-.558.82.82,0,0,0,.575-.782V35.67h1.639v3.278a6.557,6.557,0,1,0,0,13.113v3.278H25.835V53.324a.82.82,0,0,0-.575-.782,7.32,7.32,0,0,1-1.314-.558Zm4.348,11.551a2.462,2.462,0,0,1-2.459-2.459v-4.1H56.978v4.1a4.077,4.077,0,0,0,.822,2.459ZM45.5,46.324a.82.82,0,1,1,.82.82.82.82,0,0,1-.82-.82ZM49.6,53.7v1.639H43.046V53.7Zm13.933,7.376a2.459,2.459,0,0,1-4.917,0V56.159a.82.82,0,0,0-.82-.82H51.241V52.88a.82.82,0,0,0-.82-.82H47.144V48.642a2.471,2.471,0,0,0,1.5-1.5h1.78V49.6a.82.82,0,0,0,.82.82h8.2a.82.82,0,0,0,.82-.82V43.046a.82.82,0,0,0-.82-.82h-8.2a.82.82,0,0,0-.82.82V45.5h-1.78a2.459,2.459,0,0,0-4.635,0h-1.78V43.046a.82.82,0,0,0-.82-.82h-8.2a.82.82,0,0,0-.82.82V49.6a.82.82,0,0,0,.82.82h8.2a.82.82,0,0,0,.82-.82V47.144h1.78a2.471,2.471,0,0,0,1.5,1.5v3.419H42.226a.82.82,0,0,0-.82.82v2.459H29.113V36.823a7.39,7.39,0,0,0,3.1,1.734l7.335,2a.817.817,0,0,0,.216.029H52.881a.82.82,0,0,0,.82-.82V37.309h5.737a.82.82,0,0,0,.82-.82V21.737a.82.82,0,0,0-.82-.82H52.881a.82.82,0,0,0-.82.82V38.948H40.393L39.5,35.67h8.464a.82.82,0,0,0,0-1.639H39.052l-.447-1.639h9.358a.82.82,0,0,0,0-1.639h-9.98a7.388,7.388,0,0,0-1.16-1.639h2.944a.82.82,0,1,0,0-1.639H36.489a.82.82,0,0,0-.767.533L29.113,21.4V17.639H63.535ZM52.061,48.783V43.865h6.557v4.917ZM40.587,43.865v4.917H34.03V43.865ZM53.7,35.67V22.556h4.917V35.67Z" transform="translate(0 0)"/>
        <path id="Path_981507" data-name="Path 981507" d="M224.82,65.639H228.1a.82.82,0,0,0,0-1.639H224.82a.82.82,0,0,0,0,1.639Z" transform="translate(-186.691 -43.083)"/>
        <path id="Path_981508" data-name="Path 981508" d="M208.82,97.639h11.474a.82.82,0,0,0,0-1.639H208.82a.82.82,0,0,0,0,1.639Z" transform="translate(-172.33 -71.804)"/>
        <path id="Path_981509" data-name="Path 981509" d="M288.82,65.639H292.1a.82.82,0,1,0,0-1.639H288.82a.82.82,0,1,0,0,1.639Z" transform="translate(-244.135 -43.083)"/>
        <path id="Path_981510" data-name="Path 981510" d="M277.737,128H272.82a.82.82,0,1,0,0,1.639h4.917a.82.82,0,0,0,0-1.639Z" transform="translate(-229.774 -100.526)"/>
      </g>
    </g>
  </g>
</svg>
