<svg xmlns="http://www.w3.org/2000/svg" xmlns:xlink="http://www.w3.org/1999/xlink" width="108" height="108" viewBox="0 0 108 108">
  <defs>
    <filter id="Path_904820" x="0" y="0" width="108" height="108" filterUnits="userSpaceOnUse">
      <feOffset dy="3" input="SourceAlpha"/>
      <feGaussianBlur stdDeviation="3" result="blur"/>
      <feFlood flood-opacity="0.161"/>
      <feComposite operator="in" in2="blur"/>
      <feComposite in="SourceGraphic"/>
    </filter>
  </defs>
  <g id="Group_1144963" data-name="Group 1144963" transform="translate(-201 -3087)">
    <g id="Group_1144622" data-name="Group 1144622">
      <g transform="matrix(1, 0, 0, 1, 201, 3087)" filter="url(#Path_904820)">
        <g id="Path_904820-2" data-name="Path 904820" transform="translate(9 6)" fill="#ecf4fa">
          <path d="M 45 88.5 C 39.12687683105469 88.5 33.43022537231445 87.35007476806641 28.06830024719238 85.08217620849609 C 22.88852500915527 82.89131164550781 18.23629951477051 79.75458526611328 14.2408504486084 75.75914764404297 C 10.24541282653809 71.76370239257812 7.108687400817871 67.11147308349609 4.917825222015381 61.93170166015625 C 2.649924993515015 56.56977462768555 1.5 50.87312316894531 1.5 45 C 1.5 39.12687683105469 2.649924993515015 33.43022537231445 4.917825222015381 28.06830024719238 C 7.108687400817871 22.88852500915527 10.24541282653809 18.23629951477051 14.2408504486084 14.2408504486084 C 18.23629951477051 10.24541282653809 22.88852500915527 7.108687400817871 28.06830024719238 4.917825222015381 C 33.43022537231445 2.649924993515015 39.12687683105469 1.5 45 1.5 C 50.87312316894531 1.5 56.56977462768555 2.649924993515015 61.93170166015625 4.917825222015381 C 67.11147308349609 7.108687400817871 71.76370239257812 10.24541282653809 75.75914764404297 14.2408504486084 C 79.75458526611328 18.23629951477051 82.89131164550781 22.88852500915527 85.08217620849609 28.06830024719238 C 87.35007476806641 33.43022537231445 88.5 39.12687683105469 88.5 45 C 88.5 50.87312316894531 87.35007476806641 56.56977462768555 85.08217620849609 61.93170166015625 C 82.89131164550781 67.11147308349609 79.75458526611328 71.76370239257812 75.75914764404297 75.75914764404297 C 71.76370239257812 79.75458526611328 67.11147308349609 82.89131164550781 61.93170166015625 85.08217620849609 C 56.56977462768555 87.35007476806641 50.87312316894531 88.5 45 88.5 Z" stroke="none"/>
          <path d="M 45 3 C 39.32871246337891 3 33.82865524291992 4.110054016113281 28.65262985229492 6.299339294433594 C 23.65165710449219 8.414573669433594 19.15968322753906 11.44334411621094 15.301513671875 15.301513671875 C 11.44334411621094 19.15968322753906 8.414573669433594 23.65165710449219 6.299339294433594 28.65262985229492 C 4.110054016113281 33.82865524291992 3 39.32871246337891 3 45 C 3 50.67128753662109 4.110054016113281 56.17134475708008 6.299339294433594 61.34737396240234 C 8.414573669433594 66.34834289550781 11.44334411621094 70.84031677246094 15.301513671875 74.698486328125 C 19.15968322753906 78.55665588378906 23.65165710449219 81.58542633056641 28.65262985229492 83.70066070556641 C 33.82865524291992 85.88994598388672 39.32871246337891 87 45 87 C 50.67128753662109 87 56.17134475708008 85.88994598388672 61.34737396240234 83.70066070556641 C 66.34834289550781 81.58542633056641 70.84031677246094 78.55665588378906 74.698486328125 74.698486328125 C 78.55665588378906 70.84031677246094 81.58542633056641 66.34834289550781 83.70066070556641 61.34737396240234 C 85.88994598388672 56.17134475708008 87 50.67128753662109 87 45 C 87 39.32871246337891 85.88994598388672 33.82865524291992 83.70066070556641 28.65262985229492 C 81.58542633056641 23.65165710449219 78.55665588378906 19.15968322753906 74.698486328125 15.301513671875 C 70.84031677246094 11.44334411621094 66.34834289550781 8.414573669433594 61.34737396240234 6.299339294433594 C 56.17134475708008 4.110054016113281 50.67128753662109 3 45 3 M 45 0 C 69.85281372070312 0 90 20.14718627929688 90 45 C 90 69.85281372070312 69.85281372070312 90 45 90 C 20.14718627929688 90 0 69.85281372070312 0 45 C 0 20.14718627929688 20.14718627929688 0 45 0 Z" stroke="none" fill="#2a5673"/>
        </g>
      </g>
      <g id="FILLED_OUTLINE" transform="translate(212 3095)">
        <path id="Path_981201" data-name="Path 981201" d="M331.8,220.559l-1.273,1.157a12.825,12.825,0,0,1-17.254,0L312,220.559l1.273-1.157a12.825,12.825,0,0,1,17.254,0Z" transform="translate(-262.701 -177.559)" fill="#31c292"/>
        <circle id="Ellipse_11571" data-name="Ellipse 11571" cx="4.5" cy="4.5" r="4.5" transform="translate(55 38)" fill="#7fddbb"/>
        <path id="Path_981202" data-name="Path 981202" d="M392,248h1.8v1.8H392Z" transform="translate(-333.7 -205.9)" fill="#31c292"/>
        <path id="Path_981203" data-name="Path 981203" d="M24,184.65V173.4a5.4,5.4,0,0,1,5.4-5.4h0a5.4,5.4,0,0,1,5.4,5.4h0a8.691,8.691,0,0,1-2.546,6.146,6.673,6.673,0,0,0-1.954,4.718v.386a3.15,3.15,0,1,1-6.3,0Z" transform="translate(-7.1 -134.9)" fill="#ffd997"/>
        <path id="Path_981204" data-name="Path 981204" d="M49.8,209.9H48a7.37,7.37,0,0,1,2.173-5.246l1.164-1.164a.894.894,0,0,0,.264-.636V202.7a.9.9,0,0,0-1.8,0v.9H48v-.9a2.7,2.7,0,0,1,5.4,0v.154a2.682,2.682,0,0,1-.791,1.909l-1.164,1.164A5.581,5.581,0,0,0,49.8,209.9Z" transform="translate(-28.4 -163.3)" fill="#f4c36e"/>
        <path id="Path_981205" data-name="Path 981205" d="M174.3,24h-1.35a3.15,3.15,0,1,0,0,6.3h-.9a3.15,3.15,0,1,0,0,6.3h-.45a3.6,3.6,0,0,0,0,7.2h2.7a3.6,3.6,0,0,0,3.6-3.6V27.6A3.6,3.6,0,0,0,174.3,24Z" transform="translate(-134.9 -7.1)" fill="#ffc7d3"/>
        <path id="Path_981206" data-name="Path 981206" d="M47.349,49.873,45.773,49A27.244,27.244,0,0,1,58.251,37.451L59,39.089A25.433,25.433,0,0,0,47.349,49.873Z" transform="translate(-26.424 -19.037)" fill="#dfdfdf"/>
        <path id="Path_981207" data-name="Path 981207" d="M49.872,370.588a27.092,27.092,0,0,1-4.1-5.586l1.576-.87a25.292,25.292,0,0,0,3.826,5.214Z" transform="translate(-26.424 -308.968)" fill="#dfdfdf"/>
        <path id="Path_981208" data-name="Path 981208" d="M419.511,302.051l-1.3-1.242a25,25,0,0,0,6.714-13.9l1.783.246a26.786,26.786,0,0,1-7.194,14.9Z" transform="translate(-356.96 -240.43)" fill="#dfdfdf"/>
        <path id="Path_981209" data-name="Path 981209" d="M363.087,57.691a25.176,25.176,0,0,0-14.4-18.6l.746-1.638A26.974,26.974,0,0,1,364.86,57.383Z" transform="translate(-295.26 -19.037)" fill="#dfdfdf"/>
        <path id="Path_981210" data-name="Path 981210" d="M131.8,290.8A1.8,1.8,0,0,1,130,289l1.382-1.382a4.5,4.5,0,0,0,1.318-3.182V280h-9v4.436a4.5,4.5,0,0,0,1.318,3.182L126.4,289a1.8,1.8,0,0,1-1.8,1.8H112v.9a3.6,3.6,0,0,0,3.6,3.6h7.2v9h10.8v-9h7.2a3.6,3.6,0,0,0,3.6-3.6v-.9Z" transform="translate(-85.2 -234.3)" fill="#5791d6"/>
        <path id="Path_981211" data-name="Path 981211" d="M0,0H9A4.5,4.5,0,0,1,4.5,4.5h0A4.5,4.5,0,0,1,0,0H0Z" transform="translate(29.888 49.32) rotate(-23.898)" fill="#5791d6"/>
        <path id="Path_981212" data-name="Path 981212" d="M259.6,24h1.35a3.15,3.15,0,1,1,0,6.3h.9a3.15,3.15,0,1,1,0,6.3h.45a3.6,3.6,0,0,1,0,7.2h-2.7a3.6,3.6,0,0,1-3.6-3.6V27.6A3.6,3.6,0,0,1,259.6,24Z" transform="translate(-213 -7.1)" fill="#ffc7d3"/>
        <path id="Path_981213" data-name="Path 981213" d="M281.915,58.3a.9.9,0,0,1-1.621.163A2.246,2.246,0,0,1,280,57.35V56.9a.9.9,0,0,1,1.8,0v.45a.443.443,0,0,0,.052.211.913.913,0,0,1,.062.737Z" transform="translate(-234.301 -35.5)" fill="#eab0c3"/>
        <path id="Path_981214" data-name="Path 981214" d="M280.394,164.1a2.693,2.693,0,0,1-.333-1.968A2.753,2.753,0,0,1,282.77,160a.831.831,0,0,1,.831.831v.139a.831.831,0,0,1-.831.831h-.03a.932.932,0,0,0-.883.585.9.9,0,0,0,.065.768.854.854,0,0,1,.019.861l-.038.066a.879.879,0,0,1-1.511.021Z" transform="translate(-234.301 -127.8)" fill="#eab0c3"/>
        <path id="Path_981215" data-name="Path 981215" d="M282.708,107.585a.875.875,0,0,0-.312-1.116,1.35,1.35,0,0,1-.6-1.119v-.419a.921.921,0,0,0-.84-.929.9.9,0,0,0-.96.9v.45a3.148,3.148,0,0,0,1.422,2.632.875.875,0,0,0,1.26-.345Z" transform="translate(-234.3 -78.1)" fill="#eab0c3"/>
        <path id="Path_981216" data-name="Path 981216" d="M214.584,58.3a.9.9,0,0,0,1.621.163,2.246,2.246,0,0,0,.294-1.111V56.9a.9.9,0,0,0-1.8,0v.45a.443.443,0,0,1-.052.211.913.913,0,0,0-.062.737Z" transform="translate(-176.199 -35.5)" fill="#eab0c3"/>
        <path id="Path_981217" data-name="Path 981217" d="M203.207,164.1a2.693,2.693,0,0,0,.333-1.968A2.753,2.753,0,0,0,200.831,160a.831.831,0,0,0-.831.831v.139a.831.831,0,0,0,.831.831h.03a.932.932,0,0,1,.883.585.9.9,0,0,1-.065.768.854.854,0,0,0-.019.861l.038.066a.879.879,0,0,0,1.511.021Z" transform="translate(-163.3 -127.8)" fill="#eab0c3"/>
        <path id="Path_981218" data-name="Path 981218" d="M207.241,107.585a.875.875,0,0,1,.312-1.116,1.35,1.35,0,0,0,.6-1.119v-.419a.92.92,0,0,1,.84-.929.9.9,0,0,1,.96.9v.45a3.148,3.148,0,0,1-1.422,2.632.875.875,0,0,1-1.26-.345Z" transform="translate(-169.649 -78.1)" fill="#eab0c3"/>
        <rect id="Rectangle_405178" data-name="Rectangle 405178" width="2" height="13" rx="1" transform="translate(42 21)" fill="#eab0c3"/>
        <path id="Path_981219" data-name="Path 981219" d="M204.606,284.137h0a.9.9,0,0,1-.28-1.1,3.618,3.618,0,0,0,.254-2.289.9.9,0,1,1,1.76-.378,5.425,5.425,0,0,1-.379,3.419.9.9,0,0,1-1.355.351Z" transform="translate(-167.065 -233.992)" fill="#2f76cc"/>
        <g id="Group_1144621" data-name="Group 1144621" transform="translate(16 16)">
          <path id="Path_981220" data-name="Path 981220" d="M314.8,208.066a13.7,13.7,0,0,0-9.232,3.569l-1.273,1.157a.9.9,0,0,0,0,1.332l1.273,1.157a13.725,13.725,0,0,0,18.465,0l1.273-1.157a.9.9,0,0,0,0-1.332l-1.273-1.157A13.7,13.7,0,0,0,314.8,208.066Zm3.6,5.393a3.6,3.6,0,0,1-3.339,3.589l-.261,0q-.131,0-.261,0a3.6,3.6,0,0,1,0-7.179l.261,0q.131,0,.261,0A3.6,3.6,0,0,1,318.4,213.458Zm-12.162,0,.541-.491a11.924,11.924,0,0,1,3.3-2.129,5.378,5.378,0,0,0,0,5.241,11.924,11.924,0,0,1-3.3-2.129Zm16.584.491a11.924,11.924,0,0,1-3.3,2.129,5.378,5.378,0,0,0,0-5.241,11.923,11.923,0,0,1,3.3,2.129l.541.491Z" transform="translate(-271.6 -186.459)" fill="#2c2c51"/>
          <path id="Path_981221" data-name="Path 981221" d="M392,248h1.8v1.8H392Z" transform="translate(-349.7 -221.9)" fill="#2c2c51"/>
          <path id="Path_981222" data-name="Path 981222" d="M22.3,160a6.307,6.307,0,0,0-6.3,6.3v11.25a4.05,4.05,0,0,0,8.1,0v-.386a5.735,5.735,0,0,1,1.691-4.082A9.529,9.529,0,0,0,28.6,166.3,6.307,6.307,0,0,0,22.3,160Zm2.218,11.809a7.523,7.523,0,0,0-2.218,5.355v.386a2.25,2.25,0,0,1-4.5,0V166.3a4.5,4.5,0,1,1,9,0,7.741,7.741,0,0,1-2.282,5.509Z" transform="translate(-16 -143.8)" fill="#2c2c51"/>
          <path id="Path_981223" data-name="Path 981223" d="M50.7,200a2.7,2.7,0,0,0-2.7,2.7v.9h1.8v-.9a.9.9,0,0,1,1.8,0v.154a.894.894,0,0,1-.264.636l-1.164,1.164A7.37,7.37,0,0,0,48,209.9h1.8a5.581,5.581,0,0,1,1.646-3.973l1.164-1.164a2.682,2.682,0,0,0,.791-1.909V202.7a2.7,2.7,0,0,0-2.7-2.7Z" transform="translate(-44.4 -179.3)" fill="#2c2c51"/>
          <path id="Path_981224" data-name="Path 981224" d="M160.9,26.35a4.037,4.037,0,0,0,1.245,2.917A4.5,4.5,0,0,0,164.5,37.6h2.7a4.5,4.5,0,0,0,3.6-1.8,4.5,4.5,0,0,0,3.6,1.8h2.7a4.5,4.5,0,0,0,2.355-8.333,4.044,4.044,0,0,0-.779-6.422A4.048,4.048,0,0,0,175.747,16H174.4a4.5,4.5,0,0,0-3.6,1.8,4.5,4.5,0,0,0-3.6-1.8h-1.35a4.047,4.047,0,0,0-2.926,6.845A4.051,4.051,0,0,0,160.9,26.35Zm13.5-8.55h1.35a2.25,2.25,0,0,1,0,4.5.45.45,0,0,1-.45-.45V20.5h-1.8v1.35a2.253,2.253,0,0,0,2.25,2.25h.9a2.25,2.25,0,0,1,0,4.5,1.351,1.351,0,0,1-1.35-1.35V25.9h-1.8v1.35a3.154,3.154,0,0,0,3.15,3.15h.45a2.7,2.7,0,0,1,0,5.4h-.9a.9.9,0,0,1,0-1.8h.9V32.2h-.9a2.7,2.7,0,0,0-2.584,3.484A2.7,2.7,0,0,1,171.7,33.1V20.5A2.7,2.7,0,0,1,174.4,17.8Zm-9.45,6.3h.9a2.253,2.253,0,0,0,2.25-2.25V20.5h-1.8v1.35a.45.45,0,0,1-.45.45,2.25,2.25,0,1,1,0-4.5h1.35a2.7,2.7,0,0,1,2.7,2.7V33.1a2.7,2.7,0,0,1-1.916,2.584A2.7,2.7,0,0,0,165.4,32.2h-.9V34h.9a.9.9,0,1,1,0,1.8h-.9a2.7,2.7,0,1,1,0-5.4h.45a3.154,3.154,0,0,0,3.15-3.15V25.9h-1.8v1.35a1.352,1.352,0,0,1-1.35,1.35,2.25,2.25,0,1,1,0-4.5Z" transform="translate(-143.797 -16)" fill="#2c2c51"/>
          <path id="Path_981225" data-name="Path 981225" d="M59,39.088l-.746-1.638A27.244,27.244,0,0,0,45.773,49l1.576.87A25.433,25.433,0,0,1,59,39.088Z" transform="translate(-42.424 -35.037)" fill="#2c2c51"/>
          <path id="Path_981226" data-name="Path 981226" d="M45.773,365a27.092,27.092,0,0,0,4.1,5.586l1.3-1.242a25.293,25.293,0,0,1-3.826-5.214Z" transform="translate(-42.424 -324.968)" fill="#2c2c51"/>
          <path id="Path_981227" data-name="Path 981227" d="M418.208,300.809l1.3,1.242a26.787,26.787,0,0,0,7.194-14.9l-1.783-.246a25,25,0,0,1-6.714,13.9Z" transform="translate(-372.96 -256.43)" fill="#2c2c51"/>
          <path id="Path_981228" data-name="Path 981228" d="M363.086,57.692l1.773-.308a26.974,26.974,0,0,0-15.427-19.933l-.746,1.638a25.176,25.176,0,0,1,14.4,18.6Z" transform="translate(-311.26 -35.038)" fill="#2c2c51"/>
          <path id="Path_981229" data-name="Path 981229" d="M137.3,282.8H124.7a.9.9,0,0,1-.843-.584l1.061-1.061a5.365,5.365,0,0,0,1.582-3.818V272.9a.9.9,0,0,0-.9-.9h-9a32.175,32.175,0,0,1-.75.077l-8.23,3.642a.9.9,0,0,0-.459,1.187,5.405,5.405,0,0,0,8.69,1.7,5.365,5.365,0,0,0,1.431,2.547l1.061,1.061a.9.9,0,0,1-.843.584H104.9a.9.9,0,0,0-.9.9v.9a4.505,4.505,0,0,0,4.5,4.5h6.3v8.1h1.8v-9a.9.9,0,0,0-.9-.9h-7.2a2.7,2.7,0,0,1-2.7-2.7h11.7a2.7,2.7,0,0,0,2.7-2.7.9.9,0,0,0-.264-.636l-1.382-1.382a3.576,3.576,0,0,1-1.054-2.546V273.8h7.2v3.536a3.576,3.576,0,0,1-1.054,2.546l-1.382,1.382a.9.9,0,0,0-.264.636,2.7,2.7,0,0,0,2.7,2.7h11.7a2.7,2.7,0,0,1-2.7,2.7h-7.2a.9.9,0,0,0-.9.9v9h1.8v-8.1h6.3a4.505,4.505,0,0,0,4.5-4.5v-.9a.9.9,0,0,0-.9-.9Zm-21.843-6.781a3.6,3.6,0,0,1-6.183.936l6.378-2.822a3.578,3.578,0,0,1-.2,1.886Z" transform="translate(-94.1 -243.2)" fill="#2c2c51"/>
        </g>
      </g>
    </g>
  </g>
</svg>
