<svg xmlns="http://www.w3.org/2000/svg" xmlns:xlink="http://www.w3.org/1999/xlink" width="108" height="108" viewBox="0 0 108 108">
  <defs>
    <filter id="Fondo" x="0" y="0" width="108" height="108" filterUnits="userSpaceOnUse">
      <feOffset dy="3" input="SourceAlpha"/>
      <feGaussianBlur stdDeviation="3" result="blur"/>
      <feFlood flood-opacity="0.161"/>
      <feComposite operator="in" in2="blur"/>
      <feComposite in="SourceGraphic"/>
    </filter>
  </defs>
  <g id="Group_1144960" data-name="Group 1144960" transform="translate(-326.832 -931.67)">
    <g transform="matrix(1, 0, 0, 1, 326.83, 931.67)" filter="url(#Fondo)">
      <g id="Fondo-2" data-name="Fondo" transform="translate(9 6)" fill="#f1fef9" stroke="#43896d" stroke-width="3">
        <circle cx="45" cy="45" r="45" stroke="none"/>
        <circle cx="45" cy="45" r="43.5" fill="none"/>
      </g>
    </g>
    <g id="Group_1144629" data-name="Group 1144629" transform="translate(346.282 948.858)">
      <g id="Group_1144628" data-name="Group 1144628" transform="translate(2.024 1.941)">
        <g id="Group_1144623" data-name="Group 1144623" transform="translate(50.613 23.431)">
          <path id="Path_981230" data-name="Path 981230" d="M403.459,263.94a6.4,6.4,0,0,1,12.77,0,.445.445,0,0,1-.445.48H403.9A.445.445,0,0,1,403.459,263.94Z" transform="translate(-403.458 -249.412)" fill="#ffda2d" fill-rule="evenodd"/>
          <path id="Path_981231" data-name="Path 981231" d="M448.842,258.042c.186-.016.373-.025.563-.025a6.424,6.424,0,0,1,6.385,5.923.445.445,0,0,1-.445.48h-1.126a.445.445,0,0,0,.445-.48A6.428,6.428,0,0,0,448.842,258.042Z" transform="translate(-443.019 -249.412)" fill="#ffc700" fill-rule="evenodd"/>
          <circle id="Ellipse_11572" data-name="Ellipse 11572" cx="3.461" cy="3.461" r="3.461" transform="translate(1.484 4.893) rotate(-45)" fill="#ffd6bd"/>
          <path id="Path_981232" data-name="Path 981232" d="M450.005,202.094a3.49,3.49,0,0,0-.474.033,3.461,3.461,0,0,1,0,6.856,3.461,3.461,0,1,0,.474-6.889Z" transform="translate(-443.619 -200.664)" fill="#f9c6aa" fill-rule="evenodd"/>
        </g>
        <g id="Group_1144624" data-name="Group 1144624" transform="translate(0 24.767)">
          <path id="Path_981233" data-name="Path 981233" d="M9,263.94a6.4,6.4,0,0,1,12.77,0,.445.445,0,0,1-.445.48H9.447A.445.445,0,0,1,9,263.94Z" transform="translate(-9 -250.748)" fill="#64b5f6" fill-rule="evenodd"/>
          <path id="Path_981234" data-name="Path 981234" d="M54.384,258.042c.186-.016.373-.025.563-.025a6.424,6.424,0,0,1,6.385,5.923.445.445,0,0,1-.445.48H59.76a.445.445,0,0,0,.445-.48A6.428,6.428,0,0,0,54.384,258.042Z" transform="translate(-48.561 -250.748)" fill="#42a5f5" fill-rule="evenodd"/>
          <ellipse id="Ellipse_11573" data-name="Ellipse 11573" cx="3.461" cy="3.46" rx="3.461" ry="3.46" transform="translate(2.855 0.132) rotate(-1.088)" fill="#ffd6bd"/>
          <path id="Path_981235" data-name="Path 981235" d="M55.547,201.823a3.506,3.506,0,0,0-.474.032,3.461,3.461,0,0,1,0,6.856,3.461,3.461,0,1,0,.474-6.888Z" transform="translate(-49.161 -201.764)" fill="#f9c6aa" fill-rule="evenodd"/>
        </g>
        <g id="Group_1144625" data-name="Group 1144625" transform="translate(25.307 0)">
          <path id="Path_981236" data-name="Path 981236" d="M206.23,71.747a6.4,6.4,0,0,1,12.77,0,.445.445,0,0,1-.445.48H206.676A.445.445,0,0,1,206.23,71.747Z" transform="translate(-206.229 -58.448)" fill="#72d561" fill-rule="evenodd"/>
          <path id="Path_981237" data-name="Path 981237" d="M251.613,65.848c.186-.016.373-.025.563-.025a6.424,6.424,0,0,1,6.385,5.923.445.445,0,0,1-.446.48H256.99a.445.445,0,0,0,.445-.48A6.428,6.428,0,0,0,251.613,65.848Z" transform="translate(-245.79 -58.448)" fill="#3cbe52" fill-rule="evenodd"/>
          <ellipse id="Ellipse_11574" data-name="Ellipse 11574" cx="3.461" cy="3.46" rx="3.461" ry="3.46" transform="matrix(1, -0.022, 0.022, 1, 2.859, 0.152)" fill="#ffd6bd"/>
          <path id="Path_981238" data-name="Path 981238" d="M252.777,9a3.508,3.508,0,0,0-.475.032,3.461,3.461,0,0,1,0,6.856A3.461,3.461,0,1,0,252.777,9Z" transform="translate(-246.39 -8.914)" fill="#f9c6aa" fill-rule="evenodd"/>
        </g>
        <g id="Group_1144626" data-name="Group 1144626" transform="translate(25.307 48.515)">
          <path id="Path_981239" data-name="Path 981239" d="M206.23,459.022a6.4,6.4,0,0,1,12.77,0,.445.445,0,0,1-.445.48H206.676A.445.445,0,0,1,206.23,459.022Z" transform="translate(-206.229 -444.547)" fill="#fc685b" fill-rule="evenodd"/>
          <path id="Path_981240" data-name="Path 981240" d="M251.613,453.124c.186-.016.373-.025.563-.025a6.424,6.424,0,0,1,6.385,5.923.445.445,0,0,1-.446.48H256.99a.445.445,0,0,0,.445-.48A6.428,6.428,0,0,0,251.613,453.124Z" transform="translate(-245.79 -444.547)" fill="#f35244" fill-rule="evenodd"/>
          <circle id="Ellipse_11575" data-name="Ellipse 11575" cx="3.461" cy="3.461" r="3.461" transform="translate(1.484 4.893) rotate(-45)" fill="#ffd6bd"/>
          <path id="Path_981241" data-name="Path 981241" d="M252.777,397.632a3.512,3.512,0,0,0-.475.032,3.461,3.461,0,0,1,0,6.856,3.461,3.461,0,1,0,.475-6.888Z" transform="translate(-246.39 -396.197)" fill="#f9c6aa" fill-rule="evenodd"/>
        </g>
        <g id="Group_1144627" data-name="Group 1144627" transform="translate(16.914 20.813)">
          <path id="Path_981242" data-name="Path 981242" d="M155.237,192.375q-5.712-3.323-14.417-.761V171.661q8.983-2.644,14.779.979,5.8-3.624,14.779-.979v19.952q-8.705-2.563-14.417.761A.7.7,0,0,1,155.237,192.375Z" transform="translate(-140.82 -170.546)" fill="#ff94d5" fill-rule="evenodd"/>
          <path id="Path_981243" data-name="Path 981243" d="M155.237,317.432q-5.712-3.323-14.417-.761v-1.544q8.705-2.563,14.417.761a.7.7,0,0,0,.724,0q5.712-3.323,14.417-.761v1.544q-8.705-2.563-14.417.761A.7.7,0,0,1,155.237,317.432Z" transform="translate(-140.82 -295.603)" fill="#ff72c7" fill-rule="evenodd"/>
          <path id="Path_981244" data-name="Path 981244" d="M256,172.642q5.8-3.624,14.779-.979v19.952q-8.705-2.563-14.417.761a.716.716,0,0,1-.362.1Z" transform="translate(-241.221 -170.547)" fill="#ff72c7" fill-rule="evenodd"/>
          <path id="Path_981245" data-name="Path 981245" d="M270.779,315.128v1.544q-8.705-2.563-14.417.761a.717.717,0,0,1-.362.1v-1.544a.717.717,0,0,0,.362-.1Q262.074,312.565,270.779,315.128Z" transform="translate(-241.221 -295.604)" fill="#ff4fb9" fill-rule="evenodd"/>
        </g>
      </g>
      <path id="Path_981246" data-name="Path 981246" d="M45.67,32.184a19.472,19.472,0,0,0-9.241.341,1.027,1.027,0,0,0,.6,1.963A17.449,17.449,0,0,1,45.3,34.2a1.026,1.026,0,1,0,.369-2.019Zm-8.941-3.552a1.047,1.047,0,0,0,.333-.055,15.682,15.682,0,0,1,8.227-.333,1.026,1.026,0,0,0,.392-2.015,17.661,17.661,0,0,0-9.284.405,1.026,1.026,0,0,0,.332,2Zm0,2.951a1.027,1.027,0,0,1-.315-2,18.665,18.665,0,0,1,9.262-.373,1.026,1.026,0,1,1-.381,2.017,16.416,16.416,0,0,0-8.249.31A1.046,1.046,0,0,1,36.729,31.584Zm8.928,6.555a21.378,21.378,0,0,0-9.2.277,1.027,1.027,0,0,0,.268,2.017A1.047,1.047,0,0,0,37,40.4a19.321,19.321,0,0,1,8.314-.234,1.027,1.027,0,1,0,.344-2.025Zm.007-2.978a20.417,20.417,0,0,0-9.219.309,1.027,1.027,0,0,0,.284,2.013,1.061,1.061,0,0,0,.285-.04,18.364,18.364,0,0,1,8.293-.261,1.027,1.027,0,1,0,.357-2.022ZM22.128,37.183a18.362,18.362,0,0,1,8.293.261,1.06,1.06,0,0,0,.285.04,1.027,1.027,0,0,0,.285-2.013,20.42,20.42,0,0,0-9.22-.309,1.027,1.027,0,0,0,.357,2.022ZM30.437,40.4a1.027,1.027,0,0,0,.539-1.981,21.378,21.378,0,0,0-9.2-.277,1.027,1.027,0,0,0,.344,2.025,19.321,19.321,0,0,1,8.315.234Zm-8.29-12.154a15.683,15.683,0,0,1,8.227.333,1.044,1.044,0,0,0,.332.055,1.026,1.026,0,0,0,.332-2,17.661,17.661,0,0,0-9.284-.405,1.026,1.026,0,0,0,.393,2.015Zm-.012,5.96a17.451,17.451,0,0,1,8.271.285,1.015,1.015,0,0,0,.3.045,1.026,1.026,0,0,0,.3-2.008,19.47,19.47,0,0,0-9.241-.341,1.027,1.027,0,0,0,.37,2.019Zm.006-2.98a1.027,1.027,0,0,1-.382-2.017,18.673,18.673,0,0,1,9.263.373,1.027,1.027,0,0,1-.316,2,1.051,1.051,0,0,1-.316-.05A16.413,16.413,0,0,0,22.141,31.223ZM19.965,42.479V24.647c5.092-1.365,9.366-1.1,12.726.788V43.085a15.9,15.9,0,0,0-6.748-1.4A24.719,24.719,0,0,0,19.965,42.479ZM34.744,25.435c3.36-1.887,7.635-2.153,12.726-.788V42.479c-4.925-1.23-9.194-1.028-12.726.6Zm-16.1-2.55c5.982-1.76,11.047-1.5,15.069.77,4.021-2.271,9.087-2.53,15.069-.77a1.025,1.025,0,0,1,.737.984V43.822a1.026,1.026,0,0,1-1.316.985c-5.494-1.618-10.074-1.394-13.612.663a1.723,1.723,0,0,1-1.755,0c-3.537-2.058-8.117-2.282-13.612-.663a1.027,1.027,0,0,1-1.316-.985V23.87a1.025,1.025,0,0,1,.737-.984ZM39,64.385a5.376,5.376,0,0,0-10.555,0Zm-5.278-6.4a2.434,2.434,0,1,0-2.434-2.434A2.437,2.437,0,0,0,33.717,57.983Zm7.408,6.872a1.472,1.472,0,0,1-1.469,1.583H27.777a1.472,1.472,0,0,1-1.469-1.583,7.46,7.46,0,0,1,4.227-6.147,4.487,4.487,0,1,1,6.364,0,7.459,7.459,0,0,1,4.227,6.147Zm-27.438-25.5a5.376,5.376,0,0,0-10.555,0Zm-5.278-6.4a2.434,2.434,0,1,0-2.434-2.434A2.437,2.437,0,0,0,8.41,32.951Zm5.94,8.456H2.471A1.473,1.473,0,0,1,1,39.824a7.464,7.464,0,0,1,4.226-6.147,4.487,4.487,0,1,1,6.365,0,7.456,7.456,0,0,1,4.226,6.147,1.474,1.474,0,0,1-1.469,1.584ZM64.3,39.354a5.377,5.377,0,0,0-10.555,0Zm-5.278-6.4a2.434,2.434,0,1,0-2.434-2.434A2.437,2.437,0,0,0,59.024,32.951Zm7.02,7.985a1.476,1.476,0,0,1-1.081.471H53.085a1.473,1.473,0,0,1-1.469-1.584,7.456,7.456,0,0,1,4.227-6.147,4.487,4.487,0,1,1,6.364,0,7.458,7.458,0,0,1,4.226,6.147,1.477,1.477,0,0,1-.389,1.112ZM28.44,14.323H39a5.376,5.376,0,0,0-10.555,0Zm5.277-6.4a2.434,2.434,0,1,0-2.434-2.434A2.437,2.437,0,0,0,33.717,7.92ZM26.7,15.906a1.478,1.478,0,0,1-.389-1.113,7.459,7.459,0,0,1,4.227-6.147,4.487,4.487,0,1,1,6.364,0,7.459,7.459,0,0,1,4.227,6.147,1.472,1.472,0,0,1-1.469,1.584H27.778a1.48,1.48,0,0,1-1.08-.471Zm.2,42.426a1.026,1.026,0,0,0-.664-1.291,24.615,24.615,0,0,1-14.606-12.75,1.027,1.027,0,0,0-1.852.888A26.672,26.672,0,0,0,25.6,59a1.038,1.038,0,0,0,.314.05A1.027,1.027,0,0,0,26.894,58.332ZM57.18,43.809a1.026,1.026,0,0,0-1.369.481A24.606,24.606,0,0,1,41.2,57.039a1.027,1.027,0,0,0,.628,1.956A26.674,26.674,0,0,0,57.663,45.178a1.025,1.025,0,0,0-.482-1.369ZM10.128,23.93a1.025,1.025,0,0,0,1.363-.5,24.412,24.412,0,0,1,13.3-12.521A1.027,1.027,0,0,0,24.044,9,26.641,26.641,0,0,0,9.628,22.566a1.027,1.027,0,0,0,.5,1.364ZM42.06,9.579a1.027,1.027,0,0,0,.581,1.33,24.411,24.411,0,0,1,13.3,12.521,1.027,1.027,0,0,0,1.863-.864A26.642,26.642,0,0,0,43.391,9a1.027,1.027,0,0,0-1.331.582Z" transform="translate(0)" fill-rule="evenodd"/>
    </g>
  </g>
</svg>
