<svg xmlns="http://www.w3.org/2000/svg" xmlns:xlink="http://www.w3.org/1999/xlink" width="108" height="108" viewBox="0 0 108 108">
  <defs>
    <filter id="Fondo" x="0" y="0" width="108" height="108" filterUnits="userSpaceOnUse">
      <feOffset dy="3" input="SourceAlpha"/>
      <feGaussianBlur stdDeviation="3" result="blur"/>
      <feFlood flood-opacity="0.161"/>
      <feComposite operator="in" in2="blur"/>
      <feComposite in="SourceGraphic"/>
    </filter>
  </defs>
  <g id="Group_1144935" data-name="Group 1144935" transform="translate(-431.999 -1894.17)">
    <g id="Group_1144929" data-name="Group 1144929">
      <g id="Group_1144688" data-name="Group 1144688" transform="translate(0 29.5)">
        <g id="Icono" transform="translate(440.499 1175.67)">
          <g transform="matrix(1, 0, 0, 1, -8.5, 689)" filter="url(#Fondo)">
            <g id="Fondo-2" data-name="Fondo" transform="translate(9 6)" fill="#f1fef9" stroke="#43896d" stroke-width="3">
              <circle cx="45" cy="45" r="45" stroke="none"/>
              <circle cx="45" cy="45" r="43.5" fill="none"/>
            </g>
          </g>
        </g>
        <g id="Group_1144687" data-name="Group 1144687" transform="translate(446.92 1879.645)">
          <g id="Group_1144684" data-name="Group 1144684" transform="translate(17.9 15.995)">
            <circle id="Ellipse_11579" data-name="Ellipse 11579" cx="22.709" cy="22.709" r="22.709" transform="translate(3.993 4.105)" fill="#fae6e6"/>
            <circle id="Ellipse_11580" data-name="Ellipse 11580" cx="16.416" cy="16.416" r="16.416" transform="translate(0 23.212) rotate(-45)" fill="#fff0f0"/>
            <path id="Path_981329" data-name="Path 981329" d="M99.07,78.263a.221.221,0,0,1,0-.442l.891.016a.221.221,0,0,1-.014.442Zm-1.226-.412a.222.222,0,1,1,0,.443l-.854.059a.221.221,0,0,1-.039-.441Zm-3.1.356a.221.221,0,0,1,.08.435l-.859.172a.222.222,0,1,1-.065-.439l.844-.168Zm-3.031.753a.221.221,0,0,1,.137.421l-.83.282a.222.222,0,1,1-.131-.423l.824-.279ZM88.8,80.1a.221.221,0,0,1,.19.4l-.787.387a.221.221,0,0,1-.2-.392Zm-2.735,1.506a.221.221,0,0,1,.239.372l-.73.485a.221.221,0,0,1-.252-.364l.744-.494Zm-2.52,1.846a.221.221,0,1,1,.286.338l-.662.575a.221.221,0,0,1-.3-.327l.674-.585ZM81.287,85.6a.221.221,0,0,1,.326.3l-.583.655a.221.221,0,0,1-.336-.288Zm-1.968,2.425a.221.221,0,1,1,.362.254l-.494.724a.221.221,0,0,1-.371-.241l.5-.737Zm-1.64,2.657a.221.221,0,0,1,.391.206l-.4.782a.221.221,0,0,1-.4-.192l.4-.8ZM76.4,93.533a.221.221,0,0,1,.414.155l-.292.826a.221.221,0,0,1-.42-.139l.3-.842Zm-.9,2.989a.221.221,0,0,1,.431.1l-.183.857a.221.221,0,0,1-.434-.083l.186-.873ZM74.984,99.6a.221.221,0,0,1,.44.042l-.071.873a.222.222,0,1,1-.44-.046l.071-.869Zm-.11,3.12a.221.221,0,0,1,.442-.014l.041.875a.222.222,0,1,1-.444,0Zm.288,3.109a.222.222,0,1,1,.442-.039l.148.833a.221.221,0,0,1-.434.086l-.156-.879Zm.686,3.047a.221.221,0,0,1,.424-.126l.263.836a.221.221,0,0,1-.419.142l-.268-.852Zm1.075,2.932a.221.221,0,0,1,.4-.18l.369.795a.221.221,0,0,1-.4.194l-.376-.809Zm1.445,2.768a.221.221,0,0,1,.378-.23l.468.74a.221.221,0,1,1-.378.23Zm1.791,2.559a.221.221,0,1,1,.344-.277l.56.674a.221.221,0,0,1-.334.29l-.57-.687Zm2.1,2.308a.221.221,0,0,1,.31-.315l.638.593a.221.221,0,1,1-.308.318Zm2.382,2.02a.221.221,0,1,1,.263-.356l.713.51a.221.221,0,1,1-.25.365l-.726-.519Zm2.62,1.7a.221.221,0,1,1,.228-.379l.76.407a.221.221,0,0,1-.2.394Zm2.819,1.346a.221.221,0,0,1,.162-.411l.82.311a.222.222,0,1,1-.178.406l-.8-.305Zm2.969.969a.221.221,0,0,1,.108-.429l.853.2a.222.222,0,1,1-.115.428l-.846-.2Zm3.068.576a.222.222,0,1,1,.073-.437l.852.087a.221.221,0,0,1-.036.441Zm3.119.177a.221.221,0,0,1-.006-.442l.877-.022a.221.221,0,0,1,.02.442l-.891.022Zm3.114-.22a.221.221,0,0,1-.061-.438l.866-.134a.222.222,0,1,1,.048.441l-.853.131Zm3.061-.619a.221.221,0,0,1-.118-.426l.842-.245a.221.221,0,0,1,.131.422l-.855.249Zm2.955-1.011a.221.221,0,1,1-.172-.407l.8-.352a.222.222,0,1,1,.167.41Zm2.8-1.385a.221.221,0,0,1-.223-.382l.751-.453a.221.221,0,0,1,.236.374l-.764.461Zm2.6-1.733a.222.222,0,1,1-.248-.367l.665-.529a.221.221,0,1,1,.282.341l-.7.555Zm2.354-2.053a.221.221,0,0,1-.313-.313l.611-.629a.221.221,0,0,1,.324.3l-.622.64Zm2.071-2.336a.222.222,0,1,1-.335-.29l.511-.683a.221.221,0,0,1,.359.258Zm1.755-2.584a.221.221,0,0,1-.382-.223l.431-.763a.221.221,0,0,1,.39.209Zm1.407-2.787a.221.221,0,1,1-.407-.172l.328-.813a.221.221,0,0,1,.413.157l-.334.828Zm1.034-2.947a.221.221,0,0,1-.426-.118l.22-.848a.221.221,0,0,1,.43.1l-.224.864Zm.644-3.056a.221.221,0,0,1-.438-.061l.109-.869a.221.221,0,0,1,.44.045l-.111.886Zm.245-3.112a.221.221,0,0,1-.442-.006l0-.876a.221.221,0,0,1,.442-.011Zm-.152-3.118a.222.222,0,1,1-.442.027l-.112-.845a.221.221,0,0,1,.437-.067ZM122.57,96.2a.221.221,0,0,1-.429.108l-.226-.847a.221.221,0,0,1,.425-.123l.23.863Zm-.945-2.976a.221.221,0,0,1-.411.162l-.334-.81a.221.221,0,0,1,.405-.177l.34.825ZM120.3,90.392a.221.221,0,0,1-.387.214l-.436-.76a.221.221,0,0,1,.379-.227l.444.774Zm-1.677-2.635a.221.221,0,0,1-.356.263l-.53-.7a.221.221,0,0,1,.346-.275l.54.711Zm-2-2.4a.221.221,0,0,1-.32.305l-.615-.625a.221.221,0,0,1,.309-.316Zm-2.292-2.122a.221.221,0,0,1-.277.345l-.69-.541a.221.221,0,0,1,.265-.354l.7.55Zm-2.544-1.81a.221.221,0,0,1-.232.377l-.754-.447a.221.221,0,0,1,.218-.385Zm-2.756-1.468a.221.221,0,0,1-.184.4l-.8-.345a.221.221,0,1,1,.173-.407Zm-2.924-1.1a.221.221,0,0,1-.126.424l-.843-.239a.221.221,0,1,1,.124-.425l.845.24Zm-3.04-.711a.221.221,0,1,1-.086.434l-.854-.126a.221.221,0,0,1,.056-.439l.884.13Z" transform="translate(-72.369 -75.214)" fill="#e0e0e0" fill-rule="evenodd"/>
          </g>
          <g id="Group_1144686" data-name="Group 1144686" transform="translate(13.353 10.936)">
            <g id="Group_1144685" data-name="Group 1144685" transform="translate(2.198 6.203)">
              <path id="Path_981330" data-name="Path 981330" d="M41.242,331.606a.68.68,0,0,1-.659-.514,3.461,3.461,0,0,0-6.712,0,.68.68,0,0,1-1.319-.333,4.822,4.822,0,0,1,9.35,0,.681.681,0,0,1-.66.847Z" transform="translate(-32.531 -297.079)" fill="#ec2e18"/>
              <path id="Path_981331" data-name="Path 981331" d="M281.056,83.342a.681.681,0,0,1-.66-.847,4.8,4.8,0,0,1,9.3,0,.68.68,0,1,1-1.319.331,3.438,3.438,0,0,0-6.666,0,.68.68,0,0,1-.659.514Z" transform="translate(-251.966 -77.289)" fill="#ec2e18"/>
              <path id="Path_981332" data-name="Path 981332" d="M289.826,331.347a.68.68,0,0,1-.659-.515,3.4,3.4,0,0,0-6.589,0,.68.68,0,1,1-1.319-.332,4.758,4.758,0,0,1,9.228,0,.681.681,0,0,1-.66.846Z" transform="translate(-252.73 -296.893)" fill="#ec2e18"/>
              <path id="Path_981333" data-name="Path 981333" d="M33.927,83.342a.681.681,0,0,1-.66-.847,4.8,4.8,0,0,1,9.3,0,.68.68,0,1,1-1.319.331,3.438,3.438,0,0,0-6.666,0,.681.681,0,0,1-.659.514Z" transform="translate(-33.164 -77.289)" fill="#ec2e18"/>
              <path id="Path_981334" data-name="Path 981334" d="M165.34,207.524a.68.68,0,0,1-.659-.515,3.461,3.461,0,0,0-6.71,0,.68.68,0,1,1-1.319-.331,4.821,4.821,0,0,1,9.348,0,.681.681,0,0,1-.66.846Z" transform="translate(-142.406 -187.222)" fill="#ec2e18"/>
              <path id="Path_981335" data-name="Path 981335" d="M0,0H1.36V5.709H0Z" transform="translate(21.307 29.785) rotate(-89.771)" fill="#ec2e18"/>
              <path id="Path_981336" data-name="Path 981336" d="M67.565,215.767h1.36v5.615h-1.36Z" transform="translate(-63.549 -198.492)" fill="#ec2e18"/>
              <path id="Path_981337" data-name="Path 981337" d="M0,0H1.36V5.588H0Z" transform="translate(10.927 1.36) rotate(-89.771)" fill="#ec2e18"/>
              <path id="Path_981338" data-name="Path 981338" d="M315.746,124.679h1.36v5.649h-1.36Z" transform="translate(-283.283 -117.845)" fill="#ec2e18"/>
              <path id="Path_981339" data-name="Path 981339" d="M108.6,126.133l-.962-.962,5.448-5.448.962.962Zm14.222-14.225-.962-.962,5.359-5.359.962.962Z" transform="translate(-99.032 -100.941)" fill="#ec2e18"/>
            </g>
            <path id="Path_981340" data-name="Path 981340" d="M20.247,272.6a6.888,6.888,0,1,1,4.875-2.016h0A6.873,6.873,0,0,1,20.247,272.6Zm0-12.425A5.536,5.536,0,1,0,24.16,261.8a5.5,5.5,0,0,0-3.913-1.622Z" transform="translate(-13.353 -230.401)" fill="#56060d"/>
            <path id="Path_981341" data-name="Path 981341" d="M50.38,292.746a2.993,2.993,0,1,1,2.993-2.993A3,3,0,0,1,50.38,292.746Zm0-4.626a1.633,1.633,0,1,0,1.633,1.633A1.635,1.635,0,0,0,50.38,288.12Z" transform="translate(-43.486 -255.144)" fill="#ec2e18"/>
            <path id="Path_981342" data-name="Path 981342" d="M268.171,24.681a6.853,6.853,0,1,1,4.851-2.006h0A6.84,6.84,0,0,1,268.171,24.681Zm0-12.353a5.494,5.494,0,1,0,3.889,1.608,5.482,5.482,0,0,0-3.889-1.608Z" transform="translate(-232.89 -10.965)" fill="#56060d"/>
            <path id="Path_981343" data-name="Path 981343" d="M298.127,44.688a2.981,2.981,0,1,1,2.981-2.981A2.985,2.985,0,0,1,298.127,44.688Zm0-4.6a1.621,1.621,0,1,0,1.621,1.621A1.623,1.623,0,0,0,298.127,40.086Z" transform="translate(-262.846 -35.541)" fill="#ec2e18"/>
            <path id="Path_981344" data-name="Path 981344" d="M297.908,174.177a3.076,3.076,0,1,1,3.075-3.075A3.08,3.08,0,0,1,297.908,174.177Zm0-4.792a1.716,1.716,0,1,0,1.715,1.717A1.719,1.719,0,0,0,297.908,169.385Z" transform="translate(-262.567 -150.019)" fill="#56060d"/>
            <path id="Path_981345" data-name="Path 981345" d="M49.728,174.177A3.076,3.076,0,1,1,52.8,171.1,3.08,3.08,0,0,1,49.728,174.177Zm0-4.792a1.716,1.716,0,1,0,1.715,1.717A1.719,1.719,0,0,0,49.728,169.385Z" transform="translate(-42.834 -150.019)" fill="#56060d"/>
            <path id="Path_981346" data-name="Path 981346" d="M127.5,125.75l-5.53-5.528.962-.962,5.53,5.528Zm-14.29-14.29-5.419-5.417.962-.962,5.419,5.417Z" transform="translate(-96.964 -94.29)" fill="#ec2e18"/>
            <path id="Path_981347" data-name="Path 981347" d="M269.159,273.231a6.8,6.8,0,1,1,4.808-1.992A6.755,6.755,0,0,1,269.159,273.231Zm0-12.239a5.439,5.439,0,1,0,3.846,9.285h0a5.439,5.439,0,0,0-3.846-9.285Z" transform="translate(-233.818 -231.126)" fill="#56060d"/>
            <path id="Path_981348" data-name="Path 981348" d="M298.82,293.075a2.958,2.958,0,1,1,2.957-2.957A2.962,2.962,0,0,1,298.82,293.075Zm0-4.556a1.6,1.6,0,1,0,1.6,1.6A1.6,1.6,0,0,0,298.82,288.519Z" transform="translate(-263.479 -255.497)" fill="#ec2e18"/>
            <path id="Path_981349" data-name="Path 981349" d="M21.043,24.656a6.862,6.862,0,1,1,4.849-2.01,6.815,6.815,0,0,1-4.849,2.01Zm0-12.359a5.5,5.5,0,1,0,3.887,9.388h0A5.5,5.5,0,0,0,21.043,12.3Z" transform="translate(-14.089 -10.936)" fill="#56060d"/>
            <path id="Path_981350" data-name="Path 981350" d="M51,44.688a2.981,2.981,0,1,1,2.981-2.981A2.984,2.984,0,0,1,51,44.688Zm0-4.6a1.621,1.621,0,1,0,1.621,1.621A1.623,1.623,0,0,0,51,40.086Z" transform="translate(-44.045 -35.541)" fill="#ec2e18"/>
            <path id="Path_981351" data-name="Path 981351" d="M173.827,298.278A3.076,3.076,0,1,1,176.9,295.2,3.08,3.08,0,0,1,173.827,298.278Zm0-4.792a1.716,1.716,0,1,0,1.717,1.715A1.717,1.717,0,0,0,173.827,293.486Z" transform="translate(-152.71 -259.895)" fill="#56060d"/>
            <path id="Path_981352" data-name="Path 981352" d="M173.827,50.1A3.076,3.076,0,1,1,176.9,47.02,3.08,3.08,0,0,1,173.827,50.1Zm0-4.792a1.716,1.716,0,1,0,1.717,1.715A1.717,1.717,0,0,0,173.827,45.305Z" transform="translate(-152.71 -40.161)" fill="#56060d"/>
            <path id="Path_981353" data-name="Path 981353" d="M144.375,148.538a6.891,6.891,0,1,1,4.874-2.016h0A6.872,6.872,0,0,1,144.375,148.538Zm0-12.422a5.531,5.531,0,1,0,3.912,1.618,5.516,5.516,0,0,0-3.912-1.618Z" transform="translate(-123.257 -120.563)" fill="#56060d"/>
            <path id="Path_981354" data-name="Path 981354" d="M174.46,168.666a2.993,2.993,0,1,1,3-2.993A3,3,0,0,1,174.46,168.666Zm0-4.626a1.633,1.633,0,1,0,1.635,1.633A1.635,1.635,0,0,0,174.46,164.04Z" transform="translate(-153.343 -145.287)" fill="#ec2e18"/>
          </g>
        </g>
      </g>
    </g>
  </g>
</svg>
