<svg xmlns="http://www.w3.org/2000/svg" xmlns:xlink="http://www.w3.org/1999/xlink" width="108" height="108" viewBox="0 0 108 108">
  <defs>
    <filter id="Fondo" x="0" y="0" width="108" height="108" filterUnits="userSpaceOnUse">
      <feOffset dy="3" input="SourceAlpha"/>
      <feGaussianBlur stdDeviation="3" result="blur"/>
      <feFlood flood-opacity="0.161"/>
      <feComposite operator="in" in2="blur"/>
      <feComposite in="SourceGraphic"/>
    </filter>
  </defs>
  <g id="Group_1144952" data-name="Group 1144952" transform="translate(-991.999 -6682.668)">
    <g id="Group_1144891" data-name="Group 1144891" transform="translate(0 29.5)">
      <g transform="matrix(1, 0, 0, 1, 992, 6653.17)" filter="url(#Fondo)">
        <g id="Fondo-2" data-name="Fondo" transform="translate(9 6)" fill="#f1fef9" stroke="#43896d" stroke-width="3">
          <circle cx="45" cy="45" r="45" stroke="none"/>
          <circle cx="45" cy="45" r="43.5" fill="none"/>
        </g>
      </g>
      <g id="Group_1144890" data-name="Group 1144890" transform="translate(1019 6674.172)">
        <g id="Icons">
          <path id="Path_981527" data-name="Path 981527" d="M43,21.24V8a3,3,0,0,0-3-3H4A3,3,0,0,0,1,8V54a3,3,0,0,0,3,3H31.53Z" fill="sienna"/>
          <path id="Path_981528" data-name="Path 981528" d="M40,5H37a3,3,0,0,1,3,3V21.24L28.53,57h3L43,21.24V8a3,3,0,0,0-3-3Z" fill="#783e22"/>
          <path id="Path_981529" data-name="Path 981529" d="M39,21.02V10a1,1,0,0,0-1-1H6a1,1,0,0,0-1,1V52a1,1,0,0,0,1,1H26.16Z" fill="#f5f5f5"/>
          <path id="Path_981530" data-name="Path 981530" d="M38,9H35a1,1,0,0,1,1,1V21.02L23.16,53h3L39,21.02V10A1,1,0,0,0,38,9Z" fill="#cfd8dc"/>
          <path id="Path_981531" data-name="Path 981531" d="M54.72,28A19.021,19.021,0,1,1,52,25.28" fill="#f44335"/>
          <path id="Path_981532" data-name="Path 981532" d="M54.72,28,52,25.28A18.863,18.863,0,0,0,40,21c-.47,0-.932.037-1.393.07A18.847,18.847,0,0,1,49,25.28L51.72,28A18.977,18.977,0,0,1,38.5,58.924c.5.039.994.076,1.5.076A18.99,18.99,0,0,0,54.72,28Z" fill="#c81e1e"/>
          <circle id="Ellipse_11598" data-name="Ellipse 11598" cx="14" cy="14" r="14" transform="translate(26 26)" fill="#f5f5f5"/>
          <path id="Path_981533" data-name="Path 981533" d="M40,26a14.023,14.023,0,0,0-1.5.083,14,14,0,0,1,0,27.834A14,14,0,1,0,40,26Z" fill="#cfd8dc"/>
          <circle id="Ellipse_11599" data-name="Ellipse 11599" cx="9" cy="9" r="9" transform="translate(31 31)" fill="#f44335"/>
          <path id="Path_981534" data-name="Path 981534" d="M40,31a9.045,9.045,0,0,0-1.5.135,8.989,8.989,0,0,1,0,17.73A9,9,0,1,0,40,31Z" fill="#c81e1e"/>
          <circle id="Ellipse_11600" data-name="Ellipse 11600" cx="4" cy="4" r="4" transform="translate(36 36)" fill="#f5f5f5"/>
          <path id="Path_981535" data-name="Path 981535" d="M40,36a3.965,3.965,0,0,0-1.5.3,3.991,3.991,0,0,1,0,7.4A4,4,0,1,0,40,36Z" fill="#cfd8dc"/>
          <path id="Path_981536" data-name="Path 981536" d="M58.689,23,57,21.311a1.063,1.063,0,0,0-1.5,0L52.311,24.5a1.064,1.064,0,0,0-.311.752v1.685A1.063,1.063,0,0,0,53.063,28h1.685a1.064,1.064,0,0,0,.752-.311L58.689,24.5a1.063,1.063,0,0,0,0-1.5Z" fill="#ff9801"/>
          <path id="Path_981537" data-name="Path 981537" d="M58.689,23,57,21.311a1.063,1.063,0,0,0-1.5,0l-.748.749.937.937a1.063,1.063,0,0,1,0,1.5L52.5,27.689a1.043,1.043,0,0,1-.1.063,1.046,1.046,0,0,0,.658.248h1.685a1.064,1.064,0,0,0,.752-.311L58.689,24.5a1.063,1.063,0,0,0,0-1.5Z" fill="#f57c00"/>
          <path id="Path_981538" data-name="Path 981538" d="M33,5V9a1,1,0,0,1-1,1H12a1,1,0,0,1-1-1V5a1,1,0,0,1,1-1h3l.544-1.632A2,2,0,0,1,17.442,1h9.116a2,2,0,0,1,1.9,1.368L29,4h3a1,1,0,0,1,1,1Z" fill="#9e9e9e"/>
          <g id="Group_1144889" data-name="Group 1144889">
            <path id="Path_981539" data-name="Path 981539" d="M26.558,1h-3a2,2,0,0,1,1.9,1.368L26,4h3l-.544-1.632A2,2,0,0,0,26.558,1Z" fill="#707070"/>
            <path id="Path_981540" data-name="Path 981540" d="M32,4H29a1,1,0,0,1,1,1V9a1,1,0,0,1-1,1h3a1,1,0,0,0,1-1V5A1,1,0,0,0,32,4Z" fill="#707070"/>
          </g>
        </g>
        <g id="Icons_copy" data-name="Icons copy">
          <path id="Path_981541" data-name="Path 981541" d="M4,58H31.34a19.967,19.967,0,0,0,24.9-29.637l3.16-3.155a2.063,2.063,0,0,0,0-2.918l-.134-.133.448-.453a1,1,0,1,0-1.424-1.4l-.443.446-.137-.137a2.112,2.112,0,0,0-2.917,0L51.637,23.76A19.948,19.948,0,0,0,44,20.423V8a4,4,0,0,0-4-4H33.722A1.993,1.993,0,0,0,32,3H29.721l-.316-.949A3,3,0,0,0,26.559,0H17.441A3,3,0,0,0,14.6,2.052L14.279,3H12a1.993,1.993,0,0,0-1.722,1H4A4,4,0,0,0,0,8V54A4,4,0,0,0,4,58Zm36,0A18,18,0,1,1,51,25.779v1.158a2.037,2.037,0,0,0,.087.561l-1.226,1.227a15.052,15.052,0,1,0,1.414,1.414L52.5,28.913a2.037,2.037,0,0,0,.561.087h1.158A17.974,17.974,0,0,1,40,58Zm3-18a3,3,0,1,1-3-3,2.951,2.951,0,0,1,1.285.3l-1.992,1.992a1,1,0,1,0,1.414,1.414L42.7,38.715A2.951,2.951,0,0,1,43,40Zm-.247-4.167a5.015,5.015,0,1,0,1.414,1.414L46.312,35.1A8.026,8.026,0,1,1,44.9,33.688Zm3.571-3.571a10.016,10.016,0,1,0,1.414,1.414l2.124-2.123a13.037,13.037,0,1,1-1.415-1.415Zm6.7-7.055L56.3,22.019l.846.846v.006h.006l.829.83v.089L54.749,27,53,26.937ZM42,8V20.111A19.889,19.889,0,0,0,40,20V10a2,2,0,0,0-2-2H34V6h6A2,2,0,0,1,42,8ZM12,5h3a1,1,0,0,0,.949-.684l.544-1.632A1,1,0,0,1,17.441,2h9.118a1,1,0,0,1,.948.684l.544,1.632A1,1,0,0,0,29,5h3V9H12Zm20,6a1.993,1.993,0,0,0,1.722-1H38V20.1A19.948,19.948,0,0,0,25.741,26H19a1,1,0,0,0,0,2h5.038a19.918,19.918,0,0,0-3.38,7H19a1,1,0,0,0,0,2h1.25a19.18,19.18,0,0,0,.153,7H19a1,1,0,0,0,0,2h1.922a19.954,19.954,0,0,0,3.116,6H6V10h4.278A1.993,1.993,0,0,0,12,11ZM2,8A2,2,0,0,1,4,6h6V8H6a2,2,0,0,0-2,2V52a2,2,0,0,0,2,2H25.741a20.275,20.275,0,0,0,2.31,2H4a2,2,0,0,1-2-2Z"/>
          <circle id="Ellipse_11601" data-name="Ellipse 11601" cx="1" cy="1" r="1" transform="translate(21 4)"/>
          <path id="Path_981542" data-name="Path 981542" d="M10.293,19.707l1,1A1,1,0,0,0,12,21h.071a1,1,0,0,0,.729-.4l3-4a1,1,0,1,0-1.6-1.2l-2.308,3.078-.185-.185a1,1,0,1,0-1.414,1.414Z"/>
          <path id="Path_981543" data-name="Path 981543" d="M19,19H33a1,1,0,0,0,0-2H19a1,1,0,0,0,0,2Z"/>
          <path id="Path_981544" data-name="Path 981544" d="M14.2,24.4l-2.308,3.078-.185-.185a1,1,0,1,0-1.414,1.414l1,1A1,1,0,0,0,12,30h.071a1,1,0,0,0,.729-.4l3-4a1,1,0,0,0-1.6-1.2Z"/>
          <path id="Path_981545" data-name="Path 981545" d="M14.2,33.4l-2.308,3.078-.185-.185a1,1,0,1,0-1.414,1.414l1,1A1,1,0,0,0,12,39h.071a1,1,0,0,0,.729-.4l3-4a1,1,0,1,0-1.6-1.2Z"/>
          <path id="Path_981546" data-name="Path 981546" d="M14.2,42.4l-2.308,3.078-.185-.185a1,1,0,1,0-1.414,1.414l1,1A1,1,0,0,0,12,48h.071a1,1,0,0,0,.729-.4l3-4a1,1,0,0,0-1.6-1.2Z"/>
        </g>
      </g>
    </g>
  </g>
</svg>
