<svg xmlns="http://www.w3.org/2000/svg" xmlns:xlink="http://www.w3.org/1999/xlink" width="108" height="108" viewBox="0 0 108 108">
  <defs>
    <filter id="Fondo" x="0" y="0" width="108" height="108" filterUnits="userSpaceOnUse">
      <feOffset dy="3" input="SourceAlpha"/>
      <feGaussianBlur stdDeviation="3" result="blur"/>
      <feFlood flood-opacity="0.161"/>
      <feComposite operator="in" in2="blur"/>
      <feComposite in="SourceGraphic"/>
    </filter>
  </defs>
  <g id="Group_1144967" data-name="Group 1144967" transform="translate(-1061.999 -684.168)">
    <g id="Group_1144620" data-name="Group 1144620">
      <g id="Icono" transform="translate(1070.499 -4.832)">
        <g transform="matrix(1, 0, 0, 1, -8.5, 689)" filter="url(#Fondo)">
          <g id="Fondo-2" data-name="Fondo" transform="translate(9 6)" fill="#f1fef9" stroke="#43896d" stroke-width="3">
            <circle cx="45" cy="45" r="45" stroke="none"/>
            <circle cx="45" cy="45" r="43.5" fill="none"/>
          </g>
        </g>
      </g>
      <g id="Group_1144619" data-name="Group 1144619" transform="translate(1089.096 709.097)">
        <g id="Group_1144617" data-name="Group 1144617" transform="translate(1.868 1.868)">
          <g id="Group_1144594" data-name="Group 1144594" transform="translate(6.075)">
            <path id="Path_981170" data-name="Path 981170" d="M22.729,4.369a3.355,3.355,0,0,1,1.97-.634,3.378,3.378,0,0,1,3.393,3.393,3.549,3.549,0,0,1-3.471,3.55H19.414a3.458,3.458,0,0,1-2.89-1.545l-1.154.191a3.463,3.463,0,0,0-2.881,3.09H11.6A2.542,2.542,0,0,0,9.66,13.3l-.009-.009-.512-2.065A4.378,4.378,0,0,1,9,10.114,4.584,4.584,0,0,1,12.7,5.6l.278-.061h.009A5.51,5.51,0,0,1,18.13,2a5.636,5.636,0,0,1,4.6,2.369Z" transform="translate(-9 -2)" fill="#b27946"/>
          </g>
          <g id="Group_1144595" data-name="Group 1144595" transform="translate(0 25.168)">
            <path id="Path_981171" data-name="Path 981171" d="M8.943,45.753v5.207a7.15,7.15,0,0,1-1.736-.217A6.948,6.948,0,0,1,2,44.018v-.746A14.144,14.144,0,0,1,9.116,31l.694,3.471h3.9c.035.113.061.234.1.347l-3.124,3.124a9.025,9.025,0,0,0,.451.972v.009a.846.846,0,0,0-.451.755v6.075Z" transform="translate(-2 -31)" fill="#4fc1e9"/>
          </g>
          <g id="Group_1144596" data-name="Group 1144596" transform="translate(5.207 24.3)">
            <path id="Path_981172" data-name="Path 981172" d="M34.218,37.264,35.771,30h5.207V42.037a5.318,5.318,0,0,1-9.407,3.4L28.828,42.15V57.771H8v-7.16a7.15,7.15,0,0,0,1.736.217h1.736v2.6a.87.87,0,0,0,.868.868H22.753a.87.87,0,0,0,.868-.868V40.657a9.829,9.829,0,0,0,1.736-2.847l-3.124-3.124c.035-.113.061-.234.1-.347h3.9l.729-3.645A17.384,17.384,0,0,1,34.218,37.264Z" transform="translate(-8 -30)" fill="#4fc1e9"/>
          </g>
          <g id="Group_1144597" data-name="Group 1144597" transform="translate(7.116 23.588)">
            <path id="Path_981173" data-name="Path 981173" d="M14.478,32.452a13.621,13.621,0,0,0,.312,1.779h-3.9L10.2,30.759v-.009a13.924,13.924,0,0,1,4.166-1.571V30.7A13.118,13.118,0,0,0,14.478,32.452Z" transform="translate(-10.2 -29.18)" fill="#3bafda"/>
          </g>
          <g id="Group_1144598" data-name="Group 1144598" transform="translate(8.678 28.986)">
            <path id="Path_981174" data-name="Path 981174" d="M16.556,38.845a5.85,5.85,0,0,0,.312.547h-4a.771.771,0,0,0-.417.113V39.5A9.026,9.026,0,0,1,12,38.524L15.124,35.4a14.247,14.247,0,0,0,1.432,3.445Z" transform="translate(-12 -35.4)" fill="#3bafda"/>
          </g>
          <g id="Group_1144599" data-name="Group 1144599" transform="translate(17.695 28.986)">
            <path id="Path_981175" data-name="Path 981175" d="M22.7,38.845A14.247,14.247,0,0,0,24.134,35.4l3.124,3.124a9.829,9.829,0,0,1-1.736,2.847V40.26a.87.87,0,0,0-.868-.868H22.39a5.85,5.85,0,0,0,.312-.547Z" transform="translate(-22.39 -35.4)" fill="#3bafda"/>
          </g>
          <g id="Group_1144600" data-name="Group 1144600" transform="translate(19.535 23.579)">
            <path id="Path_981176" data-name="Path 981176" d="M24.822,32.45a13.118,13.118,0,0,0,.113-1.753V29.17a17.092,17.092,0,0,1,4.2,1.406v.009l-.729,3.645h-3.9A13.622,13.622,0,0,0,24.822,32.45Z" transform="translate(-24.51 -29.17)" fill="#3bafda"/>
          </g>
          <g id="Group_1144601" data-name="Group 1144601" transform="translate(31.243 17.357)">
            <path id="Path_981177" data-name="Path 981177" d="M46.678,25.471v.3a3.475,3.475,0,0,1-1.015,2.456l-.72.72H39.736l-.72-.72A3.475,3.475,0,0,1,38,25.766V23.736A1.748,1.748,0,0,1,39.736,22a1.741,1.741,0,0,1,1.736,1.736,1.748,1.748,0,0,0,1.736,1.736Z" transform="translate(-38 -22)" fill="#f0d0b4"/>
          </g>
          <g id="Group_1144602" data-name="Group 1144602" transform="translate(34.714 17.357)">
            <path id="Path_981178" data-name="Path 981178" d="M47.207,23.736v1.736H43.736A1.748,1.748,0,0,1,42,23.736,1.741,1.741,0,0,1,43.736,22h1.736A1.741,1.741,0,0,1,47.207,23.736Z" transform="translate(-42 -22)" fill="#f0d0b4"/>
          </g>
          <g id="Group_1144603" data-name="Group 1144603" transform="translate(32.978 12.15)">
            <path id="Path_981179" data-name="Path 981179" d="M43.471,17.736v3.471a1.741,1.741,0,0,0-1.736,1.736A1.741,1.741,0,0,0,40,21.207V17.736A1.741,1.741,0,0,1,41.736,16a1.748,1.748,0,0,1,1.736,1.736Z" transform="translate(-40 -16)" fill="#f0d0b4"/>
          </g>
          <g id="Group_1144604" data-name="Group 1144604" transform="translate(21.696 10.414)">
            <path id="Path_981180" data-name="Path 981180" d="M27.868,14a2.6,2.6,0,0,1,0,5.207H27V14Z" transform="translate(-27 -14)" fill="#f0d0b4"/>
          </g>
          <g id="Group_1144605" data-name="Group 1144605" transform="translate(9.546 7.134)">
            <path id="Path_981181" data-name="Path 981181" d="M25.15,18.708v.868a4.338,4.338,0,0,1-3.289,4.209,4.194,4.194,0,0,1-1.05.13H17.339a4.194,4.194,0,0,1-1.05-.13A4.338,4.338,0,0,1,13,19.575V13.839c0-.113.009-.226.017-.338a3.463,3.463,0,0,1,2.881-3.09l1.154-.191a3.458,3.458,0,0,0,2.89,1.545H25.15v6.943Z" transform="translate(-13 -10.22)" fill="#f0d0b4"/>
          </g>
          <g id="Group_1144606" data-name="Group 1144606" transform="translate(8.678 32.978)">
            <path id="Path_981182" data-name="Path 981182" d="M24.15,41.979V54.753a.87.87,0,0,1-.868.868H12.868A.87.87,0,0,1,12,54.753v-2.6h2.6a2.6,2.6,0,0,0,0-5.207H12V40.868a.846.846,0,0,1,.451-.755A.771.771,0,0,1,12.868,40h2.6v2.6a.87.87,0,0,0,.868.868h3.471a.87.87,0,0,0,.868-.868V40h2.6a.87.87,0,0,1,.868.868Z" transform="translate(-12 -40)" fill="#e6e9ed"/>
          </g>
          <g id="Group_1144607" data-name="Group 1144607" transform="translate(15.621 23.432)">
            <path id="Path_981183" data-name="Path 981183" d="M24.339,29.148v1.527a13.118,13.118,0,0,1-.113,1.753L22.17,31.6,20,30.736,23.471,29C23.766,29.043,24.053,29.087,24.339,29.148Z" transform="translate(-20 -29)" fill="#ccd1d9"/>
          </g>
          <g id="Group_1144608" data-name="Group 1144608" transform="translate(16.489 26.035)">
            <path id="Path_981184" data-name="Path 981184" d="M22.3,32l2.057.824a13.621,13.621,0,0,1-.312,1.779c-.035.113-.061.234-.1.347A14.247,14.247,0,0,1,22.519,38.4L21,33.736Z" transform="translate(-21 -32)" fill="#e6e9ed"/>
          </g>
          <g id="Group_1144609" data-name="Group 1144609" transform="translate(12.15 20.698)">
            <path id="Path_981185" data-name="Path 981185" d="M22.257,25.85l.686,2.734-3.471,1.736L16,28.584l.686-2.734a4.194,4.194,0,0,0,1.05.13h3.471A4.194,4.194,0,0,0,22.257,25.85Z" transform="translate(-16 -25.85)" fill="#f0d0b4"/>
          </g>
          <g id="Group_1144610" data-name="Group 1144610" transform="translate(13.235 27.771)">
            <path id="Path_981186" data-name="Path 981186" d="M20.5,34l1.519,4.66a5.85,5.85,0,0,1-.312.547H17.562a5.85,5.85,0,0,1-.312-.547L18.769,34Z" transform="translate(-17.25 -34)" fill="#fcd770"/>
          </g>
          <g id="Group_1144611" data-name="Group 1144611" transform="translate(13.452 25.168)">
            <path id="Path_981187" data-name="Path 981187" d="M21.839,31.868l-1.3,1.736H18.8l-1.3-1.736L19.67,31Z" transform="translate(-17.5 -31)" fill="#ffc729"/>
          </g>
          <g id="Group_1144612" data-name="Group 1144612" transform="translate(12.15 32.978)">
            <path id="Path_981188" data-name="Path 981188" d="M21.207,40v2.6a.87.87,0,0,1-.868.868H16.868A.87.87,0,0,1,16,42.6V40h5.207Z" transform="translate(-16 -40)" fill="#b4dd7f"/>
          </g>
          <g id="Group_1144613" data-name="Group 1144613" transform="translate(11.282 23.432)">
            <path id="Path_981189" data-name="Path 981189" d="M19.339,30.736l-2.17.868-2.057.824A13.118,13.118,0,0,1,15,30.675V29.156c.286-.061.573-.113.868-.156Z" transform="translate(-15 -29)" fill="#ccd1d9"/>
          </g>
          <g id="Group_1144614" data-name="Group 1144614" transform="translate(11.395 26.035)">
            <path id="Path_981190" data-name="Path 981190" d="M17.187,32l1.3,1.736L16.97,38.4a14.247,14.247,0,0,1-1.432-3.445c-.035-.113-.061-.234-.1-.347a13.621,13.621,0,0,1-.312-1.779Z" transform="translate(-15.13 -32)" fill="#e6e9ed"/>
          </g>
          <g id="Group_1144615" data-name="Group 1144615" transform="translate(6.943 39.921)">
            <path id="Path_981191" data-name="Path 981191" d="M16.179,48.764a2.6,2.6,0,0,1-1.84,4.443H10V48h4.339a2.6,2.6,0,0,1,1.84.764Z" transform="translate(-10 -48)" fill="#f0d0b4"/>
          </g>
          <g id="Group_1144616" data-name="Group 1144616" transform="translate(6.075 10.414)">
            <path id="Path_981192" data-name="Path 981192" d="M12.489,14c-.009.113-.017.226-.017.338v4.869H11.6A2.594,2.594,0,0,1,9.66,14.885,2.542,2.542,0,0,1,11.6,14Z" transform="translate(-9 -14)" fill="#f0d0b4"/>
          </g>
        </g>
        <g id="Group_1144618" data-name="Group 1144618" transform="translate(1 1)">
          <path id="Path_981193" data-name="Path 981193" d="M40.053,18.357h-.868v-2.6a2.6,2.6,0,1,0-5.207,0v2.763a2.6,2.6,0,0,0-1.736,2.444v2.033a4.312,4.312,0,0,0,1.271,3.068l.384.385L32.86,31.291a18.384,18.384,0,0,0-11.2-6.75l-.354-1.416a5.213,5.213,0,0,0,3.121-4.768,3.471,3.471,0,1,0,0-6.943v-.108A4.422,4.422,0,0,0,27.9,7a4.247,4.247,0,0,0-6.02-3.872A6.533,6.533,0,0,0,17.069,1,6.422,6.422,0,0,0,11.3,4.667a5.456,5.456,0,0,0-4.062,6.64l.417,1.665a3.466,3.466,0,0,0,2.892,5.385,5.213,5.213,0,0,0,3.121,4.768l-.358,1.428A15.086,15.086,0,0,0,1,39.309v.744a7.816,7.816,0,0,0,5.207,7.355v7.4H28.771V40.715l1.21,1.451a6.187,6.187,0,0,0,10.94-3.961V26.527l.464-.465a4.312,4.312,0,0,0,1.271-3.068V20.961a2.607,2.607,0,0,0-2.6-2.6Zm-3.471-3.471a.869.869,0,0,1,.868.868v2.763a2.594,2.594,0,0,0-.868.517,2.579,2.579,0,0,0-.868-.517V15.753A.869.869,0,0,1,36.582,14.886ZM23.156,34.61a1.724,1.724,0,0,0-1.328-.632h-.793a15.81,15.81,0,0,0,.662-1.507l1.7,1.7C23.329,34.325,23.236,34.463,23.156,34.61Zm-7.036-.632,1.131-3.471h.476l1.131,3.471Zm3.2-4.179.633-.843.807.323a13.926,13.926,0,0,1-.732,2.69Zm-1.036-1.511-.362.483h-.868l-.362-.483.8-.319Zm-3.261.667.633.843-.707,2.17a13.926,13.926,0,0,1-.732-2.69Zm-.139,6.758h3.471V37.45H14.886Zm6.075-9.444v.7c0,.17-.011.339-.018.509L19.6,26.949Zm-6.925,1.212c-.007-.169-.018-.338-.018-.509v-.7l1.355.678Zm-1.517,2.157h-2.13l-.426-2.131a13.207,13.207,0,0,1,2.319-.931v.4A15.694,15.694,0,0,0,12.519,29.639Zm1.424,4.339h-2.17l1.507-1.507A15.383,15.383,0,0,0,13.943,33.978Zm-.793,8.678a1.736,1.736,0,0,1,0,3.471H9.678V42.657Zm-1.736,5.207H13.15a3.471,3.471,0,1,0,0-6.943H11.414V35.714H13.15V37.45a1.737,1.737,0,0,0,1.736,1.736h3.471a1.737,1.737,0,0,0,1.736-1.736V35.714h1.736V49.6H11.414ZM22.7,26.974v-.433a16.42,16.42,0,0,1,2.347.824l-.455,2.275H22.459A15.694,15.694,0,0,0,22.7,26.974Zm3.471-12.088a1.737,1.737,0,0,1-1.736,1.736V13.15A1.737,1.737,0,0,1,26.168,14.886Zm-17.357,0a1.737,1.737,0,0,1,1.736-1.736v3.471A1.737,1.737,0,0,1,8.811,14.886Zm1.921-3.471h-.186a3.432,3.432,0,0,0-1.415.309l-.209-.838a3.721,3.721,0,0,1,1.788-4.147L10.555,7.82l1.718.245.191-1.336a4.674,4.674,0,0,1,4.6-3.993,4.788,4.788,0,0,1,3.4,1.428,4.224,4.224,0,0,0-.366.47l-.729,1.093,1.444.962L21.545,5.6A2.523,2.523,0,0,1,26.168,7a2.686,2.686,0,0,1-2.683,2.683H18.357a2.607,2.607,0,0,1-2.6-2.6H14.018a4.272,4.272,0,0,0,.207,1.256l-.052.009a4.308,4.308,0,0,0-3.441,3.075Zm1.55,6.943V12.62a2.6,2.6,0,0,1,2.176-2.568l.666-.111a4.313,4.313,0,0,0,3.234,1.474H22.7v6.943a3.475,3.475,0,0,1-3.471,3.471H15.753A3.475,3.475,0,0,1,12.282,18.357Zm3.471,5.207h3.471c.135,0,.269-.01.4-.02l.323,1.291-2.46,1.23-2.46-1.23.323-1.291c.133.01.266.02.4.02ZM2.736,40.053v-.744a13.332,13.332,0,0,1,5.65-10.842l.581,2.907h2.955L9.527,33.769l.213.531c.064.161.147.315.22.473a1.723,1.723,0,0,0-.281.941v5.207H8.811a.868.868,0,0,1-.868-.868V33.978H6.207v6.075A2.6,2.6,0,0,0,7.943,42.5v3.562a6.08,6.08,0,0,1-5.207-6.006Zm32,2.6a4.439,4.439,0,0,1-3.419-1.6L28.771,38V33.978H27.035V53.071H7.943V47.813a7.755,7.755,0,0,0,.868.051h.868V49.6a1.737,1.737,0,0,0,1.736,1.736H21.828A1.737,1.737,0,0,0,23.564,49.6V37.131A10.955,10.955,0,0,0,25.238,34.3l.213-.531-2.4-2.4h2.956l.64-3.2A16.538,16.538,0,0,1,32.366,33.6l-.971,4.533,1.7.364,2.456-11.463h3.638v11.17a4.456,4.456,0,0,1-4.451,4.451Zm5.424-17.822-.464.465H35.206l-.464-.465a2.615,2.615,0,0,1-.764-1.841V20.961a.868.868,0,1,1,1.736,0,2.607,2.607,0,0,0,2.6,2.6h2.539a2.626,2.626,0,0,1-.7,1.271Zm.763-3.006h-2.6a.868.868,0,0,1,0-1.736h1.736a.869.869,0,0,1,.868.868Z" transform="translate(-1 -1)"/>
          <path id="Path_981194" data-name="Path 981194" d="M18,22.471h1.736A3.475,3.475,0,0,0,23.207,19H21.471a1.737,1.737,0,0,1-1.736,1.736H18Z" transform="translate(-3.247 -3.379)"/>
          <circle id="Ellipse_11569" data-name="Ellipse 11569" cx="1" cy="1" r="1" transform="translate(12.903 11.903)"/>
          <circle id="Ellipse_11570" data-name="Ellipse 11570" cx="1" cy="1" r="1" transform="translate(17.903 11.903)"/>
          <path id="Path_981195" data-name="Path 981195" d="M46.727,2.52,45.5,1.293,42.642,4.151,41.52,3.029,40.293,4.256l2.349,2.349Z" transform="translate(-6.193 -1.039)"/>
          <path id="Path_981196" data-name="Path 981196" d="M49,5H61.15V6.736H49Z" transform="translate(-7.343 -1.529)"/>
          <path id="Path_981197" data-name="Path 981197" d="M46.727,8.52,45.5,7.293l-2.858,2.858L41.52,9.029l-1.227,1.227,2.349,2.349Z" transform="translate(-6.193 -1.832)"/>
          <path id="Path_981198" data-name="Path 981198" d="M49,11H61.15v1.736H49Z" transform="translate(-7.343 -2.322)"/>
          <path id="Path_981199" data-name="Path 981199" d="M61,17h1.736v1.736H61Z" transform="translate(-8.929 -3.114)"/>
          <path id="Path_981200" data-name="Path 981200" d="M49,17h8.678v1.736H49Z" transform="translate(-7.343 -3.114)"/>
        </g>
      </g>
    </g>
  </g>
</svg>
