<svg xmlns="http://www.w3.org/2000/svg" xmlns:xlink="http://www.w3.org/1999/xlink" width="108" height="108" viewBox="0 0 108 108">
  <defs>
    <filter id="Path_904820" x="0" y="0" width="108" height="108" filterUnits="userSpaceOnUse">
      <feOffset dy="3" input="SourceAlpha"/>
      <feGaussianBlur stdDeviation="3" result="blur"/>
      <feFlood flood-opacity="0.161"/>
      <feComposite operator="in" in2="blur"/>
      <feComposite in="SourceGraphic"/>
    </filter>
  </defs>
  <g id="Group_1144946" data-name="Group 1144946" transform="translate(-201 -4355.5)">
    <g id="Group_1144710" data-name="Group 1144710" transform="translate(0 29.5)">
      <g transform="matrix(1, 0, 0, 1, 201, 4326)" filter="url(#Path_904820)">
        <g id="Path_904820-2" data-name="Path 904820" transform="translate(9 6)" fill="#ecf4fa">
          <path d="M 45 88.5 C 39.12687683105469 88.5 33.43022537231445 87.35007476806641 28.06830024719238 85.08217620849609 C 22.88852500915527 82.89131164550781 18.23629951477051 79.75458526611328 14.2408504486084 75.75914764404297 C 10.24541282653809 71.76370239257812 7.108687400817871 67.11147308349609 4.917825222015381 61.93170166015625 C 2.649924993515015 56.56977462768555 1.5 50.87312316894531 1.5 45 C 1.5 39.12687683105469 2.649924993515015 33.43022537231445 4.917825222015381 28.06830024719238 C 7.108687400817871 22.88852500915527 10.24541282653809 18.23629951477051 14.2408504486084 14.2408504486084 C 18.23629951477051 10.24541282653809 22.88852500915527 7.108687400817871 28.06830024719238 4.917825222015381 C 33.43022537231445 2.649924993515015 39.12687683105469 1.5 45 1.5 C 50.87312316894531 1.5 56.56977462768555 2.649924993515015 61.93170166015625 4.917825222015381 C 67.11147308349609 7.108687400817871 71.76370239257812 10.24541282653809 75.75914764404297 14.2408504486084 C 79.75458526611328 18.23629951477051 82.89131164550781 22.88852500915527 85.08217620849609 28.06830024719238 C 87.35007476806641 33.43022537231445 88.5 39.12687683105469 88.5 45 C 88.5 50.87312316894531 87.35007476806641 56.56977462768555 85.08217620849609 61.93170166015625 C 82.89131164550781 67.11147308349609 79.75458526611328 71.76370239257812 75.75914764404297 75.75914764404297 C 71.76370239257812 79.75458526611328 67.11147308349609 82.89131164550781 61.93170166015625 85.08217620849609 C 56.56977462768555 87.35007476806641 50.87312316894531 88.5 45 88.5 Z" stroke="none"/>
          <path d="M 45 3 C 39.32871246337891 3 33.82865524291992 4.110054016113281 28.65262985229492 6.299339294433594 C 23.65165710449219 8.414573669433594 19.15968322753906 11.44334411621094 15.301513671875 15.301513671875 C 11.44334411621094 19.15968322753906 8.414573669433594 23.65165710449219 6.299339294433594 28.65262985229492 C 4.110054016113281 33.82865524291992 3 39.32871246337891 3 45 C 3 50.67128753662109 4.110054016113281 56.17134475708008 6.299339294433594 61.34737396240234 C 8.414573669433594 66.34834289550781 11.44334411621094 70.84031677246094 15.301513671875 74.698486328125 C 19.15968322753906 78.55665588378906 23.65165710449219 81.58542633056641 28.65262985229492 83.70066070556641 C 33.82865524291992 85.88994598388672 39.32871246337891 87 45 87 C 50.67128753662109 87 56.17134475708008 85.88994598388672 61.34737396240234 83.70066070556641 C 66.34834289550781 81.58542633056641 70.84031677246094 78.55665588378906 74.698486328125 74.698486328125 C 78.55665588378906 70.84031677246094 81.58542633056641 66.34834289550781 83.70066070556641 61.34737396240234 C 85.88994598388672 56.17134475708008 87 50.67128753662109 87 45 C 87 39.32871246337891 85.88994598388672 33.82865524291992 83.70066070556641 28.65262985229492 C 81.58542633056641 23.65165710449219 78.55665588378906 19.15968322753906 74.698486328125 15.301513671875 C 70.84031677246094 11.44334411621094 66.34834289550781 8.414573669433594 61.34737396240234 6.299339294433594 C 56.17134475708008 4.110054016113281 50.67128753662109 3 45 3 M 45 0 C 69.85281372070312 0 90 20.14718627929688 90 45 C 90 69.85281372070312 69.85281372070312 90 45 90 C 20.14718627929688 90 0 69.85281372070312 0 45 C 0 20.14718627929688 20.14718627929688 0 45 0 Z" stroke="none" fill="#2a5673"/>
        </g>
      </g>
      <g id="Group_1144709" data-name="Group 1144709" transform="translate(216.588 4331.606)">
        <path id="Path_981382" data-name="Path 981382" d="M159.519,145.914c-.652.225-1.088.877-1.187,2.121-.013.186,0,3.181.026,3.668H143.522c.186-5.98-.244-9.786-.914-11.581-2.115-4.791-6.223-9.47-4.967-15.863A14.289,14.289,0,0,1,143,115.627c6.211-4.743,18.933-3.956,23.838,2.181,1,1.492-.171,1.821-.309,3.08-.1.95,1.1,4.388,1.362,5.908.351,2.029-1.137,2.017-1.1,3.5.019.748.513,1.981,2,4.26.424.657.761,1.055.669,1.754-.159,1.214-1.94.626-2.517,1.8a1.508,1.508,0,0,0-.02,1.046c.307.69.251,1.025.131,1.255a1.65,1.65,0,0,1-.906.636,2.361,2.361,0,0,1,.83.891,1.6,1.6,0,0,1-.168,1.133,2.189,2.189,0,0,0-.016,1.019,2.364,2.364,0,0,1-.471,2.234c-.543.446-1.467.441-2.695.335q-2.188-.29-4.117-.742Z" transform="translate(-114.779 -86.258)" fill="#fdb0a0" fill-rule="evenodd"/>
        <path id="Path_981383" data-name="Path 981383" d="M177.389,152.556H167.45c.186-5.98-.244-9.786-.914-11.581-2.115-4.791-6.223-9.47-4.967-15.863a14.289,14.289,0,0,1,5.363-8.633,16.352,16.352,0,0,1,8.1-2.935c4.362.464,8.506,2.176,10.855,5.116,1,1.492-.171,1.821-.309,3.08-.1.95,1.1,4.388,1.362,5.907.351,2.029-1.137,2.017-1.1,3.5.019.748.513,1.981,2,4.26.424.657.761,1.055.669,1.754-.159,1.214-1.94.626-2.517,1.8a1.508,1.508,0,0,0-.02,1.046c.307.69.251,1.025.132,1.255a1.65,1.65,0,0,1-.906.636,2.361,2.361,0,0,1,.83.891,1.6,1.6,0,0,1-.168,1.133,2.191,2.191,0,0,0-.016,1.019,2.363,2.363,0,0,1-.471,2.234,1.759,1.759,0,0,1-.863.346l-.138-.012q-2.188-.29-4.117-.742s-1.044-.263-1.553-.411a23.826,23.826,0,0,1-4.606-1.844.721.721,0,0,0-.683,1.27c3.577,1.923,3.926,1.931,3.968,6.774Z" transform="translate(-135.522 -87.11)" fill="#ffcec0" fill-rule="evenodd"/>
        <circle id="Ellipse_11582" data-name="Ellipse 11582" cx="10.38" cy="10.38" r="10.38" transform="translate(22.115 35.602) rotate(-28.153)" fill="#9cccfc"/>
        <g id="Group_1144707" data-name="Group 1144707" transform="translate(25.775 29.51)">
          <path id="Path_981384" data-name="Path 981384" d="M170.56,136.653a10.38,10.38,0,0,0,0,20.686,10.38,10.38,0,0,0,0-20.686Z" transform="translate(-161.053 -136.653)" fill="#cfe8ff" fill-rule="evenodd"/>
          <path id="Path_981385" data-name="Path 981385" d="M263.46,233.947a1.73,1.73,0,1,0-1.73-1.73A1.734,1.734,0,0,0,263.46,233.947Z" transform="translate(-248.331 -217.999)" fill="#ff4d4d" fill-rule="evenodd"/>
          <path id="Path_981386" data-name="Path 981386" d="M192.144,204.874a1.722,1.722,0,1,0-1.722-1.722A1.726,1.726,0,0,0,192.144,204.874Z" transform="translate(-186.513 -192.808)" fill="#fdc72e" fill-rule="evenodd"/>
          <path id="Path_981387" data-name="Path 981387" d="M227.776,158.768a1.73,1.73,0,1,0-1.73-1.73A1.734,1.734,0,0,0,227.776,158.768Z" transform="translate(-217.396 -152.825)" fill="#4eb1fc" fill-rule="evenodd"/>
        </g>
        <rect id="Rectangle_405179" data-name="Rectangle 405179" width="8.181" height="8.181" rx="4.09" transform="translate(34.575 13.856)" fill="#2a93fc"/>
        <path id="Path_981388" data-name="Path 981388" d="M228.174,19.035h5.648v5.881a1,1,0,0,1-1,1h-5.648V20.037a1,1,0,0,1,1-1Z" transform="translate(-192.597 -5.179)" fill="#4eb1fc" fill-rule="evenodd"/>
        <path id="Path_981389" data-name="Path 981389" d="M224.541,423.877l4.475,7.751a.744.744,0,0,1-.644,1.116h-8.95a.744.744,0,0,1-.644-1.116l4.475-7.751a.744.744,0,0,1,1.288,0Z" transform="translate(-185.231 -355.818)" fill="#f9ac00" fill-rule="evenodd"/>
        <path id="Path_981390" data-name="Path 981390" d="M226.406,445.306h-6.984a.744.744,0,0,1-.644-1.116l3.384-5.861a.665.665,0,0,1,1.153,0l3.422,5.927a.749.749,0,0,1-.33,1.049Z" transform="translate(-185.231 -368.381)" fill="#fdc72e" fill-rule="evenodd"/>
        <circle id="Ellipse_11583" data-name="Ellipse 11583" cx="4.432" cy="4.432" r="4.432" transform="translate(62.161 41.442)" fill="#e8333c"/>
        <g id="Group_1144708" data-name="Group 1144708" transform="translate(5.007 13.061)">
          <path id="Path_981391" data-name="Path 981391" d="M437.89,235.784a4.433,4.433,0,1,1,3.444-4.322A4.434,4.434,0,0,1,437.89,235.784Z" transform="translate(-377.292 -198.649)" fill="#ff4d4d" fill-rule="evenodd"/>
          <path id="Path_981392" data-name="Path 981392" d="M15.979,216.879l4.926,2.844v5.687l-4.926,2.844-4.925-2.844v-5.687Z" transform="translate(-10.249 -189.753)" fill="#99d100" fill-rule="evenodd"/>
          <path id="Path_981393" data-name="Path 981393" d="M14.956,231.511l-3.9-2.253V223.57l3.9-2.253,3.9,2.253v5.687Z" transform="translate(-10.249 -193.6)" fill="#a8e304" fill-rule="evenodd"/>
          <path id="Path_981394" data-name="Path 981394" d="M6.6,48.261V43.495l4.124-2.383,4.13,2.383v4.766l-4.13,2.382Zm65.212-2.2V45.7a5.231,5.231,0,1,0,0,.356Zm-60.685,6.2,4.925-2.844a.805.805,0,0,0,.4-.693V43.034a.807.807,0,0,0-.4-.692L11.132,39.5a.805.805,0,0,0-.8,0L5.4,42.342a.793.793,0,0,0-.4.692v5.687a.792.792,0,0,0,.4.693l4.925,2.844a.8.8,0,0,0,.4.106.828.828,0,0,0,.4-.106Zm55.455-2.746a3.634,3.634,0,1,1,3.636-3.634A3.638,3.638,0,0,1,66.587,49.512ZM34.277,76.13l4.38-7.586,4.38,7.586h-8.76Zm5.714-8.466a1.54,1.54,0,0,0-2.668,0l-4.476,7.752a1.542,1.542,0,0,0,1.334,2.313h8.953a1.519,1.519,0,0,0,1.334-.77,1.541,1.541,0,0,0,0-1.542l-4.477-7.75Zm-4.624-52.8a.2.2,0,0,1,.205-.2h6.176a.2.2,0,0,1,.2.2v6.176a.2.2,0,0,1-.2.2H35.572a.2.2,0,0,1-.205-.2Zm.205,7.977h6.176a1.8,1.8,0,0,0,1.8-1.8V14.862a1.8,1.8,0,0,0-1.8-1.8H35.572a1.8,1.8,0,0,0-1.8,1.8v6.176A1.8,1.8,0,0,0,35.572,22.839Zm-3.3,50.244a.8.8,0,0,1-.776.6.877.877,0,0,1-.205-.027A28.714,28.714,0,0,1,12.241,57.172l-.032.1a.794.794,0,0,1-.763.569.78.78,0,0,1-.231-.035.8.8,0,0,1-.532-.994l.706-2.357a.8.8,0,0,1,.494-.521.786.786,0,0,1,.706.083l2.052,1.337a.8.8,0,0,1-.872,1.338A27.136,27.136,0,0,0,31.7,72.108a.8.8,0,0,1,.571.975Zm34.1-19.6A28.775,28.775,0,0,1,48.309,72.94l.1.036a.8.8,0,0,1-.276,1.547.853.853,0,0,1-.282-.049l-2.309-.852a.807.807,0,0,1-.487-.521.791.791,0,0,1,.128-.7l1.456-1.963a.8.8,0,0,1,1.289.947A27.346,27.346,0,0,0,64.83,53.057a.8.8,0,1,1,1.539.421ZM11.273,37.17a28.781,28.781,0,0,1,17.3-18.193l-.1-.033A.8.8,0,1,1,29,17.437l2.322.813a.8.8,0,0,1,.385,1.22l-1.43,1.986a.8.8,0,0,1-1.3-.928A27.16,27.16,0,0,0,12.8,37.654a.8.8,0,0,1-.763.557.823.823,0,0,1-.244-.037.8.8,0,0,1-.519-1ZM45,18.661a.8.8,0,0,1,.975-.569,28.813,28.813,0,0,1,19.477,17.4l.032-.094A.8.8,0,0,1,67,35.913l-.8,2.331a.779.779,0,0,1-.507.5.8.8,0,0,1-.244.04.789.789,0,0,1-.462-.145l-2-1.408a.8.8,0,0,1,.911-1.308A27.363,27.363,0,0,0,45.57,19.637.8.8,0,0,1,45,18.661Zm-8.85,16a.932.932,0,1,1,.93-.932A.937.937,0,0,1,36.15,34.657Zm2.527-.932a2.53,2.53,0,1,0-3.328,2.4V46.953a.8.8,0,1,0,1.6,0V36.124a2.53,2.53,0,0,0,1.732-2.4ZM31.4,40.781a.924.924,0,1,1,.924-.925A.927.927,0,0,1,31.4,40.781Zm.8-3.314V34.755a.8.8,0,0,0-1.6,0v2.712a2.517,2.517,0,0,0,0,4.779v2.711a.8.8,0,1,0,1.6,0V42.246a2.52,2.52,0,0,0,0-4.779Zm8.7,7.2a.932.932,0,1,1,.936-.932A.932.932,0,0,1,40.9,44.663Zm.8-3.328a2.53,2.53,0,1,1-1.6,0V34.755a.8.8,0,0,1,1.6,0v6.579Zm-5.547,8.1a9.582,9.582,0,1,0-9.581-9.583A9.592,9.592,0,0,0,36.15,49.438Zm0-20.761A11.179,11.179,0,1,0,47.328,39.856,11.192,11.192,0,0,0,36.15,28.678Zm2.463,27.9a30.362,30.362,0,0,0,10.306,3.007,3.745,3.745,0,0,0,2.1-.157c.314-.258.269-.864.186-1.515a2.7,2.7,0,0,1,.083-1.457.375.375,0,0,0,.032-.06.856.856,0,0,0,.1-.46,1.632,1.632,0,0,0-.487-.476l-.058-.041a.8.8,0,0,1,.16-1.376,2.035,2.035,0,0,0,.513-.27,1.188,1.188,0,0,0-.154-.559.475.475,0,0,1-.051-.158,2.232,2.232,0,0,1,.083-1.561A2.633,2.633,0,0,1,53.279,50.2a1.959,1.959,0,0,0,.571-.213.258.258,0,0,0,.013-.052c.038-.306-.064-.479-.4-.983-.045-.075-.1-.151-.147-.23-1.449-2.211-2.1-3.651-2.129-4.666a2.775,2.775,0,0,1,.712-1.89,1.531,1.531,0,0,0,.4-1.484c-.1-.562-.353-1.476-.6-2.359a13.051,13.051,0,0,1-.77-3.761,3.536,3.536,0,0,1,.481-1.374c.263-.483.334-.605-.026-1.142C49.252,29.4,45.2,27.587,40.562,27.211c-4.611-.375-9.036.682-11.845,2.823a13.543,13.543,0,0,0-5.054,8.138c-.891,4.53,1.122,8.208,3.065,11.765.641,1.174,1.308,2.389,1.841,3.6.006.013.013.028.019.042.75,2.016,1.1,5.918.981,11.042H42.749c-.013-1.077-.019-2.747-.006-2.919a4.435,4.435,0,0,1,.417-1.64,25.868,25.868,0,0,1-5.3-2.075.8.8,0,1,1,.757-1.406Zm10.152,4.6a4.5,4.5,0,0,0,3.264-.512,3.1,3.1,0,0,0,.757-2.948,3.254,3.254,0,0,1-.038-.6,2.365,2.365,0,0,0,.186-1.705.477.477,0,0,0-.032-.087,2.692,2.692,0,0,0-.244-.4,1.6,1.6,0,0,0,.3-.409,2.089,2.089,0,0,0-.071-1.865c-.071-.362-.038-.428-.032-.45.109-.224.346-.31.859-.454a1.986,1.986,0,0,0,1.732-1.594,2.841,2.841,0,0,0-.648-2.072c-.045-.069-.1-.14-.147-.22-1.52-2.331-1.853-3.373-1.866-3.837a1.218,1.218,0,0,1,.378-.875,3.054,3.054,0,0,0,.705-2.73c-.109-.641-.366-1.551-.635-2.515a18.028,18.028,0,0,1-.718-3.158,2.172,2.172,0,0,1,.3-.787,2.331,2.331,0,0,0-.122-2.82l-.038-.053c-2.437-3.051-6.8-5.04-11.967-5.46-4.989-.406-9.832.771-12.942,3.145a15.1,15.1,0,0,0-5.65,9.1c-1,5.1,1.244,9.209,3.232,12.839.648,1.19,1.263,2.315,1.77,3.453.34.925,1.084,3.838.853,11.235a.808.808,0,0,0,.225.58.8.8,0,0,0,.571.244H43.563a.812.812,0,0,0,.584-.251.835.835,0,0,0,.218-.592c-.026-.453-.038-3.29-.032-3.567a1.847,1.847,0,0,1,.487-1.328q1.847.417,3.906.691c.013,0,.026,0,.038,0Z" transform="translate(-5.007 -13.061)" fill="#021047" fill-rule="evenodd"/>
        </g>
      </g>
    </g>
  </g>
</svg>
