<svg xmlns="http://www.w3.org/2000/svg" xmlns:xlink="http://www.w3.org/1999/xlink" width="108" height="108" viewBox="0 0 108 108">
  <defs>
    <filter id="Path_904820" x="0" y="0" width="108" height="108" filterUnits="userSpaceOnUse">
      <feOffset dy="3" input="SourceAlpha"/>
      <feGaussianBlur stdDeviation="3" result="blur"/>
      <feFlood flood-opacity="0.161"/>
      <feComposite operator="in" in2="blur"/>
      <feComposite in="SourceGraphic"/>
    </filter>
  </defs>
  <g id="Group_1144940" data-name="Group 1144940" transform="translate(-306 -2845.5)">
    <g id="Group_1144706" data-name="Group 1144706" transform="translate(0 29.5)">
      <g transform="matrix(1, 0, 0, 1, 306, 2816)" filter="url(#Path_904820)">
        <g id="Path_904820-2" data-name="Path 904820" transform="translate(9 6)" fill="#ecf4fa">
          <path d="M 45 88.5 C 39.12687683105469 88.5 33.43022537231445 87.35007476806641 28.06830024719238 85.08217620849609 C 22.88852500915527 82.89131164550781 18.23629951477051 79.75458526611328 14.2408504486084 75.75914764404297 C 10.24541282653809 71.76370239257812 7.108687400817871 67.11147308349609 4.917825222015381 61.93170166015625 C 2.649924993515015 56.56977462768555 1.5 50.87312316894531 1.5 45 C 1.5 39.12687683105469 2.649924993515015 33.43022537231445 4.917825222015381 28.06830024719238 C 7.108687400817871 22.88852500915527 10.24541282653809 18.23629951477051 14.2408504486084 14.2408504486084 C 18.23629951477051 10.24541282653809 22.88852500915527 7.108687400817871 28.06830024719238 4.917825222015381 C 33.43022537231445 2.649924993515015 39.12687683105469 1.5 45 1.5 C 50.87312316894531 1.5 56.56977462768555 2.649924993515015 61.93170166015625 4.917825222015381 C 67.11147308349609 7.108687400817871 71.76370239257812 10.24541282653809 75.75914764404297 14.2408504486084 C 79.75458526611328 18.23629951477051 82.89131164550781 22.88852500915527 85.08217620849609 28.06830024719238 C 87.35007476806641 33.43022537231445 88.5 39.12687683105469 88.5 45 C 88.5 50.87312316894531 87.35007476806641 56.56977462768555 85.08217620849609 61.93170166015625 C 82.89131164550781 67.11147308349609 79.75458526611328 71.76370239257812 75.75914764404297 75.75914764404297 C 71.76370239257812 79.75458526611328 67.11147308349609 82.89131164550781 61.93170166015625 85.08217620849609 C 56.56977462768555 87.35007476806641 50.87312316894531 88.5 45 88.5 Z" stroke="none"/>
          <path d="M 45 3 C 39.32871246337891 3 33.82865524291992 4.110054016113281 28.65262985229492 6.299339294433594 C 23.65165710449219 8.414573669433594 19.15968322753906 11.44334411621094 15.301513671875 15.301513671875 C 11.44334411621094 19.15968322753906 8.414573669433594 23.65165710449219 6.299339294433594 28.65262985229492 C 4.110054016113281 33.82865524291992 3 39.32871246337891 3 45 C 3 50.67128753662109 4.110054016113281 56.17134475708008 6.299339294433594 61.34737396240234 C 8.414573669433594 66.34834289550781 11.44334411621094 70.84031677246094 15.301513671875 74.698486328125 C 19.15968322753906 78.55665588378906 23.65165710449219 81.58542633056641 28.65262985229492 83.70066070556641 C 33.82865524291992 85.88994598388672 39.32871246337891 87 45 87 C 50.67128753662109 87 56.17134475708008 85.88994598388672 61.34737396240234 83.70066070556641 C 66.34834289550781 81.58542633056641 70.84031677246094 78.55665588378906 74.698486328125 74.698486328125 C 78.55665588378906 70.84031677246094 81.58542633056641 66.34834289550781 83.70066070556641 61.34737396240234 C 85.88994598388672 56.17134475708008 87 50.67128753662109 87 45 C 87 39.32871246337891 85.88994598388672 33.82865524291992 83.70066070556641 28.65262985229492 C 81.58542633056641 23.65165710449219 78.55665588378906 19.15968322753906 74.698486328125 15.301513671875 C 70.84031677246094 11.44334411621094 66.34834289550781 8.414573669433594 61.34737396240234 6.299339294433594 C 56.17134475708008 4.110054016113281 50.67128753662109 3 45 3 M 45 0 C 69.85281372070312 0 90 20.14718627929688 90 45 C 90 69.85281372070312 69.85281372070312 90 45 90 C 20.14718627929688 90 0 69.85281372070312 0 45 C 0 20.14718627929688 20.14718627929688 0 45 0 Z" stroke="none" fill="#2a5673"/>
        </g>
      </g>
      <g id="Group_1144705" data-name="Group 1144705" transform="translate(333.544 2843.544)">
        <g id="Group_1144703" data-name="Group 1144703" transform="translate(0.821 0.821)">
          <g id="Group_1144689" data-name="Group 1144689" transform="translate(36.131 21.35)">
            <path id="Path_981355" data-name="Path 981355" d="M51.569,27H45v1.642a4.962,4.962,0,0,0,.279,1.642h.008a4.918,4.918,0,0,0,8.121,1.839,4.737,4.737,0,0,0,1.158-1.839h.008a4.962,4.962,0,0,0,.279-1.642V27Z" transform="translate(-45 -27)" fill="#b27946"/>
          </g>
          <g id="Group_1144690" data-name="Group 1144690" transform="translate(29.561 27.919)">
            <path id="Path_981356" data-name="Path 981356" d="M43.569,35.821V48.138H37V41.569l1.642-1.642A5.669,5.669,0,0,1,37,35.961V35h4.59A2.79,2.79,0,0,1,43.569,35.821Z" transform="translate(-37 -35)" fill="#ccd1d9"/>
          </g>
          <g id="Group_1144691" data-name="Group 1144691" transform="translate(36.131 27.919)">
            <path id="Path_981357" data-name="Path 981357" d="M45,48.138V35.821A2.8,2.8,0,0,1,46.979,35h7.054a.824.824,0,0,1,.821.821v11.5a.824.824,0,0,1-.821.821Z" transform="translate(-45 -35)" fill="#ccd1d9"/>
          </g>
          <g id="Group_1144692" data-name="Group 1144692" transform="translate(28.305 29.561)">
            <path id="Path_981358" data-name="Path 981358" d="M56.434,37.821V50.96a.824.824,0,0,1-.821.821H46.58l-.484.484a3.965,3.965,0,0,1-5.6,0l-.484-.484H35.47A4.9,4.9,0,0,0,36.726,48.5h15.6a.824.824,0,0,0,.821-.821V37h2.463A.824.824,0,0,1,56.434,37.821Z" transform="translate(-35.47 -37)" fill="#ef7385"/>
          </g>
          <g id="Group_1144693" data-name="Group 1144693" transform="translate(8.105 24.634)">
            <path id="Path_981359" data-name="Path 981359" d="M20.831,52.35v3.285H12.619V52.522a4.892,4.892,0,0,0-1.749-3.761l.509-.222A7.457,7.457,0,0,0,15.9,41.675h-.411A2.888,2.888,0,0,1,12.619,38.8a2.877,2.877,0,0,1,2.874-2.874H15.9V31H32.327v4.245a5.669,5.669,0,0,0,1.642,3.966l-1.642,1.642v6.569A4.93,4.93,0,0,1,27.4,52.35Z" transform="translate(-10.87 -31)" fill="#f0d0b4"/>
          </g>
          <g id="Group_1144694" data-name="Group 1144694" transform="translate(0 24.634)">
            <path id="Path_981360" data-name="Path 981360" d="M14.138,31v4.927h-.411A2.877,2.877,0,0,0,10.854,38.8a2.888,2.888,0,0,0,2.874,2.874h.411A7.457,7.457,0,0,1,9.614,48.54l-.509.222c-.14-.115-.287-.23-.443-.337l-.345-.23A16.421,16.421,0,0,1,1,34.531V31H14.138Z" transform="translate(-1 -31)" fill="#b27946"/>
          </g>
          <g id="Group_1144695" data-name="Group 1144695" transform="translate(8.211 18.065)">
            <path id="Path_981361" data-name="Path 981361" d="M24.138,29.569H20.854a3.285,3.285,0,0,0-6.569,0H11a6.569,6.569,0,0,1,13.138,0Z" transform="translate(-11 -23)" fill="#ffeaa7"/>
          </g>
          <g id="Group_1144696" data-name="Group 1144696" transform="translate(1.642 11.496)">
            <path id="Path_981362" data-name="Path 981362" d="M12.854,15h6.569v.87a1.771,1.771,0,0,0,1.1,1.642l.033.008a1.77,1.77,0,0,0,1.938-.386l.616-.608,4.639,4.639-.608.616a1.77,1.77,0,0,0-.386,1.938l.008.025a1.777,1.777,0,0,0,1.651,1.109h.862v3.285H22.708a6.569,6.569,0,1,0-13.138,0H3V24.854h.862a1.777,1.777,0,0,0,1.651-1.109l.008-.025a1.77,1.77,0,0,0-.386-1.938l-.608-.616,4.639-4.639.624.616a1.754,1.754,0,0,0,1.93.378.03.03,0,0,0,.025-.008,1.766,1.766,0,0,0,1.109-1.642Z" transform="translate(-3 -15)" fill="#fcd770"/>
          </g>
          <g id="Group_1144697" data-name="Group 1144697" transform="translate(32.846)">
            <path id="Path_981363" data-name="Path 981363" d="M49.211,1a8.206,8.206,0,0,0-4.927,14.772V22.35h9.854V15.772A8.206,8.206,0,0,0,49.211,1Z" transform="translate(-41 -1)" fill="#fcd770"/>
          </g>
          <g id="Group_1144698" data-name="Group 1144698" transform="translate(13.138 4.927)">
            <path id="Path_981364" data-name="Path 981364" d="M17,7h3.285v4.106H17Z" transform="translate(-17 -7)" fill="#ef7385"/>
          </g>
          <g id="Group_1144699" data-name="Group 1144699" transform="translate(26.277 3.285)">
            <path id="Path_981365" data-name="Path 981365" d="M33,5v9.033l3.285,1.642V5Z" transform="translate(-33 -5)" fill="#ef7385"/>
          </g>
          <g id="Group_1144700" data-name="Group 1144700" transform="translate(19.708)">
            <path id="Path_981366" data-name="Path 981366" d="M25,10.033l3.285,1.642V1H25Z" transform="translate(-25 -1)" fill="#ef7385"/>
          </g>
          <g id="Group_1144701" data-name="Group 1144701" transform="translate(6.569)">
            <path id="Path_981367" data-name="Path 981367" d="M9,11.675l3.285-1.642V1H9Z" transform="translate(-9 -1)" fill="#ef7385"/>
          </g>
          <g id="Group_1144702" data-name="Group 1144702" transform="translate(0 3.285)">
            <path id="Path_981368" data-name="Path 981368" d="M1,15.675l3.285-1.642V5H1Z" transform="translate(-1 -5)" fill="#ef7385"/>
          </g>
        </g>
        <g id="Group_1144704" data-name="Group 1144704" transform="translate(0)">
          <circle id="Ellipse_11581" data-name="Ellipse 11581" cx="1" cy="1" r="1" transform="translate(14.456 14.456)"/>
          <path id="Path_981369" data-name="Path 981369" d="M10.336,23.157a.821.821,0,1,0-.581-.241A.819.819,0,0,0,10.336,23.157Z" transform="translate(-1.702 -3.848)"/>
          <path id="Path_981370" data-name="Path 981370" d="M27.306,23.157a.821.821,0,1,0-.581-.241A.819.819,0,0,0,27.306,23.157Z" transform="translate(-4.737 -3.848)"/>
          <path id="Path_981371" data-name="Path 981371" d="M17.642,7.642h1.642v3.285h1.642V6H16v4.927h1.642Z" transform="translate(-2.862 -1.073)"/>
          <path id="Path_981372" data-name="Path 981372" d="M33.642,5.642h1.642V15.5h1.642V4H32v9.854h1.642Z" transform="translate(-5.723 -0.715)"/>
          <path id="Path_981373" data-name="Path 981373" d="M25.642,1.642h1.642V11.5h1.642V0H24V9.854h1.642Z" transform="translate(-4.292)"/>
          <path id="Path_981374" data-name="Path 981374" d="M9.642,1.642h1.642V9.854h1.642V0H8V11.5H9.642Z" transform="translate(-1.431)"/>
          <path id="Path_981375" data-name="Path 981375" d="M1.642,5.642H3.285v8.211H4.927V4H0V15.5H1.642Z" transform="translate(0 -0.715)"/>
          <path id="Path_981376" data-name="Path 981376" d="M30.569,36H28.927a1.642,1.642,0,0,1-3.285,0H24a3.285,3.285,0,0,0,6.569,0Z" transform="translate(-4.292 -6.439)"/>
          <path id="Path_981377" data-name="Path 981377" d="M49.269,29.561H47.627a1.644,1.644,0,0,0-1.642-1.642h-.091a5.726,5.726,0,0,0,1.733-4.106V15.989a8.951,8.951,0,0,0,3.285-6.957,9.033,9.033,0,1,0-18.065,0,8.951,8.951,0,0,0,3.285,6.957v7.824A5.729,5.729,0,0,0,38,28.046a3.578,3.578,0,0,0-1.051.461,3.587,3.587,0,0,0-1.977-.589H31.2V24.634H29.561V21.35H27.879a.984.984,0,0,1-.692-1.672l1.189-1.19-5.806-5.806-1.19,1.19a.975.975,0,0,1-1.082.2.95.95,0,0,1-.59-.88V11.5H11.5v1.693a.984.984,0,0,1-1.664.69l-1.2-1.2L2.828,18.488l1.19,1.19a.984.984,0,0,1-.693,1.672H1.642v3.285H0v4.349A17.212,17.212,0,0,0,7.679,43.332l.347.231a4.1,4.1,0,0,1,1.828,3.416v3.932h9.854V47.627h5.748a5.725,5.725,0,0,0,4.015-1.642h3.856l.241.241a4.787,4.787,0,0,0,6.769,0l.241-.241h8.693a1.644,1.644,0,0,0,1.642-1.642V31.2a1.644,1.644,0,0,0-1.642-1.642ZM38.615,26.277h6.527a4.064,4.064,0,0,1-6.527,0Zm.8-16.423h-.821a.821.821,0,1,1,.821-.821ZM42.7,21.35H41.057V11.5H42.7Zm3.285,1.642v.821a4.1,4.1,0,0,1-.083.821H37.856a4.1,4.1,0,0,1-.083-.821v-.821Zm-11.5-13.96a7.39,7.39,0,1,1,11.824,5.9l-.328.246V21.35H44.342V11.5h.821A2.463,2.463,0,1,0,42.7,9.033v.821H41.057V9.033A2.463,2.463,0,1,0,38.594,11.5h.821V21.35H37.773V15.181l-.328-.246A7.33,7.33,0,0,1,34.488,9.033Zm9.854.821V9.033a.821.821,0,1,1,.821.821Zm1.642,19.708v11.5H37.773V29.944a1.964,1.964,0,0,1,1.161-.383Zm-11.01,0a1.952,1.952,0,0,1,1.156.383V41.057H31.2V39.415h3.285V37.773H31.2V36.131h3.285V34.488H32.365l.821-.821-.581-.581c-.077-.077-.147-.159-.218-.241h2.1V31.2H31.448a4.79,4.79,0,0,1-.244-1.5v-.141ZM3.285,22.992h.04A2.627,2.627,0,0,0,5.18,18.517l-.029-.029L8.635,15l.035.036a2.627,2.627,0,0,0,4.469-1.851v-.051h4.927v.051a2.627,2.627,0,0,0,4.475,1.844L22.57,15l3.484,3.484-.029.029a2.626,2.626,0,0,0,1.853,4.474l.027,1.642H22.944a7.387,7.387,0,0,0-14.684,0H3.285Zm16.34,1.642a4.106,4.106,0,0,0-8.046,0H9.919a5.74,5.74,0,0,1,11.365,0h-1.66Zm-1.71,0H13.29a2.448,2.448,0,0,1,4.624,0ZM1.642,28.983V26.277h11.5v3.307a3.7,3.7,0,0,0-.047,7.34,6.643,6.643,0,0,1-3.984,5.32l-.07.03c-.035-.025-.066-.053-.1-.077l-.347-.231A15.575,15.575,0,0,1,1.642,28.983Zm23.813,17H14.781v1.642h3.285v1.642H11.5v-2.29a5.723,5.723,0,0,0-1.2-3.5,8.266,8.266,0,0,0,4.488-7.344v-.821H13.549a2.053,2.053,0,1,1,0-4.106h1.232V26.277H29.561V29.7A6.381,6.381,0,0,0,30.9,33.631l-1.338,1.338v4.446H26.277a1.644,1.644,0,0,1-1.642-1.642H22.992a3.288,3.288,0,0,0,3.285,3.285h3.285v.821A4.11,4.11,0,0,1,25.456,45.984Zm23.813-1.642H39.9l-.722.722a3.221,3.221,0,0,1-4.446,0l-.722-.722H30.641a5.7,5.7,0,0,0,.5-1.642H45.984a1.644,1.644,0,0,0,1.642-1.642V31.2h1.642Z" transform="translate(0)"/>
          <path id="Path_981378" data-name="Path 981378" d="M48,38h4.927v1.642H48Z" transform="translate(-8.585 -6.796)"/>
          <path id="Path_981379" data-name="Path 981379" d="M48,42h4.927v1.642H48Z" transform="translate(-8.585 -7.512)"/>
          <path id="Path_981380" data-name="Path 981380" d="M48,46h1.642v1.642H48Z" transform="translate(-8.585 -8.227)"/>
          <path id="Path_981381" data-name="Path 981381" d="M52,46h1.642v1.642H52Z" transform="translate(-9.3 -8.227)"/>
        </g>
      </g>
    </g>
  </g>
</svg>
