<svg xmlns="http://www.w3.org/2000/svg" xmlns:xlink="http://www.w3.org/1999/xlink" width="108" height="108" viewBox="0 0 108 108">
  <defs>
    <filter id="Fondo" x="0" y="0" width="108" height="108" filterUnits="userSpaceOnUse">
      <feOffset dy="3" input="SourceAlpha"/>
      <feGaussianBlur stdDeviation="3" result="blur"/>
      <feFlood flood-opacity="0.161"/>
      <feComposite operator="in" in2="blur"/>
      <feComposite in="SourceGraphic"/>
    </filter>
  </defs>
  <g id="Group_1144939" data-name="Group 1144939" transform="translate(-1323.999 -1894.17)">
    <g id="Group_1144933" data-name="Group 1144933">
      <g id="Group_1144683" data-name="Group 1144683" transform="translate(0 29.5)">
        <g id="Icono" transform="translate(1332.499 1175.67)">
          <g transform="matrix(1, 0, 0, 1, -8.5, 689)" filter="url(#Fondo)">
            <g id="Fondo-2" data-name="Fondo" transform="translate(9 6)" fill="#f1fef9" stroke="#43896d" stroke-width="3">
              <circle cx="45" cy="45" r="45" stroke="none"/>
              <circle cx="45" cy="45" r="43.5" fill="none"/>
            </g>
          </g>
        </g>
        <g id="Group_1144682" data-name="Group 1144682" transform="translate(1337.202 1885.299)">
          <path id="Path_981323" data-name="Path 981323" d="M72.06,47.153H93.4V43.36l6.523,3.766,6.523,3.766-6.523,3.766L93.4,58.424V54.632H72.06Z" transform="translate(-53.586 -38.092)" fill="#fdb714" fill-rule="evenodd"/>
          <path id="Path_981324" data-name="Path 981324" d="M157.63,6.34a1.676,1.676,0,0,1,1.67,1.67v36.8a1.67,1.67,0,1,1-3.341,0V8.009a1.675,1.675,0,0,1,1.67-1.669Z" transform="translate(-127.294 -5.57)" fill="#e8dab2" fill-rule="evenodd"/>
          <circle id="Ellipse_11577" data-name="Ellipse 11577" cx="13.626" cy="13.626" r="13.626" transform="translate(11.063 40.913) rotate(-45)" fill="#00b2ca"/>
          <circle id="Ellipse_11578" data-name="Ellipse 11578" cx="10.731" cy="10.731" r="10.731" transform="translate(15.157 40.913) rotate(-45)" fill="#e8dab2"/>
          <g id="Group_1144681" data-name="Group 1144681" transform="translate(54.843 21.854)">
            <path id="Path_981325" data-name="Path 981325" d="M371.43,302.687v5.795a1.421,1.421,0,0,0,1.417,1.417h5.795a1.421,1.421,0,0,0,1.417-1.417v-5.795a1.421,1.421,0,0,0-1.417-1.417h-5.795A1.42,1.42,0,0,0,371.43,302.687Z" transform="translate(-371.43 -286.524)" fill="#dd6e42" fill-rule="evenodd"/>
            <path id="Path_981326" data-name="Path 981326" d="M371.43,424.057v5.795a1.421,1.421,0,0,0,1.417,1.417h5.795a1.421,1.421,0,0,0,1.417-1.417v-5.795a1.421,1.421,0,0,0-1.417-1.417h-5.795A1.42,1.42,0,0,0,371.43,424.057Z" transform="translate(-371.43 -393.149)" fill="#dd6e42" fill-rule="evenodd"/>
            <path id="Path_981327" data-name="Path 981327" d="M371.43,181.307V187.1a1.421,1.421,0,0,0,1.417,1.417h5.795a1.421,1.421,0,0,0,1.417-1.417v-5.795a1.421,1.421,0,0,0-1.417-1.417h-5.795A1.42,1.42,0,0,0,371.43,181.307Z" transform="translate(-371.43 -179.89)" fill="#dd6e42" fill-rule="evenodd"/>
          </g>
          <path id="Path_981328" data-name="Path 981328" d="M81.5,41.684a.77.77,0,1,1,0-1.54h2.17V26.3a.77.77,0,0,1,.77-.77h3.41a.77.77,0,1,1,0,1.54H85.213V40.144h2.64a.77.77,0,0,1,0,1.54h-2.64V54.763h2.64a.77.77,0,0,1,0,1.54h-3.41a.77.77,0,0,1-.77-.77V41.684Zm9.378-18.413v5.795a.651.651,0,0,0,.648.648h5.795a.651.651,0,0,0,.648-.648V23.271a.651.651,0,0,0-.648-.648H91.529a.651.651,0,0,0-.648.648Zm-1.539,5.795V23.271a2.19,2.19,0,0,1,2.186-2.186h5.795a2.19,2.19,0,0,1,2.186,2.186v5.795a2.19,2.19,0,0,1-2.186,2.186H91.528a2.19,2.19,0,0,1-2.186-2.186Zm1.539,23.7v5.795a.651.651,0,0,0,.648.648h5.795a.651.651,0,0,0,.648-.648V52.762a.651.651,0,0,0-.648-.648H91.529a.651.651,0,0,0-.648.648Zm-1.539,5.795V52.762a2.19,2.19,0,0,1,2.186-2.186h5.795a2.19,2.19,0,0,1,2.186,2.186v5.795a2.19,2.19,0,0,1-2.186,2.186H91.528a2.19,2.19,0,0,1-2.186-2.186Zm1.539-20.54v5.795a.651.651,0,0,0,.648.648h5.795a.651.651,0,0,0,.648-.648V38.017a.651.651,0,0,0-.648-.648H91.529a.651.651,0,0,0-.648.648Zm-1.539,5.795V38.017a2.19,2.19,0,0,1,2.186-2.186h5.795a2.19,2.19,0,0,1,2.186,2.186v5.795A2.19,2.19,0,0,1,97.323,46H91.528a2.19,2.19,0,0,1-2.186-2.186ZM62.733,37.474a.768.768,0,0,1,1.329-.77l1.825,3.161,5.1-2.947a.768.768,0,0,1,.77,1.329l-5.771,3.331a.768.768,0,0,1-1.05-.279Zm3.643-6.492v.805a.77.77,0,0,1-1.54,0v-.805a9.925,9.925,0,0,0-3.534.945l.4.7a.766.766,0,0,1-1.329.763l-.4-.7a10.006,10.006,0,0,0-2.589,2.588l.7.4a.768.768,0,0,1-.77,1.329l-.7-.4a9.9,9.9,0,0,0-.945,3.535h.807a.767.767,0,0,1,0,1.533h-.807a9.882,9.882,0,0,0,.946,3.537l.7-.4a.766.766,0,1,1,.763,1.329l-.7.4a10.006,10.006,0,0,0,2.588,2.589l.4-.7a.768.768,0,0,1,1.329.77l-.4.7a9.9,9.9,0,0,0,3.535.945v-.807a.767.767,0,1,1,1.533,0v.807a9.9,9.9,0,0,0,3.535-.945l-.4-.7a.768.768,0,1,1,1.329-.77l.4.7a9.967,9.967,0,0,0,2.586-2.586l-.7-.4a.768.768,0,0,1,.77-1.329l.7.4a9.9,9.9,0,0,0,.945-3.535h-.807a.767.767,0,1,1,0-1.533h.807a9.9,9.9,0,0,0-.945-3.535l-.7.4a.768.768,0,0,1-.77-1.329l.7-.4a10,10,0,0,0-2.586-2.588l-.4.7a.768.768,0,1,1-1.329-.77l.4-.7A9.921,9.921,0,0,0,66.377,30.982Zm-.77-1.568a11.5,11.5,0,1,0,8.132,3.369,11.466,11.466,0,0,0-8.132-3.369Zm0-2.9q.454,0,.9.028V2.439a.9.9,0,0,0-1.8,0V26.546q.446-.027.9-.028Zm2.441.207V17.31h6.265v3.023h0A.768.768,0,0,0,75.466,21l6.523-3.766h0l6.513-3.76a.766.766,0,0,0,.007-1.333l-6.48-3.742c-.013-.009-.026-.017-.039-.024L75.512,4.631a.761.761,0,0,0-.431-.132.77.77,0,0,0-.77.77V8.292H68.047V2.439a2.44,2.44,0,0,0-4.88,0V8.29H53.743a.77.77,0,0,0-.77.77v7.48a.77.77,0,0,0,.77.77h9.423v9.415a14.38,14.38,0,1,0,4.881,0Zm6.65,5.1a12.855,12.855,0,1,0,3.766,9.091A12.818,12.818,0,0,0,74.7,31.824ZM63.167,15.77H54.513V9.83h8.654Zm4.88-5.941h7.035a.77.77,0,0,0,.77-.77V6.6l5.369,3.1.043.023L86.6,12.8l-5.375,3.1h0L75.851,19V16.539a.77.77,0,0,0-.77-.77H68.047Z" transform="translate(-35.269)" fill="#010101" fill-rule="evenodd"/>
        </g>
      </g>
    </g>
  </g>
</svg>
