<svg xmlns="http://www.w3.org/2000/svg" xmlns:xlink="http://www.w3.org/1999/xlink" width="108" height="108" viewBox="0 0 108 108">
  <defs>
    <filter id="Fondo" x="0" y="0" width="108" height="108" filterUnits="userSpaceOnUse">
      <feOffset dy="3" input="SourceAlpha"/>
      <feGaussianBlur stdDeviation="3" result="blur"/>
      <feFlood flood-opacity="0.161"/>
      <feComposite operator="in" in2="blur"/>
      <feComposite in="SourceGraphic"/>
    </filter>
  </defs>
  <g id="Group_1144944" data-name="Group 1144944" transform="translate(-1218.999 -3336.17)">
    <g id="Group_1144582" data-name="Group 1144582" transform="translate(0 29.5)">
      <g transform="matrix(1, 0, 0, 1, 1219, 3306.67)" filter="url(#Fondo)">
        <g id="Fondo-2" data-name="Fondo" transform="translate(9 6)" fill="#f1fef9" stroke="#43896d" stroke-width="3">
          <circle cx="45" cy="45" r="45" stroke="none"/>
          <circle cx="45" cy="45" r="43.5" fill="none"/>
        </g>
      </g>
      <g id="Group_1144581" data-name="Group 1144581" transform="translate(1241.309 3310.447)">
        <g id="Group_1144580" data-name="Group 1144580" transform="translate(8.873 22.384)">
          <g id="Group_1144577" data-name="Group 1144577" transform="translate(0 0)">
            <path id="Path_981074" data-name="Path 981074" d="M52.528,68.184a2.232,2.232,0,0,1,2.227,2.227v40.982a2.232,2.232,0,0,1-2.227,2.227h-34.3A2.231,2.231,0,0,1,16,111.394V70.411a2.232,2.232,0,0,1,2.227-2.227h34.3Z" transform="translate(-16 -63.942)" fill="#837683" fill-rule="evenodd"/>
            <path id="Path_981075" data-name="Path 981075" d="M322.861,113.622h2.874a2.232,2.232,0,0,0,2.227-2.227V70.412a2.232,2.232,0,0,0-2.227-2.227h-2.874Z" transform="translate(-289.208 -63.943)" fill="#685e68" fill-rule="evenodd"/>
            <path id="Path_981076" data-name="Path 981076" d="M75.809,96.437H45.255a1,1,0,0,0-1,1v37.237a1,1,0,0,0,1,1H75.809a1,1,0,0,0,1-1V97.439a1,1,0,0,0-1-1Z" transform="translate(-41.155 -89.097)" fill="#eceff1" fill-rule="evenodd"/>
            <path id="Path_981077" data-name="Path 981077" d="M322.861,135.677h1c.031,0,.063,0,.094,0a1,1,0,0,0,.908-1V97.439a1,1,0,0,0-.908-1c-.031,0-.062,0-.094,0h-1Z" transform="translate(-289.208 -89.097)" fill="#d1d1d6" fill-rule="evenodd"/>
            <path id="Path_981078" data-name="Path 981078" d="M93.3,349.111h3.756A1.243,1.243,0,0,1,98.3,350.35v3.756a1.243,1.243,0,0,1-1.239,1.239H93.3a1.243,1.243,0,0,1-1.239-1.239V350.35A1.243,1.243,0,0,1,93.3,349.111Z" transform="translate(-83.72 -314.06)" fill="#fe646f" fill-rule="evenodd"/>
            <path id="Path_981079" data-name="Path 981079" d="M127.611,349.111h1.1a1.243,1.243,0,0,1,1.239,1.239v3.756a1.243,1.243,0,0,1-1.239,1.239h-1.1a1.243,1.243,0,0,0,1.239-1.239V350.35A1.243,1.243,0,0,0,127.611,349.111Z" transform="translate(-115.371 -314.06)" fill="#fd4755" fill-rule="evenodd"/>
            <path id="Path_981080" data-name="Path 981080" d="M93.3,253.052h3.756a1.243,1.243,0,0,1,1.239,1.239v3.756a1.243,1.243,0,0,1-1.239,1.239H93.3a1.243,1.243,0,0,1-1.239-1.239v-3.756A1.243,1.243,0,0,1,93.3,253.052Z" transform="translate(-83.72 -228.536)" fill="#ffe177" fill-rule="evenodd"/>
            <path id="Path_981081" data-name="Path 981081" d="M127.611,253.052h1.1a1.243,1.243,0,0,1,1.239,1.239v3.756a1.243,1.243,0,0,1-1.239,1.239h-1.1a1.243,1.243,0,0,0,1.239-1.239v-3.756A1.243,1.243,0,0,0,127.611,253.052Z" transform="translate(-115.371 -228.536)" fill="#ffd064" fill-rule="evenodd"/>
            <path id="Path_981082" data-name="Path 981082" d="M93.3,156.993h3.756a1.243,1.243,0,0,1,1.239,1.239v3.756a1.243,1.243,0,0,1-1.239,1.239H93.3a1.243,1.243,0,0,1-1.239-1.239v-3.756A1.243,1.243,0,0,1,93.3,156.993Z" transform="translate(-83.72 -143.012)" fill="#8ac9fe" fill-rule="evenodd"/>
            <path id="Path_981083" data-name="Path 981083" d="M127.611,156.993h1.1a1.243,1.243,0,0,1,1.239,1.239v3.756a1.243,1.243,0,0,1-1.239,1.239h-1.1a1.243,1.243,0,0,0,1.239-1.239v-3.756A1.243,1.243,0,0,0,127.611,156.993Z" transform="translate(-115.371 -143.012)" fill="#60b7ff" fill-rule="evenodd"/>
            <path id="Path_981084" data-name="Path 981084" d="M115.5,32.4h3.175a.983.983,0,0,0,.92-.605,3.788,3.788,0,0,1,6.958,0,.984.984,0,0,0,.92.605h3.175a1,1,0,0,1,1,1v3.788a1,1,0,0,1-1,1H115.5a1,1,0,0,1-1-1V33.4A1,1,0,0,1,115.5,32.4Z" transform="translate(-103.698 -29.507)" fill="#e3a76f" fill-rule="evenodd"/>
            <path id="Path_981085" data-name="Path 981085" d="M129.646,60.7H114.5a1,1,0,0,0,1,1h15.147a1,1,0,0,0,1-1V56.91a1,1,0,0,0-1-1V59.7a1,1,0,0,1-1,1Z" transform="translate(-103.697 -53.013)" fill="#c48958" fill-rule="evenodd"/>
          </g>
          <g id="Group_1144578" data-name="Group 1144578" transform="translate(24.869 10.159)">
            <path id="Path_981086" data-name="Path 981086" d="M244.4,155.744h14.353q.862-4.824,5.819-3.7,3.307.574,3.237-.925c.011-1.551.277-2.115.677-2.414.885-.683-.1-1.56-1.114-2.11.852-.068,1.947-.753,1.711-1.3-.377-1.291-.2-1.81.384-2.112q1.7-.832.694-2.119a12.041,12.041,0,0,1-1.855-2.583,4.28,4.28,0,0,1-.482-2.507,12.562,12.562,0,1,0-25.061-1.268,12.511,12.511,0,0,0,2.976,8.117,4.283,4.283,0,0,1,1.032,2.4C247.109,148.309,246.282,151.919,244.4,155.744Z" transform="translate(-242.763 -122.143)" fill="#ffddce" fill-rule="evenodd"/>
            <path id="Path_981087" data-name="Path 981087" d="M244.4,155.744h1.2c1.88-3.825,2.708-7.436,2.369-10.523a4.282,4.282,0,0,0-1.032-2.4,12.561,12.561,0,0,1,8.988-20.665q-.3-.014-.6-.014a12.561,12.561,0,0,0-9.586,20.679,4.282,4.282,0,0,1,1.032,2.4C247.108,148.309,246.28,151.919,244.4,155.744Z" transform="translate(-242.761 -122.143)" fill="#f1cbbc" fill-rule="evenodd"/>
          </g>
          <g id="Group_1144579" data-name="Group 1144579" transform="translate(31.278 16.884)">
            <path id="Path_981088" data-name="Path 981088" d="M311.615,193.1v-3.252a3.1,3.1,0,0,0,1.6.43,2.1,2.1,0,1,0,0-4.073,3.1,3.1,0,0,0-1.6.43v-2.406a.77.77,0,0,0-.768-.768h-8.871a.77.77,0,0,0-.768.768V193.1a.77.77,0,0,0,.768.768h2.406a3.1,3.1,0,0,1-.43-1.6,2.1,2.1,0,1,1,4.073,0,3.1,3.1,0,0,1-.43,1.6h3.252A.769.769,0,0,0,311.615,193.1Z" transform="translate(-301.208 -183.46)" fill="#6cf5c2" fill-rule="evenodd"/>
            <path id="Path_981089" data-name="Path 981089" d="M315.736,188.791a1.622,1.622,0,0,0,.1-.548,2.379,2.379,0,0,0-2.612-2.036,3.1,3.1,0,0,0-1.6.43v1.1a3.1,3.1,0,0,1,1.6-.43A2.6,2.6,0,0,1,315.736,188.791Zm-4.121-3.464v-1.1a.77.77,0,0,0-.768-.768h-8.871a.77.77,0,0,0-.768.768v1.1a.77.77,0,0,1,.768-.768h8.871A.77.77,0,0,1,311.615,185.327Z" transform="translate(-301.208 -183.462)" fill="#00e499" fill-rule="evenodd"/>
          </g>
        </g>
        <path id="Path_981090" data-name="Path 981090" d="M52.162,45.208a2.244,2.244,0,0,1-1.149-.3.877.877,0,0,0-1.333.749V48.8h-1.9a4.289,4.289,0,0,0,.063-.728,3.244,3.244,0,0,0-2.914-3.488,3.244,3.244,0,0,0-2.914,3.488,4.191,4.191,0,0,0,.062.728H41.027V40.145H49.68v2.3a.877.877,0,0,0,1.333.749,2.235,2.235,0,0,1,1.149-.3c.941,0,1.735.531,1.735,1.158s-.794,1.159-1.735,1.159Zm0-4.072a4.18,4.18,0,0,0-.727.063V39.268a.877.877,0,0,0-.878-.877H40.15a.877.877,0,0,0-.876.877V49.676a.877.877,0,0,0,.876.877h3.175a.877.877,0,0,0,.749-1.333,2.245,2.245,0,0,1-.3-1.15c0-.94.531-1.734,1.159-1.734s1.159.794,1.159,1.734a2.236,2.236,0,0,1-.3,1.15.877.877,0,0,0,.75,1.333h4.019a.877.877,0,0,0,.878-.877V46.9a4.191,4.191,0,0,0,.727.063,3.244,3.244,0,0,0,3.49-2.914A3.244,3.244,0,0,0,52.162,41.136Zm8.473,11.227c0-.018-.014-.13-.169-.334a12.92,12.92,0,0,1-1.961-2.744,5.179,5.179,0,0,1-.577-3,11.685,11.685,0,1,0-20.543,6.369,5.181,5.181,0,0,1,1.235,2.871,19.516,19.516,0,0,1-1.867,9.742H49.027a5.2,5.2,0,0,1,2.053-3.157,5.871,5.871,0,0,1,4.642-.525c1.628.28,2.1.071,2.189.018a.184.184,0,0,0,0-.042c0-.015,0-.03,0-.047.012-1.614.291-2.51.958-3.053a3.281,3.281,0,0,0-.936-.693.877.877,0,0,1,.35-1.645,1.854,1.854,0,0,0,.887-.358c-.216-.774-.522-2.238.873-2.961l.019-.01c.514-.251.576-.431.576-.432ZM46.749,69.835V67.023H45.405v1.941a.877.877,0,0,1-.877.878H11.971a.877.877,0,0,1-.878-.878V29.725a.877.877,0,0,1,.878-.878H18.8V27.5H11.1a1.351,1.351,0,0,0-1.35,1.349V69.835a1.351,1.351,0,0,0,1.35,1.35H45.4A1.351,1.351,0,0,0,46.749,69.835Zm-26.2-43.678h4.017a.877.877,0,0,0,.853-.671,2.91,2.91,0,0,1,5.656,0,.878.878,0,0,0,.853.671h4.017v4.036h-15.4ZM37.7,31.071a.877.877,0,0,1-.877.877H19.674a.877.877,0,0,1-.878-.877V30.6H12.848V68.087h30.8V67.023H35.379a.878.878,0,0,1-.788-1.265q.523-1.064.932-2.1h-6.7a.877.877,0,0,1,0-1.755h7.32a19.09,19.09,0,0,0,.629-2.7H28.82a.877.877,0,0,1,0-1.755h8.116a12.073,12.073,0,0,0-.06-1.73,3.387,3.387,0,0,0-.829-1.927q-.276-.326-.531-.669h-6.7a.877.877,0,0,1,0-1.755h5.592a13.47,13.47,0,0,1-1.066-2.7H28.82a.877.877,0,0,1,0-1.755h4.166a13.452,13.452,0,0,1,.115-4.327H28.82a.877.877,0,0,1,0-1.755h4.74a13.4,13.4,0,0,1,1.257-2.7h-6a.878.878,0,0,1,0-1.755h7.272a13.453,13.453,0,0,1,7.56-4.449V30.6H37.7v.468ZM45.4,27.5a1.351,1.351,0,0,1,1.349,1.349v2.822c-.148-.005-.3-.009-.446-.009-.3,0-.6.011-.9.031V29.725a.877.877,0,0,0-.877-.878H37.7V27.5ZM61.829,50.923l-.046-.054a11.2,11.2,0,0,1-1.721-2.393,3.382,3.382,0,0,1-.387-2.014c.045-.449.068-.9.068-1.356A13.461,13.461,0,0,0,48.5,31.847V28.853a3.107,3.107,0,0,0-3.1-3.1H37.7V25.28a.877.877,0,0,0-.877-.878H32.567a4.667,4.667,0,0,0-8.635,0H19.674a.878.878,0,0,0-.878.878v.469H11.1a3.108,3.108,0,0,0-3.1,3.1V69.835a3.108,3.108,0,0,0,3.1,3.1H45.4a3.107,3.107,0,0,0,3.1-3.1V67.023h1.229A.878.878,0,0,0,50.6,66.3a3.935,3.935,0,0,1,1.453-2.726,4.252,4.252,0,0,1,3.307-.272l.044.009c1.842.319,3.014.191,3.688-.4a1.716,1.716,0,0,0,.577-1.4c.008-.944.123-1.547.325-1.7L60,59.8a1.586,1.586,0,0,0,.681-1.408,1.979,1.979,0,0,0-.555-1.155,2.273,2.273,0,0,0,.632-.654,1.338,1.338,0,0,0,.135-1.173c-.23-.8-.134-.991-.133-.991a.239.239,0,0,1,.081-.055,2.519,2.519,0,0,0,1.5-1.611A2.144,2.144,0,0,0,61.829,50.923ZM29.251,25.489a1,1,0,1,0-1,1A1,1,0,0,0,29.251,25.489ZM22.571,62.43a.367.367,0,0,1-.362.362H18.453a.367.367,0,0,1-.362-.362V58.674a.367.367,0,0,1,.362-.362h3.756a.367.367,0,0,1,.362.362Zm-.362-5.873a2.119,2.119,0,0,1,2.116,2.117V62.43a2.119,2.119,0,0,1-2.116,2.117H18.453a2.119,2.119,0,0,1-2.116-2.117V58.674a2.119,2.119,0,0,1,2.116-2.117Zm.362-4.662a.367.367,0,0,1-.362.362H18.453a.367.367,0,0,1-.362-.362V48.139a.367.367,0,0,1,.362-.362h3.756a.367.367,0,0,1,.362.362Zm-.362-5.873a2.119,2.119,0,0,1,2.116,2.116V51.9a2.119,2.119,0,0,1-2.116,2.116H18.453A2.119,2.119,0,0,1,16.337,51.9V48.139a2.119,2.119,0,0,1,2.116-2.116Zm.362-8.418v3.756a.367.367,0,0,1-.362.362H18.453a.367.367,0,0,1-.362-.362V37.6a.366.366,0,0,1,.362-.362h3.756A.366.366,0,0,1,22.571,37.6Zm-6.235,0a2.119,2.119,0,0,1,2.116-2.117H22.21A2.119,2.119,0,0,1,24.326,37.6v3.756a2.119,2.119,0,0,1-2.116,2.117H18.453a2.119,2.119,0,0,1-2.116-2.117Z" fill-rule="evenodd"/>
      </g>
    </g>
  </g>
</svg>
