<svg xmlns="http://www.w3.org/2000/svg" xmlns:xlink="http://www.w3.org/1999/xlink" width="108" height="108" viewBox="0 0 108 108">
  <defs>
    <filter id="Fondo" x="0" y="0" width="108" height="108" filterUnits="userSpaceOnUse">
      <feOffset dy="3" input="SourceAlpha"/>
      <feGaussianBlur stdDeviation="3" result="blur"/>
      <feFlood flood-opacity="0.161"/>
      <feComposite operator="in" in2="blur"/>
      <feComposite in="SourceGraphic"/>
    </filter>
  </defs>
  <g id="Group_1144943" data-name="Group 1144943" transform="translate(-903.999 -3336.17)">
    <g id="Group_1144882" data-name="Group 1144882" transform="translate(0 29.5)">
      <g transform="matrix(1, 0, 0, 1, 904, 3306.67)" filter="url(#Fondo)">
        <g id="Fondo-2" data-name="Fondo" transform="translate(9 6)" fill="#f1fef9" stroke="#43896d" stroke-width="3">
          <circle cx="45" cy="45" r="45" stroke="none"/>
          <circle cx="45" cy="45" r="43.5" fill="none"/>
        </g>
      </g>
      <g id="Layer_5" transform="translate(930.924 3326.948)">
        <g id="Group_1144881" data-name="Group 1144881" transform="translate(0.022 0.011)">
          <g id="Group_1144876" data-name="Group 1144876" transform="translate(0 0)">
            <g id="Group_1144869" data-name="Group 1144869" transform="translate(6.461)">
              <path id="Path_981478" data-name="Path 981478" d="M87.3,14.565l-3.667,4.121-3.476,3.906.215-4.169A17.779,17.779,0,0,0,66.2,25.77L65.368,20.8,60.1,20.574A25.652,25.652,0,0,1,80.575,10.432H80.8L81.029,6l3.464,4.731Z" transform="translate(-59.384 -5.285)" fill="#d22732"/>
              <path id="Path_981479" data-name="Path 981479" d="M60.925,21.213l-.167-.024a.7.7,0,0,1-.538-.573l-.741-4.4-4.695-.2a.713.713,0,0,1-.609-.418.721.721,0,0,1,.072-.741,26.774,26.774,0,0,1,9.115-7.586,26.279,26.279,0,0,1,11.48-2.831L75.033.69a.731.731,0,0,1,.514-.645.68.68,0,0,1,.776.263l6.283,8.565a.719.719,0,0,1-.048.9L75.415,17.8a.738.738,0,0,1-.812.191.746.746,0,0,1-.442-.7L74.34,13.9A17.1,17.1,0,0,0,61.5,20.915a.692.692,0,0,1-.573.3Zm-4.659-6.57,3.858.167a.724.724,0,0,1,.669.6l.573,3.381a18.365,18.365,0,0,1,13.726-6.355.716.716,0,0,1,.717.765L75.7,15.312l5.4-6.068L76.359,2.769l-.131,2.425a.7.7,0,0,1-.7.681H75.3a24.841,24.841,0,0,0-19.03,8.768Z" transform="translate(-54.105 -0.011)" fill="#231f20"/>
            </g>
            <g id="Group_1144870" data-name="Group 1144870" transform="translate(13.093 7.352)">
              <path id="Path_981480" data-name="Path 981480" d="M188.182,63.364a.714.714,0,0,1-.167-1.41h.024c.765-.167,1.553-.3,2.341-.394a.715.715,0,0,1,.8.621.723.723,0,0,1-.633.8c-.741.084-1.481.215-2.21.37Z" transform="translate(-178.163 -61.555)" fill="#231f20"/>
              <path id="Path_981481" data-name="Path 981481" d="M110.353,76.268a.736.736,0,0,1-.6-.3.726.726,0,0,1,.179-1,26.142,26.142,0,0,1,6.57-3.321.725.725,0,0,1,.872.526.711.711,0,0,1-.406.824,25.107,25.107,0,0,0-6.212,3.142A.715.715,0,0,1,110.353,76.268Z" transform="translate(-109.627 -70.421)" fill="#231f20"/>
            </g>
            <g id="Group_1144871" data-name="Group 1144871" transform="translate(1.116 14.332)">
              <path id="Path_981482" data-name="Path 981482" d="M25.016,134.589a17.723,17.723,0,0,0-.944,11.79l-5.734-1.063-1.708,4.133a25.83,25.83,0,0,1,2.222-20.367L15.4,126l5.34.239,5.268.227.836,4.969.944,5.638Z" transform="translate(-14.679 -125.282)" fill="#1f315f"/>
              <path id="Path_981483" data-name="Path 981483" d="M11.314,144.875h-.036a.7.7,0,0,1-.645-.5,26.541,26.541,0,0,1,1.995-20.427l-3.022-2.7a.73.73,0,0,1-.072-1.015.712.712,0,0,1,.585-.239l10.608.466a.724.724,0,0,1,.669.6l1.78,10.608a.681.681,0,0,1-.358.741.724.724,0,0,1-.824-.1l-2.019-1.8a17.017,17.017,0,0,0-1.1,6.033,16.807,16.807,0,0,0,.573,4.36.731.731,0,0,1-.526.884.827.827,0,0,1-.3.012l-5.161-.956-1.493,3.6A.7.7,0,0,1,11.314,144.875Zm.741-23.366,1.959,1.744a.726.726,0,0,1,.143.9,24.883,24.883,0,0,0-3.273,12.388,25.476,25.476,0,0,0,.573,5.388l.908-2.174a.716.716,0,0,1,.788-.43l4.647.86a18.652,18.652,0,0,1-.358-3.643,18.165,18.165,0,0,1,1.6-7.526.712.712,0,0,1,.514-.406.731.731,0,0,1,.621.155l1.254,1.123-1.35-8.016Z" transform="translate(-9.362 -119.991)" fill="#231f20"/>
            </g>
            <g id="Group_1144872" data-name="Group 1144872" transform="translate(0 33.65)">
              <path id="Path_981484" data-name="Path 981484" d="M25.591,304.806l2.688,4.719A25.839,25.839,0,0,1,9.787,295.477L6,297.519l2.353-5.686,1.708-4.133,5.734,1.063,4.838.884-3.787,2.031a17.788,17.788,0,0,0,12.388,9.879Z" transform="translate(-5.286 -286.984)" fill="#02648e"/>
              <path id="Path_981485" data-name="Path 981485" d="M23.015,304.962h-.131A26.516,26.516,0,0,1,4.224,291.177l-3.154,1.7a.706.706,0,0,1-.812-.107.7.7,0,0,1-.179-.8l4.062-9.819a.716.716,0,0,1,.788-.43L15.5,283.663a.725.725,0,0,1,.573.6.715.715,0,0,1-.358.741l-3.19,1.708a17.126,17.126,0,0,0,11.6,8.864.728.728,0,0,1,.538.526.7.7,0,0,1-.215.717l-3.213,2.855,2.4,4.217a.706.706,0,0,1-.036.776.714.714,0,0,1-.585.3ZM4.523,289.481a.75.75,0,0,1,.227.036.709.709,0,0,1,.418.37,25.133,25.133,0,0,0,16.437,13.32l-1.9-3.321a.726.726,0,0,1,.143-.9l2.64-2.341a18.591,18.591,0,0,1-11.552-9.939.707.707,0,0,1,.311-.932l1.983-1.075-7.992-1.469-3.07,7.418,2.019-1.087a.663.663,0,0,1,.334-.084Z" transform="translate(-0.022 -281.704)" fill="#231f20"/>
            </g>
            <g id="Group_1144873" data-name="Group 1144873" transform="translate(19.59 41.906)">
              <path id="Path_981486" data-name="Path 981486" d="M197.678,360.838a25.682,25.682,0,0,1-20.332,9.951q-.7,0-1.4-.036l-.693,4.133-2.568-4.516L170,365.652l3.643-3.249,4.384-3.906-.729,4.289h.048A17.647,17.647,0,0,0,190.63,356.8l1.828,4.826Z" transform="translate(-169.285 -356.085)" fill="#89c45e"/>
              <path id="Path_981487" data-name="Path 981487" d="M169.982,370.329a.714.714,0,0,1-.621-.37l-5.256-9.222a.726.726,0,0,1,.143-.9l8.028-7.155a.7.7,0,0,1,.824-.084.715.715,0,0,1,.358.741l-.585,3.44a17.03,17.03,0,0,0,11.946-5.722.705.705,0,0,1,.788-.2.747.747,0,0,1,.43.442l1.613,4.265,4.647-.717a.747.747,0,0,1,.729.346.725.725,0,0,1-.06.8,26.526,26.526,0,0,1-9.079,7.454,26.191,26.191,0,0,1-11.814,2.783h-.788l-.6,3.512a.739.739,0,0,1-.585.585Zm-4.348-9.807,3.978,6.988.358-2.15a.727.727,0,0,1,.753-.6c.442.024.9.036,1.35.036a24.83,24.83,0,0,0,18.564-8.243l-3.345.514a.724.724,0,0,1-.776-.454l-1.422-3.763a18.489,18.489,0,0,1-13.021,5.376h-.048a.686.686,0,0,1-.549-.251.748.748,0,0,1-.155-.585l.382-2.27Z" transform="translate(-164.011 -350.811)" fill="#231f20"/>
            </g>
            <g id="Group_1144874" data-name="Group 1144874" transform="translate(38.237 20.064)">
              <path id="Path_981488" data-name="Path 981488" d="M337.03,196.979l3.381,1.995-5.28.812-5.22.788-1.828-4.826-1.983-5.22,4.038,2.377a17.788,17.788,0,0,0,1.254-15.159l5.173.9,1.911-4.742A25.858,25.858,0,0,1,337.03,196.979Z" transform="translate(-325.385 -173.191)" fill="#fdc00f"/>
              <path id="Path_981489" data-name="Path 981489" d="M324.637,196.069a.714.714,0,0,1-.669-.454l-3.811-10.058a.724.724,0,0,1,.2-.8.763.763,0,0,1,.836-.072l3.393,2.007a17.053,17.053,0,0,0,.86-13.917.717.717,0,0,1,.418-.92.65.65,0,0,1,.37-.036l4.611.788,1.684-4.181a.717.717,0,0,1,1.326-.024,26.491,26.491,0,0,1-1.135,23.091l2.771,1.637a.733.733,0,0,1,.346.753.71.71,0,0,1-.6.573l-10.5,1.613Zm-2.413-9.1,2.879,7.6,7.944-1.218-1.66-.968a.72.72,0,0,1-.251-.98,25.16,25.16,0,0,0,2.055-20.762l-1.23,3.046a.716.716,0,0,1-.788.442l-3.99-.693a18.531,18.531,0,0,1-1.7,14.622.88.88,0,0,1-.442.334.736.736,0,0,1-.549-.084Z" transform="translate(-320.111 -167.968)" fill="#231f20"/>
            </g>
            <g id="Group_1144875" data-name="Group 1144875" transform="translate(29.993 4.723)">
              <path id="Path_981490" data-name="Path 981490" d="M279.773,55.814l-2.055,5.113-1.911,4.742-5.173-.9-5.411-.944,3.894-2.138A17.74,17.74,0,0,0,257.1,53.556l3.667-4.121L257.96,45.6a25.687,25.687,0,0,1,18.169,12.22Z" transform="translate(-256.383 -44.877)" fill="#f4841b"/>
              <path id="Path_981491" data-name="Path 981491" d="M270.525,61.059h-.119l-10.584-1.828a.738.738,0,0,1-.585-.6.715.715,0,0,1,.358-.741l3.213-1.78a16.98,16.98,0,0,0-11.11-7.155.7.7,0,0,1-.585-.824.765.765,0,0,1,.167-.358l3.285-3.7-2.473-3.381a.747.747,0,0,1-.036-.8.761.761,0,0,1,.729-.334A26.325,26.325,0,0,1,271.1,51.539l3.046-1.684a.724.724,0,0,1,.98.275.71.71,0,0,1,.036.621l-3.966,9.855A.714.714,0,0,1,270.525,61.059Zm-8.446-2.915,8,1.386,3-7.442-1.887,1.039a.728.728,0,0,1-.968-.263,24.9,24.9,0,0,0-15.9-11.552l1.744,2.377a.719.719,0,0,1-.048.9l-2.843,3.2a18.48,18.48,0,0,1,11.265,8.195.722.722,0,0,1-.239.991.042.042,0,0,0-.024.012Z" transform="translate(-251.101 -39.551)" fill="#231f20"/>
            </g>
          </g>
          <g id="Group_1144880" data-name="Group 1144880" transform="translate(19.02 17.153)">
            <g id="Group_1144877" data-name="Group 1144877" transform="translate(4.498 14.896)">
              <path id="Path_981492" data-name="Path 981492" d="M202.9,274.3h6.714v11.862H202.9Z" transform="translate(-202.183 -273.583)" fill="#02648e"/>
              <path id="Path_981493" data-name="Path 981493" d="M204.33,281.584h-6.714a.719.719,0,0,1-.717-.717v-11.85a.719.719,0,0,1,.717-.717h6.714a.719.719,0,0,1,.717.717v11.85A.719.719,0,0,1,204.33,281.584Zm-6-1.434h5.28V269.733h-5.28Z" transform="translate(-196.9 -268.3)" fill="#231f20"/>
            </g>
            <path id="Path_981494" data-name="Path 981494" d="M225.617,304.573a.719.719,0,0,1-.717-.717v-8.039a.717.717,0,0,1,1.433,0v8.039A.719.719,0,0,1,225.617,304.573Z" transform="translate(-217.057 -277.002)" fill="#231f20"/>
            <g id="Group_1144878" data-name="Group 1144878" transform="translate(0 6.415)">
              <path id="Path_981495" data-name="Path 981495" d="M178.734,209.966l-2.174-3.894v5.71h-6.737v-5.853l-2.389,4.36a1.129,1.129,0,0,1-1.493.454,1.115,1.115,0,0,1-.5-1.493.012.012,0,0,1,.012-.012c.729-1.41,2.019-3.894,2.437-4.6.633-1.051.932-1.338,2.162-1.338h5.889c1.23,0,1.613.406,2.246,1.457.454.753,1.684,2.927,2.389,4.181a1.066,1.066,0,0,1-.406,1.434A1.048,1.048,0,0,1,178.734,209.966Z" transform="translate(-164.596 -202.583)" fill="#d3d3d3"/>
              <path id="Path_981496" data-name="Path 981496" d="M171.221,207.215h-6.749a.766.766,0,0,1-.514-.215.754.754,0,0,1-.2-.514V203.44l-1.051,1.911a1.838,1.838,0,1,1-3.249-1.72c.729-1.422,2.019-3.918,2.461-4.647a2.674,2.674,0,0,1,2.771-1.684h5.889a2.916,2.916,0,0,1,2.867,1.8c.454.753,1.7,2.963,2.389,4.2a1.762,1.762,0,0,1-.669,2.4,1.722,1.722,0,0,1-1.35.167,1.778,1.778,0,0,1-1.075-.848l-.812-1.469v2.927a.684.684,0,0,1-.2.514A.694.694,0,0,1,171.221,207.215Zm-6.033-1.434H170.5v-4.993a.712.712,0,0,1,1.338-.346l2.174,3.894a.376.376,0,0,0,.2.155.294.294,0,0,0,.263-.024.333.333,0,0,0,.119-.454c-.693-1.242-1.923-3.428-2.365-4.169-.573-.944-.753-1.111-1.637-1.111h-5.9c-.92,0-1,.1-1.553.992-.3.5-1.171,2.162-2.413,4.563a.432.432,0,0,0-.024.3.406.406,0,0,0,.514.263.4.4,0,0,0,.227-.191l2.389-4.36a.717.717,0,0,1,1.35.346Z" transform="translate(-159.245 -197.3)" fill="#231f20"/>
            </g>
            <g id="Group_1144879" data-name="Group 1144879" transform="translate(5.012)">
              <path id="Path_981497" data-name="Path 981497" d="M209.907,149.6h.143a2.8,2.8,0,0,1,2.783,2.8v.92a2.432,2.432,0,0,1-2.437,2.437h-.86a2.432,2.432,0,0,1-2.437-2.437v-.92a2.8,2.8,0,0,1,2.8-2.8Z" transform="translate(-206.395 -148.883)" fill="#efcdb1"/>
              <path id="Path_981498" data-name="Path 981498" d="M205.214,151.186h-.86a3.151,3.151,0,0,1-3.154-3.154v-.92a3.518,3.518,0,0,1,3.512-3.512h.143a3.515,3.515,0,0,1,3.5,3.512v.92A3.164,3.164,0,0,1,205.214,151.186Zm-.5-6.152a2.08,2.08,0,0,0-2.079,2.079v.92a1.713,1.713,0,0,0,1.72,1.72h.86a1.726,1.726,0,0,0,1.708-1.72v-.92a2.06,2.06,0,0,0-2.055-2.079h-.155Z" transform="translate(-201.2 -143.6)" fill="#231f20"/>
            </g>
          </g>
        </g>
      </g>
    </g>
  </g>
</svg>
