<svg xmlns="http://www.w3.org/2000/svg" xmlns:xlink="http://www.w3.org/1999/xlink" width="108" height="108" viewBox="0 0 108 108">
  <defs>
    <filter id="Fondo" x="0" y="0" width="108" height="108" filterUnits="userSpaceOnUse">
      <feOffset dy="3" input="SourceAlpha"/>
      <feGaussianBlur stdDeviation="3" result="blur"/>
      <feFlood flood-opacity="0.161"/>
      <feComposite operator="in" in2="blur"/>
      <feComposite in="SourceGraphic"/>
    </filter>
  </defs>
  <g id="Group_1144968" data-name="Group 1144968" transform="translate(-6121.999 -703.168)">
    <g id="Group_1144593" data-name="Group 1144593">
      <g transform="matrix(1, 0, 0, 1, 6122, 703.17)" filter="url(#Fondo)">
        <g id="Fondo-2" data-name="Fondo" transform="translate(9 6)" fill="#f1fef9" stroke="#43896d" stroke-width="3">
          <circle cx="45" cy="45" r="45" stroke="none"/>
          <circle cx="45" cy="45" r="43.5" fill="none"/>
        </g>
      </g>
      <g id="Group_1144592" data-name="Group 1144592" transform="translate(6149.479 722.717)">
        <path id="Path_981148" data-name="Path 981148" d="M25.471,3.27a2.91,2.91,0,1,0,2.91,2.91,2.91,2.91,0,0,0-2.91-2.91Zm0,4.045A1.135,1.135,0,1,1,26.606,6.18a1.135,1.135,0,0,1-1.135,1.135Z" transform="translate(-1.819 -0.278)"/>
        <path id="Path_981149" data-name="Path 981149" d="M17.3,17.66H9.5A1.787,1.787,0,0,0,7.72,19.444V27.25A1.787,1.787,0,0,0,9.5,29.035h7.8a1.8,1.8,0,0,0,1.794-1.784V19.444A1.8,1.8,0,0,0,17.3,17.66Zm.018,9.59a.032.032,0,0,1-.018.009L9.5,27.25,9.5,19.435l7.815.009Z" transform="translate(-0.559 -1.499)"/>
        <path id="Path_981150" data-name="Path 981150" d="M16.621,22.34l-3.285,3.285a.874.874,0,0,1-.622.265.9.9,0,0,1-.631-.265l-1.446-1.446a.886.886,0,1,1,1.254-1.254l.824.824,2.654-2.663a.886.886,0,0,1,1.254,1.254Z" transform="translate(-0.784 -1.768)"/>
        <path id="Path_981151" data-name="Path 981151" d="M42,20.988a.888.888,0,0,1-.888.888H23.748a.888.888,0,0,1,0-1.775H41.116A.894.894,0,0,1,42,20.988Z" transform="translate(-1.844 -1.706)"/>
        <path id="Path_981152" data-name="Path 981152" d="M42,26.6a.894.894,0,0,1-.888.888H23.748a.888.888,0,0,1,0-1.775H41.116A.888.888,0,0,1,42,26.6Z" transform="translate(-1.844 -2.183)"/>
        <path id="Path_981153" data-name="Path 981153" d="M17.3,32.24H9.5A1.789,1.789,0,0,0,7.72,34.034v7.8A1.781,1.781,0,0,0,9.5,43.615h7.8a1.789,1.789,0,0,0,1.794-1.784v-7.8A1.8,1.8,0,0,0,17.3,32.24Zm.018,9.59c0,.009-.009.009-.018.009L9.5,41.83,9.5,34.015l7.815.018Z" transform="translate(-0.559 -2.737)"/>
        <path id="Path_981154" data-name="Path 981154" d="M16.621,36.93l-3.285,3.285a.865.865,0,0,1-.622.256.885.885,0,0,1-.631-.256l-1.446-1.446a.89.89,0,1,1,1.254-1.263l.824.824,2.654-2.654a.886.886,0,0,1,1.254,1.254Z" transform="translate(-0.784 -3.006)"/>
        <path id="Path_981155" data-name="Path 981155" d="M42,35.578a.894.894,0,0,1-.888.888H23.748a.888.888,0,0,1,0-1.775H41.116A.888.888,0,0,1,42,35.578Z" transform="translate(-1.844 -2.945)"/>
        <path id="Path_981156" data-name="Path 981156" d="M37.465,41.178a.888.888,0,0,1-.888.888H23.748a.888.888,0,0,1,0-1.775h12.83A.894.894,0,0,1,37.465,41.178Z" transform="translate(-1.844 -3.42)"/>
        <path id="Path_981157" data-name="Path 981157" d="M17.3,46.83H9.5A1.781,1.781,0,0,0,7.72,48.614v7.8A1.789,1.789,0,0,0,9.5,58.2h7.8a1.8,1.8,0,0,0,1.794-1.794v-7.8A1.789,1.789,0,0,0,17.3,46.83Zm.018,9.581a.02.02,0,0,1-.018.018L9.5,56.411,9.5,48.605l7.815.009Z" transform="translate(-0.559 -3.975)"/>
        <path id="Path_981158" data-name="Path 981158" d="M16.621,51.51l-3.285,3.285a.874.874,0,0,1-.622.265.9.9,0,0,1-.631-.265l-1.446-1.446A.886.886,0,0,1,11.89,52.1l.824.824,2.654-2.663a.886.886,0,0,1,1.254,1.254Z" transform="translate(-0.784 -4.244)"/>
        <path id="Path_981159" data-name="Path 981159" d="M34.18,50.158a.883.883,0,0,1-.888.888H23.748a.888.888,0,0,1,0-1.775h9.545A.888.888,0,0,1,34.18,50.158Z" transform="translate(-1.844 -4.183)"/>
        <path id="Path_981160" data-name="Path 981160" d="M42,55.768a.887.887,0,0,1-.888.879H23.748a.883.883,0,1,1,0-1.766H41.116A.888.888,0,0,1,42,55.768Z" transform="translate(-1.844 -4.659)"/>
        <path id="Path_981161" data-name="Path 981161" d="M55.8,26.419,57.209,25a1.4,1.4,0,0,0,.412-1A1.451,1.451,0,0,0,57.209,23l-1.775-1.766a1.405,1.405,0,0,0-1-.412,1.591,1.591,0,0,0-1,.412l-2.032,2.032a.009.009,0,0,1-.009.009c-.009.009-.009.009-.009.018l-5.207,5.216V11.411A2.574,2.574,0,0,0,43.6,8.849H37.607a5.843,5.843,0,0,0-5.591-4.136H29.179a5.6,5.6,0,0,0-11.055,0H15.288A5.84,5.84,0,0,0,9.705,8.849h-6A2.564,2.564,0,0,0,1.14,11.411V56A2.566,2.566,0,0,0,3.7,58.567H43.6A2.576,2.576,0,0,0,46.182,56V36.055l8.364-8.382.888.888-5.747,5.747a.892.892,0,0,0,.622,1.519.9.9,0,0,0,.631-.265l6.369-6.369a.884.884,0,0,0,0-1.254ZM11.224,10.551a4.066,4.066,0,0,1,4.063-4.063h3.66a.887.887,0,0,0,.879-.888,3.825,3.825,0,0,1,7.65,0,.894.894,0,0,0,.888.888h3.651a4.073,4.073,0,0,1,4.072,4.063v1.29H11.224ZM44.406,56a.8.8,0,0,1-.805.8H3.7a.8.8,0,0,1-.8-.8V11.411a.789.789,0,0,1,.8-.787H9.449v2.1a.888.888,0,0,0,.888.888H36.976a.888.888,0,0,0,.888-.888v-2.1H43.6a.791.791,0,0,1,.805.787v18.87l-2.1,2.1a.873.873,0,0,0-.247.586L34.99,40.054a1.448,1.448,0,0,0-.43,1.025,1.59,1.59,0,0,0,.046.357l-1.537,2.736a.89.89,0,0,0,1.208,1.208l2.736-1.528a1.687,1.687,0,0,0,.366.055,1.474,1.474,0,0,0,1.025-.43l6-6.012Zm-.384-20.654-6.644,6.653-.906-.915,6.635-6.653Zm1.437-1.071L44.2,33.008l1.72-1.73,6.113-6.122,1.263,1.263Zm9.087-9.105L53.283,23.9l1.153-1.162L55.7,24Z"/>
        <g id="Group_1144591" data-name="Group 1144591" transform="translate(11.224 1.775)">
          <path id="Path_981162" data-name="Path 981162" d="M60.536,26.113l-1.153,1.162L58.12,26.012l1.153-1.162Z" transform="translate(-16.062 -3.885)" fill="#fe9d30"/>
          <path id="Path_981163" data-name="Path 981163" d="M0,0H9.4V1.29H0Z" transform="translate(25.274 39.302) rotate(-45.04)" fill="#fe9d30"/>
          <path id="Path_981164" data-name="Path 981164" d="M57.286,28.753,49.453,36.6,48.19,35.342l1.72-1.73,6.113-6.122Z" transform="translate(-15.219 -4.109)" fill="#fe9d30"/>
          <path id="Path_981165" data-name="Path 981165" d="M32.951,6.653H29.3a.894.894,0,0,1-.888-.888,3.825,3.825,0,0,0-7.65,0,.887.887,0,0,1-.879.888h-3.66a4.066,4.066,0,0,0-4.063,4.063v1.29H37.023v-1.29A4.073,4.073,0,0,0,32.951,6.653ZM24.587,8.977a2.91,2.91,0,1,1,2.91-2.91A2.91,2.91,0,0,1,24.587,8.977Z" transform="translate(-12.16 -1.94)" fill="#fe9d30"/>
        </g>
        <path id="Path_981166" data-name="Path 981166" d="M42.227,33.948a.873.873,0,0,1,.247-.586l2.1-2.1V12.4a.791.791,0,0,0-.805-.787H38.027v2.1a.888.888,0,0,1-.888.888H10.5a.888.888,0,0,1-.888-.888v-2.1H3.866a.789.789,0,0,0-.8.787V56.981a.8.8,0,0,0,.8.8h39.9a.8.8,0,0,0,.805-.8V38.45l-6,6.012a1.474,1.474,0,0,1-1.025.43,1.687,1.687,0,0,1-.366-.055L34.44,46.366a.885.885,0,0,1-.43.11.89.89,0,0,1-.778-1.318l1.537-2.736a1.59,1.59,0,0,1-.046-.357,1.448,1.448,0,0,1,.43-1.025ZM22.068,19.379H39.436a.888.888,0,0,1,0,1.775H22.068a.888.888,0,0,1,0-1.775Zm0,5.134H39.436a.888.888,0,0,1,0,1.775H22.068a.888.888,0,0,1,0-1.775Zm0,8.218H39.436a.888.888,0,0,1,0,1.775H22.068a.888.888,0,0,1,0-1.775ZM18.7,53.421a1.8,1.8,0,0,1-1.794,1.794H9.11a1.789,1.789,0,0,1-1.784-1.794v-7.8A1.781,1.781,0,0,1,9.11,43.84h7.8A1.789,1.789,0,0,1,18.7,45.625Zm0-13.342a1.789,1.789,0,0,1-1.794,1.784H9.11a1.781,1.781,0,0,1-1.784-1.784v-7.8A1.789,1.789,0,0,1,9.11,30.489h7.8A1.8,1.8,0,0,1,18.7,32.282Zm0-13.342a1.8,1.8,0,0,1-1.794,1.784H9.11a1.787,1.787,0,0,1-1.784-1.784V18.931A1.787,1.787,0,0,1,9.11,17.146h7.8A1.8,1.8,0,0,1,18.7,18.931Zm20.736,24.47a.883.883,0,1,1,0,1.766H22.068a.883.883,0,1,1,0-1.766ZM21.18,46.961a.894.894,0,0,1,.888-.888h9.545a.888.888,0,0,1,0,1.775H22.068a.888.888,0,0,1-.888-.888Zm.888-7.33a.888.888,0,0,1,0-1.775H34.9a.888.888,0,0,1,0,1.775Z" transform="translate(-0.164 -0.986)" fill="#e4e4e6"/>
        <path id="Path_981167" data-name="Path 981167" d="M9.669,48.77,9.66,56.576l7.806.018a.02.02,0,0,0,.018-.018v-7.8Zm6.891,2.636-3.285,3.285a.874.874,0,0,1-.622.265.9.9,0,0,1-.631-.265l-1.446-1.446a.886.886,0,1,1,1.254-1.254l.824.824,2.654-2.663a.886.886,0,0,1,1.254,1.254Z" transform="translate(-0.723 -4.14)" fill="#5bba82"/>
        <path id="Path_981168" data-name="Path 981168" d="M9.669,34.18,9.66,42,17.466,42c.009,0,.018,0,.018-.009V34.2Zm6.891,2.645L13.275,40.11a.865.865,0,0,1-.622.256.885.885,0,0,1-.631-.256l-1.446-1.446A.89.89,0,0,1,11.829,37.4l.824.824,2.654-2.654a.886.886,0,1,1,1.254,1.254Z" transform="translate(-0.723 -2.902)" fill="#5bba82"/>
        <path id="Path_981169" data-name="Path 981169" d="M9.669,19.6,9.66,27.415l7.806.009a.032.032,0,0,0,.018-.009V19.609Zm6.891,2.636-3.285,3.285a.874.874,0,0,1-.622.265.9.9,0,0,1-.631-.265l-1.446-1.446a.886.886,0,0,1,1.254-1.254l.824.824,2.654-2.663a.886.886,0,1,1,1.254,1.254Z" transform="translate(-0.723 -1.664)" fill="#5bba82"/>
      </g>
    </g>
  </g>
</svg>
