<svg xmlns="http://www.w3.org/2000/svg" xmlns:xlink="http://www.w3.org/1999/xlink" width="108" height="108" viewBox="0 0 108 108">
  <defs>
    <filter id="Fondo" x="0" y="0" width="108" height="108" filterUnits="userSpaceOnUse">
      <feOffset dy="3" input="SourceAlpha"/>
      <feGaussianBlur stdDeviation="3" result="blur"/>
      <feFlood flood-opacity="0.161"/>
      <feComposite operator="in" in2="blur"/>
      <feComposite in="SourceGraphic"/>
    </filter>
  </defs>
  <g id="Group_1144951" data-name="Group 1144951" transform="translate(-1061.999 -6682.668)">
    <g id="Group_1144888" data-name="Group 1144888" transform="translate(0 29.5)">
      <g transform="matrix(1, 0, 0, 1, 1062, 6653.17)" filter="url(#Fondo)">
        <g id="Fondo-2" data-name="Fondo" transform="translate(9 6)" fill="#f1fef9" stroke="#43896d" stroke-width="3">
          <circle cx="45" cy="45" r="45" stroke="none"/>
          <circle cx="45" cy="45" r="43.5" fill="none"/>
        </g>
      </g>
      <g id="Group_1144887" data-name="Group 1144887" transform="translate(1086.702 6666.855)">
        <path id="Path_981511" data-name="Path 981511" d="M205.728,362.716a.8.8,0,0,0-.778-.595.833.833,0,0,0-.209.026.8.8,0,0,0-.568.987.806.806,0,0,0,.987.571.826.826,0,0,0,.489-.377A.808.808,0,0,0,205.728,362.716Z" transform="translate(-177.789 -312.356)" fill="#fade89"/>
        <path id="Path_981512" data-name="Path 981512" d="M43.974,49.653,42.94,50.686a.832.832,0,0,1-1.178-1.175L42.8,48.474l-1.037-1.034a.832.832,0,0,1,1.178-1.175L43.974,47.3l1.037-1.034a.831.831,0,1,1,1.175,1.175l-1.037,1.034,1.037,1.037a.831.831,0,1,1-1.175,1.175l-1.037-1.034Zm-1.85,17.629a2.468,2.468,0,1,1-1.275-4.769,2.468,2.468,0,1,1,1.275,4.769Zm-9.249-5.049a.907.907,0,0,1-.177.021.833.833,0,0,1-.174-1.646c4.121-.89,5.476-4,5.867-6.6l-.772.663a.831.831,0,1,1-1.084-1.261l2.283-1.965s.006,0,.009-.006a.131.131,0,0,1,.032-.024.209.209,0,0,1,.029-.024l.035-.024.032-.018c.012-.009.024-.012.035-.021s.024-.009.035-.015a.205.205,0,0,1,.038-.015c.012-.006.024-.009.035-.015s.026-.009.041-.012l.035-.009.041-.009a.5.5,0,0,1,.077-.009.226.226,0,0,1,.044,0h.035a.274.274,0,0,1,.047,0l.035,0,.041.006c.012,0,.027,0,.038.006l.035.012.041.009c.012.006.024.009.035.015s.026.009.038.015a.389.389,0,0,1,.05.024l.021.009a.8.8,0,0,1,.133.088c0,.006.009.009.012.012s.032.026.047.044l2.124,2.124A.831.831,0,1,1,40.9,54.784l-.822-.822a10.837,10.837,0,0,1-1.538,4.495,8.6,8.6,0,0,1-5.664,3.776Zm.118,4.736a.827.827,0,0,1,0,1.175.828.828,0,0,1-1.175,0L30.784,67.11l-1.037,1.034a.828.828,0,0,1-1.175,0,.832.832,0,0,1,0-1.175l1.037-1.034L28.572,64.9a.831.831,0,0,1,1.175-1.175l1.037,1.037,1.034-1.037A.831.831,0,1,1,32.993,64.9l-1.034,1.037ZM27.4,47.293a2.512,2.512,0,0,1,.633-1.673c-.094-.727-.327-1.166-1.39-2.191a7.028,7.028,0,0,1-2.177-5.113,7.1,7.1,0,1,1,12.02,5.113c-1.063,1.025-1.3,1.464-1.393,2.191a2.529,2.529,0,0,1-.513,3.791,2.487,2.487,0,0,1,.05.492,2.538,2.538,0,0,1-2.536,2.536H31.031A2.538,2.538,0,0,1,28.5,49.9a2.487,2.487,0,0,1,.05-.492A2.535,2.535,0,0,1,27.4,47.293ZM52.581,66.954c1.308-.99,2.548-1.929,2.775-2.86a2.23,2.23,0,0,0-2.032-.48l-4,1.9a.827.827,0,0,1-1.022-.253l-3.031-4.053a.832.832,0,0,1,.1-1.1,12.566,12.566,0,0,1,1.811-1.381,9.711,9.711,0,0,0,1.552-1.2,6.224,6.224,0,0,1,4.339-5.576V47.823A.832.832,0,0,1,53.788,47c.106-.015.212-.024.318-.032V38.907H45.564a.832.832,0,0,1-.831-.834V29.532H21.727v42.58h26.6c.436-2.262,2.507-3.835,4.25-5.158Z" transform="translate(-14.327 -14.326)" fill="#3fd8d8"/>
        <path id="Path_981513" data-name="Path 981513" d="M283.114,466.808l0,0H266.978a1.392,1.392,0,0,0-1.387,1.39v1.387h19.693V468.2a1.392,1.392,0,0,0-1.387-1.39h-.781Z" transform="translate(-232.851 -406.162)" fill="#b9c1c9"/>
        <path id="Path_981514" data-name="Path 981514" d="M67.885,73.638h.8v-4.2a2.342,2.342,0,0,1-1.976-2.156.831.831,0,1,1,1.661,0c0,.236.457.592,1.146.592s1.143-.356,1.143-.592a.831.831,0,1,1,1.661,0,2.343,2.343,0,0,1-1.973,2.156v4.2h1.181a5.529,5.529,0,0,1,1.755-2.524,5.436,5.436,0,1,0-7.538,0A5.537,5.537,0,0,1,67.5,73.638h.383Z" transform="translate(-52.276 -43.207)" fill="#fade89"/>
        <path id="Path_981515" data-name="Path 981515" d="M96.464,192.042H93.209a.873.873,0,0,0,0,1.747h3.255a.873.873,0,1,0,0-1.747Z" transform="translate(-77.6 -159.949)" fill="#bac1c9"/>
        <path id="Path_981516" data-name="Path 981516" d="M386.737,242.741h1.885c.13-6.71-3.785-12.02-9.673-13.281a4.648,4.648,0,0,1,.079,2.177,12.486,12.486,0,0,1,7.113,7.4A9.715,9.715,0,0,1,386.737,242.741Z" transform="translate(-334.43 -193.479)" fill="#b9c1c9"/>
        <path id="Path_981517" data-name="Path 981517" d="M259.128,40.842v6.536h6.536Z" transform="translate(-227.059 -24.461)" fill="#33ccc4"/>
        <path id="Path_981518" data-name="Path 981518" d="M102.886,224.839c0,.027,0,.05,0,.077a.874.874,0,0,0,.872.872h1.063a.874.874,0,0,0,.875-.872.654.654,0,0,0-.006-.077h-2.8Z" transform="translate(-87.05 -189.339)" fill="#aab1b9"/>
        <path id="Path_981519" data-name="Path 981519" d="M273.778,221.588a.83.83,0,0,1-.831.831h-.424a.832.832,0,0,1,0-1.664h.424A.832.832,0,0,1,273.778,221.588Zm-4.839,1.037a.829.829,0,0,1-.227.571,10.559,10.559,0,0,1-2.062,1.661c-.35.233-.686.454-1.031.728l2.156,2.887,3.449-1.638a.775.775,0,0,1,.124-.047,3.887,3.887,0,0,1,4.035,1.2l.018.018s0,.006.006.009a.192.192,0,0,1,.029.038l.012.012a2.169,2.169,0,0,0,3.529,0,.831.831,0,1,1,1.349.972,3.828,3.828,0,0,1-5.122,1.025,10.865,10.865,0,0,1-3.066,2.975c-2.153,1.629-3.644,2.907-3.676,4.651v.024a2.882,2.882,0,0,0,.015.353h13.638a13.363,13.363,0,0,1,.68-6.074c.6-2.141,1.169-4.165.23-6.783a10.831,10.831,0,0,0-6.833-6.666.838.838,0,0,1-.507-1.107,2.933,2.933,0,0,0-2.4-4.041v3.959a.83.83,0,0,1-.672.816,4.549,4.549,0,0,0-3.673,4.462Z" transform="translate(-232.876 -179.077)" fill="#ecf4f7"/>
        <g id="Group_1144886" data-name="Group 1144886" transform="translate(5.739 13.545)">
          <path id="Path_981520" data-name="Path 981520" d="M191.3,348.981a.825.825,0,0,1-.489.377.806.806,0,0,1-.987-.571.8.8,0,0,1,.568-.987.831.831,0,0,1,.209-.026.8.8,0,0,1,.778.595A.808.808,0,0,1,191.3,348.981Zm1.685-1.043a2.468,2.468,0,0,0-4.769,1.278,2.469,2.469,0,1,0,4.769-1.278Z" transform="translate(-169.184 -311.552)" fill="#030403"/>
          <path id="Path_981521" data-name="Path 981521" d="M89.93,356.482a.832.832,0,0,0-1.175,0l-1.034,1.037-1.037-1.037a.831.831,0,0,0-1.175,1.175l1.037,1.037-1.037,1.034a.832.832,0,0,0,0,1.175.828.828,0,0,0,1.175,0l1.037-1.034,1.034,1.034a.831.831,0,1,0,1.175-1.175L88.9,358.695l1.034-1.037A.827.827,0,0,0,89.93,356.482Z" transform="translate(-77.002 -320.63)" fill="#030403"/>
          <path id="Path_981522" data-name="Path 981522" d="M128.369,241.987a.831.831,0,0,0,1.175-1.175l-2.124-2.124c-.015-.018-.032-.029-.047-.044s-.009-.006-.012-.012a.792.792,0,0,0-.133-.088l-.021-.009a.386.386,0,0,0-.05-.024c-.012-.006-.024-.009-.038-.015s-.024-.009-.035-.015l-.041-.009c-.012,0-.024-.009-.035-.012s-.026,0-.038-.006l-.041-.006-.035,0a.271.271,0,0,0-.047,0h-.035a.224.224,0,0,0-.044,0,.17.17,0,0,1-.038,0,.175.175,0,0,1-.038.006l-.041.009-.035.009c-.015,0-.029.009-.041.012s-.024.009-.035.015a.2.2,0,0,0-.038.015c-.012.006-.024.009-.035.015s-.024.012-.035.021l-.032.018-.035.024a.212.212,0,0,0-.029.024.133.133,0,0,0-.032.024s-.006.006-.009.006l-2.283,1.965a.831.831,0,0,0,1.084,1.261l.772-.663c-.392,2.6-1.747,5.714-5.867,6.6a.833.833,0,0,0,.174,1.646.907.907,0,0,0,.177-.021,8.6,8.6,0,0,0,5.664-3.776,10.836,10.836,0,0,0,1.538-4.495Z" transform="translate(-107.535 -215.075)" fill="#030403"/>
          <path id="Path_981523" data-name="Path 981523" d="M51.417,56.763a5.436,5.436,0,1,1,7.538,0A5.529,5.529,0,0,0,57.2,59.287H56.018v-4.2a2.342,2.342,0,0,0,1.973-2.156.831.831,0,1,0-1.661,0c0,.236-.457.592-1.143.592s-1.146-.356-1.146-.592a.831.831,0,1,0-1.661,0,2.343,2.343,0,0,0,1.976,2.156v4.2H53.176a5.537,5.537,0,0,0-1.758-2.524Zm5.4,5.932H53.559a.873.873,0,0,1,0-1.747h3.255a.873.873,0,1,1,0,1.747Zm-1.1,2.61H54.654a.874.874,0,0,1-.872-.872c0-.026,0-.05,0-.077h2.8a.678.678,0,0,1,.006.077.874.874,0,0,1-.875.872Zm-3.6-.872a2.538,2.538,0,0,0,2.536,2.536h1.063a2.538,2.538,0,0,0,2.536-2.536,2.487,2.487,0,0,0-.05-.492,2.529,2.529,0,0,0,.513-3.791c.1-.727.33-1.166,1.393-2.191a7.1,7.1,0,1,0-9.844,0c1.063,1.025,1.3,1.464,1.39,2.191a2.529,2.529,0,0,0,.513,3.791,2.487,2.487,0,0,0-.05.492Z" transform="translate(-43.688 -42.401)" fill="#030403"/>
          <path id="Path_981524" data-name="Path 981524" d="M44.6,38.157a4.649,4.649,0,0,0-.079-2.177c5.888,1.261,9.8,6.571,9.673,13.281H52.307a9.714,9.714,0,0,0-.595-3.7,12.486,12.486,0,0,0-7.113-7.4Zm6.448,22.486a1.392,1.392,0,0,1,1.387,1.39v1.387H32.74V62.033a1.392,1.392,0,0,1,1.387-1.39H50.26l0,0,0,0ZM7.4,57.786V15.206H30.407v8.542a.832.832,0,0,0,.831.834H39.78V32.64c-.106.009-.212.018-.318.032a.832.832,0,0,0-.716.825v4.127A6.224,6.224,0,0,0,34.407,43.2a9.713,9.713,0,0,1-1.552,1.2,12.568,12.568,0,0,0-1.811,1.381.832.832,0,0,0-.1,1.1l3.031,4.053A.827.827,0,0,0,35,51.188l4-1.9a2.23,2.23,0,0,1,2.032.48c-.227.931-1.467,1.87-2.775,2.86-1.744,1.323-3.814,2.9-4.25,5.158H7.4Zm24.668-41.4L38.6,22.917H32.069Zm8.339,21.888V34.31a2.933,2.933,0,0,1,2.4,4.041.838.838,0,0,0,.507,1.107,10.831,10.831,0,0,1,6.834,6.666c.94,2.619.371,4.642-.23,6.783a13.363,13.363,0,0,0-.68,6.074H35.6a2.9,2.9,0,0,1-.015-.353V58.6c.032-1.744,1.523-3.022,3.676-4.651a10.865,10.865,0,0,0,3.066-2.975,3.828,3.828,0,0,0,5.122-1.025.831.831,0,1,0-1.349-.972,2.169,2.169,0,0,1-3.529,0l-.012-.012a.188.188,0,0,0-.029-.038s-.006-.006-.006-.009l-.018-.018a3.887,3.887,0,0,0-4.035-1.2.78.78,0,0,0-.124.047L34.9,49.394l-2.156-2.887c.345-.274.68-.495,1.031-.728a10.566,10.566,0,0,0,2.062-1.661.829.829,0,0,0,.227-.571,4.549,4.549,0,0,1,3.673-4.462.83.83,0,0,0,.672-.816ZM52.118,50.926H54.99a.831.831,0,0,0,.828-.778,16.056,16.056,0,0,0-3.04-10.78,13.4,13.4,0,0,0-9.287-5.234,4.609,4.609,0,0,0-2.047-1.3V23.748a.759.759,0,0,0-.006-.083.2.2,0,0,0-.009-.059.05.05,0,0,0,0-.021.307.307,0,0,0-.018-.071.011.011,0,0,0,0-.009.464.464,0,0,0-.024-.068.011.011,0,0,0,0-.009.577.577,0,0,0-.03-.062.022.022,0,0,0-.006-.012.5.5,0,0,0-.032-.053.066.066,0,0,0-.009-.015c-.012-.018-.024-.032-.035-.047a.052.052,0,0,0-.015-.021.356.356,0,0,0-.044-.05l-.009-.009-9.375-9.376-.009-.009c-.015-.015-.032-.029-.05-.044a.093.093,0,0,0-.021-.015l-.044-.035-.018-.009a.5.5,0,0,0-.053-.032s-.009,0-.012-.006a.618.618,0,0,0-.062-.03l-.009,0a.459.459,0,0,0-.068-.024.011.011,0,0,0-.009,0L31.4,13.56a.051.051,0,0,0-.021,0l-.059-.009a.782.782,0,0,0-.083,0H6.57a.83.83,0,0,0-.831.831V58.617a.83.83,0,0,0,.831.831H32.51a3.052,3.052,0,0,0-1.431,2.586v2.218a.83.83,0,0,0,.831.831H53.264a.83.83,0,0,0,.831-.831V62.033a3.055,3.055,0,0,0-3.049-3.052h-.121a11.584,11.584,0,0,1,.592-5.623c.221-.792.448-1.6.6-2.433Z" transform="translate(-5.739 -13.545)" fill="#030403"/>
          <path id="Path_981525" data-name="Path 981525" d="M324.07,285.116a.832.832,0,0,0,.831.831h.424a.832.832,0,0,0,0-1.664H324.9A.834.834,0,0,0,324.07,285.116Z" transform="translate(-290.992 -256.15)" fill="#030403"/>
          <path id="Path_981526" data-name="Path 981526" d="M216.868,192.894a.832.832,0,0,0,0-1.175l-1.037-1.037,1.037-1.034a.831.831,0,0,0-1.175-1.175l-1.037,1.034-1.034-1.034a.832.832,0,1,0-1.178,1.175l1.037,1.034-1.037,1.037a.832.832,0,1,0,1.178,1.175l1.034-1.034,1.037,1.034a.828.828,0,0,0,1.175,0Z" transform="translate(-190.747 -170.078)" fill="#030403"/>
        </g>
      </g>
    </g>
  </g>
</svg>
